<svg width="215" height="215" viewBox="0 0 215 215" fill="none" xmlns="http://www.w3.org/2000/svg">
<g clip-path="url(#clip0_96_368)">
<path d="M95.3333 11.9167C95.3333 11.9167 95.3333 0 107.25 0C119.167 0 119.167 11.9167 119.167 11.9167V23.8333C119.167 23.8333 119.167 35.75 107.25 35.75C95.3333 35.75 95.3333 23.8333 95.3333 23.8333V11.9167ZM202.583 95.3333C202.583 95.3333 214.5 95.3333 214.5 107.25C214.5 119.167 202.583 119.167 202.583 119.167H190.667C190.667 119.167 178.75 119.167 178.75 107.25C178.75 95.3333 190.667 95.3333 190.667 95.3333H202.583ZM23.8333 95.3333C23.8333 95.3333 35.75 95.3333 35.75 107.25C35.75 119.167 23.8333 119.167 23.8333 119.167H11.9167C11.9167 119.167 0 119.167 0 107.25C0 95.3333 11.9167 95.3333 11.9167 95.3333H23.8333ZM54.346 43.4541C54.346 43.4541 62.771 51.8792 54.346 60.3043C45.9209 68.7294 37.4958 60.3043 37.4958 60.3043L29.0647 51.8852C29.0647 51.8852 20.6397 43.4601 29.0647 35.029C37.4958 26.604 45.9209 35.029 45.9209 35.029L54.346 43.4541ZM179.471 168.579C179.471 168.579 187.896 177.004 179.471 185.429C171.046 193.854 162.621 185.429 162.621 185.429L154.196 177.004C154.196 177.004 145.771 168.579 154.196 160.154C162.621 151.729 171.046 160.154 171.046 160.154L179.471 168.579ZM177.01 60.3043C177.01 60.3043 168.585 68.7294 160.16 60.3043C151.735 51.8792 160.16 43.4541 160.16 43.4541L168.585 35.029C168.585 35.029 177.01 26.604 185.435 35.029C193.86 43.4541 185.435 51.8792 185.435 51.8792L177.01 60.3043ZM51.8852 185.429C51.8852 185.429 43.4601 193.854 35.035 185.429C26.6099 177.004 35.035 168.579 35.035 168.579L43.4601 160.154C43.4601 160.154 51.8852 151.729 60.3103 160.154C68.7353 168.579 60.3103 177.004 60.3103 177.004L51.8852 185.429ZM95.3333 190.667C95.3333 190.667 95.3333 178.75 107.25 178.75C119.167 178.75 119.167 190.667 119.167 190.667V202.583C119.167 202.583 119.167 214.5 107.25 214.5C95.3333 214.5 95.3333 202.583 95.3333 202.583V190.667Z" fill="#FFAC33"/>
<path d="M107.25 166.833C140.157 166.833 166.833 140.157 166.833 107.25C166.833 74.3431 140.157 47.6667 107.25 47.6667C74.3429 47.6667 47.6665 74.3431 47.6665 107.25C47.6665 140.157 74.3429 166.833 107.25 166.833Z" fill="#FFAC33"/>
</g>
<defs>
<clipPath id="clip0_96_368">
<rect width="214.5" height="214.5" fill="white"/>
</clipPath>
</defs>
</svg>
