<svg width="302" height="284" viewBox="0 0 302 284" fill="none" xmlns="http://www.w3.org/2000/svg">
<g clip-path="url(#clip0_96_337)">
<path d="M133 230.75C133 235.658 136.967 239.625 141.875 239.625C146.774 239.625 150.75 235.658 150.75 230.75V8.875C150.75 3.976 146.774 0 141.875 0C136.967 0 133 3.976 133 8.875V230.75Z" fill="#A7A9AC"/>
<path d="M283.875 213H8.75V284H204C257.25 284 283.875 213 283.875 213Z" fill="#D1D3D4"/>
<path d="M266.125 195.25C266.125 195.25 248.375 150.875 221.75 115.375C195.125 79.875 150.75 44.375 150.75 44.375C150.75 44.375 159.625 142 159.625 186.375V195.25C159.625 195.25 186.25 186.375 212.875 186.375C239.5 186.375 266.125 195.25 266.125 195.25Z" fill="#FFAC33"/>
<path d="M133 17.75C133 17.75 79.75 71 53.125 115.375C28.5324 156.36 17.625 195.25 17.625 195.25C17.625 195.25 44.25 186.375 70.875 186.375C97.5 186.375 124.125 195.25 124.125 195.25V186.375C124.125 106.5 133 17.75 133 17.75Z" fill="#F4900C"/>
<path d="M292.75 213C297.649 213 301.625 216.967 301.625 221.875C301.625 226.783 297.649 230.75 292.75 230.75H-0.124968V213H292.75Z" fill="#E6E7E8"/>
</g>
<defs>
<clipPath id="clip0_96_337">
<rect width="302" height="284" fill="white" transform="matrix(-1 0 0 1 302 0)"/>
</clipPath>
</defs>
</svg>
