<svg width="248" height="233" viewBox="0 0 248 233" fill="none" xmlns="http://www.w3.org/2000/svg">
<g clip-path="url(#clip0_96_345)">
<path d="M131.461 229.555L84.3889 69.6781C84.3889 69.6781 74.6067 74.9205 66.4502 80.9552C64.294 82.5465 52.8309 100.175 50.5231 101.897C38.3849 110.956 26.0538 121.469 24.4004 123.715C21.2384 128.013 0 233 0 233L131.461 229.555Z" fill="#292F33"/>
<path d="M182.555 90.0555L132.184 26.5951L124 0.5L86.9858 45.1676L80.2967 53.2413C77.4998 58.6284 68.8887 90.0555 68.8887 90.0555L60.2776 122.778L22.4025 192.039L6.31689 224.671L220.444 226.111L182.555 90.0555Z" fill="#4B545D"/>
<path d="M82.6669 219.222H96.4447L110.222 110.722L118.723 98.343L143.372 62.2865L144.019 52.1667L121.376 82.8499L103.334 107.292L86.8829 158.008L82.6669 171L70.3289 192.59L55.1113 219.222H82.6669ZM165.74 97.8676L152.203 138.491L144.667 164.111L163.901 216.639L188.37 216.212C188.37 216.212 158.445 168.417 158.445 164.111C158.445 163.285 162.75 145.601 162.75 145.601L170.287 114.387L172.222 103.833L165.74 97.8676V97.8676Z" fill="#292F33"/>
<path d="M248 233C248 233 245.355 206.512 242.117 184.206C242.117 184.206 241.111 157.443 233.361 148.611C226.135 140.379 215.285 135.694 213.845 135.095L205.378 110.826L192.565 74.5556L175.88 59.9167L163.177 48.7153L159.698 44.4373L124 0.5L139.769 50.782L143.378 62.2864L165.74 97.8676L170.286 114.38L180.193 130.094L185.525 148.701L192.889 174.444L179.111 219.222L248 233Z" fill="#292F33"/>
<path d="M232.211 208.462C222.945 208.462 198.056 212.333 194.611 212.333C180.833 212.333 165.333 200.278 158.444 200.278C151.556 200.278 133.686 212.333 119.908 212.333C108.28 212.333 103.333 206.739 87.3993 206.739C82.2464 206.739 59.1824 212.74 54.25 212.12C41.6916 210.549 35.2367 205.444 32.0747 205.444C13.7778 205.444 0 233 0 233H248C248 233 241.972 208.462 232.211 208.462Z" fill="#5C903F"/>
</g>
<defs>
<clipPath id="clip0_96_345">
<rect width="248" height="233" fill="white"/>
</clipPath>
</defs>
</svg>
