<svg width="167" height="188" viewBox="0 0 167 188" fill="none" xmlns="http://www.w3.org/2000/svg">
<path d="M158.227 127.466L119.313 145.616L131.516 152.661C115.249 168.469 91.1614 173.91 69.5096 166.212L112.767 91.2866L126.985 99.495C132.217 102.516 138.914 100.721 141.935 95.489C144.956 90.2571 143.161 83.5593 137.929 80.5386L123.712 72.3303L127.403 65.9373L108.447 54.9928L104.756 61.3859L90.5383 53.1775C85.3064 50.1569 78.6086 51.9515 75.5879 57.1835C72.5673 62.4154 74.3619 69.1132 79.5939 72.1339L93.8111 80.3422L50.5532 155.267C33.0603 140.365 25.7254 116.789 31.2846 94.7927L43.4878 101.838L39.7496 59.0629L0.836004 77.2132L16.6172 86.3244C5.92599 119.891 19.5466 157.522 51.3032 175.857C83.0598 194.192 122.46 187.172 146.184 161.13L161.965 170.241L158.227 127.466Z" fill="#226699"/>
<path d="M149.804 5.24998C134.098 -3.81749 114.02 1.56249 104.952 17.2678C95.885 32.9731 101.265 53.0515 116.97 62.119C132.676 71.1864 152.754 65.8065 161.821 50.1011C170.889 34.3958 165.509 14.3174 149.804 5.24998ZM125.179 47.9017C117.326 43.368 114.636 33.3288 119.17 25.4761C123.703 17.6235 133.743 14.9335 141.595 19.4672C149.448 24.001 152.138 34.0401 147.604 41.8928C143.07 49.7455 133.031 52.4355 125.179 47.9017Z" fill="#226699"/>
</svg>
