<svg width="223" height="236" viewBox="0 0 223 236" fill="none" xmlns="http://www.w3.org/2000/svg">
<g clip-path="url(#clip0_96_328)">
<path d="M213.877 216.413C213.877 228.668 194.884 236.031 103.854 236.031C20.8546 236.031 0.440918 228.668 0.440918 216.413C0.440918 204.159 43.6159 194.224 103.854 194.224C164.093 194.224 213.877 204.159 213.877 216.413V216.413Z" fill="#88C9F9"/>
<path d="M10.1807 214.229C10.1807 206.646 17.7779 176.313 93.7501 176.313C184.917 176.313 207.708 206.646 207.708 214.229C207.708 221.813 207.708 229.396 101.347 229.396C10.1807 229.396 10.1807 221.813 10.1807 214.229Z" fill="#F4900C"/>
<path d="M161.738 109.708C161.442 105.348 160.993 101.131 160.393 97.1047C159.671 92.2817 158.767 87.7393 157.757 83.4774C156.83 79.5569 155.82 75.9017 154.779 72.5423C153.221 67.4918 151.611 63.1162 150.152 59.5293C147.288 52.4844 145.032 48.4576 145.032 48.4576L125.408 50.9829C125.408 50.9829 127.672 55.6997 130.126 64.9438C131.121 68.6975 132.139 73.2096 133.058 78.4724C133.522 81.1342 133.955 83.9628 134.35 87.0037C134.897 91.2352 135.345 95.8534 135.664 100.828C135.847 103.634 135.976 106.561 136.067 109.61C136.097 110.717 136.15 111.786 136.166 112.924C136.219 116.48 135.968 120.097 135.527 123.707C135.125 126.96 134.54 130.198 133.833 133.406C132.823 138.002 131.584 142.521 130.194 146.829C129.062 150.317 127.854 153.661 126.639 156.808C124.77 161.639 122.893 165.977 121.267 169.601C118.548 175.653 116.542 179.687 116.542 180.529C116.542 183.191 118.441 188.165 131.736 191.479C152.522 196.666 154.528 188.112 154.528 188.112C154.528 188.112 155.85 184.108 157.385 176.229C158.144 172.339 158.95 167.531 159.687 161.707C160.127 158.226 160.538 154.397 160.887 150.234C161.259 145.896 161.563 141.194 161.783 136.106C161.943 132.253 162.042 128.136 162.08 123.859C162.095 122.524 162.125 121.235 162.125 119.862C162.125 116.382 161.966 113.015 161.738 109.708V109.708Z" fill="#C1694F"/>
<path d="M141.795 161.995C134.174 160.668 129.312 158.454 126.646 156.793C124.777 161.624 122.9 165.961 121.274 169.586C126.251 172.286 132.571 174.439 139.424 175.622C143.382 176.313 147.31 176.654 150.995 176.654C153.244 176.654 155.356 176.479 157.384 176.222C158.144 172.331 158.949 167.523 159.686 161.699C157.27 162.556 151.276 163.648 141.795 161.995V161.995ZM147.553 136.652C141.612 136.068 137.046 134.763 133.84 133.391C132.83 137.986 131.591 142.506 130.201 146.813C134.896 148.58 140.419 149.854 146.201 150.423C148.533 150.651 150.843 150.764 153.099 150.764C155.827 150.764 158.417 150.552 160.894 150.226C161.266 145.888 161.57 141.187 161.79 136.098C158.372 136.841 153.585 137.251 147.553 136.652V136.652ZM149.232 125.095C153.699 125.095 158.083 124.647 162.087 123.859C162.094 122.524 162.125 121.235 162.125 119.862C162.125 116.389 161.965 113.022 161.737 109.708C158.865 110.459 154.755 111.179 148.959 111.263C143.071 111.24 138.93 110.421 136.059 109.602C136.089 110.709 136.142 111.778 136.157 112.916C136.211 116.472 135.96 120.09 135.519 123.699C139.66 124.571 144.241 125.072 148.89 125.095H149.232V125.095ZM147.88 100.274C152.362 99.6299 156.518 98.4696 160.4 97.1046C159.678 92.2816 158.774 87.7392 157.764 83.4774C155.074 84.5846 151.253 85.813 145.912 86.579C140.966 87.2918 137.198 87.2463 134.349 86.9961C134.896 91.2276 135.344 95.8458 135.664 100.82C136.492 100.851 137.236 100.98 138.087 100.98C141.278 100.98 144.598 100.745 147.88 100.274V100.274ZM154.786 72.5346C153.221 67.4917 151.61 63.1161 150.151 59.5292C147.743 60.735 144.697 62.0014 140.716 63.101C136.4 64.2991 132.913 64.7769 130.118 64.9437C131.113 68.6975 132.131 73.2095 133.05 78.4724C136.75 78.1008 140.564 77.5017 144.423 76.4325C148.115 75.4087 151.542 74.0361 154.786 72.5346V72.5346Z" fill="#D99E82"/>
<path d="M219.476 22.3178C219.233 21.9993 195.15 -10.1616 163.918 3.94338C149.886 10.2755 140.838 20.6267 137.563 33.9961C131.455 25.4649 122.171 20.0504 109.879 17.8664C76.2916 11.8907 55.9994 49.1325 55.8019 49.504C55.5056 50.05 55.6348 50.7174 56.0982 51.1269C56.5692 51.5288 57.2454 51.5591 57.7468 51.2027C57.8987 51.089 73.2223 40.3813 98.7414 44.9237C124.823 49.5571 143.109 54.1071 143.292 54.1526C143.405 54.1754 143.504 54.1905 143.618 54.1905C143.983 54.1905 144.34 54.0389 144.598 53.7659C144.765 53.5839 162.095 34.9971 178.026 27.8081C201.608 17.1611 217.691 24.2288 217.835 24.3046C218.382 24.5549 219.036 24.4032 219.423 23.933C219.811 23.4705 219.834 22.8107 219.476 22.3178V22.3178Z" fill="#3E721D"/>
<path d="M193.494 40.9576C169.684 28.4072 151.177 34.6558 139.683 42.2771C125.909 39.6153 100.17 39.5698 78.358 67.4841C51.5778 101.746 75.0684 144.47 75.3039 144.902C75.5394 145.327 75.9876 145.577 76.4663 145.577L76.6258 145.57C77.1652 145.501 77.6058 145.115 77.7426 144.599C77.8262 144.303 86.0768 114.516 106.939 89.4682C118.342 75.7802 131.956 63.1237 141.536 54.7896C151.185 56.3897 165.361 59.9311 179.287 67.6964C206.432 82.8479 218.884 108.487 219.005 108.745C219.248 109.245 219.773 109.594 220.35 109.496C220.912 109.435 221.376 109.026 221.497 108.48C221.604 108.002 232.073 61.2961 193.494 40.9576V40.9576Z" fill="#5C913B"/>
</g>
<defs>
<clipPath id="clip0_96_328">
<rect width="223" height="236" fill="white"/>
</clipPath>
</defs>
</svg>
