<svg width="224" height="224" viewBox="0 0 224 224" fill="none" xmlns="http://www.w3.org/2000/svg">
<g clip-path="url(#clip0_96_362)">
<path d="M224 93.3333C224 67.48 204.282 46.2436 179.069 43.8044C173.5 18.7476 151.181 0 124.444 0C93.5138 0 68.4444 22.1511 68.4444 53.0818C68.4444 60.2747 70 71.1636 75.4196 76.6329C55.1227 77.7778 25.4738 78.4 0 74.76C0 74.76 29.9662 98.5973 95.5547 99.5556C94.6151 101.503 93.9742 108.453 93.6507 110.668C92.1013 110.687 89.9484 110.724 87.1111 110.724C37.3333 110.724 0 105.778 0 105.778C0 105.778 18.6667 125.9 95.8596 131.326C93.3333 132.123 93.3333 143.111 93.3333 143.111C43.5556 143.111 0 136.889 0 136.889C20.9191 154.324 41.8382 161.983 56.1867 165.349C56.1182 166.233 56 167.098 56 168C56 188.614 72.7129 199.111 93.3333 199.111C96.3636 199.111 99.2942 198.713 102.119 198.028C112.056 213.628 129.466 224 149.333 224C180.264 224 205.333 198.931 205.333 168C205.333 156.875 202.054 146.54 196.454 137.816C212.769 129.652 224 112.821 224 93.3333Z" fill="#BDDDF4"/>
</g>
<defs>
<clipPath id="clip0_96_362">
<rect width="224" height="224" fill="white"/>
</clipPath>
</defs>
</svg>
