<svg width="179" height="426" viewBox="0 0 179 426" fill="none" xmlns="http://www.w3.org/2000/svg">
<g clip-path="url(#clip0_133_82)">
<rect x="28" y="23" width="150" height="50" rx="2" stroke="#77839A" stroke-width="2"/>
<rect x="28" y="145" width="150" height="50" rx="2" stroke="#77839A" stroke-width="2"/>
<rect x="28" y="83" width="150" height="24" rx="2" stroke="#77839A" stroke-width="2"/>
<rect x="28" y="293" width="150" height="24" rx="2" stroke="#77839A" stroke-width="2"/>
<rect x="28" y="399" width="150" height="24" rx="2" stroke="#77839A" stroke-width="2"/>
<rect x="28" y="205" width="150" height="50" rx="2" stroke="#77839A" stroke-width="2"/>
<rect x="28" y="327" width="96" height="56" rx="2" fill="#0C162C" stroke="#77839A" stroke-width="2"/>
<rect x="26" width="94" height="8" rx="3" fill="#DFE4EC"/>
<rect x="26" y="122" width="94" height="8" rx="3" fill="#DFE4EC"/>
<rect x="26" y="270" width="94" height="8" rx="3" fill="#DFE4EC"/>
<path d="M10.653 43L9.51902 39.814H4.47902L3.34502 43H1.18502L5.97302 30.4H8.02502L12.813 43H10.653ZM5.12702 37.978H8.87102L6.99902 32.704L5.12702 37.978Z" fill="#DFE4EC"/>
<path d="M2.27156 165V152.4H7.05956C10.5876 152.4 13.3056 154.668 13.3056 158.7C13.3056 162.732 10.5876 165 7.05956 165H2.27156ZM4.30556 163.164H7.05956C9.34556 163.146 11.1816 161.652 11.1816 158.7C11.1816 155.73 9.34556 154.29 7.05956 154.236H4.30556V163.164Z" fill="#DFE4EC"/>
<path d="M7.2411 136.288C3.4791 136.288 0.923102 133.678 0.923102 129.682C0.923102 125.812 3.2991 123.112 7.2411 123.112C10.8951 123.112 12.9111 125.434 13.1991 128.224H11.0751C10.9311 126.442 9.5991 124.876 7.2411 124.876C4.6491 124.876 3.0471 126.874 3.0471 129.682C3.0471 132.652 4.8831 134.524 7.2411 134.524C9.5631 134.524 10.8771 132.814 11.0751 131.41H13.1991C12.8391 134.002 10.7871 136.288 7.2411 136.288Z" fill="#DFE4EC"/>
<path d="M10.049 96.214C11.363 96.7 12.299 97.69 12.299 99.184C12.299 101.686 10.409 103 8.14096 103H2.25496V90.4H7.72696C9.72496 90.4 11.399 91.588 11.399 93.802C11.399 94.918 10.859 95.728 10.049 96.214ZM7.25896 92.236H4.28896V95.44H7.36696C8.50096 95.44 9.27496 94.756 9.27496 93.802C9.27496 92.884 8.46496 92.236 7.25896 92.236ZM7.67296 101.164C9.16696 101.164 10.175 100.408 10.175 99.184C10.175 97.996 9.13096 97.276 7.72696 97.276H4.28896V101.164H7.67296Z" fill="#DFE4EC"/>
<path d="M7.35445 311.164H12.3225V313H7.35445C4.49245 313 2.92645 311.542 2.92645 309.418C2.92645 308.212 3.57445 307.24 4.78045 306.7C3.57445 306.16 2.92645 305.188 2.92645 303.982C2.92645 301.858 4.49245 300.4 7.35445 300.4H12.1785V302.236H7.35445C5.82445 302.236 4.96045 302.884 4.96045 303.982C4.96045 305.116 5.82445 305.8 7.35445 305.8H11.9265V307.6H7.35445C5.82445 307.6 4.96045 308.284 4.96045 309.418C4.96045 310.516 5.82445 311.164 7.35445 311.164Z" fill="#DFE4EC"/>
<path d="M41.68 341.992H43.792V343H38.212V341.992H40.552V335.68L38.212 337.36V335.944L40.384 334.6H41.68V341.992ZM39.208 357.992H43.792V359H37.924V357.836L41.188 355.064C42.172 354.224 42.496 353.672 42.496 352.976C42.496 352.028 41.908 351.5 40.624 351.5C40 351.5 39.28 351.62 38.368 352.16V351.032C39.112 350.684 39.928 350.48 40.792 350.48C42.604 350.48 43.66 351.356 43.66 352.832C43.66 353.9 43.132 354.848 41.704 355.988L39.208 357.992ZM41.092 369.732C42.82 369.912 43.768 370.692 43.768 372C43.768 373.98 41.74 375.132 38.176 375.132V374.064C41.116 374.064 42.616 373.356 42.616 372.084C42.616 371.064 41.764 370.608 39.82 370.608L39.544 369.864L42.04 367.596H38.176V366.6H43.156V367.764L41.092 369.732Z" fill="#DFE4EC"/>
<path d="M7.35445 408.236C5.82445 408.236 4.96045 408.884 4.96045 409.982C4.96045 411.116 5.82445 411.8 7.35445 411.8H11.9265V413.6H7.35445C5.93245 413.6 5.14045 414.284 5.14045 415.418V419H3.10645V415.418C3.10645 414.23 3.71845 413.276 4.83445 412.718C3.61045 412.178 2.92645 411.206 2.92645 409.982C2.92645 407.858 4.49245 406.4 7.35445 406.4H12.1785V408.236H7.35445Z" fill="#DFE4EC"/>
</g>
<defs>
<clipPath id="clip0_133_82">
<rect width="179" height="426" fill="white"/>
</clipPath>
</defs>
</svg>
