<svg width="540" height="148" viewBox="0 0 540 148" fill="none" xmlns="http://www.w3.org/2000/svg">
<g clip-path="url(#clip0_276_539)">
<g opacity="0.3">
<rect x="78.5" y="0.5" width="96" height="27" rx="13.5" fill="white"/>
<rect x="78.5" y="0.5" width="96" height="27" rx="13.5" stroke="#EDEDED"/>
<circle cx="93" cy="14" r="9" fill="#1A1A1A"/>
<path d="M112.817 19L114.488 8.81818H115.681L114.011 19H112.817ZM108.209 16.2756L108.403 15.0824H116.119L115.925 16.2756H108.209ZM109.238 19L110.908 8.81818H112.102L110.431 19H109.238ZM108.8 12.7358L108.994 11.5426H116.71L116.516 12.7358H108.8ZM121.672 8.81818V19H120.131V10.3594H120.072L117.635 11.9503V10.4787L120.176 8.81818H121.672ZM125.342 19H123.711L127.375 8.81818H129.15L132.814 19H131.184L128.305 10.6676H128.225L125.342 19ZM125.615 15.0128H130.905V16.3054H125.615V15.0128ZM137.446 8.81818V19H135.905V10.3594H135.845L133.409 11.9503V10.4787L135.949 8.81818H137.446ZM141.115 19H139.485L143.149 8.81818H144.924L148.588 19H146.957L144.078 10.6676H143.999L141.115 19ZM141.389 15.0128H146.679V16.3054H141.389V15.0128ZM153.219 8.81818V19H151.678V10.3594H151.618L149.182 11.9503V10.4787L151.723 8.81818H153.219ZM156.889 19H155.258L158.922 8.81818H160.697L164.361 19H162.73L159.852 10.6676H159.772L156.889 19ZM157.162 15.0128H162.452V16.3054H157.162V15.0128Z" fill="black"/>
</g>
<rect x="78.5" y="60.5" width="116" height="27" rx="13.5" fill="white"/>
<rect x="78.5" y="60.5" width="116" height="27" rx="13.5" stroke="#EDEDED"/>
<circle cx="93" cy="74" r="9" fill="#1A1A1A"/>
<path d="M110.486 74.4659V79H108.999V71.3636H110.426V72.6065H110.521C110.696 72.2022 110.971 71.8774 111.346 71.6321C111.724 71.3868 112.199 71.2642 112.773 71.2642C113.293 71.2642 113.749 71.3736 114.14 71.5923C114.531 71.8078 114.834 72.1293 115.05 72.5568C115.265 72.9844 115.373 73.513 115.373 74.1428V79H113.886V74.3217C113.886 73.7682 113.742 73.3357 113.454 73.0241C113.165 72.7093 112.769 72.5518 112.266 72.5518C111.921 72.5518 111.614 72.6264 111.346 72.7756C111.081 72.9247 110.87 73.1435 110.714 73.4318C110.562 73.7169 110.486 74.0616 110.486 74.4659ZM120.574 79.1541C119.821 79.1541 119.173 78.9934 118.63 78.6719C118.09 78.3471 117.672 77.8913 117.377 77.3047C117.085 76.7147 116.939 76.0237 116.939 75.2315C116.939 74.4493 117.085 73.7599 117.377 73.1634C117.672 72.5668 118.083 72.1011 118.61 71.7663C119.14 71.4316 119.76 71.2642 120.469 71.2642C120.9 71.2642 121.318 71.3355 121.722 71.478C122.126 71.6205 122.489 71.8442 122.811 72.1491C123.132 72.4541 123.386 72.8501 123.572 73.3374C123.757 73.8213 123.85 74.4096 123.85 75.1023V75.6293H117.78V74.5156H122.393C122.393 74.1245 122.314 73.7782 122.155 73.4766C121.996 73.1716 121.772 72.9313 121.483 72.7557C121.198 72.58 120.864 72.4922 120.479 72.4922C120.062 72.4922 119.697 72.5949 119.385 72.8004C119.077 73.0026 118.839 73.2678 118.67 73.5959C118.504 73.9207 118.421 74.2737 118.421 74.6548V75.5249C118.421 76.0353 118.51 76.4695 118.689 76.8274C118.872 77.1854 119.125 77.4588 119.45 77.6477C119.775 77.8333 120.154 77.9261 120.589 77.9261C120.87 77.9261 121.127 77.8864 121.359 77.8068C121.591 77.724 121.792 77.6013 121.961 77.4389C122.13 77.2765 122.259 77.076 122.349 76.8374L123.755 77.0909C123.643 77.5052 123.441 77.8681 123.149 78.1797C122.861 78.4879 122.498 78.7282 122.06 78.9006C121.626 79.0696 121.13 79.1541 120.574 79.1541ZM130.253 75.8331V71.3636H131.744V79H130.282V77.6776H130.203C130.027 78.0852 129.746 78.425 129.358 78.6967C128.973 78.9652 128.494 79.0994 127.921 79.0994C127.43 79.0994 126.996 78.9917 126.618 78.7763C126.244 78.5575 125.949 78.2344 125.733 77.8068C125.521 77.3793 125.415 76.8506 125.415 76.2209V71.3636H126.902V76.0419C126.902 76.5623 127.046 76.9766 127.334 77.2848C127.623 77.593 127.997 77.7472 128.458 77.7472C128.736 77.7472 129.013 77.6776 129.288 77.5384C129.567 77.3991 129.797 77.1887 129.979 76.907C130.165 76.6252 130.256 76.2673 130.253 75.8331ZM137.222 71.3636V72.5568H133.051V71.3636H137.222ZM134.17 69.5341H135.656V76.7578C135.656 77.0462 135.699 77.2633 135.785 77.4091C135.871 77.5516 135.982 77.6494 136.118 77.7024C136.258 77.7521 136.408 77.777 136.571 77.777C136.69 77.777 136.795 77.7687 136.884 77.7521C136.973 77.7356 137.043 77.7223 137.093 77.7124L137.361 78.9403C137.275 78.9735 137.152 79.0066 136.993 79.0398C136.834 79.0762 136.635 79.0961 136.397 79.0994C136.006 79.1061 135.641 79.0365 135.303 78.8906C134.965 78.7448 134.692 78.5194 134.483 78.2145C134.274 77.9096 134.17 77.5268 134.17 77.0661V69.5341ZM138.782 79V71.3636H140.219V72.5767H140.299C140.438 72.1657 140.683 71.8426 141.035 71.6072C141.389 71.3686 141.79 71.2493 142.238 71.2493C142.33 71.2493 142.44 71.2526 142.566 71.2592C142.695 71.2659 142.796 71.2741 142.869 71.2841V72.706C142.809 72.6894 142.703 72.6712 142.551 72.6513C142.398 72.6281 142.246 72.6165 142.094 72.6165C141.742 72.6165 141.429 72.6911 141.154 72.8402C140.882 72.986 140.667 73.1899 140.508 73.4517C140.348 73.7102 140.269 74.0052 140.269 74.3366V79H138.782ZM146.225 79.169C145.742 79.169 145.304 79.0795 144.913 78.9006C144.522 78.7183 144.212 78.4548 143.983 78.1101C143.758 77.7654 143.645 77.3428 143.645 76.8423C143.645 76.4115 143.728 76.0568 143.894 75.7784C144.059 75.5 144.283 75.2796 144.565 75.1172C144.847 74.9548 145.162 74.8321 145.51 74.7493C145.858 74.6664 146.212 74.6035 146.573 74.5604C147.031 74.5073 147.402 74.4643 147.687 74.4311C147.972 74.3946 148.179 74.3366 148.309 74.2571C148.438 74.1776 148.502 74.0483 148.502 73.8693V73.8345C148.502 73.4003 148.38 73.0639 148.135 72.8253C147.893 72.5866 147.531 72.4673 147.051 72.4673C146.55 72.4673 146.156 72.5784 145.867 72.8004C145.582 73.0192 145.385 73.2628 145.276 73.5312L143.879 73.2131C144.045 72.7491 144.287 72.3745 144.605 72.0895C144.926 71.8011 145.296 71.5923 145.713 71.4631C146.131 71.3305 146.57 71.2642 147.031 71.2642C147.336 71.2642 147.659 71.3007 148 71.3736C148.345 71.4432 148.666 71.5724 148.965 71.7614C149.266 71.9503 149.513 72.2204 149.706 72.5717C149.898 72.9197 149.994 73.3722 149.994 73.929V79H148.542V77.956H148.483C148.386 78.1482 148.242 78.3371 148.05 78.5227C147.858 78.7083 147.611 78.8625 147.309 78.9851C147.008 79.1077 146.646 79.169 146.225 79.169ZM146.549 77.9759C146.96 77.9759 147.311 77.8946 147.603 77.7322C147.898 77.5698 148.121 77.3577 148.274 77.0959C148.429 76.8307 148.507 76.5473 148.507 76.2457V75.2614C148.454 75.3144 148.352 75.3641 148.199 75.4105C148.05 75.4536 147.879 75.4917 147.687 75.5249C147.495 75.5547 147.308 75.5829 147.125 75.6094C146.943 75.6326 146.791 75.6525 146.668 75.669C146.38 75.7055 146.116 75.7668 145.877 75.853C145.642 75.9392 145.453 76.0634 145.311 76.2259C145.171 76.3849 145.102 76.5971 145.102 76.8622C145.102 77.2301 145.238 77.5085 145.51 77.6974C145.781 77.883 146.128 77.9759 146.549 77.9759ZM153.376 68.8182V79H151.89V68.8182H153.376ZM156.272 79.0945C156 79.0945 155.766 78.9983 155.571 78.8061C155.375 78.6106 155.277 78.3752 155.277 78.1001C155.277 77.8284 155.375 77.5964 155.571 77.4041C155.766 77.2086 156 77.1108 156.272 77.1108C156.543 77.1108 156.777 77.2086 156.973 77.4041C157.168 77.5964 157.266 77.8284 157.266 78.1001C157.266 78.2824 157.219 78.4498 157.127 78.6023C157.037 78.7514 156.918 78.8707 156.769 78.9602C156.62 79.0497 156.454 79.0945 156.272 79.0945ZM162.416 68.679C162.87 68.6823 163.317 68.7652 163.758 68.9276C164.199 69.09 164.597 69.3551 164.951 69.723C165.309 70.0909 165.594 70.5881 165.806 71.2145C166.022 71.8376 166.131 72.6132 166.134 73.5412C166.134 74.4328 166.045 75.2266 165.866 75.9226C165.687 76.6153 165.43 77.2003 165.095 77.6776C164.764 78.1548 164.361 78.5178 163.887 78.7663C163.413 79.0149 162.88 79.1392 162.286 79.1392C161.68 79.1392 161.141 79.0199 160.671 78.7812C160.2 78.5426 159.817 78.2128 159.522 77.7919C159.227 77.3677 159.043 76.8804 158.97 76.3303H160.487C160.586 76.7678 160.788 77.1224 161.093 77.3942C161.402 77.6626 161.799 77.7969 162.286 77.7969C163.032 77.7969 163.614 77.4721 164.031 76.8224C164.449 76.1695 164.66 75.258 164.663 74.0881H164.583C164.411 74.3731 164.196 74.6184 163.937 74.8239C163.682 75.0294 163.395 75.1884 163.077 75.3011C162.759 75.4138 162.419 75.4702 162.058 75.4702C161.471 75.4702 160.937 75.326 160.457 75.0376C159.976 74.7493 159.594 74.3532 159.308 73.8494C159.023 73.3456 158.881 72.7706 158.881 72.1243C158.881 71.4813 159.027 70.898 159.318 70.3743C159.613 69.8506 160.024 69.4363 160.551 69.1314C161.082 68.8232 161.703 68.6723 162.416 68.679ZM162.421 69.9716C162.033 69.9716 161.683 70.0677 161.372 70.2599C161.063 70.4489 160.82 70.7057 160.641 71.0305C160.462 71.352 160.372 71.71 160.372 72.1044C160.372 72.4988 160.459 72.8568 160.631 73.1783C160.807 73.4964 161.045 73.75 161.347 73.9389C161.652 74.1245 162 74.2173 162.391 74.2173C162.683 74.2173 162.954 74.161 163.206 74.0483C163.458 73.9356 163.678 73.7798 163.867 73.581C164.056 73.3788 164.204 73.1501 164.31 72.8949C164.416 72.6397 164.469 72.3712 164.469 72.0895C164.469 71.715 164.379 71.367 164.201 71.0455C164.025 70.724 163.783 70.4654 163.475 70.2699C163.166 70.071 162.815 69.9716 162.421 69.9716ZM171.391 79.169C170.606 79.1657 169.935 78.9586 169.378 78.5476C168.821 78.1366 168.395 77.5384 168.1 76.7528C167.805 75.9673 167.658 75.0211 167.658 73.9141C167.658 72.8104 167.805 71.8674 168.1 71.0852C168.398 70.303 168.826 69.7064 169.383 69.2955C169.943 68.8845 170.612 68.679 171.391 68.679C172.17 68.679 172.838 68.8861 173.395 69.3004C173.952 69.7114 174.377 70.308 174.672 71.0902C174.971 71.8691 175.12 72.8104 175.12 73.9141C175.12 75.0244 174.972 75.9723 174.677 76.7578C174.382 77.54 173.957 78.1383 173.4 78.5526C172.843 78.9635 172.173 79.169 171.391 79.169ZM171.391 77.8416C172.081 77.8416 172.619 77.5052 173.007 76.8324C173.398 76.1596 173.594 75.1868 173.594 73.9141C173.594 73.0689 173.504 72.3546 173.325 71.7713C173.149 71.1847 172.896 70.7405 172.564 70.4389C172.236 70.134 171.845 69.9815 171.391 69.9815C170.705 69.9815 170.167 70.3196 169.775 70.9957C169.384 71.6719 169.187 72.6446 169.184 73.9141C169.184 74.7625 169.272 75.4801 169.447 76.0668C169.626 76.6501 169.88 77.0926 170.208 77.3942C170.536 77.6925 170.93 77.8416 171.391 77.8416ZM180.344 79.169C179.559 79.1657 178.888 78.9586 178.331 78.5476C177.774 78.1366 177.348 77.5384 177.053 76.7528C176.758 75.9673 176.611 75.0211 176.611 73.9141C176.611 72.8104 176.758 71.8674 177.053 71.0852C177.351 70.303 177.779 69.7064 178.336 69.2955C178.896 68.8845 179.565 68.679 180.344 68.679C181.123 68.679 181.791 68.8861 182.348 69.3004C182.905 69.7114 183.331 70.308 183.626 71.0902C183.924 71.8691 184.073 72.8104 184.073 73.9141C184.073 75.0244 183.926 75.9723 183.631 76.7578C183.336 77.54 182.91 78.1383 182.353 78.5526C181.796 78.9635 181.127 79.169 180.344 79.169ZM180.344 77.8416C181.034 77.8416 181.572 77.5052 181.96 76.8324C182.351 76.1596 182.547 75.1868 182.547 73.9141C182.547 73.0689 182.457 72.3546 182.278 71.7713C182.103 71.1847 181.849 70.7405 181.518 70.4389C181.189 70.134 180.798 69.9815 180.344 69.9815C179.658 69.9815 179.12 70.3196 178.729 70.9957C178.337 71.6719 178.14 72.6446 178.137 73.9141C178.137 74.7625 178.225 75.4801 178.4 76.0668C178.579 76.6501 178.833 77.0926 179.161 77.3942C179.489 77.6925 179.884 77.8416 180.344 77.8416Z" fill="black"/>
<rect x="78.5" y="120.5" width="202" height="27" rx="13.5" fill="white"/>
<rect x="78.5" y="120.5" width="202" height="27" rx="13.5" stroke="#EDEDED"/>
<circle cx="93" cy="134" r="9" fill="#1A1A1A"/>
<path d="M109.119 139V128.818H110.605V132.602H110.695C110.781 132.442 110.905 132.259 111.067 132.05C111.23 131.841 111.455 131.659 111.744 131.503C112.032 131.344 112.413 131.264 112.887 131.264C113.504 131.264 114.054 131.42 114.538 131.732C115.022 132.043 115.401 132.492 115.676 133.079C115.955 133.665 116.094 134.371 116.094 135.197C116.094 136.022 115.956 136.73 115.681 137.32C115.406 137.906 115.028 138.359 114.548 138.677C114.067 138.992 113.518 139.149 112.902 139.149C112.438 139.149 112.058 139.071 111.763 138.915C111.472 138.76 111.243 138.577 111.077 138.369C110.912 138.16 110.784 137.974 110.695 137.812H110.57V139H109.119ZM110.575 135.182C110.575 135.719 110.653 136.189 110.809 136.594C110.965 136.998 111.19 137.315 111.485 137.543C111.78 137.769 112.141 137.881 112.569 137.881C113.013 137.881 113.384 137.764 113.683 137.528C113.981 137.29 114.206 136.967 114.359 136.559C114.514 136.151 114.592 135.692 114.592 135.182C114.592 134.678 114.516 134.226 114.364 133.825C114.214 133.424 113.989 133.107 113.688 132.875C113.389 132.643 113.016 132.527 112.569 132.527C112.138 132.527 111.773 132.638 111.475 132.86C111.18 133.082 110.956 133.392 110.804 133.79C110.652 134.187 110.575 134.652 110.575 135.182ZM119.901 139.169C119.417 139.169 118.98 139.08 118.589 138.901C118.198 138.718 117.888 138.455 117.659 138.11C117.434 137.765 117.321 137.343 117.321 136.842C117.321 136.411 117.404 136.057 117.57 135.778C117.735 135.5 117.959 135.28 118.241 135.117C118.522 134.955 118.837 134.832 119.185 134.749C119.533 134.666 119.888 134.603 120.249 134.56C120.707 134.507 121.078 134.464 121.363 134.431C121.648 134.395 121.855 134.337 121.984 134.257C122.114 134.178 122.178 134.048 122.178 133.869V133.835C122.178 133.4 122.056 133.064 121.81 132.825C121.568 132.587 121.207 132.467 120.727 132.467C120.226 132.467 119.832 132.578 119.543 132.8C119.258 133.019 119.061 133.263 118.952 133.531L117.555 133.213C117.72 132.749 117.962 132.375 118.281 132.089C118.602 131.801 118.972 131.592 119.389 131.463C119.807 131.33 120.246 131.264 120.707 131.264C121.012 131.264 121.335 131.301 121.676 131.374C122.021 131.443 122.342 131.572 122.641 131.761C122.942 131.95 123.189 132.22 123.381 132.572C123.574 132.92 123.67 133.372 123.67 133.929V139H122.218V137.956H122.158C122.062 138.148 121.918 138.337 121.726 138.523C121.534 138.708 121.287 138.862 120.985 138.985C120.683 139.108 120.322 139.169 119.901 139.169ZM120.224 137.976C120.635 137.976 120.987 137.895 121.278 137.732C121.573 137.57 121.797 137.358 121.95 137.096C122.105 136.831 122.183 136.547 122.183 136.246V135.261C122.13 135.314 122.027 135.364 121.875 135.411C121.726 135.454 121.555 135.492 121.363 135.525C121.171 135.555 120.983 135.583 120.801 135.609C120.619 135.633 120.466 135.652 120.344 135.669C120.055 135.705 119.792 135.767 119.553 135.853C119.318 135.939 119.129 136.063 118.986 136.226C118.847 136.385 118.778 136.597 118.778 136.862C118.778 137.23 118.914 137.509 119.185 137.697C119.457 137.883 119.803 137.976 120.224 137.976ZM128.782 139.154C128.043 139.154 127.407 138.987 126.873 138.652C126.343 138.314 125.935 137.848 125.65 137.255C125.365 136.662 125.223 135.982 125.223 135.217C125.223 134.441 125.368 133.757 125.66 133.163C125.952 132.567 126.363 132.101 126.893 131.766C127.423 131.432 128.048 131.264 128.767 131.264C129.347 131.264 129.864 131.372 130.319 131.587C130.773 131.799 131.139 132.098 131.417 132.482C131.699 132.867 131.866 133.316 131.919 133.83H130.473C130.393 133.472 130.211 133.163 129.926 132.905C129.644 132.646 129.266 132.517 128.792 132.517C128.378 132.517 128.015 132.626 127.703 132.845C127.395 133.061 127.155 133.369 126.983 133.77C126.81 134.168 126.724 134.638 126.724 135.182C126.724 135.739 126.809 136.219 126.978 136.624C127.147 137.028 127.385 137.341 127.694 137.563C128.005 137.785 128.371 137.896 128.792 137.896C129.074 137.896 129.329 137.845 129.558 137.742C129.79 137.636 129.984 137.485 130.14 137.29C130.299 137.094 130.41 136.859 130.473 136.584H131.919C131.866 137.078 131.706 137.518 131.437 137.906C131.169 138.294 130.809 138.599 130.358 138.821C129.911 139.043 129.386 139.154 128.782 139.154ZM134.792 136.41L134.782 134.595H135.041L138.083 131.364H139.863L136.393 135.043H136.159L134.792 136.41ZM133.425 139V128.818H134.912V139H133.425ZM138.247 139L135.513 135.371L136.537 134.332L140.072 139H138.247ZM144.021 142.023C143.415 142.023 142.893 141.943 142.455 141.784C142.021 141.625 141.666 141.415 141.391 141.153C141.116 140.891 140.911 140.604 140.775 140.293L142.052 139.766C142.142 139.911 142.261 140.066 142.41 140.228C142.563 140.394 142.768 140.535 143.027 140.651C143.289 140.767 143.625 140.825 144.036 140.825C144.6 140.825 145.065 140.687 145.433 140.412C145.801 140.14 145.985 139.706 145.985 139.109V137.608H145.891C145.801 137.77 145.672 137.951 145.503 138.15C145.337 138.349 145.108 138.521 144.817 138.667C144.525 138.813 144.146 138.886 143.678 138.886C143.075 138.886 142.531 138.745 142.048 138.463C141.567 138.178 141.186 137.759 140.904 137.205C140.626 136.648 140.486 135.964 140.486 135.152C140.486 134.34 140.624 133.644 140.899 133.064C141.177 132.484 141.559 132.04 142.043 131.732C142.526 131.42 143.075 131.264 143.688 131.264C144.162 131.264 144.545 131.344 144.837 131.503C145.128 131.659 145.355 131.841 145.518 132.05C145.683 132.259 145.811 132.442 145.901 132.602H146.01V131.364H147.467V139.169C147.467 139.825 147.314 140.364 147.009 140.785C146.704 141.206 146.292 141.517 145.771 141.719C145.254 141.922 144.671 142.023 144.021 142.023ZM144.006 137.653C144.434 137.653 144.795 137.553 145.09 137.354C145.388 137.152 145.614 136.864 145.766 136.489C145.922 136.112 146 135.659 146 135.132C146 134.618 145.924 134.166 145.771 133.775C145.619 133.384 145.395 133.079 145.1 132.86C144.805 132.638 144.441 132.527 144.006 132.527C143.559 132.527 143.186 132.643 142.888 132.875C142.589 133.104 142.364 133.415 142.212 133.81C142.062 134.204 141.988 134.645 141.988 135.132C141.988 135.633 142.064 136.072 142.217 136.45C142.369 136.827 142.594 137.122 142.893 137.335C143.194 137.547 143.566 137.653 144.006 137.653ZM149.376 139V131.364H150.813V132.577H150.893C151.032 132.166 151.277 131.843 151.628 131.607C151.983 131.369 152.384 131.249 152.831 131.249C152.924 131.249 153.034 131.253 153.16 131.259C153.289 131.266 153.39 131.274 153.463 131.284V132.706C153.403 132.689 153.297 132.671 153.145 132.651C152.992 132.628 152.84 132.616 152.687 132.616C152.336 132.616 152.023 132.691 151.748 132.84C151.476 132.986 151.26 133.19 151.101 133.452C150.942 133.71 150.863 134.005 150.863 134.337V139H149.376ZM157.608 139.154C156.892 139.154 156.268 138.99 155.734 138.662C155.2 138.334 154.786 137.875 154.491 137.285C154.196 136.695 154.049 136.005 154.049 135.217C154.049 134.424 154.196 133.732 154.491 133.138C154.786 132.545 155.2 132.085 155.734 131.756C156.268 131.428 156.892 131.264 157.608 131.264C158.324 131.264 158.949 131.428 159.483 131.756C160.016 132.085 160.431 132.545 160.726 133.138C161.021 133.732 161.168 134.424 161.168 135.217C161.168 136.005 161.021 136.695 160.726 137.285C160.431 137.875 160.016 138.334 159.483 138.662C158.949 138.99 158.324 139.154 157.608 139.154ZM157.613 137.906C158.077 137.906 158.462 137.784 158.767 137.538C159.072 137.293 159.297 136.967 159.443 136.559C159.592 136.151 159.667 135.702 159.667 135.212C159.667 134.724 159.592 134.277 159.443 133.869C159.297 133.458 159.072 133.129 158.767 132.88C158.462 132.631 158.077 132.507 157.613 132.507C157.146 132.507 156.758 132.631 156.45 132.88C156.145 133.129 155.918 133.458 155.769 133.869C155.623 134.277 155.55 134.724 155.55 135.212C155.55 135.702 155.623 136.151 155.769 136.559C155.918 136.967 156.145 137.293 156.45 137.538C156.758 137.784 157.146 137.906 157.613 137.906ZM167.581 135.833V131.364H169.072V139H167.611V137.678H167.531C167.355 138.085 167.074 138.425 166.686 138.697C166.301 138.965 165.822 139.099 165.249 139.099C164.758 139.099 164.324 138.992 163.946 138.776C163.572 138.558 163.277 138.234 163.062 137.807C162.849 137.379 162.743 136.851 162.743 136.221V131.364H164.23V136.042C164.23 136.562 164.374 136.977 164.662 137.285C164.951 137.593 165.325 137.747 165.786 137.747C166.064 137.747 166.341 137.678 166.616 137.538C166.895 137.399 167.125 137.189 167.307 136.907C167.493 136.625 167.584 136.267 167.581 135.833ZM172.472 134.466V139H170.985V131.364H172.412V132.607H172.507C172.682 132.202 172.958 131.877 173.332 131.632C173.71 131.387 174.186 131.264 174.759 131.264C175.279 131.264 175.735 131.374 176.126 131.592C176.517 131.808 176.82 132.129 177.036 132.557C177.251 132.984 177.359 133.513 177.359 134.143V139H175.873V134.322C175.873 133.768 175.728 133.336 175.44 133.024C175.152 132.709 174.756 132.552 174.252 132.552C173.907 132.552 173.601 132.626 173.332 132.776C173.067 132.925 172.856 133.143 172.701 133.432C172.548 133.717 172.472 134.062 172.472 134.466ZM182.127 139.149C181.511 139.149 180.961 138.992 180.477 138.677C179.996 138.359 179.618 137.906 179.343 137.32C179.071 136.73 178.936 136.022 178.936 135.197C178.936 134.371 179.073 133.665 179.348 133.079C179.627 132.492 180.008 132.043 180.492 131.732C180.976 131.42 181.524 131.264 182.137 131.264C182.611 131.264 182.992 131.344 183.281 131.503C183.572 131.659 183.798 131.841 183.957 132.05C184.119 132.259 184.245 132.442 184.335 132.602H184.424V128.818H185.911V139H184.459V137.812H184.335C184.245 137.974 184.116 138.16 183.947 138.369C183.781 138.577 183.553 138.76 183.261 138.915C182.969 139.071 182.591 139.149 182.127 139.149ZM182.455 137.881C182.883 137.881 183.244 137.769 183.539 137.543C183.838 137.315 184.063 136.998 184.215 136.594C184.371 136.189 184.449 135.719 184.449 135.182C184.449 134.652 184.373 134.187 184.22 133.79C184.068 133.392 183.844 133.082 183.549 132.86C183.254 132.638 182.89 132.527 182.455 132.527C182.008 132.527 181.635 132.643 181.337 132.875C181.039 133.107 180.813 133.424 180.661 133.825C180.512 134.226 180.437 134.678 180.437 135.182C180.437 135.692 180.513 136.151 180.666 136.559C180.818 136.967 181.044 137.29 181.342 137.528C181.643 137.764 182.015 137.881 182.455 137.881ZM188.928 139.094C188.656 139.094 188.422 138.998 188.227 138.806C188.031 138.611 187.933 138.375 187.933 138.1C187.933 137.828 188.031 137.596 188.227 137.404C188.422 137.209 188.656 137.111 188.928 137.111C189.2 137.111 189.433 137.209 189.629 137.404C189.824 137.596 189.922 137.828 189.922 138.1C189.922 138.282 189.876 138.45 189.783 138.602C189.693 138.751 189.574 138.871 189.425 138.96C189.276 139.05 189.11 139.094 188.928 139.094ZM193.316 134.466V139H191.829V131.364H193.256V132.607H193.35C193.526 132.202 193.801 131.877 194.176 131.632C194.554 131.387 195.029 131.264 195.603 131.264C196.123 131.264 196.579 131.374 196.97 131.592C197.361 131.808 197.664 132.129 197.88 132.557C198.095 132.984 198.203 133.513 198.203 134.143V139H196.716V134.322C196.716 133.768 196.572 133.336 196.284 133.024C195.995 132.709 195.599 132.552 195.096 132.552C194.751 132.552 194.444 132.626 194.176 132.776C193.911 132.925 193.7 133.143 193.544 133.432C193.392 133.717 193.316 134.062 193.316 134.466ZM203.404 139.154C202.651 139.154 202.003 138.993 201.46 138.672C200.919 138.347 200.502 137.891 200.207 137.305C199.915 136.715 199.769 136.024 199.769 135.232C199.769 134.449 199.915 133.76 200.207 133.163C200.502 132.567 200.913 132.101 201.44 131.766C201.97 131.432 202.59 131.264 203.299 131.264C203.73 131.264 204.148 131.335 204.552 131.478C204.956 131.621 205.319 131.844 205.641 132.149C205.962 132.454 206.216 132.85 206.401 133.337C206.587 133.821 206.68 134.41 206.68 135.102V135.629H200.61V134.516H205.223C205.223 134.125 205.144 133.778 204.985 133.477C204.825 133.172 204.602 132.931 204.313 132.756C204.028 132.58 203.694 132.492 203.309 132.492C202.891 132.492 202.527 132.595 202.215 132.8C201.907 133.003 201.668 133.268 201.499 133.596C201.334 133.921 201.251 134.274 201.251 134.655V135.525C201.251 136.035 201.34 136.469 201.519 136.827C201.702 137.185 201.955 137.459 202.28 137.648C202.605 137.833 202.984 137.926 203.418 137.926C203.7 137.926 203.957 137.886 204.189 137.807C204.421 137.724 204.622 137.601 204.791 137.439C204.96 137.277 205.089 137.076 205.178 136.837L206.585 137.091C206.473 137.505 206.271 137.868 205.979 138.18C205.691 138.488 205.328 138.728 204.89 138.901C204.456 139.07 203.96 139.154 203.404 139.154ZM213.083 135.833V131.364H214.574V139H213.112V137.678H213.033C212.857 138.085 212.575 138.425 212.188 138.697C211.803 138.965 211.324 139.099 210.751 139.099C210.26 139.099 209.826 138.992 209.448 138.776C209.074 138.558 208.779 138.234 208.563 137.807C208.351 137.379 208.245 136.851 208.245 136.221V131.364H209.732V136.042C209.732 136.562 209.876 136.977 210.164 137.285C210.453 137.593 210.827 137.747 211.288 137.747C211.566 137.747 211.843 137.678 212.118 137.538C212.396 137.399 212.627 137.189 212.809 136.907C212.995 136.625 213.086 136.267 213.083 135.833ZM220.052 131.364V132.557H215.881V131.364H220.052ZM216.999 129.534H218.486V136.758C218.486 137.046 218.529 137.263 218.615 137.409C218.701 137.552 218.812 137.649 218.948 137.702C219.087 137.752 219.238 137.777 219.401 137.777C219.52 137.777 219.624 137.769 219.714 137.752C219.803 137.736 219.873 137.722 219.923 137.712L220.191 138.94C220.105 138.973 219.982 139.007 219.823 139.04C219.664 139.076 219.465 139.096 219.227 139.099C218.836 139.106 218.471 139.036 218.133 138.891C217.795 138.745 217.521 138.519 217.313 138.214C217.104 137.91 216.999 137.527 216.999 137.066V129.534ZM221.612 139V131.364H223.049V132.577H223.129C223.268 132.166 223.513 131.843 223.864 131.607C224.219 131.369 224.62 131.249 225.068 131.249C225.16 131.249 225.27 131.253 225.396 131.259C225.525 131.266 225.626 131.274 225.699 131.284V132.706C225.639 132.689 225.533 132.671 225.381 132.651C225.228 132.628 225.076 132.616 224.923 132.616C224.572 132.616 224.259 132.691 223.984 132.84C223.712 132.986 223.497 133.19 223.337 133.452C223.178 133.71 223.099 134.005 223.099 134.337V139H221.612ZM229.055 139.169C228.571 139.169 228.134 139.08 227.743 138.901C227.352 138.718 227.042 138.455 226.813 138.11C226.588 137.765 226.475 137.343 226.475 136.842C226.475 136.411 226.558 136.057 226.724 135.778C226.889 135.5 227.113 135.28 227.395 135.117C227.677 134.955 227.991 134.832 228.339 134.749C228.687 134.666 229.042 134.603 229.403 134.56C229.861 134.507 230.232 134.464 230.517 134.431C230.802 134.395 231.009 134.337 231.138 134.257C231.268 134.178 231.332 134.048 231.332 133.869V133.835C231.332 133.4 231.21 133.064 230.964 132.825C230.722 132.587 230.361 132.467 229.881 132.467C229.38 132.467 228.986 132.578 228.697 132.8C228.412 133.019 228.215 133.263 228.106 133.531L226.709 133.213C226.874 132.749 227.116 132.375 227.435 132.089C227.756 131.801 228.126 131.592 228.543 131.463C228.961 131.33 229.4 131.264 229.861 131.264C230.166 131.264 230.489 131.301 230.83 131.374C231.175 131.443 231.496 131.572 231.795 131.761C232.096 131.95 232.343 132.22 232.535 132.572C232.728 132.92 232.824 133.372 232.824 133.929V139H231.372V137.956H231.312C231.216 138.148 231.072 138.337 230.88 138.523C230.688 138.708 230.441 138.862 230.139 138.985C229.838 139.108 229.476 139.169 229.055 139.169ZM229.378 137.976C229.789 137.976 230.141 137.895 230.432 137.732C230.727 137.57 230.951 137.358 231.104 137.096C231.259 136.831 231.337 136.547 231.337 136.246V135.261C231.284 135.314 231.182 135.364 231.029 135.411C230.88 135.454 230.709 135.492 230.517 135.525C230.325 135.555 230.137 135.583 229.955 135.609C229.773 135.633 229.62 135.652 229.498 135.669C229.209 135.705 228.946 135.767 228.707 135.853C228.472 135.939 228.283 136.063 228.141 136.226C228.001 136.385 227.932 136.597 227.932 136.862C227.932 137.23 228.068 137.509 228.339 137.697C228.611 137.883 228.958 137.976 229.378 137.976ZM236.206 128.818V139H234.72V128.818H236.206ZM239.101 139.094C238.83 139.094 238.596 138.998 238.4 138.806C238.205 138.611 238.107 138.375 238.107 138.1C238.107 137.828 238.205 137.596 238.4 137.404C238.596 137.209 238.83 137.111 239.101 137.111C239.373 137.111 239.607 137.209 239.802 137.404C239.998 137.596 240.096 137.828 240.096 138.1C240.096 138.282 240.049 138.45 239.957 138.602C239.867 138.751 239.748 138.871 239.599 138.96C239.449 139.05 239.284 139.094 239.101 139.094ZM242.122 139V128.818H243.609V132.602H243.698C243.784 132.442 243.909 132.259 244.071 132.05C244.233 131.841 244.459 131.659 244.747 131.503C245.036 131.344 245.417 131.264 245.891 131.264C246.507 131.264 247.057 131.42 247.541 131.732C248.025 132.043 248.405 132.492 248.68 133.079C248.958 133.665 249.097 134.371 249.097 135.197C249.097 136.022 248.96 136.73 248.685 137.32C248.41 137.906 248.032 138.359 247.551 138.677C247.071 138.992 246.522 139.149 245.906 139.149C245.442 139.149 245.062 139.071 244.767 138.915C244.475 138.76 244.247 138.577 244.081 138.369C243.915 138.16 243.788 137.974 243.698 137.812H243.574V139H242.122ZM243.579 135.182C243.579 135.719 243.657 136.189 243.813 136.594C243.968 136.998 244.194 137.315 244.489 137.543C244.784 137.769 245.145 137.881 245.573 137.881C246.017 137.881 246.388 137.764 246.686 137.528C246.984 137.29 247.21 136.967 247.362 136.559C247.518 136.151 247.596 135.692 247.596 135.182C247.596 134.678 247.52 134.226 247.367 133.825C247.218 133.424 246.993 133.107 246.691 132.875C246.393 132.643 246.02 132.527 245.573 132.527C245.142 132.527 244.777 132.638 244.479 132.86C244.184 133.082 243.96 133.392 243.808 133.79C243.655 134.187 243.579 134.652 243.579 135.182ZM253.899 139.154C253.183 139.154 252.559 138.99 252.025 138.662C251.491 138.334 251.077 137.875 250.782 137.285C250.487 136.695 250.34 136.005 250.34 135.217C250.34 134.424 250.487 133.732 250.782 133.138C251.077 132.545 251.491 132.085 252.025 131.756C252.559 131.428 253.183 131.264 253.899 131.264C254.615 131.264 255.24 131.428 255.773 131.756C256.307 132.085 256.721 132.545 257.016 133.138C257.311 133.732 257.459 134.424 257.459 135.217C257.459 136.005 257.311 136.695 257.016 137.285C256.721 137.875 256.307 138.334 255.773 138.662C255.24 138.99 254.615 139.154 253.899 139.154ZM253.904 137.906C254.368 137.906 254.753 137.784 255.058 137.538C255.363 137.293 255.588 136.967 255.734 136.559C255.883 136.151 255.957 135.702 255.957 135.212C255.957 134.724 255.883 134.277 255.734 133.869C255.588 133.458 255.363 133.129 255.058 132.88C254.753 132.631 254.368 132.507 253.904 132.507C253.437 132.507 253.049 132.631 252.741 132.88C252.436 133.129 252.209 133.458 252.06 133.869C251.914 134.277 251.841 134.724 251.841 135.212C251.841 135.702 251.914 136.151 252.06 136.559C252.209 136.967 252.436 137.293 252.741 137.538C253.049 137.784 253.437 137.906 253.904 137.906ZM260.521 128.818V139H259.034V128.818H260.521ZM265.295 139.149C264.679 139.149 264.128 138.992 263.645 138.677C263.164 138.359 262.786 137.906 262.511 137.32C262.239 136.73 262.103 136.022 262.103 135.197C262.103 134.371 262.241 133.665 262.516 133.079C262.794 132.492 263.176 132.043 263.659 131.732C264.143 131.42 264.692 131.264 265.305 131.264C265.779 131.264 266.16 131.344 266.449 131.503C266.74 131.659 266.966 131.841 267.125 132.05C267.287 132.259 267.413 132.442 267.502 132.602H267.592V128.818H269.078V139H267.627V137.812H267.502C267.413 137.974 267.284 138.16 267.115 138.369C266.949 138.577 266.72 138.76 266.429 138.915C266.137 139.071 265.759 139.149 265.295 139.149ZM265.623 137.881C266.051 137.881 266.412 137.769 266.707 137.543C267.005 137.315 267.231 136.998 267.383 136.594C267.539 136.189 267.617 135.719 267.617 135.182C267.617 134.652 267.541 134.187 267.388 133.79C267.236 133.392 267.012 133.082 266.717 132.86C266.422 132.638 266.057 132.527 265.623 132.527C265.176 132.527 264.803 132.643 264.505 132.875C264.206 133.107 263.981 133.424 263.828 133.825C263.679 134.226 263.605 134.678 263.605 135.182C263.605 135.692 263.681 136.151 263.833 136.559C263.986 136.967 264.211 137.29 264.51 137.528C264.811 137.764 265.182 137.881 265.623 137.881Z" fill="black"/>
<path d="M26.7526 19.1799C25.1446 19.1799 23.7886 18.1359 23.7886 16.0959C23.7886 14.2479 25.0966 13.0479 26.6206 13.0479C28.4086 13.0479 29.4406 14.3439 29.4406 16.1559C29.4406 16.2999 29.4286 16.4679 29.4166 16.5399H24.9526C25.0006 17.4999 25.7806 18.1839 26.7526 18.1839C27.6886 18.1839 28.3846 17.9199 29.1646 17.3079V18.3759C28.6726 18.7599 27.9286 19.1799 26.7526 19.1799ZM24.9886 15.6039H28.2646C28.2406 14.6919 27.6646 14.0439 26.6206 14.0439C25.6726 14.0439 25.0366 14.7759 24.9886 15.6039Z" fill="#98AAC8"/>
<path d="M19.6072 19.1797C18.5032 19.1797 17.4352 18.4357 17.4352 17.0317V13.2397H18.5152V16.7557C18.5152 17.6317 19.1392 18.1477 19.8592 18.1477C20.4712 18.1477 20.9512 17.8597 21.3232 17.3917V13.2397H22.4032V18.9997H21.3472V18.4477C20.9512 18.8557 20.3752 19.1797 19.6072 19.1797Z" fill="#98AAC8"/>
<path d="M14.4951 18.9998V10.2998H15.5751V18.9998H14.4951Z" fill="#98AAC8"/>
<path d="M10.0973 19.1799C8.80132 19.1799 7.87732 18.4479 7.87732 17.1639C7.87732 15.9759 8.92132 15.2919 10.0973 15.2919C10.7453 15.2919 11.3573 15.4479 11.7293 15.6519V15.0399C11.7293 14.4759 11.2973 14.0079 10.4093 14.0079C9.56932 14.0079 8.74132 14.3319 8.21332 14.6679V13.5759C8.83732 13.2639 9.54532 13.0479 10.4093 13.0479C12.1253 13.0479 12.8093 14.0319 12.8093 15.1599V18.9999H11.7653V18.5319C11.4173 18.8679 10.8293 19.1799 10.0973 19.1799ZM10.2893 18.2559C10.9733 18.2559 11.5133 17.8959 11.7293 17.6799V16.6239C11.5133 16.4559 10.9493 16.1919 10.2893 16.1919C9.55732 16.1919 9.00532 16.5399 9.00532 17.1639C9.00532 17.8359 9.55732 18.2559 10.2893 18.2559Z" fill="#98AAC8"/>
<path d="M3.97199 19.1796L0.23999 10.5996H1.54799L4.05599 16.5756L6.58799 10.5996H7.88399L4.09199 19.1796H3.97199Z" fill="#98AAC8"/>
<path d="M44.7877 79.1803C43.1797 79.1803 41.8237 78.1363 41.8237 76.0963C41.8237 74.2483 43.1317 73.0483 44.6557 73.0483C46.4437 73.0483 47.4757 74.3443 47.4757 76.1563C47.4757 76.3003 47.4637 76.4683 47.4517 76.5403H42.9877C43.0357 77.5003 43.8157 78.1843 44.7877 78.1843C45.7237 78.1843 46.4197 77.9203 47.1997 77.3083V78.3763C46.7077 78.7603 45.9637 79.1803 44.7877 79.1803ZM43.0237 75.6043H46.2997C46.2757 74.6923 45.6997 74.0443 44.6557 74.0443C43.7077 74.0443 43.0717 74.7763 43.0237 75.6043Z" fill="#98AAC8"/>
<path d="M37.8403 79.0002L35.4403 73.2402H36.6763L38.4163 77.7042L40.1683 73.2402H41.3443L38.9803 79.0002H37.8403Z" fill="#98AAC8"/>
<path d="M33.8086 71.8362C33.3646 71.8362 33.0286 71.4882 33.0286 71.0442C33.0286 70.5882 33.3646 70.2402 33.8086 70.2402C34.2646 70.2402 34.6006 70.5882 34.6006 71.0442C34.6006 71.4882 34.2646 71.8362 33.8086 71.8362ZM33.2806 79.0002V73.2402H34.3606V79.0002H33.2806Z" fill="#98AAC8"/>
<path d="M30.9001 79.18C29.9161 79.18 29.2801 78.628 29.2801 77.584V74.2H28.2361V73.24H29.3521V71.536L30.3601 70.936V73.24H31.7641V74.2H30.3601V77.416C30.3601 77.944 30.6481 78.208 31.2241 78.208C31.4161 78.208 31.6321 78.172 31.7641 78.124V79.06C31.6681 79.096 31.2841 79.18 30.9001 79.18Z" fill="#98AAC8"/>
<path d="M26.4843 71.8362C26.0403 71.8362 25.7043 71.4882 25.7043 71.0442C25.7043 70.5882 26.0403 70.2402 26.4843 70.2402C26.9403 70.2402 27.2763 70.5882 27.2763 71.0442C27.2763 71.4882 26.9403 71.8362 26.4843 71.8362ZM25.9563 79.0002V73.2402H27.0363V79.0002H25.9563Z" fill="#98AAC8"/>
<path d="M22.0047 73.0483C23.1087 73.0483 24.1407 73.7923 24.1407 75.1963V79.0003H23.0607V75.4723C23.0607 74.5963 22.5567 74.0803 21.8367 74.0803C21.2367 74.0803 20.7567 74.3563 20.3847 74.8243C20.3967 74.9443 20.4087 75.0643 20.4087 75.1963V79.0003H19.3407V75.4723C19.3407 74.5963 18.8607 74.0803 18.1407 74.0803C17.5287 74.0803 17.0487 74.3803 16.6767 74.8483V79.0003H15.5967V73.2403H16.6527V73.7923C17.0487 73.3843 17.6247 73.0483 18.3927 73.0483C19.0527 73.0483 19.6527 73.3123 20.0127 73.8403C20.3367 73.5283 20.9727 73.0483 22.0047 73.0483Z" fill="#98AAC8"/>
<path d="M13.125 71.8362C12.681 71.8362 12.345 71.4882 12.345 71.0442C12.345 70.5882 12.681 70.2402 13.125 70.2402C13.581 70.2402 13.917 70.5882 13.917 71.0442C13.917 71.4882 13.581 71.8362 13.125 71.8362ZM12.597 79.0002V73.2402H13.677V79.0002H12.597Z" fill="#98AAC8"/>
<path d="M8.0498 79.0003V73.2403H9.1058V74.2363C9.4058 73.4683 10.1138 73.0483 10.8698 73.0483C11.0498 73.0483 11.1818 73.0723 11.2658 73.0843V74.2843C11.0978 74.2603 10.9058 74.2483 10.7498 74.2483C9.8018 74.2483 9.2858 74.8723 9.1298 75.4243V79.0003H8.0498Z" fill="#98AAC8"/>
<path d="M1.07996 79.0001V70.6001H4.10396C5.67596 70.6001 6.73196 71.8121 6.73196 73.2401C6.73196 74.6801 5.67596 75.8681 4.10396 75.8681H2.20796V79.0001H1.07996ZM2.20796 74.8241H3.91196C4.94396 74.8241 5.55596 74.1281 5.55596 73.2401C5.55596 72.3521 4.94396 71.6441 3.91196 71.6441H2.20796V74.8241Z" fill="#98AAC8"/>
<path d="M47.896 134.104C46.96 134.104 45.964 134.764 45.964 136.108C45.964 137.452 46.96 138.124 47.896 138.124C48.568 138.124 49.108 137.968 49.696 137.572V138.772C49.264 138.976 48.676 139.18 47.896 139.18C46.12 139.18 44.812 137.908 44.812 136.108C44.812 134.308 46.12 133.048 47.896 133.048C48.676 133.048 49.264 133.252 49.696 133.456V134.656C49.108 134.26 48.568 134.104 47.896 134.104Z" fill="#98AAC8"/>
<path d="M42.8203 131.836C42.3763 131.836 42.0403 131.488 42.0403 131.044C42.0403 130.588 42.3763 130.24 42.8203 130.24C43.2763 130.24 43.6123 130.588 43.6123 131.044C43.6123 131.488 43.2763 131.836 42.8203 131.836ZM42.2923 139V133.24H43.3723V139H42.2923Z" fill="#98AAC8"/>
<path d="M39.9118 139.18C38.9278 139.18 38.2918 138.628 38.2918 137.584V134.2H37.2478V133.24H38.3638V131.536L39.3718 130.936V133.24H40.7758V134.2H39.3718V137.416C39.3718 137.944 39.6598 138.208 40.2358 138.208C40.4278 138.208 40.6438 138.172 40.7758 138.124V139.06C40.6798 139.096 40.2958 139.18 39.9118 139.18Z" fill="#98AAC8"/>
<path d="M31.1943 139V133.24H32.2503V133.792C32.6463 133.384 33.2223 133.048 33.9903 133.048C35.0943 133.048 36.1623 133.792 36.1623 135.196V139H35.0823V135.472C35.0823 134.596 34.4583 134.08 33.7383 134.08C33.1263 134.08 32.6463 134.38 32.2743 134.848V139H31.1943Z" fill="#98AAC8"/>
<path d="M26.7965 139.18C25.5005 139.18 24.5765 138.448 24.5765 137.164C24.5765 135.976 25.6205 135.292 26.7965 135.292C27.4445 135.292 28.0565 135.448 28.4285 135.652V135.04C28.4285 134.476 27.9965 134.008 27.1085 134.008C26.2685 134.008 25.4405 134.332 24.9125 134.668V133.576C25.5365 133.264 26.2445 133.048 27.1085 133.048C28.8245 133.048 29.5085 134.032 29.5085 135.16V139H28.4645V138.532C28.1165 138.868 27.5285 139.18 26.7965 139.18ZM26.9885 138.256C27.6725 138.256 28.2125 137.896 28.4285 137.68V136.624C28.2125 136.456 27.6485 136.192 26.9885 136.192C26.2565 136.192 25.7045 136.54 25.7045 137.164C25.7045 137.836 26.2565 138.256 26.9885 138.256Z" fill="#98AAC8"/>
<path d="M20.9969 133.048C22.1009 133.048 23.1329 133.792 23.1329 135.196V139H22.0529V135.472C22.0529 134.596 21.5489 134.08 20.8289 134.08C20.2289 134.08 19.7489 134.356 19.3769 134.824C19.3889 134.944 19.4009 135.064 19.4009 135.196V139H18.3329V135.472C18.3329 134.596 17.8529 134.08 17.1329 134.08C16.5209 134.08 16.0409 134.38 15.6689 134.848V139H14.5889V133.24H15.6449V133.792C16.0409 133.384 16.6169 133.048 17.3849 133.048C18.0449 133.048 18.6449 133.312 19.0049 133.84C19.3289 133.528 19.9649 133.048 20.9969 133.048Z" fill="#98AAC8"/>
<path d="M10.4635 139.18C8.85551 139.18 7.49951 138.136 7.49951 136.096C7.49951 134.248 8.80751 133.048 10.3315 133.048C12.1195 133.048 13.1515 134.344 13.1515 136.156C13.1515 136.3 13.1395 136.468 13.1275 136.54H8.66351C8.71151 137.5 9.49151 138.184 10.4635 138.184C11.3995 138.184 12.0955 137.92 12.8755 137.308V138.376C12.3835 138.76 11.6395 139.18 10.4635 139.18ZM8.69951 135.604H11.9755C11.9515 134.692 11.3755 134.044 10.3315 134.044C9.38351 134.044 8.74751 134.776 8.69951 135.604Z" fill="#98AAC8"/>
<path d="M4.23597 134.308C5.65197 134.62 6.41997 135.484 6.41997 136.72C6.41997 137.992 5.43597 139.18 3.61197 139.18C2.32797 139.18 1.40397 138.784 0.779971 138.448V137.32C1.48797 137.728 2.56797 138.136 3.61197 138.136C4.78797 138.136 5.24397 137.512 5.24397 136.72C5.24397 136.12 4.82397 135.556 3.97197 135.376L2.75997 135.112C1.49997 134.836 0.719971 134.116 0.719971 132.796C0.719971 131.512 1.77597 130.42 3.68397 130.42C4.65597 130.42 5.36397 130.648 5.98797 130.912V132.064C5.27997 131.704 4.46397 131.452 3.68397 131.452C2.57997 131.452 1.87197 131.968 1.87197 132.796C1.87197 133.456 2.24397 133.876 2.96397 134.032L4.23597 134.308Z" fill="#98AAC8"/>
<path fill-rule="evenodd" clip-rule="evenodd" d="M323 148L323 -4.37114e-08L324 0L324 148L323 148Z" fill="#23324D"/>
<path d="M453.101 43.0003V37.2403H454.157V37.7923C454.553 37.3843 455.129 37.0483 455.897 37.0483C457.001 37.0483 458.069 37.7923 458.069 39.1963V43.0003H456.989V39.4723C456.989 38.5963 456.365 38.0803 455.645 38.0803C455.033 38.0803 454.553 38.3803 454.181 38.8483V43.0003H453.101Z" fill="#98AAC8"/>
<path d="M448.625 43.1803C446.873 43.1803 445.589 41.8723 445.589 40.1083C445.589 38.3563 446.873 37.0483 448.625 37.0483C450.377 37.0483 451.661 38.3563 451.661 40.1083C451.661 41.8723 450.377 43.1803 448.625 43.1803ZM448.625 42.1603C449.609 42.1603 450.521 41.4523 450.521 40.1083C450.521 38.7763 449.609 38.0683 448.625 38.0683C447.641 38.0683 446.729 38.7763 446.729 40.1083C446.729 41.4523 447.641 42.1603 448.625 42.1603Z" fill="#98AAC8"/>
<path d="M443.598 35.8362C443.154 35.8362 442.818 35.4882 442.818 35.0442C442.818 34.5882 443.154 34.2402 443.598 34.2402C444.054 34.2402 444.39 34.5882 444.39 35.0442C444.39 35.4882 444.054 35.8362 443.598 35.8362ZM443.07 43.0002V37.2402H444.15V43.0002H443.07Z" fill="#98AAC8"/>
<path d="M439.24 43.1803C438.52 43.1803 437.764 42.9643 437.284 42.7123V41.6683C437.944 42.0163 438.628 42.2203 439.24 42.2203C440.02 42.2203 440.452 41.9323 440.452 41.3923C440.452 41.0203 440.176 40.7683 439.696 40.6603L438.712 40.4443C437.788 40.2403 437.272 39.6643 437.272 38.8003C437.272 37.7443 438.184 37.0483 439.444 37.0483C440.236 37.0483 440.824 37.2403 441.28 37.4443V38.5003C440.68 38.1883 440.008 38.0083 439.444 38.0083C438.688 38.0083 438.352 38.3563 438.352 38.8003C438.352 39.1003 438.568 39.3763 439.048 39.4843L439.96 39.6883C441.004 39.9163 441.556 40.5163 441.556 41.3923C441.556 42.5443 440.524 43.1803 439.24 43.1803Z" fill="#98AAC8"/>
<path d="M435.16 35.8362C434.716 35.8362 434.38 35.4882 434.38 35.0442C434.38 34.5882 434.716 34.2402 435.16 34.2402C435.616 34.2402 435.952 34.5882 435.952 35.0442C435.952 35.4882 435.616 35.8362 435.16 35.8362ZM434.632 43.0002V37.2402H435.712V43.0002H434.632Z" fill="#98AAC8"/>
<path d="M431.259 38.1043C430.323 38.1043 429.327 38.7643 429.327 40.1083C429.327 41.4523 430.323 42.1243 431.259 42.1243C431.931 42.1243 432.471 41.9683 433.059 41.5723V42.7723C432.627 42.9763 432.039 43.1803 431.259 43.1803C429.483 43.1803 428.175 41.9083 428.175 40.1083C428.175 38.3083 429.483 37.0483 431.259 37.0483C432.039 37.0483 432.627 37.2523 433.059 37.4563V38.6563C432.471 38.2603 431.931 38.1043 431.259 38.1043Z" fill="#98AAC8"/>
<path d="M424.53 43.1803C422.922 43.1803 421.566 42.1363 421.566 40.0963C421.566 38.2483 422.874 37.0483 424.398 37.0483C426.186 37.0483 427.218 38.3443 427.218 40.1563C427.218 40.3003 427.206 40.4683 427.194 40.5403H422.73C422.778 41.5003 423.558 42.1843 424.53 42.1843C425.466 42.1843 426.162 41.9203 426.942 41.3083V42.3763C426.45 42.7603 425.706 43.1803 424.53 43.1803ZM422.766 39.6043H426.042C426.018 38.6923 425.442 38.0443 424.398 38.0443C423.45 38.0443 422.814 38.7763 422.766 39.6043Z" fill="#98AAC8"/>
<path d="M417.687 43.0003V37.2403H418.743V38.2363C419.043 37.4683 419.751 37.0483 420.507 37.0483C420.687 37.0483 420.819 37.0723 420.903 37.0843V38.2843C420.735 38.2603 420.543 38.2483 420.387 38.2483C419.439 38.2483 418.923 38.8723 418.767 39.4243V43.0003H417.687Z" fill="#98AAC8"/>
<path d="M410.526 45.2683V37.2403H411.606V37.8403C412.026 37.4083 412.59 37.0483 413.49 37.0483C415.182 37.0483 416.25 38.4043 416.25 40.0963C416.25 41.8123 415.182 43.1803 413.49 43.1803C412.59 43.1803 412.026 42.8083 411.606 42.3763V45.2683H410.526ZM413.298 42.1603C414.402 42.1603 415.11 41.3803 415.11 40.0963C415.11 38.8363 414.402 38.0683 413.298 38.0683C412.53 38.0683 411.954 38.5243 411.606 39.0163V41.2003C411.954 41.6923 412.53 42.1603 413.298 42.1603Z" fill="#98AAC8"/>
<path d="M404.011 43.0003V34.3003H405.091V43.0003H404.011Z" fill="#98AAC8"/>
<path d="M399.613 43.1803C398.317 43.1803 397.393 42.4483 397.393 41.1643C397.393 39.9763 398.437 39.2923 399.613 39.2923C400.261 39.2923 400.873 39.4483 401.245 39.6523V39.0403C401.245 38.4763 400.813 38.0083 399.925 38.0083C399.085 38.0083 398.257 38.3323 397.729 38.6683V37.5763C398.353 37.2643 399.061 37.0483 399.925 37.0483C401.641 37.0483 402.325 38.0323 402.325 39.1603V43.0003H401.281V42.5323C400.933 42.8683 400.345 43.1803 399.613 43.1803ZM399.805 42.2563C400.489 42.2563 401.029 41.8963 401.245 41.6803V40.6243C401.029 40.4563 400.465 40.1923 399.805 40.1923C399.073 40.1923 398.521 40.5403 398.521 41.1643C398.521 41.8363 399.073 42.2563 399.805 42.2563Z" fill="#98AAC8"/>
<path d="M393.092 43.1802C391.988 43.1802 390.92 42.4362 390.92 41.0322V37.2402H392V40.7562C392 41.6322 392.624 42.1482 393.344 42.1482C393.956 42.1482 394.436 41.8602 394.808 41.3922V37.2402H395.888V43.0002H394.832V42.4482C394.436 42.8562 393.86 43.1802 393.092 43.1802Z" fill="#98AAC8"/>
<path d="M388.611 43.18C387.627 43.18 386.991 42.628 386.991 41.584V38.2H385.947V37.24H387.063V35.536L388.071 34.936V37.24H389.475V38.2H388.071V41.416C388.071 41.944 388.359 42.208 388.935 42.208C389.127 42.208 389.343 42.172 389.475 42.124V43.06C389.379 43.096 388.995 43.18 388.611 43.18Z" fill="#98AAC8"/>
<path d="M379.815 43.0002L382.011 40.0362L379.947 37.2402H381.291L382.743 39.3162L384.147 37.2402H385.455L383.451 40.0842L385.587 43.0002H384.255L382.671 40.8162L381.135 43.0002H379.815Z" fill="#98AAC8"/>
<path d="M376.706 43.1803C375.098 43.1803 373.742 42.1363 373.742 40.0963C373.742 38.2483 375.05 37.0483 376.574 37.0483C378.362 37.0483 379.394 38.3443 379.394 40.1563C379.394 40.3003 379.382 40.4683 379.37 40.5403H374.906C374.954 41.5003 375.734 42.1843 376.706 42.1843C377.642 42.1843 378.338 41.9203 379.118 41.3083V42.3763C378.626 42.7603 377.882 43.1803 376.706 43.1803ZM374.942 39.6043H378.218C378.194 38.6923 377.618 38.0443 376.574 38.0443C375.626 38.0443 374.99 38.7763 374.942 39.6043Z" fill="#98AAC8"/>
<path d="M371.853 43.18C370.869 43.18 370.233 42.628 370.233 41.584V38.2H369.189V37.24H370.305V35.536L371.313 34.936V37.24H372.717V38.2H371.313V41.416C371.313 41.944 371.601 42.208 372.177 42.208C372.369 42.208 372.585 42.172 372.717 42.124V43.06C372.621 43.096 372.237 43.18 371.853 43.18Z" fill="#98AAC8"/>
<path d="M363.136 43.0003V37.2403H364.192V37.7923C364.588 37.3843 365.164 37.0483 365.932 37.0483C367.036 37.0483 368.104 37.7923 368.104 39.1963V43.0003H367.024V39.4723C367.024 38.5963 366.4 38.0803 365.68 38.0803C365.068 38.0803 364.588 38.3803 364.216 38.8483V43.0003H363.136Z" fill="#98AAC8"/>
<path d="M358.661 43.1803C356.909 43.1803 355.625 41.8723 355.625 40.1083C355.625 38.3563 356.909 37.0483 358.661 37.0483C360.413 37.0483 361.697 38.3563 361.697 40.1083C361.697 41.8723 360.413 43.1803 358.661 43.1803ZM358.661 42.1603C359.645 42.1603 360.557 41.4523 360.557 40.1083C360.557 38.7763 359.645 38.0683 358.661 38.0683C357.677 38.0683 356.765 38.7763 356.765 40.1083C356.765 41.4523 357.677 42.1603 358.661 42.1603Z" fill="#98AAC8"/>
<path d="M351.824 35.4884C350.276 35.4884 348.716 36.5204 348.716 38.8004C348.716 41.0804 350.276 42.1124 351.824 42.1124C352.856 42.1124 353.744 41.8004 354.668 41.2124V42.4124C353.828 42.8564 353.024 43.1804 351.824 43.1804C349.64 43.1804 347.54 41.7044 347.54 38.8004C347.54 35.8964 349.64 34.4204 351.824 34.4204C353.024 34.4204 353.828 34.7444 354.668 35.1884V36.3884C353.744 35.8004 352.856 35.4884 351.824 35.4884Z" fill="#98AAC8"/>
<path d="M395.854 94.1803C394.246 94.1803 392.89 93.1363 392.89 91.0963C392.89 89.2483 394.198 88.0483 395.722 88.0483C397.51 88.0483 398.542 89.3443 398.542 91.1563C398.542 91.3003 398.53 91.4683 398.518 91.5403H394.054C394.102 92.5003 394.882 93.1843 395.854 93.1843C396.79 93.1843 397.486 92.9203 398.266 92.3083V93.3763C397.774 93.7603 397.03 94.1803 395.854 94.1803ZM394.09 90.6043H397.366C397.342 89.6923 396.766 89.0443 395.722 89.0443C394.774 89.0443 394.138 89.7763 394.09 90.6043Z" fill="#98AAC8"/>
<path d="M388.724 96.5923C387.716 96.5923 386.828 96.2203 386.324 95.8963V94.7683C387.116 95.3203 388.04 95.5843 388.724 95.5843C389.936 95.5843 390.608 95.0563 390.608 93.8563V93.1123C390.224 93.5443 389.564 93.9043 388.664 93.9043C387.152 93.9043 385.964 92.7883 385.964 90.9763C385.964 89.1643 387.152 88.0483 388.664 88.0483C389.564 88.0483 390.224 88.4083 390.608 88.8403V88.2403H391.688V93.8563C391.688 95.2843 390.896 96.5923 388.724 96.5923ZM388.856 92.8843C389.612 92.8843 390.26 92.4283 390.608 91.9363V90.0163C390.284 89.5243 389.624 89.0683 388.856 89.0683C387.944 89.0683 387.104 89.7163 387.104 90.9763C387.104 92.3563 387.944 92.8843 388.856 92.8843Z" fill="#98AAC8"/>
<path d="M382.047 94.1803C380.751 94.1803 379.827 93.4483 379.827 92.1643C379.827 90.9763 380.871 90.2923 382.047 90.2923C382.695 90.2923 383.307 90.4483 383.679 90.6523V90.0403C383.679 89.4763 383.247 89.0083 382.359 89.0083C381.519 89.0083 380.691 89.3323 380.163 89.6683V88.5763C380.787 88.2643 381.495 88.0483 382.359 88.0483C384.075 88.0483 384.759 89.0323 384.759 90.1603V94.0003H383.715V93.5323C383.367 93.8683 382.779 94.1803 382.047 94.1803ZM382.239 93.2563C382.923 93.2563 383.463 92.8963 383.679 92.6803V91.6243C383.463 91.4563 382.899 91.1923 382.239 91.1923C381.507 91.1923 380.955 91.5403 380.955 92.1643C380.955 92.8363 381.507 93.2563 382.239 93.2563Z" fill="#98AAC8"/>
<path d="M375.651 94.0003V88.2403H376.707V89.2363C377.007 88.4683 377.715 88.0483 378.471 88.0483C378.651 88.0483 378.783 88.0723 378.867 88.0843V89.2843C378.699 89.2603 378.507 89.2483 378.351 89.2483C377.403 89.2483 376.887 89.8723 376.731 90.4243V94.0003H375.651Z" fill="#98AAC8"/>
<path d="M371.526 94.1803C369.918 94.1803 368.562 93.1363 368.562 91.0963C368.562 89.2483 369.87 88.0483 371.394 88.0483C373.182 88.0483 374.214 89.3443 374.214 91.1563C374.214 91.3003 374.202 91.4683 374.19 91.5403H369.726C369.774 92.5003 370.554 93.1843 371.526 93.1843C372.462 93.1843 373.158 92.9203 373.938 92.3083V93.3763C373.446 93.7603 372.702 94.1803 371.526 94.1803ZM369.762 90.6043H373.038C373.014 89.6923 372.438 89.0443 371.394 89.0443C370.446 89.0443 369.81 89.7763 369.762 90.6043Z" fill="#98AAC8"/>
<path d="M364.579 94.0002L362.179 88.2402H363.415L365.155 92.7042L366.907 88.2402H368.083L365.719 94.0002H364.579Z" fill="#98AAC8"/>
<path d="M358.661 94.1803C356.909 94.1803 355.625 92.8723 355.625 91.1083C355.625 89.3563 356.909 88.0483 358.661 88.0483C360.413 88.0483 361.697 89.3563 361.697 91.1083C361.697 92.8723 360.413 94.1803 358.661 94.1803ZM358.661 93.1603C359.645 93.1603 360.557 92.4523 360.557 91.1083C360.557 89.7763 359.645 89.0683 358.661 89.0683C357.677 89.0683 356.765 89.7763 356.765 91.1083C356.765 92.4523 357.677 93.1603 358.661 93.1603Z" fill="#98AAC8"/>
<path d="M351.824 86.4884C350.276 86.4884 348.716 87.5204 348.716 89.8004C348.716 92.0804 350.276 93.1124 351.824 93.1124C352.856 93.1124 353.744 92.8004 354.668 92.2124V93.4124C353.828 93.8564 353.024 94.1804 351.824 94.1804C349.64 94.1804 347.54 92.7044 347.54 89.8004C347.54 86.8964 349.64 85.4204 351.824 85.4204C353.024 85.4204 353.828 85.7444 354.668 86.1884V87.3884C353.744 86.8004 352.856 86.4884 351.824 86.4884Z" fill="#98AAC8"/>
<path d="M347 58C347 53.5817 350.582 50 355 50H532C536.418 50 540 53.5817 540 58V58C540 62.4183 536.418 66 532 66H355C350.582 66 347 62.4183 347 58V58Z" fill="#23324D"/>
<path d="M347 109C347 104.582 350.582 101 355 101H532C536.418 101 540 104.582 540 109V109C540 113.418 536.418 117 532 117H355C350.582 117 347 113.418 347 109V109Z" fill="#23324D"/>
<path d="M347 58C347 53.5817 350.582 50 355 50H392C396.418 50 400 53.5817 400 58V58C400 62.4183 396.418 66 392 66H355C350.582 66 347 62.4183 347 58V58Z" fill="#2CC6F1"/>
<path opacity="0.5" d="M347 58C347 53.5817 350.582 50 355 50H447C451.418 50 455 53.5817 455 58V58C455 62.4183 451.418 66 447 66H355C350.582 66 347 62.4183 347 58V58Z" fill="#2CC6F1"/>
<path d="M347 109C347 104.582 350.582 101 355 101H416C420.418 101 424 104.582 424 109V109C424 113.418 420.418 117 416 117H355C350.582 117 347 113.418 347 109V109Z" fill="#2CC6F1"/>
<path opacity="0.5" d="M347 109C347 104.582 350.582 101 355 101H468C472.418 101 476 104.582 476 109V109C476 113.418 472.418 117 468 117H355C350.582 117 347 113.418 347 109V109Z" fill="#2CC6F1"/>
<path fill-rule="evenodd" clip-rule="evenodd" d="M99.3033 106.757L94.5303 111.53C94.2374 111.823 93.7625 111.823 93.4696 111.53L88.6967 106.757C88.4038 106.464 88.4038 105.99 88.6967 105.697C88.9896 105.404 89.4644 105.404 89.7573 105.697L93.25 109.189L93.25 96L94.75 96L94.75 109.189L98.2426 105.697C98.5355 105.404 99.0104 105.404 99.3033 105.697C99.5962 105.99 99.5962 106.464 99.3033 106.757Z" fill="#77839A"/>
</g>
<defs>
<clipPath id="clip0_276_539">
<rect width="540" height="148" fill="white"/>
</clipPath>
</defs>
</svg>
