<svg width="540" height="88" viewBox="0 0 540 88" fill="none" xmlns="http://www.w3.org/2000/svg">
<g clip-path="url(#clip0_276_509)">
<rect x="78.5" y="0.5" width="96" height="27" rx="13.5" fill="white"/>
<rect x="78.5" y="0.5" width="96" height="27" rx="13.5" stroke="#EDEDED"/>
<circle cx="93" cy="14" r="9" fill="#1A1A1A"/>
<path d="M112.817 19L114.488 8.81818H115.681L114.011 19H112.817ZM108.209 16.2756L108.403 15.0824H116.119L115.925 16.2756H108.209ZM109.238 19L110.908 8.81818H112.102L110.431 19H109.238ZM108.8 12.7358L108.994 11.5426H116.71L116.516 12.7358H108.8ZM121.672 8.81818V19H120.131V10.3594H120.072L117.635 11.9503V10.4787L120.176 8.81818H121.672ZM125.342 19H123.711L127.375 8.81818H129.15L132.814 19H131.184L128.305 10.6676H128.225L125.342 19ZM125.615 15.0128H130.905V16.3054H125.615V15.0128ZM137.446 8.81818V19H135.905V10.3594H135.845L133.409 11.9503V10.4787L135.949 8.81818H137.446ZM141.115 19H139.485L143.149 8.81818H144.924L148.588 19H146.957L144.078 10.6676H143.999L141.115 19ZM141.389 15.0128H146.679V16.3054H141.389V15.0128ZM153.219 8.81818V19H151.678V10.3594H151.618L149.182 11.9503V10.4787L151.723 8.81818H153.219ZM156.889 19H155.258L158.922 8.81818H160.697L164.361 19H162.73L159.852 10.6676H159.772L156.889 19ZM157.162 15.0128H162.452V16.3054H157.162V15.0128Z" fill="black"/>
<rect x="78.5" y="60.5" width="116" height="27" rx="13.5" fill="white"/>
<rect x="78.5" y="60.5" width="116" height="27" rx="13.5" stroke="#EDEDED"/>
<circle cx="93" cy="74" r="9" fill="#1A1A1A"/>
<path d="M110.486 74.4659V79H108.999V71.3636H110.426V72.6065H110.521C110.696 72.2022 110.971 71.8774 111.346 71.6321C111.724 71.3868 112.199 71.2642 112.773 71.2642C113.293 71.2642 113.749 71.3736 114.14 71.5923C114.531 71.8078 114.834 72.1293 115.05 72.5568C115.265 72.9844 115.373 73.513 115.373 74.1428V79H113.886V74.3217C113.886 73.7682 113.742 73.3357 113.454 73.0241C113.165 72.7093 112.769 72.5518 112.266 72.5518C111.921 72.5518 111.614 72.6264 111.346 72.7756C111.081 72.9247 110.87 73.1435 110.714 73.4318C110.562 73.7169 110.486 74.0616 110.486 74.4659ZM120.574 79.1541C119.821 79.1541 119.173 78.9934 118.63 78.6719C118.09 78.3471 117.672 77.8913 117.377 77.3047C117.085 76.7147 116.939 76.0237 116.939 75.2315C116.939 74.4493 117.085 73.7599 117.377 73.1634C117.672 72.5668 118.083 72.1011 118.61 71.7663C119.14 71.4316 119.76 71.2642 120.469 71.2642C120.9 71.2642 121.318 71.3355 121.722 71.478C122.126 71.6205 122.489 71.8442 122.811 72.1491C123.132 72.4541 123.386 72.8501 123.572 73.3374C123.757 73.8213 123.85 74.4096 123.85 75.1023V75.6293H117.78V74.5156H122.393C122.393 74.1245 122.314 73.7782 122.155 73.4766C121.996 73.1716 121.772 72.9313 121.483 72.7557C121.198 72.58 120.864 72.4922 120.479 72.4922C120.062 72.4922 119.697 72.5949 119.385 72.8004C119.077 73.0026 118.839 73.2678 118.67 73.5959C118.504 73.9207 118.421 74.2737 118.421 74.6548V75.5249C118.421 76.0353 118.51 76.4695 118.689 76.8274C118.872 77.1854 119.125 77.4588 119.45 77.6477C119.775 77.8333 120.154 77.9261 120.589 77.9261C120.87 77.9261 121.127 77.8864 121.359 77.8068C121.591 77.724 121.792 77.6013 121.961 77.4389C122.13 77.2765 122.259 77.076 122.349 76.8374L123.755 77.0909C123.643 77.5052 123.441 77.8681 123.149 78.1797C122.861 78.4879 122.498 78.7282 122.06 78.9006C121.626 79.0696 121.13 79.1541 120.574 79.1541ZM130.253 75.8331V71.3636H131.744V79H130.282V77.6776H130.203C130.027 78.0852 129.746 78.425 129.358 78.6967C128.973 78.9652 128.494 79.0994 127.921 79.0994C127.43 79.0994 126.996 78.9917 126.618 78.7763C126.244 78.5575 125.949 78.2344 125.733 77.8068C125.521 77.3793 125.415 76.8506 125.415 76.2209V71.3636H126.902V76.0419C126.902 76.5623 127.046 76.9766 127.334 77.2848C127.623 77.593 127.997 77.7472 128.458 77.7472C128.736 77.7472 129.013 77.6776 129.288 77.5384C129.567 77.3991 129.797 77.1887 129.979 76.907C130.165 76.6252 130.256 76.2673 130.253 75.8331ZM137.222 71.3636V72.5568H133.051V71.3636H137.222ZM134.17 69.5341H135.656V76.7578C135.656 77.0462 135.699 77.2633 135.785 77.4091C135.871 77.5516 135.982 77.6494 136.118 77.7024C136.258 77.7521 136.408 77.777 136.571 77.777C136.69 77.777 136.795 77.7687 136.884 77.7521C136.973 77.7356 137.043 77.7223 137.093 77.7124L137.361 78.9403C137.275 78.9735 137.152 79.0066 136.993 79.0398C136.834 79.0762 136.635 79.0961 136.397 79.0994C136.006 79.1061 135.641 79.0365 135.303 78.8906C134.965 78.7448 134.692 78.5194 134.483 78.2145C134.274 77.9096 134.17 77.5268 134.17 77.0661V69.5341ZM138.782 79V71.3636H140.219V72.5767H140.299C140.438 72.1657 140.683 71.8426 141.035 71.6072C141.389 71.3686 141.79 71.2493 142.238 71.2493C142.33 71.2493 142.44 71.2526 142.566 71.2592C142.695 71.2659 142.796 71.2741 142.869 71.2841V72.706C142.809 72.6894 142.703 72.6712 142.551 72.6513C142.398 72.6281 142.246 72.6165 142.094 72.6165C141.742 72.6165 141.429 72.6911 141.154 72.8402C140.882 72.986 140.667 73.1899 140.508 73.4517C140.348 73.7102 140.269 74.0052 140.269 74.3366V79H138.782ZM146.225 79.169C145.742 79.169 145.304 79.0795 144.913 78.9006C144.522 78.7183 144.212 78.4548 143.983 78.1101C143.758 77.7654 143.645 77.3428 143.645 76.8423C143.645 76.4115 143.728 76.0568 143.894 75.7784C144.059 75.5 144.283 75.2796 144.565 75.1172C144.847 74.9548 145.162 74.8321 145.51 74.7493C145.858 74.6664 146.212 74.6035 146.573 74.5604C147.031 74.5073 147.402 74.4643 147.687 74.4311C147.972 74.3946 148.179 74.3366 148.309 74.2571C148.438 74.1776 148.502 74.0483 148.502 73.8693V73.8345C148.502 73.4003 148.38 73.0639 148.135 72.8253C147.893 72.5866 147.531 72.4673 147.051 72.4673C146.55 72.4673 146.156 72.5784 145.867 72.8004C145.582 73.0192 145.385 73.2628 145.276 73.5312L143.879 73.2131C144.045 72.7491 144.287 72.3745 144.605 72.0895C144.926 71.8011 145.296 71.5923 145.713 71.4631C146.131 71.3305 146.57 71.2642 147.031 71.2642C147.336 71.2642 147.659 71.3007 148 71.3736C148.345 71.4432 148.666 71.5724 148.965 71.7614C149.266 71.9503 149.513 72.2204 149.706 72.5717C149.898 72.9197 149.994 73.3722 149.994 73.929V79H148.542V77.956H148.483C148.386 78.1482 148.242 78.3371 148.05 78.5227C147.858 78.7083 147.611 78.8625 147.309 78.9851C147.008 79.1077 146.646 79.169 146.225 79.169ZM146.549 77.9759C146.96 77.9759 147.311 77.8946 147.603 77.7322C147.898 77.5698 148.121 77.3577 148.274 77.0959C148.429 76.8307 148.507 76.5473 148.507 76.2457V75.2614C148.454 75.3144 148.352 75.3641 148.199 75.4105C148.05 75.4536 147.879 75.4917 147.687 75.5249C147.495 75.5547 147.308 75.5829 147.125 75.6094C146.943 75.6326 146.791 75.6525 146.668 75.669C146.38 75.7055 146.116 75.7668 145.877 75.853C145.642 75.9392 145.453 76.0634 145.311 76.2259C145.171 76.3849 145.102 76.5971 145.102 76.8622C145.102 77.2301 145.238 77.5085 145.51 77.6974C145.781 77.883 146.128 77.9759 146.549 77.9759ZM153.376 68.8182V79H151.89V68.8182H153.376ZM156.272 79.0945C156 79.0945 155.766 78.9983 155.571 78.8061C155.375 78.6106 155.277 78.3752 155.277 78.1001C155.277 77.8284 155.375 77.5964 155.571 77.4041C155.766 77.2086 156 77.1108 156.272 77.1108C156.543 77.1108 156.777 77.2086 156.973 77.4041C157.168 77.5964 157.266 77.8284 157.266 78.1001C157.266 78.2824 157.219 78.4498 157.127 78.6023C157.037 78.7514 156.918 78.8707 156.769 78.9602C156.62 79.0497 156.454 79.0945 156.272 79.0945ZM162.416 68.679C162.87 68.6823 163.317 68.7652 163.758 68.9276C164.199 69.09 164.597 69.3551 164.951 69.723C165.309 70.0909 165.594 70.5881 165.806 71.2145C166.022 71.8376 166.131 72.6132 166.134 73.5412C166.134 74.4328 166.045 75.2266 165.866 75.9226C165.687 76.6153 165.43 77.2003 165.095 77.6776C164.764 78.1548 164.361 78.5178 163.887 78.7663C163.413 79.0149 162.88 79.1392 162.286 79.1392C161.68 79.1392 161.141 79.0199 160.671 78.7812C160.2 78.5426 159.817 78.2128 159.522 77.7919C159.227 77.3677 159.043 76.8804 158.97 76.3303H160.487C160.586 76.7678 160.788 77.1224 161.093 77.3942C161.402 77.6626 161.799 77.7969 162.286 77.7969C163.032 77.7969 163.614 77.4721 164.031 76.8224C164.449 76.1695 164.66 75.258 164.663 74.0881H164.583C164.411 74.3731 164.196 74.6184 163.937 74.8239C163.682 75.0294 163.395 75.1884 163.077 75.3011C162.759 75.4138 162.419 75.4702 162.058 75.4702C161.471 75.4702 160.937 75.326 160.457 75.0376C159.976 74.7493 159.594 74.3532 159.308 73.8494C159.023 73.3456 158.881 72.7706 158.881 72.1243C158.881 71.4813 159.027 70.898 159.318 70.3743C159.613 69.8506 160.024 69.4363 160.551 69.1314C161.082 68.8232 161.703 68.6723 162.416 68.679ZM162.421 69.9716C162.033 69.9716 161.683 70.0677 161.372 70.2599C161.063 70.4489 160.82 70.7057 160.641 71.0305C160.462 71.352 160.372 71.71 160.372 72.1044C160.372 72.4988 160.459 72.8568 160.631 73.1783C160.807 73.4964 161.045 73.75 161.347 73.9389C161.652 74.1245 162 74.2173 162.391 74.2173C162.683 74.2173 162.954 74.161 163.206 74.0483C163.458 73.9356 163.678 73.7798 163.867 73.581C164.056 73.3788 164.204 73.1501 164.31 72.8949C164.416 72.6397 164.469 72.3712 164.469 72.0895C164.469 71.715 164.379 71.367 164.201 71.0455C164.025 70.724 163.783 70.4654 163.475 70.2699C163.166 70.071 162.815 69.9716 162.421 69.9716ZM171.391 79.169C170.606 79.1657 169.935 78.9586 169.378 78.5476C168.821 78.1366 168.395 77.5384 168.1 76.7528C167.805 75.9673 167.658 75.0211 167.658 73.9141C167.658 72.8104 167.805 71.8674 168.1 71.0852C168.398 70.303 168.826 69.7064 169.383 69.2955C169.943 68.8845 170.612 68.679 171.391 68.679C172.17 68.679 172.838 68.8861 173.395 69.3004C173.952 69.7114 174.377 70.308 174.672 71.0902C174.971 71.8691 175.12 72.8104 175.12 73.9141C175.12 75.0244 174.972 75.9723 174.677 76.7578C174.382 77.54 173.957 78.1383 173.4 78.5526C172.843 78.9635 172.173 79.169 171.391 79.169ZM171.391 77.8416C172.081 77.8416 172.619 77.5052 173.007 76.8324C173.398 76.1596 173.594 75.1868 173.594 73.9141C173.594 73.0689 173.504 72.3546 173.325 71.7713C173.149 71.1847 172.896 70.7405 172.564 70.4389C172.236 70.134 171.845 69.9815 171.391 69.9815C170.705 69.9815 170.167 70.3196 169.775 70.9957C169.384 71.6719 169.187 72.6446 169.184 73.9141C169.184 74.7625 169.272 75.4801 169.447 76.0668C169.626 76.6501 169.88 77.0926 170.208 77.3942C170.536 77.6925 170.93 77.8416 171.391 77.8416ZM180.344 79.169C179.559 79.1657 178.888 78.9586 178.331 78.5476C177.774 78.1366 177.348 77.5384 177.053 76.7528C176.758 75.9673 176.611 75.0211 176.611 73.9141C176.611 72.8104 176.758 71.8674 177.053 71.0852C177.351 70.303 177.779 69.7064 178.336 69.2955C178.896 68.8845 179.565 68.679 180.344 68.679C181.123 68.679 181.791 68.8861 182.348 69.3004C182.905 69.7114 183.331 70.308 183.626 71.0902C183.924 71.8691 184.073 72.8104 184.073 73.9141C184.073 75.0244 183.926 75.9723 183.631 76.7578C183.336 77.54 182.91 78.1383 182.353 78.5526C181.796 78.9635 181.127 79.169 180.344 79.169ZM180.344 77.8416C181.034 77.8416 181.572 77.5052 181.96 76.8324C182.351 76.1596 182.547 75.1868 182.547 73.9141C182.547 73.0689 182.457 72.3546 182.278 71.7713C182.103 71.1847 181.849 70.7405 181.518 70.4389C181.189 70.134 180.798 69.9815 180.344 69.9815C179.658 69.9815 179.12 70.3196 178.729 70.9957C178.337 71.6719 178.14 72.6446 178.137 73.9141C178.137 74.7625 178.225 75.4801 178.4 76.0668C178.579 76.6501 178.833 77.0926 179.161 77.3942C179.489 77.6925 179.884 77.8416 180.344 77.8416Z" fill="black"/>
<path d="M26.7526 19.1799C25.1446 19.1799 23.7886 18.1359 23.7886 16.0959C23.7886 14.2479 25.0966 13.0479 26.6206 13.0479C28.4086 13.0479 29.4406 14.3439 29.4406 16.1559C29.4406 16.2999 29.4286 16.4679 29.4166 16.5399H24.9526C25.0006 17.4999 25.7806 18.1839 26.7526 18.1839C27.6886 18.1839 28.3846 17.9199 29.1646 17.3079V18.3759C28.6726 18.7599 27.9286 19.1799 26.7526 19.1799ZM24.9886 15.6039H28.2646C28.2406 14.6919 27.6646 14.0439 26.6206 14.0439C25.6726 14.0439 25.0366 14.7759 24.9886 15.6039Z" fill="#98AAC8"/>
<path d="M19.6072 19.1797C18.5032 19.1797 17.4352 18.4357 17.4352 17.0317V13.2397H18.5152V16.7557C18.5152 17.6317 19.1392 18.1477 19.8592 18.1477C20.4712 18.1477 20.9512 17.8597 21.3232 17.3917V13.2397H22.4032V18.9997H21.3472V18.4477C20.9512 18.8557 20.3752 19.1797 19.6072 19.1797Z" fill="#98AAC8"/>
<path d="M14.4951 18.9998V10.2998H15.5751V18.9998H14.4951Z" fill="#98AAC8"/>
<path d="M10.0973 19.1799C8.80132 19.1799 7.87732 18.4479 7.87732 17.1639C7.87732 15.9759 8.92132 15.2919 10.0973 15.2919C10.7453 15.2919 11.3573 15.4479 11.7293 15.6519V15.0399C11.7293 14.4759 11.2973 14.0079 10.4093 14.0079C9.56932 14.0079 8.74132 14.3319 8.21332 14.6679V13.5759C8.83732 13.2639 9.54532 13.0479 10.4093 13.0479C12.1253 13.0479 12.8093 14.0319 12.8093 15.1599V18.9999H11.7653V18.5319C11.4173 18.8679 10.8293 19.1799 10.0973 19.1799ZM10.2893 18.2559C10.9733 18.2559 11.5133 17.8959 11.7293 17.6799V16.6239C11.5133 16.4559 10.9493 16.1919 10.2893 16.1919C9.55732 16.1919 9.00532 16.5399 9.00532 17.1639C9.00532 17.8359 9.55732 18.2559 10.2893 18.2559Z" fill="#98AAC8"/>
<path d="M3.97199 19.1796L0.23999 10.5996H1.54799L4.05599 16.5756L6.58799 10.5996H7.88399L4.09199 19.1796H3.97199Z" fill="#98AAC8"/>
<path d="M453.101 12.0003V6.24034H454.157V6.79234C454.553 6.38434 455.129 6.04834 455.897 6.04834C457.001 6.04834 458.069 6.79234 458.069 8.19634V12.0003H456.989V8.47234C456.989 7.59634 456.365 7.08034 455.645 7.08034C455.033 7.08034 454.553 7.38034 454.181 7.84834V12.0003H453.101Z" fill="#98AAC8"/>
<path d="M448.625 12.1803C446.873 12.1803 445.589 10.8723 445.589 9.10834C445.589 7.35634 446.873 6.04834 448.625 6.04834C450.377 6.04834 451.661 7.35634 451.661 9.10834C451.661 10.8723 450.377 12.1803 448.625 12.1803ZM448.625 11.1603C449.609 11.1603 450.521 10.4523 450.521 9.10834C450.521 7.77634 449.609 7.06834 448.625 7.06834C447.641 7.06834 446.729 7.77634 446.729 9.10834C446.729 10.4523 447.641 11.1603 448.625 11.1603Z" fill="#98AAC8"/>
<path d="M443.598 4.83623C443.154 4.83623 442.818 4.48823 442.818 4.04423C442.818 3.58823 443.154 3.24023 443.598 3.24023C444.054 3.24023 444.39 3.58823 444.39 4.04423C444.39 4.48823 444.054 4.83623 443.598 4.83623ZM443.07 12.0002V6.24023H444.15V12.0002H443.07Z" fill="#98AAC8"/>
<path d="M439.24 12.1803C438.52 12.1803 437.764 11.9643 437.284 11.7123V10.6683C437.944 11.0163 438.628 11.2203 439.24 11.2203C440.02 11.2203 440.452 10.9323 440.452 10.3923C440.452 10.0203 440.176 9.76834 439.696 9.66034L438.712 9.44434C437.788 9.24034 437.272 8.66434 437.272 7.80034C437.272 6.74434 438.184 6.04834 439.444 6.04834C440.236 6.04834 440.824 6.24034 441.28 6.44434V7.50034C440.68 7.18834 440.008 7.00834 439.444 7.00834C438.688 7.00834 438.352 7.35634 438.352 7.80034C438.352 8.10034 438.568 8.37634 439.048 8.48434L439.96 8.68834C441.004 8.91634 441.556 9.51634 441.556 10.3923C441.556 11.5443 440.524 12.1803 439.24 12.1803Z" fill="#98AAC8"/>
<path d="M435.16 4.83623C434.716 4.83623 434.38 4.48823 434.38 4.04423C434.38 3.58823 434.716 3.24023 435.16 3.24023C435.616 3.24023 435.952 3.58823 435.952 4.04423C435.952 4.48823 435.616 4.83623 435.16 4.83623ZM434.632 12.0002V6.24023H435.712V12.0002H434.632Z" fill="#98AAC8"/>
<path d="M431.259 7.10434C430.323 7.10434 429.327 7.76434 429.327 9.10834C429.327 10.4523 430.323 11.1243 431.259 11.1243C431.931 11.1243 432.471 10.9683 433.059 10.5723V11.7723C432.627 11.9763 432.039 12.1803 431.259 12.1803C429.483 12.1803 428.175 10.9083 428.175 9.10834C428.175 7.30834 429.483 6.04834 431.259 6.04834C432.039 6.04834 432.627 6.25234 433.059 6.45634V7.65634C432.471 7.26034 431.931 7.10434 431.259 7.10434Z" fill="#98AAC8"/>
<path d="M424.53 12.1803C422.922 12.1803 421.566 11.1363 421.566 9.09634C421.566 7.24834 422.874 6.04834 424.398 6.04834C426.186 6.04834 427.218 7.34434 427.218 9.15634C427.218 9.30034 427.206 9.46834 427.194 9.54034H422.73C422.778 10.5003 423.558 11.1843 424.53 11.1843C425.466 11.1843 426.162 10.9203 426.942 10.3083V11.3763C426.45 11.7603 425.706 12.1803 424.53 12.1803ZM422.766 8.60434H426.042C426.018 7.69234 425.442 7.04434 424.398 7.04434C423.45 7.04434 422.814 7.77634 422.766 8.60434Z" fill="#98AAC8"/>
<path d="M417.687 12.0003V6.24034H418.743V7.23634C419.043 6.46834 419.751 6.04834 420.507 6.04834C420.687 6.04834 420.819 6.07234 420.903 6.08434V7.28434C420.735 7.26034 420.543 7.24834 420.387 7.24834C419.439 7.24834 418.923 7.87234 418.767 8.42434V12.0003H417.687Z" fill="#98AAC8"/>
<path d="M410.526 14.2683V6.24034H411.606V6.84034C412.026 6.40834 412.59 6.04834 413.49 6.04834C415.182 6.04834 416.25 7.40434 416.25 9.09634C416.25 10.8123 415.182 12.1803 413.49 12.1803C412.59 12.1803 412.026 11.8083 411.606 11.3763V14.2683H410.526ZM413.298 11.1603C414.402 11.1603 415.11 10.3803 415.11 9.09634C415.11 7.83634 414.402 7.06834 413.298 7.06834C412.53 7.06834 411.954 7.52434 411.606 8.01634V10.2003C411.954 10.6923 412.53 11.1603 413.298 11.1603Z" fill="#98AAC8"/>
<path d="M404.011 12.0003V3.30029H405.091V12.0003H404.011Z" fill="#98AAC8"/>
<path d="M399.613 12.1803C398.317 12.1803 397.393 11.4483 397.393 10.1643C397.393 8.97634 398.437 8.29234 399.613 8.29234C400.261 8.29234 400.873 8.44834 401.245 8.65234V8.04034C401.245 7.47634 400.813 7.00834 399.925 7.00834C399.085 7.00834 398.257 7.33234 397.729 7.66834V6.57634C398.353 6.26434 399.061 6.04834 399.925 6.04834C401.641 6.04834 402.325 7.03234 402.325 8.16034V12.0003H401.281V11.5323C400.933 11.8683 400.345 12.1803 399.613 12.1803ZM399.805 11.2563C400.489 11.2563 401.029 10.8963 401.245 10.6803V9.62434C401.029 9.45634 400.465 9.19234 399.805 9.19234C399.073 9.19234 398.521 9.54034 398.521 10.1643C398.521 10.8363 399.073 11.2563 399.805 11.2563Z" fill="#98AAC8"/>
<path d="M393.092 12.1802C391.988 12.1802 390.92 11.4362 390.92 10.0322V6.24023H392V9.75623C392 10.6322 392.624 11.1482 393.344 11.1482C393.956 11.1482 394.436 10.8602 394.808 10.3922V6.24023H395.888V12.0002H394.832V11.4482C394.436 11.8562 393.86 12.1802 393.092 12.1802Z" fill="#98AAC8"/>
<path d="M388.611 12.18C387.627 12.18 386.991 11.628 386.991 10.584V7.20004H385.947V6.24004H387.063V4.53604L388.071 3.93604V6.24004H389.475V7.20004H388.071V10.416C388.071 10.944 388.359 11.208 388.935 11.208C389.127 11.208 389.343 11.172 389.475 11.124V12.06C389.379 12.096 388.995 12.18 388.611 12.18Z" fill="#98AAC8"/>
<path d="M379.815 12.0002L382.011 9.03623L379.947 6.24023H381.291L382.743 8.31623L384.147 6.24023H385.455L383.451 9.08423L385.587 12.0002H384.255L382.671 9.81623L381.135 12.0002H379.815Z" fill="#98AAC8"/>
<path d="M376.706 12.1803C375.098 12.1803 373.742 11.1363 373.742 9.09634C373.742 7.24834 375.05 6.04834 376.574 6.04834C378.362 6.04834 379.394 7.34434 379.394 9.15634C379.394 9.30034 379.382 9.46834 379.37 9.54034H374.906C374.954 10.5003 375.734 11.1843 376.706 11.1843C377.642 11.1843 378.338 10.9203 379.118 10.3083V11.3763C378.626 11.7603 377.882 12.1803 376.706 12.1803ZM374.942 8.60434H378.218C378.194 7.69234 377.618 7.04434 376.574 7.04434C375.626 7.04434 374.99 7.77634 374.942 8.60434Z" fill="#98AAC8"/>
<path d="M371.853 12.18C370.869 12.18 370.233 11.628 370.233 10.584V7.20004H369.189V6.24004H370.305V4.53604L371.313 3.93604V6.24004H372.717V7.20004H371.313V10.416C371.313 10.944 371.601 11.208 372.177 11.208C372.369 11.208 372.585 11.172 372.717 11.124V12.06C372.621 12.096 372.237 12.18 371.853 12.18Z" fill="#98AAC8"/>
<path d="M363.136 12.0003V6.24034H364.192V6.79234C364.588 6.38434 365.164 6.04834 365.932 6.04834C367.036 6.04834 368.104 6.79234 368.104 8.19634V12.0003H367.024V8.47234C367.024 7.59634 366.4 7.08034 365.68 7.08034C365.068 7.08034 364.588 7.38034 364.216 7.84834V12.0003H363.136Z" fill="#98AAC8"/>
<path d="M358.661 12.1803C356.909 12.1803 355.625 10.8723 355.625 9.10834C355.625 7.35634 356.909 6.04834 358.661 6.04834C360.413 6.04834 361.697 7.35634 361.697 9.10834C361.697 10.8723 360.413 12.1803 358.661 12.1803ZM358.661 11.1603C359.645 11.1603 360.557 10.4523 360.557 9.10834C360.557 7.77634 359.645 7.06834 358.661 7.06834C357.677 7.06834 356.765 7.77634 356.765 9.10834C356.765 10.4523 357.677 11.1603 358.661 11.1603Z" fill="#98AAC8"/>
<path d="M351.824 4.48841C350.276 4.48841 348.716 5.52041 348.716 7.80041C348.716 10.0804 350.276 11.1124 351.824 11.1124C352.856 11.1124 353.744 10.8004 354.668 10.2124V11.4124C353.828 11.8564 353.024 12.1804 351.824 12.1804C349.64 12.1804 347.54 10.7044 347.54 7.80041C347.54 4.89641 349.64 3.42041 351.824 3.42041C353.024 3.42041 353.828 3.74441 354.668 4.18841V5.38841C353.744 4.80041 352.856 4.48841 351.824 4.48841Z" fill="#98AAC8"/>
<path d="M395.854 63.1799C394.246 63.1799 392.89 62.1359 392.89 60.0959C392.89 58.2479 394.198 57.0479 395.722 57.0479C397.51 57.0479 398.542 58.3439 398.542 60.1559C398.542 60.2999 398.53 60.4679 398.518 60.5399H394.054C394.102 61.4999 394.882 62.1839 395.854 62.1839C396.79 62.1839 397.486 61.9199 398.266 61.3079V62.3759C397.774 62.7599 397.03 63.1799 395.854 63.1799ZM394.09 59.6039H397.366C397.342 58.6919 396.766 58.0439 395.722 58.0439C394.774 58.0439 394.138 58.7759 394.09 59.6039Z" fill="#98AAC8"/>
<path d="M388.724 65.5919C387.716 65.5919 386.828 65.2199 386.324 64.8959V63.7679C387.116 64.3199 388.04 64.5839 388.724 64.5839C389.936 64.5839 390.608 64.0559 390.608 62.8559V62.1119C390.224 62.5439 389.564 62.9039 388.664 62.9039C387.152 62.9039 385.964 61.7879 385.964 59.9759C385.964 58.1639 387.152 57.0479 388.664 57.0479C389.564 57.0479 390.224 57.4079 390.608 57.8399V57.2399H391.688V62.8559C391.688 64.2839 390.896 65.5919 388.724 65.5919ZM388.856 61.8839C389.612 61.8839 390.26 61.4279 390.608 60.9359V59.0159C390.284 58.5239 389.624 58.0679 388.856 58.0679C387.944 58.0679 387.104 58.7159 387.104 59.9759C387.104 61.3559 387.944 61.8839 388.856 61.8839Z" fill="#98AAC8"/>
<path d="M382.047 63.1799C380.751 63.1799 379.827 62.4479 379.827 61.1639C379.827 59.9759 380.871 59.2919 382.047 59.2919C382.695 59.2919 383.307 59.4479 383.679 59.6519V59.0399C383.679 58.4759 383.247 58.0079 382.359 58.0079C381.519 58.0079 380.691 58.3319 380.163 58.6679V57.5759C380.787 57.2639 381.495 57.0479 382.359 57.0479C384.075 57.0479 384.759 58.0319 384.759 59.1599V62.9999H383.715V62.5319C383.367 62.8679 382.779 63.1799 382.047 63.1799ZM382.239 62.2559C382.923 62.2559 383.463 61.8959 383.679 61.6799V60.6239C383.463 60.4559 382.899 60.1919 382.239 60.1919C381.507 60.1919 380.955 60.5399 380.955 61.1639C380.955 61.8359 381.507 62.2559 382.239 62.2559Z" fill="#98AAC8"/>
<path d="M375.651 62.9999V57.2399H376.707V58.2359C377.007 57.4679 377.715 57.0479 378.471 57.0479C378.651 57.0479 378.783 57.0719 378.867 57.0839V58.2839C378.699 58.2599 378.507 58.2479 378.351 58.2479C377.403 58.2479 376.887 58.8719 376.731 59.4239V62.9999H375.651Z" fill="#98AAC8"/>
<path d="M371.526 63.1799C369.918 63.1799 368.562 62.1359 368.562 60.0959C368.562 58.2479 369.87 57.0479 371.394 57.0479C373.182 57.0479 374.214 58.3439 374.214 60.1559C374.214 60.2999 374.202 60.4679 374.19 60.5399H369.726C369.774 61.4999 370.554 62.1839 371.526 62.1839C372.462 62.1839 373.158 61.9199 373.938 61.3079V62.3759C373.446 62.7599 372.702 63.1799 371.526 63.1799ZM369.762 59.6039H373.038C373.014 58.6919 372.438 58.0439 371.394 58.0439C370.446 58.0439 369.81 58.7759 369.762 59.6039Z" fill="#98AAC8"/>
<path d="M364.579 62.9997L362.179 57.2397H363.415L365.155 61.7037L366.907 57.2397H368.083L365.719 62.9997H364.579Z" fill="#98AAC8"/>
<path d="M358.661 63.1799C356.909 63.1799 355.625 61.8719 355.625 60.1079C355.625 58.3559 356.909 57.0479 358.661 57.0479C360.413 57.0479 361.697 58.3559 361.697 60.1079C361.697 61.8719 360.413 63.1799 358.661 63.1799ZM358.661 62.1599C359.645 62.1599 360.557 61.4519 360.557 60.1079C360.557 58.7759 359.645 58.0679 358.661 58.0679C357.677 58.0679 356.765 58.7759 356.765 60.1079C356.765 61.4519 357.677 62.1599 358.661 62.1599Z" fill="#98AAC8"/>
<path d="M351.824 55.4879C350.276 55.4879 348.716 56.5199 348.716 58.7999C348.716 61.0799 350.276 62.1119 351.824 62.1119C352.856 62.1119 353.744 61.7999 354.668 61.2119V62.4119C353.828 62.8559 353.024 63.1799 351.824 63.1799C349.64 63.1799 347.54 61.7039 347.54 58.7999C347.54 55.8959 349.64 54.4199 351.824 54.4199C353.024 54.4199 353.828 54.7439 354.668 55.1879V56.3879C353.744 55.7999 352.856 55.4879 351.824 55.4879Z" fill="#98AAC8"/>
<path d="M44.7877 79.1803C43.1797 79.1803 41.8237 78.1363 41.8237 76.0963C41.8237 74.2483 43.1317 73.0483 44.6557 73.0483C46.4437 73.0483 47.4757 74.3443 47.4757 76.1563C47.4757 76.3003 47.4637 76.4683 47.4517 76.5403H42.9877C43.0357 77.5003 43.8157 78.1843 44.7877 78.1843C45.7237 78.1843 46.4197 77.9203 47.1997 77.3083V78.3763C46.7077 78.7603 45.9637 79.1803 44.7877 79.1803ZM43.0237 75.6043H46.2997C46.2757 74.6923 45.6997 74.0443 44.6557 74.0443C43.7077 74.0443 43.0717 74.7763 43.0237 75.6043Z" fill="#98AAC8"/>
<path d="M37.8403 79.0002L35.4403 73.2402H36.6763L38.4163 77.7042L40.1683 73.2402H41.3443L38.9803 79.0002H37.8403Z" fill="#98AAC8"/>
<path d="M33.8086 71.8362C33.3646 71.8362 33.0286 71.4882 33.0286 71.0442C33.0286 70.5882 33.3646 70.2402 33.8086 70.2402C34.2646 70.2402 34.6006 70.5882 34.6006 71.0442C34.6006 71.4882 34.2646 71.8362 33.8086 71.8362ZM33.2806 79.0002V73.2402H34.3606V79.0002H33.2806Z" fill="#98AAC8"/>
<path d="M30.9001 79.18C29.9161 79.18 29.2801 78.628 29.2801 77.584V74.2H28.2361V73.24H29.3521V71.536L30.3601 70.936V73.24H31.7641V74.2H30.3601V77.416C30.3601 77.944 30.6481 78.208 31.2241 78.208C31.4161 78.208 31.6321 78.172 31.7641 78.124V79.06C31.6681 79.096 31.2841 79.18 30.9001 79.18Z" fill="#98AAC8"/>
<path d="M26.4843 71.8362C26.0403 71.8362 25.7043 71.4882 25.7043 71.0442C25.7043 70.5882 26.0403 70.2402 26.4843 70.2402C26.9403 70.2402 27.2763 70.5882 27.2763 71.0442C27.2763 71.4882 26.9403 71.8362 26.4843 71.8362ZM25.9563 79.0002V73.2402H27.0363V79.0002H25.9563Z" fill="#98AAC8"/>
<path d="M22.0047 73.0483C23.1087 73.0483 24.1407 73.7923 24.1407 75.1963V79.0003H23.0607V75.4723C23.0607 74.5963 22.5567 74.0803 21.8367 74.0803C21.2367 74.0803 20.7567 74.3563 20.3847 74.8243C20.3967 74.9443 20.4087 75.0643 20.4087 75.1963V79.0003H19.3407V75.4723C19.3407 74.5963 18.8607 74.0803 18.1407 74.0803C17.5287 74.0803 17.0487 74.3803 16.6767 74.8483V79.0003H15.5967V73.2403H16.6527V73.7923C17.0487 73.3843 17.6247 73.0483 18.3927 73.0483C19.0527 73.0483 19.6527 73.3123 20.0127 73.8403C20.3367 73.5283 20.9727 73.0483 22.0047 73.0483Z" fill="#98AAC8"/>
<path d="M13.125 71.8362C12.681 71.8362 12.345 71.4882 12.345 71.0442C12.345 70.5882 12.681 70.2402 13.125 70.2402C13.581 70.2402 13.917 70.5882 13.917 71.0442C13.917 71.4882 13.581 71.8362 13.125 71.8362ZM12.597 79.0002V73.2402H13.677V79.0002H12.597Z" fill="#98AAC8"/>
<path d="M8.0498 79.0003V73.2403H9.1058V74.2363C9.4058 73.4683 10.1138 73.0483 10.8698 73.0483C11.0498 73.0483 11.1818 73.0723 11.2658 73.0843V74.2843C11.0978 74.2603 10.9058 74.2483 10.7498 74.2483C9.8018 74.2483 9.2858 74.8723 9.1298 75.4243V79.0003H8.0498Z" fill="#98AAC8"/>
<path d="M1.07996 79.0001V70.6001H4.10396C5.67596 70.6001 6.73196 71.8121 6.73196 73.2401C6.73196 74.6801 5.67596 75.8681 4.10396 75.8681H2.20796V79.0001H1.07996ZM2.20796 74.8241H3.91196C4.94396 74.8241 5.55596 74.1281 5.55596 73.2401C5.55596 72.3521 4.94396 71.6441 3.91196 71.6441H2.20796V74.8241Z" fill="#98AAC8"/>
<path fill-rule="evenodd" clip-rule="evenodd" d="M323 88L323 -4.37114e-08L324 0L324 88L323 88Z" fill="#23324D"/>
<path d="M347 27C347 22.5817 350.582 19 355 19H532C536.418 19 540 22.5817 540 27V27C540 31.4183 536.418 35 532 35H355C350.582 35 347 31.4183 347 27V27Z" fill="#23324D"/>
<path d="M347 78C347 73.5817 350.582 70 355 70H532C536.418 70 540 73.5817 540 78V78C540 82.4183 536.418 86 532 86H355C350.582 86 347 82.4183 347 78V78Z" fill="#23324D"/>
<path d="M347 78C347 73.5817 350.582 70 355 70H518C522.418 70 526 73.5817 526 78V78C526 82.4183 522.418 86 518 86H355C350.582 86 347 82.4183 347 78V78Z" fill="#2CC6F1"/>
<path fill-rule="evenodd" clip-rule="evenodd" d="M99.3033 46.7574L94.5303 51.5303C94.2374 51.8232 93.7625 51.8232 93.4696 51.5303L88.6967 46.7574C88.4038 46.4645 88.4038 45.9896 88.6967 45.6967C88.9896 45.4038 89.4644 45.4038 89.7573 45.6967L93.25 49.1893L93.25 36L94.75 36L94.75 49.1893L98.2426 45.6967C98.5355 45.4038 99.0104 45.4038 99.3033 45.6967C99.5962 45.9896 99.5962 46.4645 99.3033 46.7574Z" fill="#77839A"/>
</g>
<defs>
<clipPath id="clip0_276_509">
<rect width="540" height="88" fill="white"/>
</clipPath>
</defs>
</svg>
