<svg width="32" height="32" viewBox="0 0 32 32" fill="none" xmlns="http://www.w3.org/2000/svg">
<path d="M6.03523 6.1399C7.42798 6.1399 8.5886 4.97928 8.5886 3.55337C8.5886 2.16062 7.42798 1 6.03523 1C4.60933 1 3.4487 2.16062 3.4487 3.55337C3.4487 4.97928 4.60933 6.1399 6.03523 6.1399ZM25.9979 6.1399C27.3907 6.1399 28.5513 4.97928 28.5513 3.55337C28.5513 2.16062 27.3907 1 25.9979 1C24.572 1 23.4114 2.16062 23.4114 3.55337C23.4114 4.97928 24.572 6.1399 25.9979 6.1399ZM16.0166 30.6456C24.8373 30.6456 32 23.5492 32 14.7285C32 14.0321 31.5357 13.5347 30.8725 13.5347C30.1762 13.5347 29.7119 14.0321 29.7119 14.7285C29.6788 22.256 23.6435 28.3907 16.0166 28.3907C8.38964 28.3907 2.28808 22.256 2.28808 14.7285C2.28808 14.0321 1.82383 13.5347 1.12746 13.5347C0.464249 13.5347 0 14.0321 0 14.7285C0 23.5492 7.16269 30.6456 16.0166 30.6456Z" fill="url(#paint0_linear_109_350)"/>
<defs>
<linearGradient id="paint0_linear_109_350" x1="0" y1="1" x2="34.0947" y2="3.64512" gradientUnits="userSpaceOnUse">
<stop stop-color="#3BF0E4"/>
<stop offset="1" stop-color="#1A98FF"/>
</linearGradient>
</defs>
</svg>
