<svg width="597" height="493" viewBox="0 0 597 493" fill="none" xmlns="http://www.w3.org/2000/svg">
<path d="M405.205 486.46C405.205 486.06 405.205 485.74 405.245 485.3H405.205C404.345 486.64 402.965 487.32 401.445 487.32C398.725 487.32 396.385 485.24 396.385 481.4C396.385 477.7 398.725 475.68 401.445 475.68C403.045 475.68 404.405 476.38 405.205 477.7H405.245C405.205 477.24 405.205 476.9 405.205 476.48V471H407.405V487H405.205V486.46ZM402.005 485.42C404.025 485.4 405.205 483.62 405.205 481.38C405.205 479.26 404.025 477.6 402.005 477.58C399.985 477.56 398.665 479.1 398.665 481.4C398.665 483.8 399.985 485.44 402.005 485.42Z" fill="#DFE4EC"/>
<path d="M395.227 480.5V482.28H386.927C387.187 484.24 388.387 485.42 390.027 485.42C391.307 485.42 392.347 484.7 392.727 483.62H395.127C394.667 485.76 392.687 487.32 390.027 487.32C386.787 487.32 384.607 485 384.607 481.5C384.607 477.86 386.827 475.68 390.027 475.68C393.027 475.68 395.227 477.74 395.227 480.5ZM390.027 477.58C388.367 477.58 387.227 478.76 386.947 480.32H393.007C392.767 478.7 391.647 477.58 390.027 477.58Z" fill="#DFE4EC"/>
<path d="M378.408 487.32C375.108 487.32 372.888 485 372.888 481.48C372.888 478.06 374.948 475.68 378.408 475.68C381.568 475.68 383.308 477.72 383.548 480.2H381.268C381.168 478.8 380.168 477.58 378.408 477.58C376.408 477.58 375.168 479.2 375.168 481.48C375.168 483.9 376.588 485.42 378.408 485.42C380.148 485.42 381.108 484.1 381.268 483.02H383.548C383.248 485.28 381.468 487.32 378.408 487.32Z" fill="#DFE4EC"/>
<path d="M365.647 487.32C363.307 487.32 361.887 485.6 361.887 482.94V476H364.087V482.76C364.087 484.66 365.027 485.36 366.227 485.36C367.707 485.36 368.887 484.28 368.887 482.2V476H371.087V487H368.927V485.42H368.887C368.347 486.32 367.367 487.32 365.647 487.32Z" fill="#DFE4EC"/>
<path d="M357.294 486.46C357.294 486.06 357.294 485.74 357.334 485.3H357.294C356.434 486.64 355.054 487.32 353.534 487.32C350.814 487.32 348.474 485.24 348.474 481.4C348.474 477.7 350.814 475.68 353.534 475.68C355.134 475.68 356.494 476.38 357.294 477.7H357.334C357.294 477.24 357.294 476.9 357.294 476.48V471H359.494V487H357.294V486.46ZM354.094 485.42C356.114 485.4 357.294 483.62 357.294 481.38C357.294 479.26 356.114 477.6 354.094 477.58C352.074 477.56 350.754 479.1 350.754 481.4C350.754 483.8 352.074 485.44 354.094 485.42Z" fill="#DFE4EC"/>
<path d="M341.787 487.32C338.707 487.32 336.267 485.22 336.267 481.5C336.267 477.76 338.707 475.68 341.787 475.68C344.867 475.68 347.307 477.76 347.307 481.5C347.307 485.22 344.867 487.32 341.787 487.32ZM341.787 485.42C343.587 485.4 345.027 484.16 345.027 481.5C345.027 478.82 343.587 477.6 341.787 477.58C339.987 477.56 338.547 478.82 338.547 481.5C338.547 484.16 339.987 485.44 341.787 485.42Z" fill="#DFE4EC"/>
<path d="M329.603 487V476H331.763V477.7H331.803C332.383 476.76 333.383 475.68 335.003 475.68H335.943V477.58H334.763C332.963 477.58 331.803 478.68 331.803 480.8V487H329.603Z" fill="#DFE4EC"/>
<path d="M322.682 473C325.282 473 327.542 474.62 327.542 477.34C327.542 480.06 325.282 481.58 322.682 481.58H318.642V487H316.382V473H322.682ZM322.162 479.54C323.922 479.54 325.182 478.72 325.182 477.34C325.182 475.96 323.922 475.04 322.162 475.04H318.642V479.54H322.162Z" fill="#DFE4EC"/>
<path d="M305.804 486.4L306.564 488.3C307.004 489.4 306.304 490.4 305.144 490.4H299.604V488.42H304.324L299.324 476H301.784L304.664 483.84L307.484 476H309.924L305.804 486.4Z" fill="#DFE4EC"/>
<path d="M298.959 477.92H295.979V483.92C295.979 484.66 296.439 485.08 297.099 485.08H298.959V487H296.899C294.859 487 293.779 486.12 293.779 484.06V477.92H291.979V476H293.779V473H295.979V476H298.959V477.92Z" fill="#DFE4EC"/>
<path d="M288.43 474.26V472H290.69V474.26H288.43ZM288.45 487V476H290.65V487H288.45Z" fill="#DFE4EC"/>
<path d="M287.045 477.92H284.065V483.92C284.065 484.66 284.525 485.08 285.185 485.08H287.045V487H284.985C282.945 487 281.865 486.12 281.865 484.06V477.92H280.065V476H281.865V473H284.065V476H287.045V477.92Z" fill="#DFE4EC"/>
<path d="M269.408 487V476H271.568V477.58H271.608C272.168 476.68 273.168 475.68 274.948 475.68C277.348 475.68 278.828 477.4 278.828 480.06V487H276.628V480.24C276.628 478.34 275.648 477.64 274.368 477.64C272.828 477.64 271.608 478.72 271.608 480.8V487H269.408Z" fill="#DFE4EC"/>
<path d="M267.363 485.08H268.023V487H267.043C265.803 487 264.963 486.3 264.663 485.18H264.523C263.643 486.52 262.283 487.32 260.683 487.32C257.963 487.32 255.623 485.28 255.623 481.5C255.623 477.74 257.963 475.68 260.683 475.68C262.183 475.68 263.483 476.22 264.403 477.52H264.443V476H266.643V484.4C266.643 484.84 266.903 485.08 267.363 485.08ZM261.243 485.42C263.243 485.4 264.523 483.58 264.523 481.52C264.523 479.36 263.303 477.6 261.243 477.58C259.243 477.56 257.903 479.18 257.903 481.5C257.903 483.88 259.243 485.44 261.243 485.42Z" fill="#DFE4EC"/>
<path d="M248.381 487.32C246.041 487.32 244.621 485.6 244.621 482.94V476H246.821V482.76C246.821 484.66 247.761 485.36 248.961 485.36C250.441 485.36 251.621 484.28 251.621 482.2V476H253.821V487H251.661V485.42H251.621C251.081 486.32 250.101 487.32 248.381 487.32Z" fill="#DFE4EC"/>
<path d="M242.783 480C242.783 484.38 240.183 486.98 236.663 487.28L236.183 488.42H240.163V490.4H235.323C234.203 490.4 233.503 489.44 233.923 488.34L234.363 487.18C231.263 486.56 229.043 484.04 229.043 480C229.043 475.32 232.023 472.68 235.923 472.68C239.803 472.68 242.783 475.32 242.783 480ZM231.403 480C231.403 483.56 233.423 485.38 235.923 485.36C238.403 485.34 240.423 483.56 240.423 480C240.423 476.42 238.403 474.72 235.923 474.68C233.423 474.64 231.403 476.42 231.403 480Z" fill="#DFE4EC"/>
<path d="M12.96 164.638L12.96 167.618L18.92 167.618C19.66 167.618 20.08 167.158 20.08 166.498L20.08 164.638L22 164.638L22 166.698C22 168.718 21.1 169.818 19.06 169.818L12.96 169.818L12.96 176.118C12.96 177.538 13.44 178.298 14.14 178.298C15 178.298 15.32 177.918 15.34 176.018L15.34 175.598C15.34 173.118 16.72 171.518 18.76 171.518C20.54 171.518 22.32 173.118 22.32 176.198C22.32 178.758 20.64 180.638 18.36 180.778L18.36 178.478C19.56 178.358 20.42 177.478 20.42 176.198C20.42 174.758 19.7 173.798 18.76 173.798C17.7 173.798 17.26 174.378 17.26 176.278L17.26 176.878C17.26 178.938 16.12 180.578 14.14 180.578C12.64 180.578 11.04 179.098 11.04 176.118L11.04 169.818L8 169.818L8 167.618L11.04 167.618L11.04 164.638L12.96 164.638Z" fill="#DFE4EC"/>
<path d="M22.3199 187.505C22.3199 190.585 20.2199 193.025 16.4999 193.025C12.7599 193.025 10.6799 190.585 10.6799 187.505C10.6799 184.425 12.7599 181.985 16.4999 181.985C20.2199 181.985 22.3199 184.425 22.3199 187.505ZM20.4199 187.505C20.3999 185.705 19.1599 184.265 16.4999 184.265C13.8199 184.265 12.5999 185.705 12.5799 187.505C12.5599 189.305 13.8199 190.745 16.4999 190.745C19.1599 190.745 20.4399 189.305 20.4199 187.505Z" fill="#DFE4EC"/>
<path d="M22.3199 200.75C22.3199 204.93 19.4199 207.77 14.9799 207.77C10.6799 207.77 7.67993 205.13 7.67993 200.75C7.67993 196.69 10.2599 194.45 13.3599 194.13L13.3599 196.49C11.3799 196.65 9.63993 198.13 9.63993 200.75C9.63993 203.63 11.8599 205.41 14.9799 205.41C18.2799 205.41 20.3599 203.37 20.3599 200.75C20.3599 198.17 18.4599 196.71 16.8999 196.49L16.8999 194.13C19.7799 194.53 22.3199 196.81 22.3199 200.75Z" fill="#DFE4EC"/>
<path d="M15.4999 214.007L17.2799 214.007L17.2799 222.307C19.2399 222.047 20.4199 220.847 20.4199 219.207C20.4199 217.927 19.6999 216.887 18.6199 216.507L18.6199 214.107C20.7599 214.567 22.3199 216.547 22.3199 219.207C22.3199 222.447 19.9999 224.627 16.4999 224.627C12.8599 224.627 10.6799 222.407 10.6799 219.207C10.6799 216.207 12.7399 214.007 15.4999 214.007ZM12.5799 219.207C12.5799 220.867 13.7599 222.007 15.3199 222.287L15.3199 216.227C13.6999 216.467 12.5799 217.587 12.5799 219.207Z" fill="#DFE4EC"/>
<path d="M10.9999 227.799L10.9999 225.659L21.0399 225.659C24.1999 225.659 25.7999 227.599 25.7999 231.039L25.7999 236.219L23.8999 236.219L23.8999 231.099C23.8999 228.859 22.8399 227.799 20.9399 227.799L20.2399 227.799L20.2399 227.859C21.4399 228.679 21.9599 230.139 21.9599 231.639C21.9599 234.339 19.9599 236.699 16.2999 236.699C12.6799 236.699 10.6799 234.339 10.6799 231.639C10.6799 230.079 11.2199 228.719 12.5199 227.799L12.5199 227.759C12.0799 227.799 11.7199 227.799 11.3199 227.799L10.9999 227.799ZM20.0399 231.079C20.0199 229.019 18.2799 227.799 16.2999 227.799C14.3399 227.799 12.5999 228.959 12.5799 231.079C12.5599 232.999 13.7999 234.399 16.2999 234.399C18.7399 234.399 20.0799 232.999 20.0399 231.079Z" fill="#DFE4EC"/>
<path d="M20.0799 237.926L20.0799 237.266L21.9999 237.266L21.9999 238.246C21.9999 239.486 21.2999 240.326 20.1799 240.626L20.1799 240.766C21.5199 241.646 22.3199 243.006 22.3199 244.606C22.3199 247.326 20.2799 249.666 16.4999 249.666C12.7399 249.666 10.6799 247.326 10.6799 244.606C10.6799 243.106 11.2199 241.806 12.5199 240.886L12.5199 240.846L10.9999 240.846L10.9999 238.646L19.3999 238.646C19.8399 238.646 20.0799 238.386 20.0799 237.926ZM20.4199 244.046C20.3999 242.046 18.5799 240.766 16.5199 240.766C14.3599 240.766 12.5999 241.986 12.5799 244.046C12.5599 246.046 14.1799 247.386 16.4999 247.386C18.8799 247.386 20.4399 246.046 20.4199 244.046Z" fill="#DFE4EC"/>
<path d="M21.9999 256.33L10.9999 256.33L10.9999 254.17L12.6999 254.17L12.6999 254.13C11.7599 253.55 10.6799 252.55 10.6799 250.93L10.6799 249.99L12.5799 249.99L12.5799 251.17C12.5799 252.97 13.6799 254.13 15.7999 254.13L21.9999 254.13L21.9999 256.33Z" fill="#DFE4EC"/>
<path d="M15.4999 258.148L17.2799 258.148L17.2799 266.448C19.2399 266.188 20.4199 264.988 20.4199 263.348C20.4199 262.068 19.6999 261.028 18.6199 260.648L18.6199 258.248C20.7599 258.708 22.3199 260.688 22.3199 263.348C22.3199 266.588 19.9999 268.768 16.4999 268.768C12.8599 268.768 10.6799 266.548 10.6799 263.348C10.6799 260.348 12.7399 258.148 15.4999 258.148ZM12.5799 263.348C12.5799 265.008 13.7599 266.148 15.3199 266.428L15.3199 260.368C13.6999 260.608 12.5799 261.728 12.5799 263.348Z" fill="#DFE4EC"/>
<path d="M11 271.473L11 269.013L22 273.273L22 275.533L11 279.813L11 277.353L19.34 274.413L11 271.473Z" fill="#DFE4EC"/>
<path d="M22 280.875L18.46 282.135L18.46 287.735L22 288.995L22 291.395L8 286.075L8 283.795L22 278.475L22 280.875ZM16.42 287.015L16.42 282.855L10.56 284.935L16.42 287.015Z" fill="#DFE4EC"/>
<path d="M44 3H594V453H44V3Z" fill="#0C162C"/>
<path fill-rule="evenodd" clip-rule="evenodd" d="M26.3223 17.1422L42.2322 1.23227C43.2086 0.255952 44.7915 0.255952 45.7678 1.23227L61.6777 17.1422C62.654 18.1185 62.654 19.7014 61.6777 20.6777C60.7014 21.654 59.1185 21.654 58.1421 20.6777L46.5 9.03558L46.5 450.5L587.964 450.5L576.322 438.858C575.346 437.882 575.346 436.299 576.322 435.322C577.299 434.346 578.882 434.346 579.858 435.322L595.768 451.232C596.744 452.209 596.744 453.791 595.768 454.768L579.858 470.678C578.882 471.654 577.299 471.654 576.322 470.678C575.346 469.701 575.346 468.118 576.322 467.142L587.964 455.5L41.5 455.5L41.5 9.03558L29.8579 20.6777C28.8816 21.654 27.2987 21.654 26.3223 20.6777C25.346 19.7014 25.346 18.1185 26.3223 17.1422Z" fill="#23324D"/>
<path fill-rule="evenodd" clip-rule="evenodd" d="M131.621 272.854C95.5111 199.517 81.9434 111.633 80.5007 53.0616L85.4992 52.9384C86.9302 111.034 100.411 198.15 136.107 270.646C171.786 343.108 229.378 400.5 319 400.5V405.5C226.719 405.5 167.747 346.225 131.621 272.854Z" fill="#2CC6F1"/>
<path fill-rule="evenodd" clip-rule="evenodd" d="M506.379 272.854C542.489 199.517 556.057 111.633 557.499 53.0616L552.501 52.9384C551.07 111.034 537.589 198.15 501.893 270.646C466.214 343.108 408.622 400.5 319 400.5V405.5C411.281 405.5 470.253 346.225 506.379 272.854Z" fill="#2CC6F1"/>
<path fill-rule="evenodd" clip-rule="evenodd" d="M319 415L319 392L324 392L324 415L319 415Z" fill="#1A98FF"/>
<path d="M466.412 172.27C464 172.27 461.966 170.704 461.966 167.644C461.966 164.872 463.928 163.072 466.214 163.072C468.896 163.072 470.444 165.016 470.444 167.734C470.444 167.95 470.426 168.202 470.408 168.31H463.712C463.784 169.75 464.954 170.776 466.412 170.776C467.816 170.776 468.86 170.38 470.03 169.462V171.064C469.292 171.64 468.176 172.27 466.412 172.27ZM463.766 166.906H468.68C468.644 165.538 467.78 164.566 466.214 164.566C464.792 164.566 463.838 165.664 463.766 166.906Z" fill="#DFE4EC"/>
<path d="M458.186 172V158.95H459.806V172H458.186Z" fill="#DFE4EC"/>
<path d="M451.59 172.27C449.646 172.27 448.26 171.172 448.26 169.246C448.26 167.464 449.826 166.438 451.59 166.438C452.562 166.438 453.48 166.672 454.038 166.978V166.06C454.038 165.214 453.39 164.512 452.058 164.512C450.798 164.512 449.556 164.998 448.764 165.502V163.864C449.7 163.396 450.762 163.072 452.058 163.072C454.632 163.072 455.658 164.548 455.658 166.24V172H454.092V171.298C453.57 171.802 452.688 172.27 451.59 172.27ZM451.878 170.884C452.904 170.884 453.714 170.344 454.038 170.02V168.436C453.714 168.184 452.868 167.788 451.878 167.788C450.78 167.788 449.952 168.31 449.952 169.246C449.952 170.254 450.78 170.884 451.878 170.884Z" fill="#DFE4EC"/>
<path d="M443.758 164.656C442.354 164.656 440.86 165.646 440.86 167.662C440.86 169.678 442.354 170.686 443.758 170.686C444.766 170.686 445.576 170.452 446.458 169.858V171.658C445.81 171.964 444.928 172.27 443.758 172.27C441.094 172.27 439.132 170.362 439.132 167.662C439.132 164.962 441.094 163.072 443.758 163.072C444.928 163.072 445.81 163.378 446.458 163.684V165.484C445.576 164.89 444.766 164.656 443.758 164.656Z" fill="#DFE4EC"/>
<path d="M434.237 164.962C436.361 165.43 437.513 166.726 437.513 168.58C437.513 170.488 436.037 172.27 433.301 172.27C431.375 172.27 429.989 171.676 429.053 171.172V169.48C430.115 170.092 431.735 170.704 433.301 170.704C435.065 170.704 435.749 169.768 435.749 168.58C435.749 167.68 435.119 166.834 433.841 166.564L432.023 166.168C430.133 165.754 428.963 164.674 428.963 162.694C428.963 160.768 430.547 159.13 433.409 159.13C434.867 159.13 435.929 159.472 436.865 159.868V161.596C435.803 161.056 434.579 160.678 433.409 160.678C431.753 160.678 430.691 161.452 430.691 162.694C430.691 163.684 431.249 164.314 432.329 164.548L434.237 164.962Z" fill="#DFE4EC"/>
<path d="M418.349 172V164.8H416.747V163.36H418.385V161.884C418.385 160.102 419.411 158.914 421.319 158.914C421.787 158.914 422.039 158.968 422.255 159.022V160.588C422.111 160.534 421.805 160.462 421.427 160.462C420.833 160.462 419.969 160.786 419.969 161.974V163.36H422.237V164.8H419.969V172H418.349Z" fill="#DFE4EC"/>
<path d="M411.114 172.27C408.486 172.27 406.56 170.308 406.56 167.662C406.56 165.034 408.486 163.072 411.114 163.072C413.742 163.072 415.668 165.034 415.668 167.662C415.668 170.308 413.742 172.27 411.114 172.27ZM411.114 170.74C412.59 170.74 413.958 169.678 413.958 167.662C413.958 165.664 412.59 164.602 411.114 164.602C409.638 164.602 408.27 165.664 408.27 167.662C408.27 169.678 409.638 170.74 411.114 170.74Z" fill="#DFE4EC"/>
<path d="M491.061 147.27C489.981 147.27 488.847 146.946 488.127 146.568V145.002C489.117 145.524 490.143 145.83 491.061 145.83C492.231 145.83 492.879 145.398 492.879 144.588C492.879 144.03 492.465 143.652 491.745 143.49L490.269 143.166C488.883 142.86 488.109 141.996 488.109 140.7C488.109 139.116 489.477 138.072 491.367 138.072C492.555 138.072 493.437 138.36 494.121 138.666V140.25C493.221 139.782 492.213 139.512 491.367 139.512C490.233 139.512 489.729 140.034 489.729 140.7C489.729 141.15 490.053 141.564 490.773 141.726L492.141 142.032C493.707 142.374 494.535 143.274 494.535 144.588C494.535 146.316 492.987 147.27 491.061 147.27Z" fill="#DFE4EC"/>
<path d="M482.461 147.27C480.049 147.27 478.015 145.704 478.015 142.644C478.015 139.872 479.977 138.072 482.263 138.072C484.945 138.072 486.493 140.016 486.493 142.734C486.493 142.95 486.475 143.202 486.457 143.31H479.761C479.833 144.75 481.003 145.776 482.461 145.776C483.865 145.776 484.909 145.38 486.079 144.462V146.064C485.341 146.64 484.225 147.27 482.461 147.27ZM479.815 141.906H484.729C484.693 140.538 483.829 139.566 482.263 139.566C480.841 139.566 479.887 140.664 479.815 141.906Z" fill="#DFE4EC"/>
<path d="M475.027 136.254C474.361 136.254 473.857 135.732 473.857 135.066C473.857 134.382 474.361 133.86 475.027 133.86C475.711 133.86 476.215 134.382 476.215 135.066C476.215 135.732 475.711 136.254 475.027 136.254ZM474.235 147V138.36H475.855V147H474.235Z" fill="#DFE4EC"/>
<path d="M468.308 138.072C469.964 138.072 471.512 139.188 471.512 141.294V147H469.892V141.708C469.892 140.394 469.136 139.62 468.056 139.62C467.156 139.62 466.436 140.034 465.878 140.736C465.896 140.916 465.914 141.096 465.914 141.294V147H464.312V141.708C464.312 140.394 463.592 139.62 462.512 139.62C461.594 139.62 460.874 140.07 460.316 140.772V147H458.696V138.36H460.28V139.188C460.874 138.576 461.738 138.072 462.89 138.072C463.88 138.072 464.78 138.468 465.32 139.26C465.806 138.792 466.76 138.072 468.308 138.072Z" fill="#DFE4EC"/>
<path d="M451.983 147.27C449.355 147.27 447.429 145.308 447.429 142.662C447.429 140.034 449.355 138.072 451.983 138.072C454.611 138.072 456.537 140.034 456.537 142.662C456.537 145.308 454.611 147.27 451.983 147.27ZM451.983 145.74C453.459 145.74 454.827 144.678 454.827 142.662C454.827 140.664 453.459 139.602 451.983 139.602C450.507 139.602 449.139 140.664 449.139 142.662C449.139 144.678 450.507 145.74 451.983 145.74Z" fill="#DFE4EC"/>
<path d="M437.989 147V138.36H439.573V139.188C440.167 138.576 441.031 138.072 442.183 138.072C443.839 138.072 445.441 139.188 445.441 141.294V147H443.821V141.708C443.821 140.394 442.885 139.62 441.805 139.62C440.887 139.62 440.167 140.07 439.609 140.772V147H437.989Z" fill="#DFE4EC"/>
<path d="M431.276 147.27C428.648 147.27 426.722 145.308 426.722 142.662C426.722 140.034 428.648 138.072 431.276 138.072C433.904 138.072 435.83 140.034 435.83 142.662C435.83 145.308 433.904 147.27 431.276 147.27ZM431.276 145.74C432.752 145.74 434.12 144.678 434.12 142.662C434.12 140.664 432.752 139.602 431.276 139.602C429.8 139.602 428.432 140.664 428.432 142.662C428.432 144.678 429.8 145.74 431.276 145.74Z" fill="#DFE4EC"/>
<path d="M422.401 139.656C420.997 139.656 419.503 140.646 419.503 142.662C419.503 144.678 420.997 145.686 422.401 145.686C423.409 145.686 424.219 145.452 425.101 144.858V146.658C424.453 146.964 423.571 147.27 422.401 147.27C419.737 147.27 417.775 145.362 417.775 142.662C417.775 139.962 419.737 138.072 422.401 138.072C423.571 138.072 424.453 138.378 425.101 138.684V140.484C424.219 139.89 423.409 139.656 422.401 139.656Z" fill="#DFE4EC"/>
<path d="M412.307 147.27C409.895 147.27 407.861 145.704 407.861 142.644C407.861 139.872 409.823 138.072 412.109 138.072C414.791 138.072 416.339 140.016 416.339 142.734C416.339 142.95 416.321 143.202 416.303 143.31H409.607C409.679 144.75 410.849 145.776 412.307 145.776C413.711 145.776 414.755 145.38 415.925 144.462V146.064C415.187 146.64 414.071 147.27 412.307 147.27ZM409.661 141.906H414.575C414.539 140.538 413.675 139.566 412.109 139.566C410.687 139.566 409.733 140.664 409.661 141.906Z" fill="#DFE4EC"/>
<path d="M402.854 147.27C401.774 147.27 400.64 146.946 399.92 146.568V145.002C400.91 145.524 401.936 145.83 402.854 145.83C404.024 145.83 404.672 145.398 404.672 144.588C404.672 144.03 404.258 143.652 403.538 143.49L402.062 143.166C400.676 142.86 399.902 141.996 399.902 140.7C399.902 139.116 401.27 138.072 403.16 138.072C404.348 138.072 405.23 138.36 405.914 138.666V140.25C405.014 139.782 404.006 139.512 403.16 139.512C402.026 139.512 401.522 140.034 401.522 140.7C401.522 141.15 401.846 141.564 402.566 141.726L403.934 142.032C405.5 142.374 406.328 143.274 406.328 144.588C406.328 146.316 404.78 147.27 402.854 147.27Z" fill="#DFE4EC"/>
<path d="M396.734 136.254C396.068 136.254 395.564 135.732 395.564 135.066C395.564 134.382 396.068 133.86 396.734 133.86C397.418 133.86 397.922 134.382 397.922 135.066C397.922 135.732 397.418 136.254 396.734 136.254ZM395.942 147V138.36H397.562V147H395.942Z" fill="#DFE4EC"/>
<path d="M383.272 147V134.4H387.664C390.904 134.4 393.676 136.542 393.676 140.736C393.676 144.912 390.868 147 387.628 147H383.272ZM384.964 145.434H387.574C389.932 145.434 391.912 143.94 391.912 140.736C391.912 137.514 389.968 135.966 387.61 135.966H384.964V145.434Z" fill="#DFE4EC"/>
<path d="M230.912 172.27C228.5 172.27 226.466 170.704 226.466 167.644C226.466 164.872 228.428 163.072 230.714 163.072C233.396 163.072 234.944 165.016 234.944 167.734C234.944 167.95 234.926 168.202 234.908 168.31H228.212C228.284 169.75 229.454 170.776 230.912 170.776C232.316 170.776 233.36 170.38 234.53 169.462V171.064C233.792 171.64 232.676 172.27 230.912 172.27ZM228.266 166.906H233.18C233.144 165.538 232.28 164.566 230.714 164.566C229.292 164.566 228.338 165.664 228.266 166.906Z" fill="#DFE4EC"/>
<path d="M222.686 172V158.95H224.306V172H222.686Z" fill="#DFE4EC"/>
<path d="M216.09 172.27C214.146 172.27 212.76 171.172 212.76 169.246C212.76 167.464 214.326 166.438 216.09 166.438C217.062 166.438 217.98 166.672 218.538 166.978V166.06C218.538 165.214 217.89 164.512 216.558 164.512C215.298 164.512 214.056 164.998 213.264 165.502V163.864C214.2 163.396 215.262 163.072 216.558 163.072C219.132 163.072 220.158 164.548 220.158 166.24V172H218.592V171.298C218.07 171.802 217.188 172.27 216.09 172.27ZM216.378 170.884C217.404 170.884 218.214 170.344 218.538 170.02V168.436C218.214 168.184 217.368 167.788 216.378 167.788C215.28 167.788 214.452 168.31 214.452 169.246C214.452 170.254 215.28 170.884 216.378 170.884Z" fill="#DFE4EC"/>
<path d="M208.258 164.656C206.854 164.656 205.36 165.646 205.36 167.662C205.36 169.678 206.854 170.686 208.258 170.686C209.266 170.686 210.076 170.452 210.958 169.858V171.658C210.31 171.964 209.428 172.27 208.258 172.27C205.594 172.27 203.632 170.362 203.632 167.662C203.632 164.962 205.594 163.072 208.258 163.072C209.428 163.072 210.31 163.378 210.958 163.684V165.484C210.076 164.89 209.266 164.656 208.258 164.656Z" fill="#DFE4EC"/>
<path d="M198.737 164.962C200.861 165.43 202.013 166.726 202.013 168.58C202.013 170.488 200.537 172.27 197.801 172.27C195.875 172.27 194.489 171.676 193.553 171.172V169.48C194.615 170.092 196.235 170.704 197.801 170.704C199.565 170.704 200.249 169.768 200.249 168.58C200.249 167.68 199.619 166.834 198.341 166.564L196.523 166.168C194.633 165.754 193.463 164.674 193.463 162.694C193.463 160.768 195.047 159.13 197.909 159.13C199.367 159.13 200.429 159.472 201.365 159.868V161.596C200.303 161.056 199.079 160.678 197.909 160.678C196.253 160.678 195.191 161.452 195.191 162.694C195.191 163.684 195.749 164.314 196.829 164.548L198.737 164.962Z" fill="#DFE4EC"/>
<path d="M182.849 172V164.8H181.247V163.36H182.885V161.884C182.885 160.102 183.911 158.914 185.819 158.914C186.287 158.914 186.539 158.968 186.755 159.022V160.588C186.611 160.534 186.305 160.462 185.927 160.462C185.333 160.462 184.469 160.786 184.469 161.974V163.36H186.737V164.8H184.469V172H182.849Z" fill="#DFE4EC"/>
<path d="M175.614 172.27C172.986 172.27 171.06 170.308 171.06 167.662C171.06 165.034 172.986 163.072 175.614 163.072C178.242 163.072 180.168 165.034 180.168 167.662C180.168 170.308 178.242 172.27 175.614 172.27ZM175.614 170.74C177.09 170.74 178.458 169.678 178.458 167.662C178.458 165.664 177.09 164.602 175.614 164.602C174.138 164.602 172.77 165.664 172.77 167.662C172.77 169.678 174.138 170.74 175.614 170.74Z" fill="#DFE4EC"/>
<path d="M243.054 147.27C241.974 147.27 240.84 146.946 240.12 146.568V145.002C241.11 145.524 242.136 145.83 243.054 145.83C244.224 145.83 244.872 145.398 244.872 144.588C244.872 144.03 244.458 143.652 243.738 143.49L242.262 143.166C240.876 142.86 240.102 141.996 240.102 140.7C240.102 139.116 241.47 138.072 243.36 138.072C244.548 138.072 245.43 138.36 246.114 138.666V140.25C245.214 139.782 244.206 139.512 243.36 139.512C242.226 139.512 241.722 140.034 241.722 140.7C241.722 141.15 242.046 141.564 242.766 141.726L244.134 142.032C245.7 142.374 246.528 143.274 246.528 144.588C246.528 146.316 244.98 147.27 243.054 147.27Z" fill="#DFE4EC"/>
<path d="M234.454 147.27C232.042 147.27 230.008 145.704 230.008 142.644C230.008 139.872 231.97 138.072 234.256 138.072C236.938 138.072 238.486 140.016 238.486 142.734C238.486 142.95 238.468 143.202 238.45 143.31H231.754C231.826 144.75 232.996 145.776 234.454 145.776C235.858 145.776 236.902 145.38 238.072 144.462V146.064C237.334 146.64 236.218 147.27 234.454 147.27ZM231.808 141.906H236.722C236.686 140.538 235.822 139.566 234.256 139.566C232.834 139.566 231.88 140.664 231.808 141.906Z" fill="#DFE4EC"/>
<path d="M227.021 136.254C226.355 136.254 225.851 135.732 225.851 135.066C225.851 134.382 226.355 133.86 227.021 133.86C227.705 133.86 228.209 134.382 228.209 135.066C228.209 135.732 227.705 136.254 227.021 136.254ZM226.229 147V138.36H227.849V147H226.229Z" fill="#DFE4EC"/>
<path d="M220.301 138.072C221.957 138.072 223.505 139.188 223.505 141.294V147H221.885V141.708C221.885 140.394 221.129 139.62 220.049 139.62C219.149 139.62 218.429 140.034 217.871 140.736C217.889 140.916 217.907 141.096 217.907 141.294V147H216.305V141.708C216.305 140.394 215.585 139.62 214.505 139.62C213.587 139.62 212.867 140.07 212.309 140.772V147H210.689V138.36H212.273V139.188C212.867 138.576 213.731 138.072 214.883 138.072C215.873 138.072 216.773 138.468 217.313 139.26C217.799 138.792 218.753 138.072 220.301 138.072Z" fill="#DFE4EC"/>
<path d="M203.976 147.27C201.348 147.27 199.422 145.308 199.422 142.662C199.422 140.034 201.348 138.072 203.976 138.072C206.604 138.072 208.53 140.034 208.53 142.662C208.53 145.308 206.604 147.27 203.976 147.27ZM203.976 145.74C205.452 145.74 206.82 144.678 206.82 142.662C206.82 140.664 205.452 139.602 203.976 139.602C202.5 139.602 201.132 140.664 201.132 142.662C201.132 144.678 202.5 145.74 203.976 145.74Z" fill="#DFE4EC"/>
<path d="M189.982 147V138.36H191.566V139.188C192.16 138.576 193.024 138.072 194.176 138.072C195.832 138.072 197.434 139.188 197.434 141.294V147H195.814V141.708C195.814 140.394 194.878 139.62 193.798 139.62C192.88 139.62 192.16 140.07 191.602 140.772V147H189.982Z" fill="#DFE4EC"/>
<path d="M183.269 147.27C180.641 147.27 178.715 145.308 178.715 142.662C178.715 140.034 180.641 138.072 183.269 138.072C185.897 138.072 187.823 140.034 187.823 142.662C187.823 145.308 185.897 147.27 183.269 147.27ZM183.269 145.74C184.745 145.74 186.113 144.678 186.113 142.662C186.113 140.664 184.745 139.602 183.269 139.602C181.793 139.602 180.425 140.664 180.425 142.662C180.425 144.678 181.793 145.74 183.269 145.74Z" fill="#DFE4EC"/>
<path d="M174.394 139.656C172.99 139.656 171.496 140.646 171.496 142.662C171.496 144.678 172.99 145.686 174.394 145.686C175.402 145.686 176.212 145.452 177.094 144.858V146.658C176.446 146.964 175.564 147.27 174.394 147.27C171.73 147.27 169.768 145.362 169.768 142.662C169.768 139.962 171.73 138.072 174.394 138.072C175.564 138.072 176.446 138.378 177.094 138.684V140.484C176.212 139.89 175.402 139.656 174.394 139.656Z" fill="#DFE4EC"/>
<path d="M160.279 147V134.4H167.965V135.966H161.971V139.89H167.407V141.456H161.971V145.434H167.965V147H160.279Z" fill="#DFE4EC"/>
<path fill-rule="evenodd" clip-rule="evenodd" d="M473.08 235.697L465.694 252.111C465.241 253.119 464.057 253.568 463.049 253.115L446.635 245.728C445.627 245.275 445.178 244.091 445.632 243.083C446.085 242.076 447.269 241.627 448.276 242.08L460.288 247.485L440 194L443.74 192.581L464.028 246.067L469.433 234.055C469.886 233.048 471.07 232.599 472.077 233.052C473.085 233.506 473.534 234.69 473.08 235.697Z" fill="#23324D"/>
<path fill-rule="evenodd" clip-rule="evenodd" d="M170.79 235.697L178.176 252.111C178.629 253.119 179.814 253.568 180.821 253.115L197.235 245.728C198.243 245.275 198.692 244.091 198.238 243.083C197.785 242.076 196.601 241.627 195.594 242.08L183.582 247.485L203.87 194L200.13 192.581L179.842 246.067L174.437 234.055C173.984 233.048 172.8 232.599 171.793 233.052C170.785 233.506 170.336 234.69 170.79 235.697Z" fill="#23324D"/>
</svg>
