<svg width="599" height="233" viewBox="0 0 599 233" fill="none" xmlns="http://www.w3.org/2000/svg">
<path fill-rule="evenodd" clip-rule="evenodd" d="M59.0629 31.1033C67.8569 27.8949 76.6509 24.6865 85.4448 24.6865C94.2388 24.6865 103.033 27.8949 111.827 31.1033C120.621 34.3117 129.415 37.5201 138.209 37.5201C147.003 37.5201 155.797 34.3117 164.591 31.1033C173.384 27.8949 182.178 24.6865 190.972 24.6865C199.766 24.6865 208.56 27.8949 217.354 31.1033C226.148 34.3117 234.942 37.5201 243.736 37.5201C252.53 37.5201 261.324 34.3117 270.118 31.1033C278.912 27.8949 287.706 24.6865 296.5 24.6865C305.294 24.6865 314.088 27.8949 322.882 31.1033C331.676 34.3117 340.47 37.5201 349.264 37.5201C358.058 37.5201 366.852 34.3117 375.646 31.1033C384.44 27.8949 393.234 24.6865 402.028 24.6865C410.822 24.6865 419.616 27.8949 428.409 31.1033C437.203 34.3117 445.997 37.5201 454.791 37.5201C463.585 37.5201 472.379 34.3117 481.173 31.1033C489.967 27.8949 498.761 24.6865 507.555 24.6865C516.349 24.6865 525.143 27.8949 533.937 31.1033C542.731 34.3117 551.525 37.5201 560.319 37.5201C568.821 37.5201 579.377 33.5218 589.009 29.8738C591.772 28.8272 594.459 27.8095 597 26.9232V43V64.0134V230H2L2 64.2653V29.1208C2.65853 29.3691 3.32252 29.6206 3.99096 29.8738C13.6226 33.5218 24.1792 37.5201 32.681 37.5201C41.475 37.5201 50.269 34.3117 59.0629 31.1033Z" fill="#2CC6F1"/>
<path fill-rule="evenodd" clip-rule="evenodd" d="M58.6867 29.6439C67.3813 26.4716 76.3853 23.1865 85.4448 23.1865C94.5044 23.1865 103.508 26.4716 112.203 29.6439L112.341 29.6942C121.192 32.9233 129.728 36.0201 138.209 36.0201C146.689 36.0201 155.226 32.9233 164.076 29.6942L164.214 29.6438C172.909 26.4716 181.913 23.1865 190.972 23.1865C200.032 23.1865 209.036 26.4716 217.73 29.6438L217.868 29.6942C226.719 32.9233 235.256 36.0201 243.736 36.0201C252.217 36.0201 260.753 32.9233 269.604 29.6942L269.742 29.6439C278.436 26.4717 287.44 23.1865 296.5 23.1865C305.56 23.1865 314.564 26.4717 323.258 29.6439L323.396 29.6942C332.247 32.9233 340.783 36.0201 349.264 36.0201C357.744 36.0201 366.281 32.9233 375.132 29.6942L375.269 29.6439C383.964 26.4717 392.968 23.1865 402.028 23.1865C411.087 23.1865 420.091 26.4717 428.786 29.6439L428.924 29.6942C437.774 32.9233 446.311 36.0201 454.791 36.0201C463.272 36.0201 471.808 32.9233 480.659 29.6942L480.797 29.6439C489.492 26.4717 498.496 23.1865 507.555 23.1865C516.615 23.1865 525.618 26.4715 534.313 29.6437L534.451 29.6942C543.302 32.9233 551.839 36.0201 560.319 36.0201C568.485 36.0201 578.752 32.1546 588.478 28.471L588.494 28.465C591.247 27.4221 593.948 26.3992 596.506 25.5069L598.5 24.8114V231.5H0.500004L0.5 26.952L2.52929 27.7173C3.189 27.9661 3.85399 28.2179 4.52226 28.471C14.2478 32.1546 24.5147 36.0201 32.681 36.0201C41.1615 36.0201 49.6981 32.9233 58.5488 29.6942L58.6867 29.6439ZM85.4448 26.1865C76.9644 26.1865 68.4277 29.2834 59.577 32.5125L59.4391 32.5628C50.7445 35.735 41.7406 39.0201 32.681 39.0201C23.9038 39.0201 13.1446 34.9449 3.65424 31.3503L3.5 31.2918L3.5 228.5H595.5V29.0499C593.581 29.746 591.588 30.5009 589.54 31.2765L589.346 31.3502C579.855 34.9449 569.096 39.0201 560.319 39.0201C551.26 39.0201 542.256 35.7351 533.561 32.5629L533.423 32.5125C524.572 29.2834 516.036 26.1865 507.555 26.1865C499.075 26.1865 490.538 29.2834 481.687 32.5125L481.55 32.5628C472.855 35.735 463.851 39.0201 454.791 39.0201C445.732 39.0201 436.728 35.735 428.033 32.5628L427.895 32.5125C419.045 29.2834 410.508 26.1865 402.028 26.1865C393.547 26.1865 385.01 29.2834 376.16 32.5125L376.022 32.5628C367.327 35.735 358.323 39.0201 349.264 39.0201C340.204 39.0201 331.2 35.735 322.506 32.5628L322.368 32.5125C313.517 29.2834 304.98 26.1865 296.5 26.1865C288.02 26.1865 279.483 29.2834 270.632 32.5125L270.494 32.5628C261.8 35.735 252.796 39.0201 243.736 39.0201C234.677 39.0201 225.673 35.735 216.978 32.5628L216.84 32.5125C207.99 29.2834 199.453 26.1865 190.972 26.1865C182.492 26.1865 173.955 29.2834 165.105 32.5125L164.967 32.5628C156.272 35.735 147.268 39.0201 138.209 39.0201C129.149 39.0201 120.145 35.735 111.451 32.5628L111.313 32.5125C102.462 29.2834 93.9253 26.1865 85.4448 26.1865Z" fill="#23324D"/>
<path d="M463.41 93.536H458.642V103.072C458.642 104.256 459.378 104.928 460.434 104.928H463.41V108H460.114C456.882 108 455.122 106.56 455.122 103.296V93.536H445.042C442.77 93.536 441.554 94.304 441.554 95.424C441.554 96.8 442.162 97.312 445.202 97.344H445.874C449.842 97.344 452.402 99.552 452.402 102.816C452.402 105.664 449.842 108.512 444.914 108.512C440.818 108.512 437.81 105.824 437.586 102.176H441.266C441.458 104.096 442.866 105.472 444.914 105.472C447.218 105.472 448.754 104.32 448.754 102.816C448.754 101.12 447.826 100.416 444.786 100.416H443.826C440.53 100.416 437.906 98.592 437.906 95.424C437.906 93.024 440.274 90.464 445.042 90.464H455.122V85.6H458.642V90.464H463.41V93.536Z" fill="#040D21"/>
<path d="M426.822 108.512C421.894 108.512 417.99 105.152 417.99 99.2001C417.99 93.2161 421.894 89.8881 426.822 89.8881C431.75 89.8881 435.654 93.2161 435.654 99.2001C435.654 105.152 431.75 108.512 426.822 108.512ZM426.822 105.472C429.702 105.44 432.006 103.456 432.006 99.2001C432.006 94.9121 429.702 92.9601 426.822 92.9281C423.942 92.8961 421.638 94.9121 421.638 99.2001C421.638 103.456 423.942 105.504 426.822 105.472Z" fill="#040D21"/>
<path d="M405.632 108.512C398.944 108.512 394.4 103.872 394.4 96.768C394.4 89.888 398.624 85.088 405.632 85.088C412.128 85.088 415.712 89.216 416.224 94.176H412.448C412.192 91.008 409.824 88.224 405.632 88.224C401.024 88.224 398.176 91.776 398.176 96.768C398.176 102.048 401.44 105.376 405.632 105.376C409.76 105.376 412.096 102.336 412.448 99.84H416.224C415.584 104.448 411.936 108.512 405.632 108.512Z" fill="#040D21"/>
<path d="M385.025 108H380.769L375.585 100.832L373.473 103.264H373.441V108H369.921V82.4H373.441V98.56L380.097 90.4H384.705L377.921 98.176L385.025 108Z" fill="#040D21"/>
<path d="M351.046 108V90.4001H354.502V92.9281H354.566C355.462 91.4881 357.062 89.8881 359.91 89.8881C363.75 89.8881 366.118 92.6401 366.118 96.8961V108H362.598V97.1841C362.598 94.1441 361.03 93.0241 358.982 93.0241C356.518 93.0241 354.566 94.7521 354.566 98.0801V108H351.046Z" fill="#040D21"/>
<path d="M338.404 108.512C334.66 108.512 332.388 105.76 332.388 101.504V90.4H335.908V101.216C335.908 104.256 337.412 105.376 339.332 105.376C341.7 105.376 343.588 103.648 343.588 100.32V90.4H347.108V108H343.652V105.472H343.588C342.724 106.912 341.156 108.512 338.404 108.512Z" fill="#040D21"/>
<path d="M320.56 108.384C315.088 108.384 311.152 104.992 310.928 100.256H314.736C314.928 103.232 317.424 105.248 320.56 105.248C323.824 105.248 325.776 103.392 325.776 101.376C325.776 99.264 324.336 98.112 319.952 98.112H318.704C314.768 98.112 311.344 95.456 311.344 91.712C311.344 88.256 314.16 85.024 319.92 85.024H327.856V88.192H319.92C316.72 88.192 315.152 89.44 315.152 91.712C315.152 93.568 316.048 94.88 320.464 94.88H321.296C326.224 94.88 329.552 97.664 329.552 101.376C329.552 104.736 326.512 108.384 320.56 108.384Z" fill="#040D21"/>
<path d="M420.344 193.09C419.642 193.09 419.102 192.55 419.102 191.848C419.102 191.146 419.642 190.588 420.344 190.588C421.046 190.588 421.604 191.146 421.604 191.848C421.604 192.55 421.046 193.09 420.344 193.09Z" fill="#0C162C"/>
<path d="M414.788 179.95H416.408V193H414.788V192.064C414.158 192.712 413.312 193.27 411.962 193.27C409.424 193.27 407.822 191.218 407.822 188.644C407.822 186.106 409.424 184.072 411.962 184.072C413.312 184.072 414.158 184.612 414.788 185.26V179.95ZM414.788 190.3V187.024C414.266 186.286 413.402 185.602 412.25 185.602C410.594 185.602 409.532 186.754 409.532 188.644C409.532 190.57 410.594 191.74 412.25 191.74C413.402 191.74 414.266 191.038 414.788 190.3Z" fill="#0C162C"/>
<path d="M402.353 193.27C399.941 193.27 397.907 191.704 397.907 188.644C397.907 185.872 399.869 184.072 402.155 184.072C404.837 184.072 406.385 186.016 406.385 188.734C406.385 188.95 406.367 189.202 406.349 189.31H399.653C399.725 190.75 400.895 191.776 402.353 191.776C403.757 191.776 404.801 191.38 405.971 190.462V192.064C405.233 192.64 404.117 193.27 402.353 193.27ZM399.707 187.906H404.621C404.585 186.538 403.721 185.566 402.155 185.566C400.733 185.566 399.779 186.664 399.707 187.906Z" fill="#0C162C"/>
<path d="M392.088 193V184.36H393.672V185.854C394.122 184.702 395.184 184.072 396.318 184.072C396.588 184.072 396.786 184.108 396.912 184.126V185.926C396.66 185.89 396.372 185.872 396.138 185.872C394.716 185.872 393.942 186.808 393.708 187.636V193H392.088Z" fill="#0C162C"/>
<path d="M385.9 193.27C383.488 193.27 381.454 191.704 381.454 188.644C381.454 185.872 383.416 184.072 385.702 184.072C388.384 184.072 389.932 186.016 389.932 188.734C389.932 188.95 389.914 189.202 389.896 189.31H383.2C383.272 190.75 384.442 191.776 385.9 191.776C387.304 191.776 388.348 191.38 389.518 190.462V192.064C388.78 192.64 387.664 193.27 385.9 193.27ZM383.254 187.906H388.168C388.132 186.538 387.268 185.566 385.702 185.566C384.28 185.566 383.326 186.664 383.254 187.906Z" fill="#0C162C"/>
<path d="M375.479 193L371.879 184.36H373.733L376.343 191.056L378.971 184.36H380.735L377.189 193H375.479Z" fill="#0C162C"/>
<path d="M366.602 193.27C363.974 193.27 362.048 191.308 362.048 188.662C362.048 186.034 363.974 184.072 366.602 184.072C369.23 184.072 371.156 186.034 371.156 188.662C371.156 191.308 369.23 193.27 366.602 193.27ZM366.602 191.74C368.078 191.74 369.446 190.678 369.446 188.662C369.446 186.664 368.078 185.602 366.602 185.602C365.126 185.602 363.758 186.664 363.758 188.662C363.758 190.678 365.126 191.74 366.602 191.74Z" fill="#0C162C"/>
<path d="M357.727 185.656C356.323 185.656 354.829 186.646 354.829 188.662C354.829 190.678 356.323 191.686 357.727 191.686C358.735 191.686 359.545 191.452 360.427 190.858V192.658C359.779 192.964 358.897 193.27 357.727 193.27C355.063 193.27 353.101 191.362 353.101 188.662C353.101 185.962 355.063 184.072 357.727 184.072C358.897 184.072 359.779 184.378 360.427 184.684V186.484C359.545 185.89 358.735 185.656 357.727 185.656Z" fill="#0C162C"/>
<path d="M347.633 193.27C345.221 193.27 343.187 191.704 343.187 188.644C343.187 185.872 345.149 184.072 347.435 184.072C350.117 184.072 351.665 186.016 351.665 188.734C351.665 188.95 351.647 189.202 351.629 189.31H344.933C345.005 190.75 346.175 191.776 347.633 191.776C349.037 191.776 350.081 191.38 351.251 190.462V192.064C350.513 192.64 349.397 193.27 347.633 193.27ZM344.987 187.906H349.901C349.865 186.538 349.001 185.566 347.435 185.566C346.013 185.566 345.059 186.664 344.987 187.906Z" fill="#0C162C"/>
<path d="M337.368 193V184.36H338.952V185.854C339.402 184.702 340.464 184.072 341.598 184.072C341.868 184.072 342.066 184.108 342.192 184.126V185.926C341.94 185.89 341.652 185.872 341.418 185.872C339.996 185.872 339.222 186.808 338.988 187.636V193H337.368Z" fill="#0C162C"/>
<path d="M325.906 193.27C323.494 193.27 321.46 191.704 321.46 188.644C321.46 185.872 323.422 184.072 325.708 184.072C328.39 184.072 329.938 186.016 329.938 188.734C329.938 188.95 329.92 189.202 329.902 189.31H323.206C323.278 190.75 324.448 191.776 325.906 191.776C327.31 191.776 328.354 191.38 329.524 190.462V192.064C328.786 192.64 327.67 193.27 325.906 193.27ZM323.26 187.906H328.174C328.138 186.538 327.274 185.566 325.708 185.566C324.286 185.566 323.332 186.664 323.26 187.906Z" fill="#0C162C"/>
<path d="M315.886 184.072C318.424 184.072 320.026 186.106 320.026 188.644C320.026 191.218 318.424 193.27 315.886 193.27C314.536 193.27 313.69 192.712 313.06 192.064V193H311.44V179.95H313.06V185.26C313.69 184.612 314.536 184.072 315.886 184.072ZM315.598 191.74C317.254 191.74 318.316 190.57 318.316 188.644C318.316 186.754 317.254 185.602 315.598 185.602C314.446 185.602 313.582 186.286 313.06 187.024V190.3C313.582 191.038 314.446 191.74 315.598 191.74Z" fill="#0C162C"/>
<path d="M490.84 168.27C489.364 168.27 488.41 167.442 488.41 165.876V160.8H486.844V159.36H488.518V156.804L490.03 155.904V159.36H492.136V160.8H490.03V165.624C490.03 166.416 490.462 166.812 491.326 166.812C491.614 166.812 491.938 166.758 492.136 166.686V168.09C491.992 168.144 491.416 168.27 490.84 168.27Z" fill="#0C162C"/>
<path d="M483.15 159.342C483.762 157.92 484.266 155.814 484.374 154.5H486.39C486.192 156.246 485.166 158.388 484.554 159.342H483.15Z" fill="#0C162C"/>
<path d="M474.336 168V159.36H475.92V160.188C476.514 159.576 477.378 159.072 478.53 159.072C480.186 159.072 481.788 160.188 481.788 162.294V168H480.168V162.708C480.168 161.394 479.232 160.62 478.152 160.62C477.234 160.62 476.514 161.07 475.956 161.772V168H474.336Z" fill="#0C162C"/>
<path d="M467.74 168.27C465.796 168.27 464.41 167.172 464.41 165.246C464.41 163.464 465.976 162.438 467.74 162.438C468.712 162.438 469.63 162.672 470.188 162.978V162.06C470.188 161.214 469.54 160.512 468.208 160.512C466.948 160.512 465.706 160.998 464.914 161.502V159.864C465.85 159.396 466.912 159.072 468.208 159.072C470.782 159.072 471.808 160.548 471.808 162.24V168H470.242V167.298C469.72 167.802 468.838 168.27 467.74 168.27ZM468.028 166.884C469.054 166.884 469.864 166.344 470.188 166.02V164.436C469.864 164.184 469.018 163.788 468.028 163.788C466.93 163.788 466.102 164.31 466.102 165.246C466.102 166.254 466.93 166.884 468.028 166.884Z" fill="#0C162C"/>
<path d="M459.908 160.656C458.504 160.656 457.01 161.646 457.01 163.662C457.01 165.678 458.504 166.686 459.908 166.686C460.916 166.686 461.726 166.452 462.608 165.858V167.658C461.96 167.964 461.078 168.27 459.908 168.27C457.244 168.27 455.282 166.362 455.282 163.662C455.282 160.962 457.244 159.072 459.908 159.072C461.078 159.072 461.96 159.378 462.608 159.684V161.484C461.726 160.89 460.916 160.656 459.908 160.656Z" fill="#0C162C"/>
<path d="M447.176 168.27C445.7 168.27 444.746 167.442 444.746 165.876V160.8H443.18V159.36H444.854V156.804L446.366 155.904V159.36H448.472V160.8H446.366V165.624C446.366 166.416 446.798 166.812 447.662 166.812C447.95 166.812 448.274 166.758 448.472 166.686V168.09C448.328 168.144 447.752 168.27 447.176 168.27Z" fill="#0C162C"/>
<path d="M437.663 168.27C435.719 168.27 434.333 167.172 434.333 165.246C434.333 163.464 435.899 162.438 437.663 162.438C438.635 162.438 439.553 162.672 440.111 162.978V162.06C440.111 161.214 439.463 160.512 438.131 160.512C436.871 160.512 435.629 160.998 434.837 161.502V159.864C435.773 159.396 436.835 159.072 438.131 159.072C440.705 159.072 441.731 160.548 441.731 162.24V168H440.165V167.298C439.643 167.802 438.761 168.27 437.663 168.27ZM437.951 166.884C438.977 166.884 439.787 166.344 440.111 166.02V164.436C439.787 164.184 438.941 163.788 437.951 163.788C436.853 163.788 436.025 164.31 436.025 165.246C436.025 166.254 436.853 166.884 437.951 166.884Z" fill="#0C162C"/>
<path d="M424.643 168V154.95H426.263V160.152C426.857 159.558 427.739 159.072 428.873 159.072C430.529 159.072 432.167 160.188 432.167 162.294V168H430.547V162.708C430.547 161.394 429.575 160.62 428.495 160.62C427.577 160.62 426.821 161.07 426.263 161.772V168H424.643Z" fill="#0C162C"/>
<path d="M421.09 168.27C419.614 168.27 418.66 167.442 418.66 165.876V160.8H417.094V159.36H418.768V156.804L420.28 155.904V159.36H422.386V160.8H420.28V165.624C420.28 166.416 420.712 166.812 421.576 166.812C421.864 166.812 422.188 166.758 422.386 166.686V168.09C422.242 168.144 421.666 168.27 421.09 168.27Z" fill="#0C162C"/>
<path d="M407.174 168.27C406.094 168.27 404.96 167.946 404.24 167.568V166.002C405.23 166.524 406.256 166.83 407.174 166.83C408.344 166.83 408.992 166.398 408.992 165.588C408.992 165.03 408.578 164.652 407.858 164.49L406.382 164.166C404.996 163.86 404.222 162.996 404.222 161.7C404.222 160.116 405.59 159.072 407.48 159.072C408.668 159.072 409.55 159.36 410.234 159.666V161.25C409.334 160.782 408.326 160.512 407.48 160.512C406.346 160.512 405.842 161.034 405.842 161.7C405.842 162.15 406.166 162.564 406.886 162.726L408.254 163.032C409.82 163.374 410.648 164.274 410.648 165.588C410.648 167.316 409.1 168.27 407.174 168.27Z" fill="#0C162C"/>
<path d="M398.574 168.27C396.162 168.27 394.128 166.704 394.128 163.644C394.128 160.872 396.09 159.072 398.376 159.072C401.058 159.072 402.606 161.016 402.606 163.734C402.606 163.95 402.588 164.202 402.57 164.31H395.874C395.946 165.75 397.116 166.776 398.574 166.776C399.978 166.776 401.022 166.38 402.192 165.462V167.064C401.454 167.64 400.338 168.27 398.574 168.27ZM395.928 162.906H400.842C400.806 161.538 399.942 160.566 398.376 160.566C396.954 160.566 396 161.664 395.928 162.906Z" fill="#0C162C"/>
<path d="M389.807 160.656C388.403 160.656 386.909 161.646 386.909 163.662C386.909 165.678 388.403 166.686 389.807 166.686C390.815 166.686 391.625 166.452 392.507 165.858V167.658C391.859 167.964 390.977 168.27 389.807 168.27C387.143 168.27 385.181 166.362 385.181 163.662C385.181 160.962 387.143 159.072 389.807 159.072C390.977 159.072 391.859 159.378 392.507 159.684V161.484C391.625 160.89 390.815 160.656 389.807 160.656Z" fill="#0C162C"/>
<path d="M379.362 168V159.36H380.946V160.854C381.396 159.702 382.458 159.072 383.592 159.072C383.862 159.072 384.06 159.108 384.186 159.126V160.926C383.934 160.89 383.646 160.872 383.412 160.872C381.99 160.872 381.216 161.808 380.982 162.636V168H379.362Z" fill="#0C162C"/>
<path d="M372.37 168.27C370.714 168.27 369.112 167.154 369.112 165.048V159.36H370.732V164.634C370.732 165.948 371.668 166.722 372.748 166.722C373.666 166.722 374.386 166.29 374.944 165.588V159.36H376.564V168H374.98V167.172C374.386 167.784 373.522 168.27 372.37 168.27Z" fill="#0C162C"/>
<path d="M362.489 168.27C359.861 168.27 357.935 166.308 357.935 163.662C357.935 161.034 359.861 159.072 362.489 159.072C365.117 159.072 367.043 161.034 367.043 163.662C367.043 166.308 365.117 168.27 362.489 168.27ZM362.489 166.74C363.965 166.74 365.333 165.678 365.333 163.662C365.333 161.664 363.965 160.602 362.489 160.602C361.013 160.602 359.645 161.664 359.645 163.662C359.645 165.678 361.013 166.74 362.489 166.74Z" fill="#0C162C"/>
<path d="M352.928 168.27C351.848 168.27 350.714 167.946 349.994 167.568V166.002C350.984 166.524 352.01 166.83 352.928 166.83C354.098 166.83 354.746 166.398 354.746 165.588C354.746 165.03 354.332 164.652 353.612 164.49L352.136 164.166C350.75 163.86 349.976 162.996 349.976 161.7C349.976 160.116 351.344 159.072 353.234 159.072C354.422 159.072 355.304 159.36 355.988 159.666V161.25C355.088 160.782 354.08 160.512 353.234 160.512C352.1 160.512 351.596 161.034 351.596 161.7C351.596 162.15 351.92 162.564 352.64 162.726L354.008 163.032C355.574 163.374 356.402 164.274 356.402 165.588C356.402 167.316 354.854 168.27 352.928 168.27Z" fill="#0C162C"/>
<path d="M344.328 168.27C341.916 168.27 339.882 166.704 339.882 163.644C339.882 160.872 341.844 159.072 344.13 159.072C346.812 159.072 348.36 161.016 348.36 163.734C348.36 163.95 348.342 164.202 348.324 164.31H341.628C341.7 165.75 342.87 166.776 344.328 166.776C345.732 166.776 346.776 166.38 347.946 165.462V167.064C347.208 167.64 346.092 168.27 344.328 168.27ZM341.682 162.906H346.596C346.56 161.538 345.696 160.566 344.13 160.566C342.708 160.566 341.754 161.664 341.682 162.906Z" fill="#0C162C"/>
<path d="M334.063 168V159.36H335.647V160.854C336.097 159.702 337.159 159.072 338.293 159.072C338.563 159.072 338.761 159.108 338.887 159.126V160.926C338.635 160.89 338.347 160.872 338.113 160.872C336.691 160.872 335.917 161.808 335.683 162.636V168H334.063Z" fill="#0C162C"/>
<path d="M321.987 168V159.36H323.571V160.854C324.021 159.702 325.083 159.072 326.217 159.072C326.487 159.072 326.685 159.108 326.811 159.126V160.926C326.559 160.89 326.271 160.872 326.037 160.872C324.615 160.872 323.841 161.808 323.607 162.636V168H321.987Z" fill="#0C162C"/>
<path d="M315.274 168.27C312.646 168.27 310.72 166.308 310.72 163.662C310.72 161.034 312.646 159.072 315.274 159.072C317.902 159.072 319.828 161.034 319.828 163.662C319.828 166.308 317.902 168.27 315.274 168.27ZM315.274 166.74C316.75 166.74 318.118 165.678 318.118 163.662C318.118 161.664 316.75 160.602 315.274 160.602C313.798 160.602 312.43 161.664 312.43 163.662C312.43 165.678 313.798 166.74 315.274 166.74Z" fill="#0C162C"/>
<path d="M499.656 146.618L501.906 142.046L498.09 134.36H499.962L502.752 140.318L505.434 134.36H507.342L501.564 146.618H499.656Z" fill="#0C162C"/>
<path d="M493.514 143.27C491.102 143.27 489.068 141.704 489.068 138.644C489.068 135.872 491.03 134.072 493.316 134.072C495.998 134.072 497.546 136.016 497.546 138.734C497.546 138.95 497.528 139.202 497.51 139.31H490.814C490.886 140.75 492.056 141.776 493.514 141.776C494.918 141.776 495.962 141.38 497.132 140.462V142.064C496.394 142.64 495.278 143.27 493.514 143.27ZM490.868 137.906H495.782C495.746 136.538 494.882 135.566 493.316 135.566C491.894 135.566 490.94 136.664 490.868 137.906Z" fill="#0C162C"/>
<path d="M479.627 143V134.36H481.211V135.188C481.805 134.576 482.669 134.072 483.821 134.072C485.477 134.072 487.079 135.188 487.079 137.294V143H485.459V137.708C485.459 136.394 484.523 135.62 483.443 135.62C482.525 135.62 481.805 136.07 481.247 136.772V143H479.627Z" fill="#0C162C"/>
<path d="M472.915 143.27C470.287 143.27 468.361 141.308 468.361 138.662C468.361 136.034 470.287 134.072 472.915 134.072C475.543 134.072 477.469 136.034 477.469 138.662C477.469 141.308 475.543 143.27 472.915 143.27ZM472.915 141.74C474.391 141.74 475.759 140.678 475.759 138.662C475.759 136.664 474.391 135.602 472.915 135.602C471.439 135.602 470.071 136.664 470.071 138.662C470.071 140.678 471.439 141.74 472.915 141.74Z" fill="#0C162C"/>
<path d="M463.171 134.072C464.827 134.072 466.375 135.188 466.375 137.294V143H464.755V137.708C464.755 136.394 463.999 135.62 462.919 135.62C462.019 135.62 461.299 136.034 460.741 136.736C460.759 136.916 460.777 137.096 460.777 137.294V143H459.175V137.708C459.175 136.394 458.455 135.62 457.375 135.62C456.457 135.62 455.737 136.07 455.179 136.772V143H453.559V134.36H455.143V135.188C455.737 134.576 456.601 134.072 457.753 134.072C458.743 134.072 459.643 134.468 460.183 135.26C460.669 134.792 461.623 134.072 463.171 134.072Z" fill="#0C162C"/>
<path d="M443.791 129.95H445.411V143H443.791V142.064C443.161 142.712 442.315 143.27 440.965 143.27C438.427 143.27 436.825 141.218 436.825 138.644C436.825 136.106 438.427 134.072 440.965 134.072C442.315 134.072 443.161 134.612 443.791 135.26V129.95ZM443.791 140.3V137.024C443.269 136.286 442.405 135.602 441.253 135.602C439.597 135.602 438.535 136.754 438.535 138.644C438.535 140.57 439.597 141.74 441.253 141.74C442.405 141.74 443.269 141.038 443.791 140.3Z" fill="#0C162C"/>
<path d="M431.357 143.27C428.945 143.27 426.911 141.704 426.911 138.644C426.911 135.872 428.873 134.072 431.159 134.072C433.841 134.072 435.389 136.016 435.389 138.734C435.389 138.95 435.371 139.202 435.353 139.31H428.657C428.729 140.75 429.899 141.776 431.357 141.776C432.761 141.776 433.805 141.38 434.975 140.462V142.064C434.237 142.64 433.121 143.27 431.357 143.27ZM428.711 137.906H433.625C433.589 136.538 432.725 135.566 431.159 135.566C429.737 135.566 428.783 136.664 428.711 137.906Z" fill="#0C162C"/>
<path d="M424.079 143.27C422.603 143.27 421.649 142.442 421.649 140.876V135.8H420.083V134.36H421.757V131.804L423.269 130.904V134.36H425.375V135.8H423.269V140.624C423.269 141.416 423.701 141.812 424.565 141.812C424.853 141.812 425.177 141.758 425.375 141.686V143.09C425.231 143.144 424.655 143.27 424.079 143.27Z" fill="#0C162C"/>
<path d="M415.436 143.27C414.356 143.27 413.222 142.946 412.502 142.568V141.002C413.492 141.524 414.518 141.83 415.436 141.83C416.606 141.83 417.254 141.398 417.254 140.588C417.254 140.03 416.84 139.652 416.12 139.49L414.644 139.166C413.258 138.86 412.484 137.996 412.484 136.7C412.484 135.116 413.852 134.072 415.742 134.072C416.93 134.072 417.812 134.36 418.496 134.666V136.25C417.596 135.782 416.588 135.512 415.742 135.512C414.608 135.512 414.104 136.034 414.104 136.7C414.104 137.15 414.428 137.564 415.148 137.726L416.516 138.032C418.082 138.374 418.91 139.274 418.91 140.588C418.91 142.316 417.362 143.27 415.436 143.27Z" fill="#0C162C"/>
<path d="M406.836 143.27C404.424 143.27 402.39 141.704 402.39 138.644C402.39 135.872 404.352 134.072 406.638 134.072C409.32 134.072 410.868 136.016 410.868 138.734C410.868 138.95 410.85 139.202 410.832 139.31H404.136C404.208 140.75 405.378 141.776 406.836 141.776C408.24 141.776 409.284 141.38 410.454 140.462V142.064C409.716 142.64 408.6 143.27 406.836 143.27ZM404.19 137.906H409.104C409.068 136.538 408.204 135.566 406.638 135.566C405.216 135.566 404.262 136.664 404.19 137.906Z" fill="#0C162C"/>
<path d="M396.415 143L392.815 134.36H394.669L397.279 141.056L399.907 134.36H401.671L398.125 143H396.415Z" fill="#0C162C"/>
<path d="M384.178 143V134.36H385.762V135.188C386.356 134.576 387.22 134.072 388.372 134.072C390.028 134.072 391.63 135.188 391.63 137.294V143H390.01V137.708C390.01 136.394 389.074 135.62 387.994 135.62C387.076 135.62 386.356 136.07 385.798 136.772V143H384.178Z" fill="#0C162C"/>
<path d="M380.471 132.254C379.805 132.254 379.301 131.732 379.301 131.066C379.301 130.382 379.805 129.86 380.471 129.86C381.155 129.86 381.659 130.382 381.659 131.066C381.659 131.732 381.155 132.254 380.471 132.254ZM379.679 143V134.36H381.299V143H379.679Z" fill="#0C162C"/>
<path d="M365.078 146.618L367.328 142.046L363.512 134.36H365.384L368.174 140.318L370.856 134.36H372.764L366.986 146.618H365.078Z" fill="#0C162C"/>
<path d="M360.278 129.95H361.898V143H360.278V142.064C359.648 142.712 358.802 143.27 357.452 143.27C354.914 143.27 353.312 141.218 353.312 138.644C353.312 136.106 354.914 134.072 357.452 134.072C358.802 134.072 359.648 134.612 360.278 135.26V129.95ZM360.278 140.3V137.024C359.756 136.286 358.892 135.602 357.74 135.602C356.084 135.602 355.022 136.754 355.022 138.644C355.022 140.57 356.084 141.74 357.74 141.74C358.892 141.74 359.756 141.038 360.278 140.3Z" fill="#0C162C"/>
<path d="M347.435 143.27C345.491 143.27 344.105 142.172 344.105 140.246C344.105 138.464 345.671 137.438 347.435 137.438C348.407 137.438 349.325 137.672 349.883 137.978V137.06C349.883 136.214 349.235 135.512 347.903 135.512C346.643 135.512 345.401 135.998 344.609 136.502V134.864C345.545 134.396 346.607 134.072 347.903 134.072C350.477 134.072 351.503 135.548 351.503 137.24V143H349.937V142.298C349.415 142.802 348.533 143.27 347.435 143.27ZM347.723 141.884C348.749 141.884 349.559 141.344 349.883 141.02V139.436C349.559 139.184 348.713 138.788 347.723 138.788C346.625 138.788 345.797 139.31 345.797 140.246C345.797 141.254 346.625 141.884 347.723 141.884Z" fill="#0C162C"/>
<path d="M338.457 143.27C336.045 143.27 334.011 141.704 334.011 138.644C334.011 135.872 335.973 134.072 338.259 134.072C340.941 134.072 342.489 136.016 342.489 138.734C342.489 138.95 342.471 139.202 342.453 139.31H335.757C335.829 140.75 336.999 141.776 338.457 141.776C339.861 141.776 340.905 141.38 342.075 140.462V142.064C341.337 142.64 340.221 143.27 338.457 143.27ZM335.811 137.906H340.725C340.689 136.538 339.825 135.566 338.259 135.566C336.837 135.566 335.883 136.664 335.811 137.906Z" fill="#0C162C"/>
<path d="M328.192 143V134.36H329.776V135.854C330.226 134.702 331.288 134.072 332.422 134.072C332.692 134.072 332.89 134.108 333.016 134.126V135.926C332.764 135.89 332.476 135.872 332.242 135.872C330.82 135.872 330.046 136.808 329.812 137.636V143H328.192Z" fill="#0C162C"/>
<path d="M323.692 143V129.95H325.312V143H323.692Z" fill="#0C162C"/>
<path d="M320.224 143L318.946 139.778H313.276L312.016 143H310.18L315.238 130.4H317.02L322.078 143H320.224ZM313.888 138.212H318.316L316.084 132.578L313.888 138.212Z" fill="#0C162C"/>
<path fill-rule="evenodd" clip-rule="evenodd" d="M90.8947 128.656C92.3955 123.055 96.0601 118.279 101.082 115.379L120.018 104.447C120.086 104.408 120.155 104.37 120.225 104.333C124.095 102.316 128.48 101.504 132.816 102C137.152 102.496 141.241 104.279 144.555 107.118C146.848 109.082 147.114 112.533 145.15 114.825C143.186 117.118 139.735 117.385 137.443 115.42C135.785 114.001 133.741 113.11 131.573 112.861C129.44 112.617 127.283 113.007 125.372 113.98L106.548 124.847C104.037 126.297 102.205 128.685 101.455 131.485C100.704 134.286 101.097 137.27 102.547 139.781C103.997 142.292 106.384 144.125 109.185 144.875C111.986 145.625 114.97 145.233 117.481 143.783L136.417 132.85C141.439 129.951 147.407 129.165 153.008 130.666C158.609 132.167 163.385 135.831 166.285 140.854C169.184 145.876 169.97 151.844 168.469 157.445C166.968 163.046 163.304 167.822 158.282 170.722L139.346 181.654C139.278 181.693 139.209 181.731 139.139 181.768C135.269 183.785 130.884 184.597 126.548 184.101C122.211 183.605 118.123 181.822 114.809 178.983C112.516 177.019 112.25 173.568 114.214 171.276C116.178 168.983 119.629 168.717 121.921 170.681C123.578 172.1 125.623 172.992 127.791 173.24C129.923 173.484 132.08 173.094 133.992 172.121L152.815 161.254C155.326 159.804 157.159 157.416 157.909 154.616C158.659 151.815 158.267 148.831 156.817 146.32C155.367 143.809 152.979 141.976 150.179 141.226C147.378 140.476 144.394 140.868 141.883 142.318L122.947 153.251C117.925 156.15 111.957 156.936 106.356 155.435C100.754 153.934 95.9785 150.27 93.079 145.248C90.1795 140.225 89.3938 134.257 90.8947 128.656Z" fill="#040D21"/>
<path fill-rule="evenodd" clip-rule="evenodd" d="M102.351 95.7116C104.965 94.2021 108.308 95.0979 109.818 97.7124L118.017 111.914C119.526 114.529 118.631 117.872 116.016 119.381C113.402 120.891 110.059 119.995 108.549 117.38L100.35 103.179C98.8404 100.564 99.7361 97.221 102.351 95.7116ZM143.348 166.72C145.962 165.211 149.305 166.107 150.815 168.721L159.014 182.923C160.523 185.537 159.628 188.88 157.013 190.39C154.399 191.899 151.056 191.004 149.546 188.389L141.347 174.187C139.837 171.573 140.733 168.23 143.348 166.72Z" fill="#040D21"/>
<path d="M33.004 219.145C28.023 223.362 12.0372 230 14.2 230H256.43C260.12 229.033 244.752 213.972 242.913 213.194C238.056 211.138 233.132 209.586 228.254 207.628C224.56 206.146 212.252 206.17 210.171 203.22C203.35 193.551 191.892 187.37 180.253 184.32C176.833 183.424 174.136 181.863 170.46 181.344C164.114 180.449 162.863 181.297 156.943 183.934C146.317 188.668 134.645 185.367 123.42 185.367C113.091 185.367 103.562 186.913 95.0635 192.31C85.5877 198.327 76.135 199.253 64.9649 199.253C58.6513 199.253 57.6596 200.074 53.7306 204.708C51.4214 207.431 48.6179 210.733 44.4787 211.155C41.405 211.468 35.4553 217.069 33.004 219.145Z" fill="#040D21"/>
<path fill-rule="evenodd" clip-rule="evenodd" d="M158.76 184.764C158.384 184.933 157.983 185.113 157.553 185.304C151.93 187.809 146.084 188.162 140.344 187.924C137.949 187.825 135.538 187.621 133.165 187.42C132.7 187.381 132.237 187.342 131.775 187.303C128.94 187.068 126.159 186.867 123.42 186.867C113.232 186.867 104.028 188.394 95.8676 193.576C86.0221 199.828 76.2131 200.753 64.965 200.753C61.8136 200.753 60.3157 200.973 59.1386 201.577C57.9249 202.2 56.8842 203.308 54.8746 205.678C54.8325 205.728 54.79 205.778 54.7472 205.828C52.5304 208.444 49.3793 212.163 44.6308 212.647C44.1951 212.691 43.4772 212.961 42.4912 213.538C41.5444 214.092 40.4949 214.842 39.4305 215.672C37.9156 216.853 36.4682 218.119 35.2933 219.146C34.8003 219.577 34.3552 219.966 33.9733 220.29C32.6108 221.443 30.5699 222.707 28.3946 223.928C26.1974 225.161 23.7738 226.399 21.5969 227.494C21.0841 227.752 20.5867 228.001 20.1095 228.24C19.9335 228.328 19.7602 228.415 19.59 228.5H255.214C255.122 228.317 255.003 228.103 254.853 227.856C253.979 226.422 252.425 224.51 250.634 222.534C248.858 220.574 246.909 218.618 245.295 217.107C244.487 216.351 243.774 215.717 243.216 215.255C242.936 215.023 242.707 214.843 242.531 214.717C242.375 214.605 242.309 214.568 242.309 214.567C242.309 214.567 242.316 214.57 242.328 214.575C239.939 213.564 237.526 212.673 235.079 211.784C234.806 211.685 234.533 211.585 234.259 211.486C232.087 210.698 229.887 209.9 227.695 209.02C226.96 208.725 225.67 208.468 223.943 208.213C223.105 208.089 222.203 207.97 221.263 207.847L221.165 207.834C220.26 207.716 219.321 207.593 218.393 207.459C216.483 207.184 214.548 206.852 212.937 206.386C212.131 206.152 211.361 205.872 210.698 205.524C210.047 205.183 209.397 204.725 208.945 204.085C202.397 194.802 191.307 188.767 179.872 185.771C178.429 185.393 177.093 184.897 175.844 184.433C175.538 184.32 175.237 184.208 174.94 184.1C173.408 183.544 171.932 183.067 170.25 182.829C167.149 182.392 165.463 182.407 163.882 182.775C162.45 183.108 161.058 183.733 158.76 184.764ZM163.202 179.853C165.312 179.362 167.425 179.401 170.67 179.859C172.665 180.14 174.375 180.703 175.965 181.281C176.3 181.403 176.628 181.524 176.951 181.644C178.185 182.101 179.347 182.532 180.633 182.869C192.477 185.973 204.302 192.3 211.397 202.355C211.465 202.453 211.655 202.639 212.09 202.867C212.512 203.088 213.074 203.302 213.772 203.504C215.171 203.909 216.933 204.217 218.822 204.49C219.73 204.621 220.651 204.741 221.562 204.861L221.652 204.873C222.589 204.995 223.515 205.117 224.382 205.245C226.068 205.494 227.701 205.79 228.813 206.236C230.954 207.095 233.105 207.876 235.283 208.666C235.556 208.765 235.83 208.865 236.104 208.964C238.553 209.854 241.03 210.768 243.498 211.812C243.779 211.932 244.063 212.123 244.285 212.283C244.535 212.463 244.821 212.689 245.13 212.945C245.75 213.459 246.511 214.136 247.345 214.917C249.014 216.479 251.022 218.494 252.857 220.519C254.676 222.526 256.387 224.609 257.415 226.295C257.908 227.104 258.354 227.996 258.47 228.825C258.53 229.256 258.524 229.831 258.222 230.382C257.895 230.978 257.353 231.309 256.81 231.451L256.623 231.5H14.2C14.0796 231.5 13.8065 231.494 13.5116 231.381C13.3527 231.32 13.1022 231.196 12.882 230.943C12.6371 230.662 12.5038 230.306 12.5001 229.94C12.494 229.345 12.8248 228.954 12.8981 228.867L12.9002 228.865C13.0239 228.718 13.1577 228.605 13.2521 228.53C13.6102 228.247 14.1915 227.913 14.8116 227.578C15.8127 227.036 17.2234 226.33 18.8027 225.539C19.2721 225.304 19.7564 225.062 20.2492 224.814C22.421 223.722 24.7927 222.509 26.9262 221.312C29.0816 220.102 30.9067 218.955 32.0348 218C32.361 217.724 32.7684 217.368 33.2347 216.96C34.4257 215.919 36.0005 214.542 37.5854 213.306C38.6991 212.438 39.8666 211.598 40.9764 210.949C42.047 210.322 43.2255 209.775 44.3266 209.663C47.7649 209.312 50.1913 206.562 52.5865 203.738C54.506 201.474 55.9256 199.854 57.7684 198.908C59.6478 197.943 61.8027 197.753 64.965 197.753C76.0569 197.753 85.1533 196.826 94.2594 191.043C103.096 185.432 112.951 183.867 123.42 183.867C126.293 183.867 129.181 184.078 132.023 184.314C132.495 184.353 132.966 184.393 133.435 184.432C135.808 184.633 138.143 184.831 140.468 184.927C146.027 185.157 151.33 184.793 156.332 182.564C156.741 182.382 157.131 182.206 157.505 182.038C159.765 181.022 161.464 180.258 163.202 179.853Z" fill="#23324D"/>
</svg>
