<svg width="597" height="493" viewBox="0 0 597 493" fill="none" xmlns="http://www.w3.org/2000/svg">
<path d="M44 3H594V453H44V3Z" fill="#0C162C"/>
<path d="M137.434 476H139.614L136.714 487H134.234L132.274 478.86L130.354 487H127.854L124.934 476H127.214L129.094 484.22L130.934 476H133.714L135.554 484.22L137.434 476Z" fill="white"/>
<path d="M118.821 487.32C115.741 487.32 113.301 485.22 113.301 481.5C113.301 477.76 115.741 475.68 118.821 475.68C121.901 475.68 124.341 477.76 124.341 481.5C124.341 485.22 121.901 487.32 118.821 487.32ZM118.821 485.42C120.621 485.4 122.061 484.16 122.061 481.5C122.061 478.82 120.621 477.6 118.821 477.58C117.021 477.56 115.581 478.82 115.581 481.5C115.581 484.16 117.021 485.44 118.821 485.42Z" fill="white"/>
<path d="M109.151 473H111.431V487H108.351L101.671 476V487H99.4114V473H102.471L109.151 484V473Z" fill="white"/>
<path d="M333.148 487.32C330.428 487.32 328.448 485.64 328.308 483.36H330.608C330.728 484.56 331.708 485.42 333.148 485.42C334.448 485.42 335.288 484.7 335.288 483.76C335.288 482.7 334.708 482.26 332.808 482.26H332.208C330.148 482.26 328.508 481.12 328.508 479.14C328.508 477.44 329.908 475.68 332.708 475.68H336.608V477.58H332.708C331.468 477.58 330.788 478.24 330.788 479.14C330.788 480 331.168 480.32 333.068 480.34H333.488C335.968 480.34 337.568 481.72 337.568 483.76C337.568 485.54 336.048 487.32 333.148 487.32Z" fill="white"/>
<path d="M321.779 487V476H323.939V477.7H323.979C324.559 476.76 325.559 475.68 327.179 475.68H328.119V477.58H326.939C325.139 477.58 323.979 478.68 323.979 480.8V487H321.779Z" fill="white"/>
<path d="M319.734 485.08H320.394V487H319.414C318.174 487 317.334 486.3 317.034 485.18H316.894C316.014 486.52 314.654 487.32 313.054 487.32C310.334 487.32 307.994 485.28 307.994 481.5C307.994 477.74 310.334 475.68 313.054 475.68C314.554 475.68 315.854 476.22 316.774 477.52H316.814V476H319.014V484.4C319.014 484.84 319.274 485.08 319.734 485.08ZM313.614 485.42C315.614 485.4 316.894 483.58 316.894 481.52C316.894 479.36 315.674 477.6 313.614 477.58C311.614 477.56 310.274 479.18 310.274 481.5C310.274 483.88 311.614 485.44 313.614 485.42Z" fill="white"/>
<path d="M306.837 480.5V482.28H298.537C298.797 484.24 299.997 485.42 301.637 485.42C302.917 485.42 303.957 484.7 304.337 483.62H306.737C306.277 485.76 304.297 487.32 301.637 487.32C298.397 487.32 296.217 485 296.217 481.5C296.217 477.86 298.437 475.68 301.637 475.68C304.637 475.68 306.837 477.74 306.837 480.5ZM301.637 477.58C299.977 477.58 298.837 478.76 298.557 480.32H304.617C304.377 478.7 303.257 477.58 301.637 477.58Z" fill="white"/>
<path d="M291.359 486.4L292.119 488.3C292.559 489.4 291.859 490.4 290.699 490.4H285.159V488.42H289.879L284.879 476H287.339L290.219 483.84L293.039 476H295.479L291.359 486.4Z" fill="white"/>
<path d="M274.205 477.72C276.665 477.72 278.925 479.62 278.925 482.5C278.925 485.46 276.585 487.32 273.625 487.32C270.805 487.32 268.925 485.62 268.585 483.08L270.785 483.1C270.945 484.5 272.145 485.44 273.685 485.42C275.405 485.4 276.645 484.2 276.645 482.48C276.645 480.74 275.345 479.64 273.705 479.62C272.205 479.62 271.205 480.2 270.845 480.9H268.665L269.805 473H278.025V474.98H271.725L270.945 479.1C271.625 478.3 272.845 477.72 274.205 477.72Z" fill="white"/>
<path d="M520.975 487.32C518.255 487.32 516.275 485.64 516.135 483.36H518.435C518.555 484.56 519.535 485.42 520.975 485.42C522.275 485.42 523.115 484.7 523.115 483.76C523.115 482.7 522.535 482.26 520.635 482.26H520.035C517.975 482.26 516.335 481.12 516.335 479.14C516.335 477.44 517.735 475.68 520.535 475.68H524.435V477.58H520.535C519.295 477.58 518.615 478.24 518.615 479.14C518.615 480 518.995 480.32 520.895 480.34H521.315C523.795 480.34 525.395 481.72 525.395 483.76C525.395 485.54 523.875 487.32 520.975 487.32Z" fill="white"/>
<path d="M509.607 487V476H511.767V477.7H511.807C512.387 476.76 513.387 475.68 515.007 475.68H515.947V477.58H514.767C512.967 477.58 511.807 478.68 511.807 480.8V487H509.607Z" fill="white"/>
<path d="M507.562 485.08H508.222V487H507.242C506.002 487 505.162 486.3 504.862 485.18H504.722C503.842 486.52 502.482 487.32 500.882 487.32C498.162 487.32 495.822 485.28 495.822 481.5C495.822 477.74 498.162 475.68 500.882 475.68C502.382 475.68 503.682 476.22 504.602 477.52H504.642V476H506.842V484.4C506.842 484.84 507.102 485.08 507.562 485.08ZM501.442 485.42C503.442 485.4 504.722 483.58 504.722 481.52C504.722 479.36 503.502 477.6 501.442 477.58C499.442 477.56 498.102 479.18 498.102 481.5C498.102 483.88 499.442 485.44 501.442 485.42Z" fill="white"/>
<path d="M494.665 480.5V482.28H486.365C486.625 484.24 487.825 485.42 489.465 485.42C490.745 485.42 491.785 484.7 492.165 483.62H494.565C494.105 485.76 492.125 487.32 489.465 487.32C486.225 487.32 484.045 485 484.045 481.5C484.045 477.86 486.265 475.68 489.465 475.68C492.465 475.68 494.665 477.74 494.665 480.5ZM489.465 477.58C487.805 477.58 486.665 478.76 486.385 480.32H492.445C492.205 478.7 491.085 477.58 489.465 477.58Z" fill="white"/>
<path d="M479.187 486.4L479.947 488.3C480.387 489.4 479.687 490.4 478.527 490.4H472.987V488.42H477.707L472.707 476H475.167L478.047 483.84L480.867 476H483.307L479.187 486.4Z" fill="white"/>
<path d="M461.129 487.32C457.629 487.32 455.669 484.68 455.669 480C455.669 475.32 457.629 472.68 461.129 472.68C464.629 472.68 466.589 475.32 466.589 480C466.589 484.68 464.629 487.32 461.129 487.32ZM461.129 485.42C463.129 485.4 464.309 483.58 464.309 480C464.309 476.38 463.129 474.62 461.129 474.58C459.129 474.54 457.949 476.38 457.949 480C457.949 483.58 459.129 485.44 461.129 485.42Z" fill="white"/>
<path d="M453.696 473V487H451.496V476.8H451.476C451.536 477.38 450.456 477.72 449.596 477.72H448.376V475.74H449.596C450.716 475.74 451.496 475.22 451.496 473.94V473H453.696Z" fill="white"/>
<path d="M27.4024 69V83H25.1424V72.96L21.6024 83H18.9824L15.4624 73.02V83H13.2024V69H16.2624L20.3024 80.46L24.3224 69H27.4024Z" fill="white"/>
<path d="M8.52073 75.4201C10.3007 75.9601 11.2007 77.2801 11.2007 79.0601C11.2007 81.7601 8.94073 83.3201 6.06073 83.3201C3.14073 83.3201 1.00073 81.6201 1.00073 78.6601H3.20073C3.20073 80.3401 4.42073 81.4401 6.04073 81.4201C7.78073 81.4001 8.92073 80.5001 8.92073 79.0601C8.92073 77.3601 7.66073 76.5001 6.06073 76.4801H3.94073V74.5201H5.76073C7.20073 74.5001 8.32073 73.8001 8.32073 72.4401C8.32073 71.2201 7.32073 70.6001 6.06073 70.5801C4.78073 70.5601 3.80073 71.3201 3.80073 72.7401H1.60073C1.60073 70.1601 3.38073 68.6801 6.04073 68.6801C8.80073 68.6801 10.6007 70.1201 10.6007 72.4401C10.6007 73.7601 9.84073 74.8801 8.52073 75.4201Z" fill="white"/>
<path d="M26.502 221V235H24.242V224.96L20.702 235H18.082L14.562 225.02V235H12.302V221H15.362L19.402 232.46L23.422 221H26.502Z" fill="white"/>
<path d="M3.16126 233.1H10.7013V235H0.54126V234.56C0.54126 231.94 1.96126 230.14 4.58126 228.74C7.76126 227.04 8.06126 226.1 8.06126 225.12C8.06126 223.3 7.02126 222.58 5.54126 222.58C4.00126 222.58 2.86126 223.48 2.86126 225.26H0.68126C0.68126 222.36 2.74126 220.68 5.54126 220.68C8.42126 220.68 10.3613 222.28 10.3613 225.12C10.3613 227.1 9.30126 228.48 6.48126 229.92C4.52126 230.8 3.46126 231.88 3.16126 233.1Z" fill="white"/>
<path d="M24.5975 373V387H22.3375V376.96L18.7975 387H16.1775L12.6575 377.02V387H10.3975V373H13.4575L17.4975 384.46L21.5175 373H24.5975Z" fill="white"/>
<path d="M7.82537 373L7.82537 387H5.62537L5.62537 376.8H5.60537C5.66537 377.38 4.58537 377.72 3.72537 377.72H2.50537L2.50537 375.74H3.72537C4.84537 375.74 5.62537 375.22 5.62537 373.94V373H7.82537Z" fill="white"/>
<path fill-rule="evenodd" clip-rule="evenodd" d="M26.3223 17.1422L42.2322 1.23227C43.2086 0.255952 44.7915 0.255952 45.7678 1.23227L61.6777 17.1422C62.654 18.1185 62.654 19.7014 61.6777 20.6777C60.7014 21.654 59.1185 21.654 58.1421 20.6777L46.5 9.03558L46.5 450.5L587.964 450.5L576.322 438.858C575.346 437.882 575.346 436.299 576.322 435.322C577.299 434.346 578.882 434.346 579.858 435.322L595.768 451.232C596.744 452.209 596.744 453.791 595.768 454.768L579.858 470.678C578.882 471.654 577.299 471.654 576.322 470.678C575.346 469.701 575.346 468.118 576.322 467.142L587.964 455.5L41.5 455.5L41.5 9.03558L29.8579 20.6777C28.8816 21.654 27.2987 21.654 26.3223 20.6777C25.346 19.7014 25.346 18.1185 26.3223 17.1422Z" fill="#23324D"/>
<path fill-rule="evenodd" clip-rule="evenodd" d="M38 74L50 74L50 79L38 79L38 74Z" fill="#23324D"/>
<path fill-rule="evenodd" clip-rule="evenodd" d="M38 226L50 226L50 231L38 231L38 226Z" fill="#23324D"/>
<path fill-rule="evenodd" clip-rule="evenodd" d="M38 378L50 378L50 383L38 383L38 378Z" fill="#23324D"/>
<path fill-rule="evenodd" clip-rule="evenodd" d="M367.351 307.841C282.242 355.729 177.798 377.328 47.1179 383.497L46.8821 378.503C177.202 372.351 280.758 350.826 364.899 303.483C448.984 256.171 513.917 182.939 566.746 72.9178L571.254 75.0821C518.083 185.814 452.516 259.921 367.351 307.841Z" fill="#2CC6F1"/>
<path d="M315 335C315 341.627 309.627 347 303 347C296.373 347 291 341.627 291 335C291 328.373 296.373 323 303 323C309.627 323 315 328.373 315 335Z" fill="#23324D"/>
<path fill-rule="evenodd" clip-rule="evenodd" d="M303 342C306.866 342 310 338.866 310 335C310 331.134 306.866 328 303 328C299.134 328 296 331.134 296 335C296 338.866 299.134 342 303 342ZM303 347C309.627 347 315 341.627 315 335C315 328.373 309.627 323 303 323C296.373 323 291 328.373 291 335C291 341.627 296.373 347 303 347Z" fill="#2CC6F1"/>
<path d="M499 204C499 210.627 493.627 216 487 216C480.373 216 475 210.627 475 204C475 197.373 480.373 192 487 192C493.627 192 499 197.373 499 204Z" fill="#23324D"/>
<path fill-rule="evenodd" clip-rule="evenodd" d="M487 211C490.866 211 494 207.866 494 204C494 200.134 490.866 197 487 197C483.134 197 480 200.134 480 204C480 207.866 483.134 211 487 211ZM487 216C493.627 216 499 210.627 499 204C499 197.373 493.627 192 487 192C480.373 192 475 197.373 475 204C475 210.627 480.373 216 487 216Z" fill="#2CC6F1"/>
<rect x="254" y="279" width="95.1973" height="25.84" fill="#040D21"/>
<path d="M321.237 298.04V285.44H322.965L327.717 293.198L332.505 285.44H334.197V298.04H332.541V288.392L327.789 296.06H327.609L322.893 288.392V298.04H321.237Z" fill="white"/>
<path d="M306.995 298.04C306.995 291.956 310.469 287.96 311.423 286.97H305.915V289.04H304.385V285.44H313.259V287.042C311.765 288.68 308.759 291.866 308.759 298.04H306.995Z" fill="white"/>
<path d="M298.758 298.04V294.872H292.908V292.856L298.092 285.44H300.414V293.288H302.412V294.872H300.414V298.04H298.758ZM294.456 293.288H298.758V287.024L294.456 293.288Z" fill="white"/>
<path d="M289.213 298.13C288.511 298.13 287.971 297.59 287.971 296.888C287.971 296.186 288.511 295.628 289.213 295.628C289.915 295.628 290.473 296.186 290.473 296.888C290.473 297.59 289.915 298.13 289.213 298.13Z" fill="white"/>
<path d="M282.981 298.04V287.276L279.975 288.788V287.096L283.161 285.44H284.637V298.04H282.981Z" fill="white"/>
<path d="M277.55 294.62C277.55 296.474 276.164 298.202 273.572 298.31L273.482 299.84H272.132L272.222 298.238C270.872 298.076 269.828 297.608 269.09 297.212V295.52C269.918 296.006 271.088 296.474 272.312 296.672L272.564 292.316L272.06 292.208C270.17 291.794 269 290.714 269 288.734C269 286.916 270.404 285.368 272.96 285.188L273.032 284H274.382L274.31 285.206C275.336 285.314 276.164 285.602 276.902 285.908V287.636C276.074 287.222 275.156 286.898 274.22 286.772L273.986 290.948L274.274 291.002C276.398 291.47 277.55 292.766 277.55 294.62ZM272.366 290.588L272.654 290.642L272.87 286.754C271.556 286.916 270.728 287.636 270.728 288.734C270.728 289.724 271.286 290.354 272.366 290.588ZM273.662 296.726C275.192 296.618 275.786 295.736 275.786 294.62C275.786 293.72 275.156 292.874 273.896 292.604L273.662 296.726Z" fill="white"/>
<rect x="254" y="279" width="95.1973" height="25.84" stroke="#2CC6F1" stroke-width="2"/>
<rect x="438" y="148" width="94.2129" height="25.84" fill="#040D21"/>
<path d="M504.253 167.04V154.44H505.981L510.733 162.198L515.521 154.44H517.213V167.04H515.557V157.392L510.805 165.06H510.625L505.909 157.392V167.04H504.253Z" fill="white"/>
<path d="M491.559 167.31C488.607 167.31 487.059 165.042 487.059 161.19C487.059 155.952 488.895 154.17 492.243 154.17C493.359 154.17 494.601 154.512 495.213 154.818V156.438C494.439 156.078 493.251 155.754 492.243 155.754C489.939 155.754 488.769 156.96 488.769 160.146C489.309 159.624 490.335 158.994 491.883 158.994C494.187 158.994 495.825 160.614 495.825 163.152C495.825 165.654 493.845 167.31 491.559 167.31ZM491.577 165.762C493.035 165.762 494.097 164.7 494.097 163.152C494.097 161.586 493.035 160.542 491.577 160.542C490.425 160.542 489.399 161.172 488.805 161.838C488.805 164.43 489.759 165.762 491.577 165.762Z" fill="white"/>
<path d="M481.799 167.04V156.276L478.793 157.788V156.096L481.979 154.44H483.455V167.04H481.799Z" fill="white"/>
<path d="M475.99 167.13C475.288 167.13 474.748 166.59 474.748 165.888C474.748 165.186 475.288 164.628 475.99 164.628C476.692 164.628 477.25 165.186 477.25 165.888C477.25 166.59 476.692 167.13 475.99 167.13Z" fill="white"/>
<path d="M464.065 167.04C464.065 164.304 464.911 163.098 466.801 161.64L468.709 160.164C469.753 159.354 470.347 158.58 470.347 157.662C470.347 156.528 469.393 155.754 467.791 155.754C466.369 155.754 465.199 156.24 464.245 156.888V155.088C465.055 154.674 466.081 154.17 467.791 154.17C470.491 154.17 472.075 155.718 472.075 157.662C472.075 159.192 471.103 160.326 469.843 161.262L467.575 162.954C466.819 163.512 465.991 164.412 465.991 165.42H472.147V167.04H464.065Z" fill="white"/>
<path d="M461.55 163.62C461.55 165.474 460.164 167.202 457.572 167.31L457.482 168.84H456.132L456.222 167.238C454.872 167.076 453.828 166.608 453.09 166.212V164.52C453.918 165.006 455.088 165.474 456.312 165.672L456.564 161.316L456.06 161.208C454.17 160.794 453 159.714 453 157.734C453 155.916 454.404 154.368 456.96 154.188L457.032 153H458.382L458.31 154.206C459.336 154.314 460.164 154.602 460.902 154.908V156.636C460.074 156.222 459.156 155.898 458.22 155.772L457.986 159.948L458.274 160.002C460.398 160.47 461.55 161.766 461.55 163.62ZM456.366 159.588L456.654 159.642L456.87 155.754C455.556 155.916 454.728 156.636 454.728 157.734C454.728 158.724 455.286 159.354 456.366 159.588ZM457.662 165.726C459.192 165.618 459.786 164.736 459.786 163.62C459.786 162.72 459.156 161.874 457.896 161.604L457.662 165.726Z" fill="white"/>
<rect x="438" y="148" width="94.2129" height="25.84" stroke="#2CC6F1" stroke-width="2"/>
</svg>
