<svg width="468" height="150" viewBox="0 0 468 150" fill="none" xmlns="http://www.w3.org/2000/svg">
<path d="M161.252 15.125V16.46H155.027C155.222 17.93 156.122 18.815 157.352 18.815C158.312 18.815 159.092 18.275 159.377 17.465H161.177C160.832 19.07 159.347 20.24 157.352 20.24C154.922 20.24 153.287 18.5 153.287 15.875C153.287 13.145 154.952 11.51 157.352 11.51C159.602 11.51 161.252 13.055 161.252 15.125ZM157.352 12.935C156.107 12.935 155.252 13.82 155.042 14.99H159.587C159.407 13.775 158.567 12.935 157.352 12.935Z" fill="#DFE4EC"/>
<path d="M148.289 20V11.75H149.909V13.025H149.939C150.374 12.32 151.124 11.51 152.339 11.51H153.044V12.935H152.159C150.809 12.935 149.939 13.76 149.939 15.35V20H148.289Z" fill="#DFE4EC"/>
<path d="M142.363 20.24C140.608 20.24 139.543 18.95 139.543 16.955V11.75H141.193V16.82C141.193 18.245 141.898 18.77 142.798 18.77C143.908 18.77 144.793 17.96 144.793 16.4V11.75H146.443V20H144.823V18.815H144.793C144.388 19.49 143.653 20.24 142.363 20.24Z" fill="#DFE4EC"/>
<path d="M138.504 13.19H136.269V17.69C136.269 18.245 136.614 18.56 137.109 18.56H138.504V20H136.959C135.429 20 134.619 19.34 134.619 17.795V13.19H133.269V11.75H134.619V9.5H136.269V11.75H138.504V13.19Z" fill="#DFE4EC"/>
<path d="M132.59 18.56H133.085V20H132.35C131.42 20 130.79 19.475 130.565 18.635H130.46C129.8 19.64 128.78 20.24 127.58 20.24C125.54 20.24 123.785 18.71 123.785 15.875C123.785 13.055 125.54 11.51 127.58 11.51C128.705 11.51 129.68 11.915 130.37 12.89H130.4V11.75H132.05V18.05C132.05 18.38 132.245 18.56 132.59 18.56ZM128 18.815C129.5 18.8 130.46 17.435 130.46 15.89C130.46 14.27 129.545 12.95 128 12.935C126.5 12.92 125.495 14.135 125.495 15.875C125.495 17.66 126.5 18.83 128 18.815Z" fill="#DFE4EC"/>
<path d="M122.917 15.125V16.46H116.692C116.887 17.93 117.787 18.815 119.017 18.815C119.977 18.815 120.757 18.275 121.042 17.465H122.842C122.497 19.07 121.012 20.24 119.017 20.24C116.587 20.24 114.952 18.5 114.952 15.875C114.952 13.145 116.617 11.51 119.017 11.51C121.267 11.51 122.917 13.055 122.917 15.125ZM119.017 12.935C117.772 12.935 116.917 13.82 116.707 14.99H121.252C121.072 13.775 120.232 12.935 119.017 12.935Z" fill="#DFE4EC"/>
<path d="M113.751 9.725C113.331 9.725 113.031 10.115 113.031 10.76V11.75H114.636V13.19H113.031V20H111.381V13.19H110.436V11.75H111.381V10.79C111.381 9.29 112.266 8.285 113.781 8.285H115.236V9.725H113.751Z" fill="#DFE4EC"/>
<path d="M106.307 13.19H104.072V17.69C104.072 18.245 104.417 18.56 104.912 18.56H106.307V20H104.762C103.232 20 102.422 19.34 102.422 17.795V13.19H101.072V11.75H102.422V9.5H104.072V11.75H106.307V13.19Z" fill="#DFE4EC"/>
<path d="M96.9291 20.24C94.4541 20.24 92.7891 18.5 92.7891 15.86C92.7891 13.295 94.3341 11.51 96.9291 11.51C99.2991 11.51 100.604 13.04 100.784 14.9H99.0741C98.9991 13.85 98.2491 12.935 96.9291 12.935C95.4291 12.935 94.4991 14.15 94.4991 15.86C94.4991 17.675 95.5641 18.815 96.9291 18.815C98.2341 18.815 98.9541 17.825 99.0741 17.015H100.784C100.559 18.71 99.2241 20.24 96.9291 20.24Z" fill="#DFE4EC"/>
<path d="M87.3579 20.24C85.6029 20.24 84.5379 18.95 84.5379 16.955V11.75H86.1879V16.82C86.1879 18.245 86.8929 18.77 87.7929 18.77C88.9029 18.77 89.7879 17.96 89.7879 16.4V11.75H91.4379V20H89.8179V18.815H89.7879C89.3829 19.49 88.6479 20.24 87.3579 20.24Z" fill="#DFE4EC"/>
<path d="M81.0935 19.595C81.0935 19.295 81.0935 19.055 81.1235 18.725H81.0935C80.4485 19.73 79.4135 20.24 78.2735 20.24C76.2335 20.24 74.4785 18.68 74.4785 15.8C74.4785 13.025 76.2335 11.51 78.2735 11.51C79.4735 11.51 80.4935 12.035 81.0935 13.025H81.1235C81.0935 12.68 81.0935 12.425 81.0935 12.11V8H82.7435V20H81.0935V19.595ZM78.6935 18.815C80.2085 18.8 81.0935 17.465 81.0935 15.785C81.0935 14.195 80.2085 12.95 78.6935 12.935C77.1785 12.92 76.1885 14.075 76.1885 15.8C76.1885 17.6 77.1785 18.83 78.6935 18.815Z" fill="#DFE4EC"/>
<path d="M69.4633 20.24C67.1533 20.24 65.3233 18.665 65.3233 15.875C65.3233 13.07 67.1533 11.51 69.4633 11.51C71.7733 11.51 73.6033 13.07 73.6033 15.875C73.6033 18.665 71.7733 20.24 69.4633 20.24ZM69.4633 18.815C70.8133 18.8 71.8933 17.87 71.8933 15.875C71.8933 13.865 70.8133 12.95 69.4633 12.935C68.1133 12.92 67.0333 13.865 67.0333 15.875C67.0333 17.87 68.1133 18.83 69.4633 18.815Z" fill="#DFE4EC"/>
<path d="M60.3251 20V11.75H61.9451V13.025H61.9751C62.4101 12.32 63.1601 11.51 64.3751 11.51H65.0801V12.935H64.1951C62.8451 12.935 61.9751 13.76 61.9751 15.35V20H60.3251Z" fill="#DFE4EC"/>
<path d="M52.3658 12.155C52.3658 12.455 52.3658 12.695 52.3358 13.025H52.3658C53.0108 12.02 54.0308 11.51 55.1858 11.51C57.2108 11.51 58.9808 13.025 58.9808 15.83C58.9808 18.695 57.2108 20.24 55.1858 20.24C53.9858 20.24 52.9658 19.715 52.3658 18.725H52.3358C52.3658 19.07 52.3658 19.325 52.3658 19.64V22.55H50.7158V11.75H52.3658V12.155ZM54.7658 18.815C56.2658 18.83 57.2558 17.615 57.2558 15.83C57.2558 14.09 56.2658 12.92 54.7658 12.935C53.2358 12.95 52.3508 14.225 52.3508 15.815C52.3508 17.495 53.2358 18.8 54.7658 18.815Z" fill="#DFE4EC"/>
<path d="M44.1946 11.75H45.8296L43.6546 20H41.7946L40.3246 13.895L38.8846 20H37.0096L34.8196 11.75H36.5296L37.9396 17.915L39.3196 11.75H41.4046L42.7846 17.915L44.1946 11.75Z" fill="#DFE4EC"/>
<path d="M34.382 15.125V16.46H28.157C28.352 17.93 29.252 18.815 30.482 18.815C31.442 18.815 32.222 18.275 32.507 17.465H34.307C33.962 19.07 32.477 20.24 30.482 20.24C28.052 20.24 26.417 18.5 26.417 15.875C26.417 13.145 28.082 11.51 30.482 11.51C32.732 11.51 34.382 13.055 34.382 15.125ZM30.482 12.935C29.237 12.935 28.382 13.82 28.172 14.99H32.717C32.537 13.775 31.697 12.935 30.482 12.935Z" fill="#DFE4EC"/>
<path d="M23.305 9.5H25.015V20H22.705L17.695 11.75V20H16V9.5H18.295L23.305 17.75V9.5Z" fill="#DFE4EC"/>
<rect x="16" y="36.55" width="84" height="31.1" stroke="#23324D"/>
<path d="M80 50.55C80 52.7591 78.2091 54.55 76 54.55C73.7909 54.55 72 52.7591 72 50.55C72 48.3408 73.7909 46.55 76 46.55C78.2091 46.55 80 48.3408 80 50.55Z" fill="#2CC6F1"/>
<path d="M92 50.55C92 52.7591 90.2091 54.55 88 54.55C85.7909 54.55 84 52.7591 84 50.55C84 48.3408 85.7909 46.55 88 46.55C90.2091 46.55 92 48.3408 92 50.55Z" fill="#2CC6F1"/>
<rect x="100" y="36.55" width="122" height="31.1" stroke="#23324D"/>
<path d="M171.505 57.65C170.275 57.65 169.48 56.96 169.48 55.655V51.425H168.175V50.225H169.57V48.095L170.83 47.345V50.225H172.585V51.425H170.83V55.445C170.83 56.105 171.19 56.435 171.91 56.435C172.15 56.435 172.42 56.39 172.585 56.33V57.5C172.465 57.545 171.985 57.65 171.505 57.65Z" fill="#DFE4EC"/>
<path d="M163.578 57.65C161.958 57.65 160.803 56.735 160.803 55.13C160.803 53.645 162.108 52.79 163.578 52.79C164.388 52.79 165.153 52.985 165.618 53.24V52.475C165.618 51.77 165.078 51.185 163.968 51.185C162.918 51.185 161.883 51.59 161.223 52.01V50.645C162.003 50.255 162.888 49.985 163.968 49.985C166.113 49.985 166.968 51.215 166.968 52.625V57.425H165.663V56.84C165.228 57.26 164.493 57.65 163.578 57.65ZM163.818 56.495C164.673 56.495 165.348 56.045 165.618 55.775V54.455C165.348 54.245 164.643 53.915 163.818 53.915C162.903 53.915 162.213 54.35 162.213 55.13C162.213 55.97 162.903 56.495 163.818 56.495Z" fill="#DFE4EC"/>
<path d="M152.728 57.425V46.55H154.078V50.885C154.573 50.39 155.308 49.985 156.253 49.985C157.633 49.985 158.998 50.915 158.998 52.67V57.425H157.648V53.015C157.648 51.92 156.838 51.275 155.938 51.275C155.173 51.275 154.543 51.65 154.078 52.235V57.425H152.728Z" fill="#DFE4EC"/>
<path d="M148.527 51.305C147.357 51.305 146.112 52.13 146.112 53.81C146.112 55.49 147.357 56.33 148.527 56.33C149.367 56.33 150.042 56.135 150.777 55.64V57.14C150.237 57.395 149.502 57.65 148.527 57.65C146.307 57.65 144.672 56.06 144.672 53.81C144.672 51.56 146.307 49.985 148.527 49.985C149.502 49.985 150.237 50.24 150.777 50.495V51.995C150.042 51.5 149.367 51.305 148.527 51.305Z" fill="#DFE4EC"/>
<path d="M135.208 57.425V50.225H136.528V51.47C136.903 50.51 137.788 49.985 138.733 49.985C138.958 49.985 139.123 50.015 139.228 50.03V51.53C139.018 51.5 138.778 51.485 138.583 51.485C137.398 51.485 136.753 52.265 136.558 52.955V57.425H135.208Z" fill="#DFE4EC"/>
<path d="M130.051 57.65C128.041 57.65 126.346 56.345 126.346 53.795C126.346 51.485 127.981 49.985 129.886 49.985C132.121 49.985 133.411 51.605 133.411 53.87C133.411 54.05 133.396 54.26 133.381 54.35H127.801C127.861 55.55 128.836 56.405 130.051 56.405C131.221 56.405 132.091 56.075 133.066 55.31V56.645C132.451 57.125 131.521 57.65 130.051 57.65ZM127.846 53.18H131.941C131.911 52.04 131.191 51.23 129.886 51.23C128.701 51.23 127.906 52.145 127.846 53.18Z" fill="#DFE4EC"/>
<path d="M122.174 57.65C121.274 57.65 120.329 57.38 119.729 57.065V55.76C120.554 56.195 121.409 56.45 122.174 56.45C123.149 56.45 123.689 56.09 123.689 55.415C123.689 54.95 123.344 54.635 122.744 54.5L121.514 54.23C120.359 53.975 119.714 53.255 119.714 52.175C119.714 50.855 120.854 49.985 122.429 49.985C123.419 49.985 124.154 50.225 124.724 50.48V51.8C123.974 51.41 123.134 51.185 122.429 51.185C121.484 51.185 121.064 51.62 121.064 52.175C121.064 52.55 121.334 52.895 121.934 53.03L123.074 53.285C124.379 53.57 125.069 54.32 125.069 55.415C125.069 56.855 123.779 57.65 122.174 57.65Z" fill="#DFE4EC"/>
<path d="M113.855 57.65C111.695 57.65 110 56.36 110 53.855V46.925H111.41V53.81C111.41 55.385 112.385 56.3 113.855 56.3C115.34 56.3 116.285 55.385 116.285 53.81V46.925H117.695V53.855C117.695 56.36 116.015 57.65 113.855 57.65Z" fill="#DFE4EC"/>
<rect x="16" y="67.65" width="84" height="40" stroke="#23324D"/>
<path d="M32 81.65C32 83.8591 30.2091 85.65 28 85.65C25.7909 85.65 24 83.8591 24 81.65C24 79.4409 25.7909 77.65 28 77.65C30.2091 77.65 32 79.4409 32 81.65Z" fill="#2CC6F1"/>
<path d="M44 81.65C44 83.8591 42.2091 85.65 40 85.65C37.7909 85.65 36 83.8591 36 81.65C36 79.4409 37.7909 77.65 40 77.65C42.2091 77.65 44 79.4409 44 81.65Z" fill="#2CC6F1"/>
<path d="M56 81.65C56 83.8591 54.2091 85.65 52 85.65C49.7909 85.65 48 83.8591 48 81.65C48 79.4409 49.7909 77.65 52 77.65C54.2091 77.65 56 79.4409 56 81.65Z" fill="#2CC6F1"/>
<path d="M68 81.65C68 83.8591 66.2091 85.65 64 85.65C61.7909 85.65 60 83.8591 60 81.65C60 79.4409 61.7909 77.65 64 77.65C66.2091 77.65 68 79.4409 68 81.65Z" fill="#2CC6F1"/>
<path d="M80 81.65C80 83.8591 78.2091 85.65 76 85.65C73.7909 85.65 72 83.8591 72 81.65C72 79.4409 73.7909 77.65 76 77.65C78.2091 77.65 80 79.4409 80 81.65Z" fill="#2CC6F1"/>
<path d="M92 81.65C92 83.8591 90.2091 85.65 88 85.65C85.7909 85.65 84 83.8591 84 81.65C84 79.4409 85.7909 77.65 88 77.65C90.2091 77.65 92 79.4409 92 81.65Z" fill="#2CC6F1"/>
<path d="M44 93.65C44 95.8591 42.2091 97.65 40 97.65C37.7909 97.65 36 95.8591 36 93.65C36 91.4409 37.7909 89.65 40 89.65C42.2091 89.65 44 91.4409 44 93.65Z" fill="#2CC6F1"/>
<path d="M56 93.65C56 95.8591 54.2091 97.65 52 97.65C49.7909 97.65 48 95.8591 48 93.65C48 91.4409 49.7909 89.65 52 89.65C54.2091 89.65 56 91.4409 56 93.65Z" fill="#2CC6F1"/>
<path d="M68 93.65C68 95.8591 66.2091 97.65 64 97.65C61.7909 97.65 60 95.8591 60 93.65C60 91.4409 61.7909 89.65 64 89.65C66.2091 89.65 68 91.4409 68 93.65Z" fill="#2CC6F1"/>
<path d="M80 93.65C80 95.8591 78.2091 97.65 76 97.65C73.7909 97.65 72 95.8591 72 93.65C72 91.4409 73.7909 89.65 76 89.65C78.2091 89.65 80 91.4409 80 93.65Z" fill="#2CC6F1"/>
<path d="M92 93.65C92 95.8591 90.2091 97.65 88 97.65C85.7909 97.65 84 95.8591 84 93.65C84 91.4409 85.7909 89.65 88 89.65C90.2091 89.65 92 91.4409 92 93.65Z" fill="#2CC6F1"/>
<rect x="100" y="67.65" width="122" height="40" stroke="#23324D"/>
<path d="M152.216 88.75C151.316 88.75 150.371 88.48 149.771 88.165V86.86C150.596 87.295 151.451 87.55 152.216 87.55C153.191 87.55 153.731 87.19 153.731 86.515C153.731 86.05 153.386 85.735 152.786 85.6L151.556 85.33C150.401 85.075 149.756 84.355 149.756 83.275C149.756 81.955 150.896 81.085 152.471 81.085C153.461 81.085 154.196 81.325 154.766 81.58V82.9C154.016 82.51 153.176 82.285 152.471 82.285C151.526 82.285 151.106 82.72 151.106 83.275C151.106 83.65 151.376 83.995 151.976 84.13L153.116 84.385C154.421 84.67 155.111 85.42 155.111 86.515C155.111 87.955 153.821 88.75 152.216 88.75Z" fill="#DFE4EC"/>
<path d="M144.612 88.75C142.422 88.75 140.817 87.115 140.817 84.91C140.817 82.72 142.422 81.085 144.612 81.085C146.802 81.085 148.407 82.72 148.407 84.91C148.407 87.115 146.802 88.75 144.612 88.75ZM144.612 87.475C145.842 87.475 146.982 86.59 146.982 84.91C146.982 83.245 145.842 82.36 144.612 82.36C143.382 82.36 142.242 83.245 142.242 84.91C142.242 86.59 143.382 87.475 144.612 87.475Z" fill="#DFE4EC"/>
<path d="M138.457 88.75C137.227 88.75 136.432 88.06 136.432 86.755V82.525H135.127V81.325H136.522V79.195L137.782 78.445V81.325H139.537V82.525H137.782V86.545C137.782 87.205 138.142 87.535 138.862 87.535C139.102 87.535 139.372 87.49 139.537 87.43V88.6C139.417 88.645 138.937 88.75 138.457 88.75Z" fill="#DFE4EC"/>
<path d="M130.433 88.75C128.243 88.75 126.638 87.115 126.638 84.91C126.638 82.72 128.243 81.085 130.433 81.085C132.623 81.085 134.228 82.72 134.228 84.91C134.228 87.115 132.623 88.75 130.433 88.75ZM130.433 87.475C131.663 87.475 132.803 86.59 132.803 84.91C132.803 83.245 131.663 82.36 130.433 82.36C129.203 82.36 128.063 83.245 128.063 84.91C128.063 86.59 129.203 87.475 130.433 87.475Z" fill="#DFE4EC"/>
<path d="M118.712 88.525V77.65H120.062V81.985C120.557 81.49 121.292 81.085 122.237 81.085C123.617 81.085 124.982 82.015 124.982 83.77V88.525H123.632V84.115C123.632 83.02 122.822 82.375 121.922 82.375C121.157 82.375 120.527 82.75 120.062 83.335V88.525H118.712Z" fill="#DFE4EC"/>
<path d="M110 88.525V78.025H113.78C115.745 78.025 117.065 79.54 117.065 81.325C117.065 83.125 115.745 84.61 113.78 84.61H111.41V88.525H110ZM111.41 83.305H113.54C114.83 83.305 115.595 82.435 115.595 81.325C115.595 80.215 114.83 79.33 113.54 79.33H111.41V83.305Z" fill="#DFE4EC"/>
<rect x="16" y="107.65" width="84" height="33.56" stroke="#23324D"/>
<path d="M68 121.65C68 123.859 66.2091 125.65 64 125.65C61.7909 125.65 60 123.859 60 121.65C60 119.441 61.7909 117.65 64 117.65C66.2091 117.65 68 119.441 68 121.65Z" fill="#2CC6F1"/>
<path d="M80 121.65C80 123.859 78.2091 125.65 76 125.65C73.7909 125.65 72 123.859 72 121.65C72 119.441 73.7909 117.65 76 117.65C78.2091 117.65 80 119.441 80 121.65Z" fill="#2CC6F1"/>
<path d="M92 121.65C92 123.859 90.2091 125.65 88 125.65C85.7909 125.65 84 123.859 84 121.65C84 119.441 85.7909 117.65 88 117.65C90.2091 117.65 92 119.441 92 121.65Z" fill="#2CC6F1"/>
<rect x="100" y="107.65" width="122" height="33.56" stroke="#23324D"/>
<path d="M155.118 128.6C154.218 128.6 153.273 128.33 152.673 128.015V126.71C153.498 127.145 154.353 127.4 155.118 127.4C156.093 127.4 156.633 127.04 156.633 126.365C156.633 125.9 156.288 125.585 155.688 125.45L154.458 125.18C153.303 124.925 152.658 124.205 152.658 123.125C152.658 121.805 153.798 120.935 155.373 120.935C156.363 120.935 157.098 121.175 157.668 121.43V122.75C156.918 122.36 156.078 122.135 155.373 122.135C154.428 122.135 154.008 122.57 154.008 123.125C154.008 123.5 154.278 123.845 154.878 123.98L156.018 124.235C157.323 124.52 158.013 125.27 158.013 126.365C158.013 127.805 156.723 128.6 155.118 128.6Z" fill="#DFE4EC"/>
<path d="M144.158 131.21V121.175H145.508V121.925C146.033 121.385 146.738 120.935 147.863 120.935C149.978 120.935 151.313 122.63 151.313 124.745C151.313 126.89 149.978 128.6 147.863 128.6C146.738 128.6 146.033 128.135 145.508 127.595V131.21H144.158ZM147.623 127.325C149.003 127.325 149.888 126.35 149.888 124.745C149.888 123.17 149.003 122.21 147.623 122.21C146.663 122.21 145.943 122.78 145.508 123.395V126.125C145.943 126.74 146.663 127.325 147.623 127.325Z" fill="#DFE4EC"/>
<path d="M138.331 128.6C136.951 128.6 135.616 127.67 135.616 125.915V121.175H136.966V125.57C136.966 126.665 137.746 127.31 138.646 127.31C139.411 127.31 140.011 126.95 140.476 126.365V121.175H141.826V128.375H140.506V127.685C140.011 128.195 139.291 128.6 138.331 128.6Z" fill="#DFE4EC"/>
<path d="M130.097 128.6C127.907 128.6 126.302 126.965 126.302 124.76C126.302 122.57 127.907 120.935 130.097 120.935C132.287 120.935 133.892 122.57 133.892 124.76C133.892 126.965 132.287 128.6 130.097 128.6ZM130.097 127.325C131.327 127.325 132.467 126.44 132.467 124.76C132.467 123.095 131.327 122.21 130.097 122.21C128.867 122.21 127.727 123.095 127.727 124.76C127.727 126.44 128.867 127.325 130.097 127.325Z" fill="#DFE4EC"/>
<path d="M121.453 128.375V121.175H122.773V122.42C123.148 121.46 124.033 120.935 124.978 120.935C125.203 120.935 125.368 120.965 125.473 120.98V122.48C125.263 122.45 125.023 122.435 124.828 122.435C123.643 122.435 122.998 123.215 122.803 123.905V128.375H121.453Z" fill="#DFE4EC"/>
<path d="M115.355 128.6C112.625 128.6 110 126.755 110 123.125C110 119.495 112.625 117.65 115.355 117.65C116.855 117.65 117.86 118.055 118.91 118.61V120.11C117.755 119.375 116.645 118.985 115.355 118.985C113.42 118.985 111.47 120.275 111.47 123.125C111.47 125.975 113.42 127.25 115.355 127.25C116.135 127.25 116.825 127.1 117.53 126.8V124.475H113.9V123.17H118.91V127.64C117.86 128.195 116.855 128.6 115.355 128.6Z" fill="#DFE4EC"/>
<rect x="246" y="36.55" width="84" height="33.71" stroke="#23324D"/>
<rect x="330" y="36.55" width="122" height="33.71" stroke="#23324D"/>
<path d="M419.054 57.65C417.044 57.65 415.349 56.345 415.349 53.795C415.349 51.485 416.984 49.985 418.889 49.985C421.124 49.985 422.414 51.605 422.414 53.87C422.414 54.05 422.399 54.26 422.384 54.35H416.804C416.864 55.55 417.839 56.405 419.054 56.405C420.224 56.405 421.094 56.075 422.069 55.31V56.645C421.454 57.125 420.524 57.65 419.054 57.65ZM416.849 53.18H420.944C420.914 52.04 420.194 51.23 418.889 51.23C417.704 51.23 416.909 52.145 416.849 53.18Z" fill="#DFE4EC"/>
<path d="M411.748 51.305C410.578 51.305 409.333 52.13 409.333 53.81C409.333 55.49 410.578 56.33 411.748 56.33C412.588 56.33 413.263 56.135 413.998 55.64V57.14C413.458 57.395 412.723 57.65 411.748 57.65C409.528 57.65 407.893 56.06 407.893 53.81C407.893 51.56 409.528 49.985 411.748 49.985C412.723 49.985 413.458 50.24 413.998 50.495V51.995C413.263 51.5 412.588 51.305 411.748 51.305Z" fill="#DFE4EC"/>
<path d="M402.995 57.65C401.375 57.65 400.22 56.735 400.22 55.13C400.22 53.645 401.525 52.79 402.995 52.79C403.805 52.79 404.57 52.985 405.035 53.24V52.475C405.035 51.77 404.495 51.185 403.385 51.185C402.335 51.185 401.3 51.59 400.64 52.01V50.645C401.42 50.255 402.305 49.985 403.385 49.985C405.53 49.985 406.385 51.215 406.385 52.625V57.425H405.08V56.84C404.645 57.26 403.91 57.65 402.995 57.65ZM403.235 56.495C404.09 56.495 404.765 56.045 405.035 55.775V54.455C404.765 54.245 404.06 53.915 403.235 53.915C402.32 53.915 401.63 54.35 401.63 55.13C401.63 55.97 402.32 56.495 403.235 56.495Z" fill="#DFE4EC"/>
<path d="M397.067 57.425V46.55H398.417V57.425H397.067Z" fill="#DFE4EC"/>
<path d="M388.117 60.26V50.225H389.467V50.975C389.992 50.435 390.697 49.985 391.822 49.985C393.937 49.985 395.272 51.68 395.272 53.795C395.272 55.94 393.937 57.65 391.822 57.65C390.697 57.65 389.992 57.185 389.467 56.645V60.26H388.117ZM391.582 56.375C392.962 56.375 393.847 55.4 393.847 53.795C393.847 52.22 392.962 51.26 391.582 51.26C390.622 51.26 389.902 51.83 389.467 52.445V55.175C389.902 55.79 390.622 56.375 391.582 56.375Z" fill="#DFE4EC"/>
<path d="M385.156 57.65C383.926 57.65 383.131 56.96 383.131 55.655V51.425H381.826V50.225H383.221V48.095L384.481 47.345V50.225H386.236V51.425H384.481V55.445C384.481 56.105 384.841 56.435 385.561 56.435C385.801 56.435 386.071 56.39 386.236 56.33V57.5C386.116 57.545 385.636 57.65 385.156 57.65Z" fill="#DFE4EC"/>
<path d="M377.569 57.65C375.559 57.65 373.864 56.345 373.864 53.795C373.864 51.485 375.499 49.985 377.404 49.985C379.639 49.985 380.929 51.605 380.929 53.87C380.929 54.05 380.914 54.26 380.899 54.35H375.319C375.379 55.55 376.354 56.405 377.569 56.405C378.739 56.405 379.609 56.075 380.584 55.31V56.645C379.969 57.125 379.039 57.65 377.569 57.65ZM375.364 53.18H379.459C379.429 52.04 378.709 51.23 377.404 51.23C376.219 51.23 375.424 52.145 375.364 53.18Z" fill="#DFE4EC"/>
<path d="M373.402 57.425H371.677L369.277 53.99L368.197 54.98V57.425H366.847V46.55H368.197V53.255L371.437 50.225H373.342L370.297 53.045L373.402 57.425Z" fill="#DFE4EC"/>
<path d="M361.178 57.425V50.225H362.498V51.47C362.873 50.51 363.758 49.985 364.703 49.985C364.928 49.985 365.093 50.015 365.198 50.03V51.53C364.988 51.5 364.748 51.485 364.553 51.485C363.368 51.485 362.723 52.265 362.528 52.955V57.425H361.178Z" fill="#DFE4EC"/>
<path d="M355.681 57.65C354.061 57.65 352.906 56.735 352.906 55.13C352.906 53.645 354.211 52.79 355.681 52.79C356.491 52.79 357.256 52.985 357.721 53.24V52.475C357.721 51.77 357.181 51.185 356.071 51.185C355.021 51.185 353.986 51.59 353.326 52.01V50.645C354.106 50.255 354.991 49.985 356.071 49.985C358.216 49.985 359.071 51.215 359.071 52.625V57.425H357.766V56.84C357.331 57.26 356.596 57.65 355.681 57.65ZM355.921 56.495C356.776 56.495 357.451 56.045 357.721 55.775V54.455C357.451 54.245 356.746 53.915 355.921 53.915C355.006 53.915 354.316 54.35 354.316 55.13C354.316 55.97 355.006 56.495 355.921 56.495Z" fill="#DFE4EC"/>
<path d="M340 57.425V46.925H341.44L345.4 53.39L349.39 46.925H350.8V57.425H349.42V49.385L345.46 55.775H345.31L341.38 49.385V57.425H340Z" fill="#DFE4EC"/>
<rect x="246" y="70.26" width="84" height="31.13" stroke="#23324D"/>
<path d="M298 84.26C298 86.4691 296.209 88.26 294 88.26C291.791 88.26 290 86.4691 290 84.26C290 82.0508 291.791 80.26 294 80.26C296.209 80.26 298 82.0508 298 84.26Z" fill="#2CC6F1"/>
<path d="M310 84.26C310 86.4691 308.209 88.26 306 88.26C303.791 88.26 302 86.4691 302 84.26C302 82.0508 303.791 80.26 306 80.26C308.209 80.26 310 82.0508 310 84.26Z" fill="#2CC6F1"/>
<path d="M322 84.26C322 86.4691 320.209 88.26 318 88.26C315.791 88.26 314 86.4691 314 84.26C314 82.0508 315.791 80.26 318 80.26C320.209 80.26 322 82.0508 322 84.26Z" fill="#2CC6F1"/>
<rect x="330" y="70.26" width="122" height="31.13" stroke="#23324D"/>
<path d="M404.601 80.29H405.951V91.165H404.601V90.385C404.076 90.925 403.371 91.39 402.246 91.39C400.131 91.39 398.796 89.68 398.796 87.535C398.796 85.42 400.131 83.725 402.246 83.725C403.371 83.725 404.076 84.175 404.601 84.715V80.29ZM404.601 88.915V86.185C404.166 85.57 403.446 85 402.486 85C401.106 85 400.221 85.96 400.221 87.535C400.221 89.14 401.106 90.115 402.486 90.115C403.446 90.115 404.166 89.53 404.601 88.915Z" fill="#DFE4EC"/>
<path d="M394.239 91.39C392.229 91.39 390.534 90.085 390.534 87.535C390.534 85.225 392.169 83.725 394.074 83.725C396.309 83.725 397.599 85.345 397.599 87.61C397.599 87.79 397.584 88 397.569 88.09H391.989C392.049 89.29 393.024 90.145 394.239 90.145C395.409 90.145 396.279 89.815 397.254 89.05V90.385C396.639 90.865 395.709 91.39 394.239 91.39ZM392.034 86.92H396.129C396.099 85.78 395.379 84.97 394.074 84.97C392.889 84.97 392.094 85.885 392.034 86.92Z" fill="#DFE4EC"/>
<path d="M385.977 91.39C383.967 91.39 382.272 90.085 382.272 87.535C382.272 85.225 383.907 83.725 385.812 83.725C388.047 83.725 389.337 85.345 389.337 87.61C389.337 87.79 389.322 88 389.307 88.09H383.727C383.787 89.29 384.762 90.145 385.977 90.145C387.147 90.145 388.017 89.815 388.992 89.05V90.385C388.377 90.865 387.447 91.39 385.977 91.39ZM383.772 86.92H387.867C387.837 85.78 387.117 84.97 385.812 84.97C384.627 84.97 383.832 85.885 383.772 86.92Z" fill="#DFE4EC"/>
<path d="M378.268 91.165V85.165H376.933V83.965H378.298V82.735C378.298 81.25 379.153 80.26 380.743 80.26C381.133 80.26 381.343 80.305 381.523 80.35V81.655C381.403 81.61 381.148 81.55 380.833 81.55C380.338 81.55 379.618 81.82 379.618 82.81V83.965H381.508V85.165H379.618V91.165H378.268Z" fill="#DFE4EC"/>
<path d="M373.061 91.39C372.161 91.39 371.216 91.12 370.616 90.805V89.5C371.441 89.935 372.296 90.19 373.061 90.19C374.036 90.19 374.576 89.83 374.576 89.155C374.576 88.69 374.231 88.375 373.631 88.24L372.401 87.97C371.246 87.715 370.601 86.995 370.601 85.915C370.601 84.595 371.741 83.725 373.316 83.725C374.306 83.725 375.041 83.965 375.611 84.22V85.54C374.861 85.15 374.021 84.925 373.316 84.925C372.371 84.925 371.951 85.36 371.951 85.915C371.951 86.29 372.221 86.635 372.821 86.77L373.961 87.025C375.266 87.31 375.956 88.06 375.956 89.155C375.956 90.595 374.666 91.39 373.061 91.39Z" fill="#DFE4EC"/>
<path d="M360.552 91.165L358.182 83.965H359.682L361.347 89.41L363.252 83.965H364.647L366.552 89.41L368.187 83.965H369.627L367.287 91.165H365.832L363.912 85.69L362.037 91.165H360.552Z" fill="#DFE4EC"/>
<path d="M354.22 91.39C352.21 91.39 350.515 90.085 350.515 87.535C350.515 85.225 352.15 83.725 354.055 83.725C356.29 83.725 357.58 85.345 357.58 87.61C357.58 87.79 357.565 88 357.55 88.09H351.97C352.03 89.29 353.005 90.145 354.22 90.145C355.39 90.145 356.26 89.815 357.235 89.05V90.385C356.62 90.865 355.69 91.39 354.22 91.39ZM352.015 86.92H356.11C356.08 85.78 355.36 84.97 354.055 84.97C352.87 84.97 352.075 85.885 352.015 86.92Z" fill="#DFE4EC"/>
<path d="M340 91.165V80.665H341.755L347.185 88.66V80.665H348.565V91.165H347.125L341.38 82.51V91.165H340Z" fill="#DFE4EC"/>
<rect x="246" y="101.39" width="84" height="30.725" stroke="#23324D"/>
<path d="M322 115.39C322 117.599 320.209 119.39 318 119.39C315.791 119.39 314 117.599 314 115.39C314 113.181 315.791 111.39 318 111.39C320.209 111.39 322 113.181 322 115.39Z" fill="#2CC6F1"/>
<rect x="330" y="101.39" width="122" height="30.725" stroke="#23324D"/>
<path d="M380.166 122.115C379.266 122.115 378.321 121.845 377.721 121.53V120.225C378.546 120.66 379.401 120.915 380.166 120.915C381.141 120.915 381.681 120.555 381.681 119.88C381.681 119.415 381.336 119.1 380.736 118.965L379.506 118.695C378.351 118.44 377.706 117.72 377.706 116.64C377.706 115.32 378.846 114.45 380.421 114.45C381.411 114.45 382.146 114.69 382.716 114.945V116.265C381.966 115.875 381.126 115.65 380.421 115.65C379.476 115.65 379.056 116.085 379.056 116.64C379.056 117.015 379.326 117.36 379.926 117.495L381.066 117.75C382.371 118.035 383.061 118.785 383.061 119.88C383.061 121.32 381.771 122.115 380.166 122.115Z" fill="#DFE4EC"/>
<path d="M375.195 122.115C373.965 122.115 373.17 121.425 373.17 120.12V115.89H371.865V114.69H373.26V112.56L374.52 111.81V114.69H376.275V115.89H374.52V119.91C374.52 120.57 374.88 120.9 375.6 120.9C375.84 120.9 376.11 120.855 376.275 120.795V121.965C376.155 122.01 375.675 122.115 375.195 122.115Z" fill="#DFE4EC"/>
<path d="M364.298 121.89V114.69H365.618V115.38C366.113 114.87 366.833 114.45 367.793 114.45C369.173 114.45 370.508 115.38 370.508 117.135V121.89H369.158V117.48C369.158 116.385 368.378 115.74 367.478 115.74C366.713 115.74 366.113 116.115 365.648 116.7V121.89H364.298Z" fill="#DFE4EC"/>
<path d="M359.142 122.115C357.132 122.115 355.437 120.81 355.437 118.26C355.437 115.95 357.072 114.45 358.977 114.45C361.212 114.45 362.502 116.07 362.502 118.335C362.502 118.515 362.487 118.725 362.472 118.815H356.892C356.952 120.015 357.927 120.87 359.142 120.87C360.312 120.87 361.182 120.54 362.157 119.775V121.11C361.542 121.59 360.612 122.115 359.142 122.115ZM356.937 117.645H361.032C361.002 116.505 360.282 115.695 358.977 115.695C357.792 115.695 356.997 116.61 356.937 117.645Z" fill="#DFE4EC"/>
<path d="M350.457 121.89L347.457 114.69H349.002L351.177 120.27L353.367 114.69H354.837L351.882 121.89H350.457Z" fill="#DFE4EC"/>
<path d="M340 121.89V111.39H346.405V112.695H341.41V115.965H345.94V117.27H341.41V120.585H346.405V121.89H340Z" fill="#DFE4EC"/>
</svg>
