<svg width="468" height="100" viewBox="0 0 468 100" fill="none" xmlns="http://www.w3.org/2000/svg">
<path d="M143.271 93.1425C142.492 93.1425 141.988 92.7055 141.988 91.879V89.2H141.162V88.44H142.045V87.091L142.843 86.616V88.44H143.955V89.2H142.843V91.746C142.843 92.164 143.071 92.373 143.527 92.373C143.679 92.373 143.85 92.3445 143.955 92.3065V93.0475C143.879 93.076 143.575 93.1425 143.271 93.1425Z" fill="#98AAC8"/>
<path d="M138.002 93V88.44H138.838V89.2285C139.076 88.6205 139.636 88.288 140.235 88.288C140.377 88.288 140.482 88.307 140.548 88.3165V89.2665C140.415 89.2475 140.263 89.238 140.14 89.238C139.389 89.238 138.981 89.732 138.857 90.169V93H138.002Z" fill="#98AAC8"/>
<path d="M134.459 93.1425C133.072 93.1425 132.056 92.107 132.056 90.7105C132.056 89.3235 133.072 88.288 134.459 88.288C135.846 88.288 136.863 89.3235 136.863 90.7105C136.863 92.107 135.846 93.1425 134.459 93.1425ZM134.459 92.335C135.238 92.335 135.96 91.7745 135.96 90.7105C135.96 89.656 135.238 89.0955 134.459 89.0955C133.68 89.0955 132.958 89.656 132.958 90.7105C132.958 91.7745 133.68 92.335 134.459 92.335Z" fill="#98AAC8"/>
<path d="M126.767 94.7955V88.44H127.622V88.915C127.955 88.573 128.401 88.288 129.114 88.288C130.453 88.288 131.299 89.3615 131.299 90.701C131.299 92.0595 130.453 93.1425 129.114 93.1425C128.401 93.1425 127.955 92.848 127.622 92.506V94.7955H126.767ZM128.962 92.335C129.836 92.335 130.396 91.7175 130.396 90.701C130.396 89.7035 129.836 89.0955 128.962 89.0955C128.354 89.0955 127.898 89.4565 127.622 89.846V91.575C127.898 91.9645 128.354 92.335 128.962 92.335Z" fill="#98AAC8"/>
<path d="M121.099 94.7955V88.44H121.954V88.915C122.286 88.573 122.733 88.288 123.445 88.288C124.785 88.288 125.63 89.3615 125.63 90.701C125.63 92.0595 124.785 93.1425 123.445 93.1425C122.733 93.1425 122.286 92.848 121.954 92.506V94.7955H121.099ZM123.293 92.335C124.167 92.335 124.728 91.7175 124.728 90.701C124.728 89.7035 124.167 89.0955 123.293 89.0955C122.685 89.0955 122.229 89.4565 121.954 89.846V91.575C122.229 91.9645 122.685 92.335 123.293 92.335Z" fill="#98AAC8"/>
<path d="M117.409 93.1425C116.535 93.1425 115.689 92.5535 115.689 91.442V88.44H116.544V91.2235C116.544 91.917 117.038 92.3255 117.608 92.3255C118.093 92.3255 118.473 92.0975 118.767 91.727V88.44H119.622V93H118.786V92.563C118.473 92.886 118.017 93.1425 117.409 93.1425Z" fill="#98AAC8"/>
<path d="M112.968 89.2855C114.089 89.5325 114.697 90.2165 114.697 91.195C114.697 92.202 113.918 93.1425 112.474 93.1425C111.457 93.1425 110.726 92.829 110.232 92.563V91.67C110.792 91.993 111.647 92.316 112.474 92.316C113.405 92.316 113.766 91.822 113.766 91.195C113.766 90.72 113.433 90.2735 112.759 90.131L111.799 89.922C110.802 89.7035 110.184 89.1335 110.184 88.0885C110.184 87.072 111.02 86.2075 112.531 86.2075C113.3 86.2075 113.861 86.388 114.355 86.597V87.509C113.794 87.224 113.148 87.0245 112.531 87.0245C111.657 87.0245 111.096 87.433 111.096 88.0885C111.096 88.611 111.391 88.9435 111.961 89.067L112.968 89.2855Z" fill="#98AAC8"/>
<path d="M247.416 93V86.1125H248.271V93H247.416Z" fill="#98AAC8"/>
<path d="M243.935 93.1425C242.909 93.1425 242.177 92.563 242.177 91.5465C242.177 90.606 243.004 90.0645 243.935 90.0645C244.448 90.0645 244.932 90.188 245.227 90.3495V89.865C245.227 89.4185 244.885 89.048 244.182 89.048C243.517 89.048 242.861 89.3045 242.443 89.5705V88.706C242.937 88.459 243.498 88.288 244.182 88.288C245.54 88.288 246.082 89.067 246.082 89.96V93H245.255V92.6295C244.98 92.8955 244.514 93.1425 243.935 93.1425ZM244.087 92.411C244.628 92.411 245.056 92.126 245.227 91.955V91.119C245.056 90.986 244.609 90.777 244.087 90.777C243.507 90.777 243.07 91.0525 243.07 91.5465C243.07 92.0785 243.507 92.411 244.087 92.411Z" fill="#98AAC8"/>
<path d="M238.872 93V88.44H239.708V89.2285C239.945 88.6205 240.506 88.288 241.104 88.288C241.247 88.288 241.351 88.307 241.418 88.3165V89.2665C241.285 89.2475 241.133 89.238 241.009 89.238C240.259 89.238 239.85 89.732 239.727 90.169V93H238.872Z" fill="#98AAC8"/>
<path d="M236.997 93.1425C236.218 93.1425 235.714 92.7055 235.714 91.879V89.2H234.888V88.44H235.771V87.091L236.569 86.616V88.44H237.681V89.2H236.569V91.746C236.569 92.164 236.797 92.373 237.253 92.373C237.405 92.373 237.576 92.3445 237.681 92.3065V93.0475C237.605 93.076 237.301 93.1425 236.997 93.1425Z" fill="#98AAC8"/>
<path d="M231.767 93.1425C230.893 93.1425 230.048 92.5535 230.048 91.442V88.44H230.903V91.2235C230.903 91.917 231.397 92.3255 231.967 92.3255C232.451 92.3255 232.831 92.0975 233.126 91.727V88.44H233.981V93H233.145V92.563C232.831 92.886 232.375 93.1425 231.767 93.1425Z" fill="#98AAC8"/>
<path d="M226.83 93.1425C225.557 93.1425 224.483 92.316 224.483 90.701C224.483 89.238 225.519 88.288 226.725 88.288C228.141 88.288 228.958 89.314 228.958 90.7485C228.958 90.8625 228.948 90.9955 228.939 91.0525H225.405C225.443 91.8125 226.06 92.354 226.83 92.354C227.571 92.354 228.122 92.145 228.739 91.6605V92.506C228.35 92.81 227.761 93.1425 226.83 93.1425ZM225.433 90.3115H228.027C228.008 89.5895 227.552 89.0765 226.725 89.0765C225.975 89.0765 225.471 89.656 225.433 90.3115Z" fill="#98AAC8"/>
<path d="M217.824 93V86.35H218.935L222.374 91.4135V86.35H223.248V93H222.336L218.698 87.5185V93H217.824Z" fill="#98AAC8"/>
<path d="M370.861 93.1425C370.082 93.1425 369.579 92.7055 369.579 91.879V89.2H368.752V88.44H369.636V87.091L370.434 86.616V88.44H371.545V89.2H370.434V91.746C370.434 92.164 370.662 92.373 371.118 92.373C371.27 92.373 371.441 92.3445 371.545 92.3065V93.0475C371.469 93.076 371.165 93.1425 370.861 93.1425Z" fill="#98AAC8"/>
<path d="M365.593 93V88.44H366.429V89.2285C366.666 88.6205 367.227 88.288 367.825 88.288C367.968 88.288 368.072 88.307 368.139 88.3165V89.2665C368.006 89.2475 367.854 89.238 367.73 89.238C366.98 89.238 366.571 89.732 366.448 90.169V93H365.593Z" fill="#98AAC8"/>
<path d="M362.05 93.1425C360.663 93.1425 359.646 92.107 359.646 90.7105C359.646 89.3235 360.663 88.288 362.05 88.288C363.437 88.288 364.453 89.3235 364.453 90.7105C364.453 92.107 363.437 93.1425 362.05 93.1425ZM362.05 92.335C362.829 92.335 363.551 91.7745 363.551 90.7105C363.551 89.656 362.829 89.0955 362.05 89.0955C361.271 89.0955 360.549 89.656 360.549 90.7105C360.549 91.7745 361.271 92.335 362.05 92.335Z" fill="#98AAC8"/>
<path d="M354.358 94.7955V88.44H355.213V88.915C355.545 88.573 355.992 88.288 356.704 88.288C358.044 88.288 358.889 89.3615 358.889 90.701C358.889 92.0595 358.044 93.1425 356.704 93.1425C355.992 93.1425 355.545 92.848 355.213 92.506V94.7955H354.358ZM356.552 92.335C357.426 92.335 357.987 91.7175 357.987 90.701C357.987 89.7035 357.426 89.0955 356.552 89.0955C355.944 89.0955 355.488 89.4565 355.213 89.846V91.575C355.488 91.9645 355.944 92.335 356.552 92.335Z" fill="#98AAC8"/>
<path d="M348.689 94.7955V88.44H349.544V88.915C349.877 88.573 350.323 88.288 351.036 88.288C352.375 88.288 353.221 89.3615 353.221 90.701C353.221 92.0595 352.375 93.1425 351.036 93.1425C350.323 93.1425 349.877 92.848 349.544 92.506V94.7955H348.689ZM350.884 92.335C351.758 92.335 352.318 91.7175 352.318 90.701C352.318 89.7035 351.758 89.0955 350.884 89.0955C350.276 89.0955 349.82 89.4565 349.544 89.846V91.575C349.82 91.9645 350.276 92.335 350.884 92.335Z" fill="#98AAC8"/>
<path d="M344.999 93.1425C344.125 93.1425 343.28 92.5535 343.28 91.442V88.44H344.135V91.2235C344.135 91.917 344.629 92.3255 345.199 92.3255C345.683 92.3255 346.063 92.0975 346.358 91.727V88.44H347.213V93H346.377V92.563C346.063 92.886 345.607 93.1425 344.999 93.1425Z" fill="#98AAC8"/>
<path d="M340.305 93.1425C339.735 93.1425 339.136 92.9715 338.756 92.772V91.9455C339.279 92.221 339.82 92.3825 340.305 92.3825C340.922 92.3825 341.264 92.1545 341.264 91.727C341.264 91.4325 341.046 91.233 340.666 91.1475L339.887 90.9765C339.155 90.815 338.747 90.359 338.747 89.675C338.747 88.839 339.469 88.288 340.466 88.288C341.093 88.288 341.559 88.44 341.92 88.6015V89.4375C341.445 89.1905 340.913 89.048 340.466 89.048C339.868 89.048 339.602 89.3235 339.602 89.675C339.602 89.9125 339.773 90.131 340.153 90.2165L340.875 90.378C341.701 90.5585 342.138 91.0335 342.138 91.727C342.138 92.639 341.321 93.1425 340.305 93.1425Z" fill="#98AAC8"/>
<path d="M334.373 93.1425C333.594 93.1425 333.091 92.7055 333.091 91.879V89.2H332.264V88.44H333.148V87.091L333.946 86.616V88.44H335.057V89.2H333.946V91.746C333.946 92.164 334.174 92.373 334.63 92.373C334.782 92.373 334.953 92.3445 335.057 92.3065V93.0475C334.981 93.076 334.677 93.1425 334.373 93.1425Z" fill="#98AAC8"/>
<path d="M329.292 93.1425C327.905 93.1425 326.888 92.107 326.888 90.7105C326.888 89.3235 327.905 88.288 329.292 88.288C330.679 88.288 331.695 89.3235 331.695 90.7105C331.695 92.107 330.679 93.1425 329.292 93.1425ZM329.292 92.335C330.071 92.335 330.793 91.7745 330.793 90.7105C330.793 89.656 330.071 89.0955 329.292 89.0955C328.513 89.0955 327.791 89.656 327.791 90.7105C327.791 91.7745 328.513 92.335 329.292 92.335Z" fill="#98AAC8"/>
<path d="M321.906 93V88.44H322.742V88.877C323.055 88.554 323.511 88.288 324.119 88.288C324.993 88.288 325.839 88.877 325.839 89.9885V93H324.984V90.207C324.984 89.5135 324.49 89.105 323.92 89.105C323.435 89.105 323.055 89.3425 322.761 89.713V93H321.906Z" fill="#98AAC8"/>
<path d="M315.58 93.1425C314.193 93.1425 313.176 92.107 313.176 90.7105C313.176 89.3235 314.193 88.288 315.58 88.288C316.967 88.288 317.983 89.3235 317.983 90.7105C317.983 92.107 316.967 93.1425 315.58 93.1425ZM315.58 92.335C316.359 92.335 317.081 91.7745 317.081 90.7105C317.081 89.656 316.359 89.0955 315.58 89.0955C314.801 89.0955 314.079 89.656 314.079 90.7105C314.079 91.7745 314.801 92.335 315.58 92.335Z" fill="#98AAC8"/>
<path d="M306.879 93V86.35H309.197C310.907 86.35 312.37 87.4805 312.37 89.694C312.37 91.898 310.888 93 309.178 93H306.879ZM307.772 92.1735H309.149C310.394 92.1735 311.439 91.385 311.439 89.694C311.439 87.9935 310.413 87.1765 309.168 87.1765H307.772V92.1735Z" fill="#98AAC8"/>
<path d="M158.489 50.8972C160.137 49.9432 161.25 48.165 161.25 46.128C161.25 44.0865 160.132 42.3045 158.479 41.352C159.577 40.3402 160.271 38.8957 160.271 37.2877C160.271 34.2382 157.79 31.7572 154.74 31.7572H138.256C138.223 31.7572 138.192 31.7617 138.159 31.7625C138.142 31.7617 138.127 31.7572 138.109 31.7572H137.365C136.51 31.0642 135.763 30.5272 135.262 30.1822L139.071 13.6537C139.936 9.46197 138.505 6.88872 134.819 6.00597C133.177 5.60922 131.533 5.84772 130.193 6.67422C128.753 7.56372 127.719 9.09222 127.287 10.956L124.059 23.664C123.389 25.2892 122.158 26.0362 120.133 27.2617C118.075 28.5082 115.264 30.2107 111.749 33.687C109.299 34.7805 107.271 34.5735 105.31 34.3732C104.149 34.2555 103.054 34.1445 101.919 34.2915C100.344 34.3297 98.865 35.1007 97.86 36.4057C96.0997 38.67 93.9607 42.975 93.7657 50.628C93.576 57.924 95.1765 62.3445 96.5505 64.7617C97.5382 66.5265 99.48 67.509 101.525 67.2495C103.318 67.0275 105.059 66.9412 106.708 66.9855C111.77 67.1175 115.054 67.392 120.017 68.592C121.603 68.985 123.63 69.1837 126.039 69.1837C126.324 69.1837 126.613 69.1807 126.909 69.1747L141.402 69.1672H152.272C155.265 69.1672 157.7 66.729 157.7 63.7312C157.7 62.433 157.246 61.2097 156.422 60.2407C158.652 59.5245 160.271 57.4327 160.271 54.9682C160.271 53.3535 159.586 51.9075 158.489 50.8972ZM155.496 63.7312C155.496 65.514 154.05 66.9637 152.272 66.9637H141.4C139.622 66.9637 138.175 65.514 138.175 63.7312C138.175 61.953 139.622 60.507 141.4 60.507H152.272C153.134 60.507 153.941 60.843 154.552 61.4587C155.161 62.0617 155.496 62.8687 155.496 63.7312ZM120.541 66.4507C115.409 65.2102 111.876 64.9147 106.769 64.7827C106.462 64.7737 106.151 64.7692 105.837 64.7692C104.36 64.7692 102.816 64.8682 101.203 65.07C100.078 65.2057 99.0285 64.6792 98.4697 63.6795C97.2307 61.4992 95.7915 57.4755 95.9677 50.685C96.1477 43.6305 98.0422 39.762 99.603 37.755C100.207 36.9705 101.077 36.5115 101.999 36.4942C102.05 36.4942 102.101 36.4905 102.152 36.4837C103.051 36.3585 104.039 36.4597 105.087 36.5655C107.173 36.7792 109.772 37.0432 112.852 35.6055C112.968 35.5507 113.074 35.478 113.164 35.3872C116.558 32.0032 119.173 30.4192 121.275 29.1457C123.464 27.8197 125.194 26.7712 126.131 24.414C126.149 24.3697 126.163 24.324 126.175 24.2775L129.427 11.475C129.732 10.1655 130.414 9.12672 131.351 8.54772C132.198 8.02647 133.219 7.88472 134.305 8.14722C136.777 8.73972 137.533 10.2052 136.918 13.182L132.943 30.429C132.838 30.8865 133.034 31.3605 133.432 31.6102C133.441 31.6162 134.112 32.0385 135.073 32.763C134.818 32.9437 134.575 33.147 134.347 33.3712C133.301 34.4175 132.724 35.8057 132.724 37.2802C132.724 38.6482 133.223 39.9015 134.047 40.8682C131.794 41.5627 130.153 43.6432 130.153 46.095C130.153 48.5752 131.792 50.6805 134.044 51.3832C133.19 52.389 132.724 53.6467 132.724 54.9682C132.724 57.6322 134.614 59.8635 137.125 60.3892C136.402 61.311 135.971 62.472 135.971 63.7312C135.971 64.9425 136.369 66.0615 137.039 66.966L126.886 66.9712C124.303 67.0155 122.111 66.84 120.541 66.4507ZM154.739 40.6147H138.264C136.426 40.6147 134.932 39.12 134.929 37.2832C134.931 35.91 135.769 34.7287 136.96 34.2225C136.97 34.2187 136.981 34.2165 136.99 34.2127C137.176 34.1355 137.371 34.074 137.572 34.032C137.61 34.0245 137.648 34.0237 137.686 34.0177C137.872 33.9855 138.061 33.96 138.257 33.96H154.74C156.574 33.96 158.068 35.4525 158.068 37.287C158.067 39.1222 156.574 40.6147 154.739 40.6147ZM155.737 42.819C157.562 42.819 159.046 44.3032 159.046 46.128C159.046 47.9527 157.562 49.437 155.737 49.437H138.336C138.312 49.4355 138.289 49.4295 138.264 49.4295H135.693C133.86 49.4295 132.369 47.9415 132.359 46.1107C132.366 44.7915 133.151 43.6605 134.275 43.1355C134.705 42.9412 135.182 42.8257 135.695 42.8257L138.266 42.8182H154.739L155.737 42.819ZM154.732 58.3027H152.272H141.4H138.263C136.425 58.3027 134.929 56.8065 134.929 54.9682C134.929 54.084 135.277 53.2455 135.904 52.614C136.524 51.9997 137.335 51.6592 138.192 51.6405H154.855C156.656 51.705 158.068 53.1652 158.068 54.9682C158.067 56.8065 156.571 58.3027 154.732 58.3027Z" fill="#2CC6F1"/>
<path d="M246.38 14.0111C245.426 12.3634 243.647 11.2504 241.61 11.2504C239.569 11.2504 237.787 12.3686 236.834 14.0216C235.823 12.9229 234.378 12.2291 232.77 12.2291C229.721 12.2291 227.24 14.7101 227.24 17.7604V34.2439C227.24 34.2769 227.244 34.3084 227.245 34.3414C227.244 34.3579 227.24 34.3736 227.24 34.3909V35.1356C227 35.25 226.086 35.1356 225.665 34.9879L209.136 30.4294C204.944 29.5639 202.371 30.9949 201.488 34.6811C201.092 36.3229 201.33 37.9676 202.157 39.3071C203.046 40.7471 204.575 41.7814 206.438 42.2134L219.146 45.4414C220.772 46.1111 225.269 48.0926 226.494 50.1169C227.741 52.1756 228.245 53.2363 229.169 54.7511C229.438 55.1906 229.543 55.4351 229.625 56.2504C229.707 57.0656 229.627 57.4466 229.774 58.5814C229.812 60.1564 230.583 61.6354 231.888 62.6404C234.152 64.4006 238.457 66.5396 246.11 66.7346C253.406 66.9244 257.827 65.3239 260.244 63.9499C262.009 62.9621 262.991 61.0204 262.732 58.9751C262.51 57.1819 262.424 55.4411 262.468 53.7919C262.6 48.7301 262.874 52.9459 264.074 47.9831C264.467 46.3969 264.666 45.8704 264.666 43.4614C264.666 43.1764 264.663 42.8869 264.657 42.5914L264.65 31.0984V20.2279C264.65 17.2354 262.211 14.8001 259.214 14.8001C257.915 14.8001 256.692 15.2539 255.723 16.0781C255.007 13.8484 252.915 12.2291 250.451 12.2291C248.836 12.2291 247.39 12.9146 246.38 14.0111ZM259.214 17.0044C260.996 17.0044 262.446 18.4504 262.446 20.2286V31.0999C262.446 32.8781 260.996 34.3249 259.214 34.3249C257.435 34.3249 255.989 32.8781 255.989 31.0999V20.2286C255.989 19.3661 256.325 18.5591 256.941 17.9479C257.544 17.3389 258.351 17.0044 259.214 17.0044ZM261.933 47.4589C260.693 52.5911 260.397 48.6244 260.265 53.7311C260.256 54.0386 260.252 54.3491 260.252 54.6634C260.252 56.1401 260.351 57.6844 260.552 59.2976C260.688 60.4219 260.162 61.4719 259.162 62.0306C256.982 63.2696 252.958 64.7089 246.167 64.5326C239.113 64.3526 235.244 62.4581 233.237 60.8974C232.453 60.2936 231.994 59.4236 231.977 58.5011C231.977 58.4501 231.973 58.3991 231.966 58.3481C231.841 57.4496 231.394 56.5481 231.5 55.5004C231.34 54.4624 231.433 54.3754 231.088 53.6479C231.033 53.5324 230.96 53.4266 230.87 53.3366C229.169 50.1169 229.652 51.0769 228.378 48.9754C227.052 46.7861 222.254 44.3059 219.896 43.3691C219.852 43.3511 219.806 43.3369 219.76 43.3249L206.957 40.0729C205.648 39.7684 204.609 39.0859 204.03 38.1491C203.509 37.3024 203.367 36.2816 203.63 35.1956C204.222 32.7236 205.688 31.9676 208.664 32.5826L225.911 37.3069C226.369 37.4126 226.508 37.3069 227.117 37.3069C227.75 37.5 227.75 37.4269 228.245 37.4269C228.426 37.6826 228.629 37.9256 228.854 38.1529C229.9 39.1991 231.288 39.7759 232.763 39.7759C234.131 39.7759 235.384 39.2771 236.351 38.4529C237.045 40.7059 239.126 42.3469 241.577 42.3469C244.058 42.3469 246.163 40.7081 246.866 38.4559C247.871 39.3101 249.129 39.7759 250.451 39.7759C253.115 39.7759 255.346 37.8859 255.872 35.3756C256.793 36.0979 257.954 36.5291 259.214 36.5291C260.425 36.5291 261.544 36.1316 262.448 35.4611L262.454 42.6139C262.498 45.1969 262.322 45.8891 261.933 47.4589ZM236.097 17.7611V34.2364C236.097 36.0739 234.602 37.5686 232.766 37.5709C231.392 37.5694 230.211 36.7316 229.705 35.5399C229.701 35.5301 229.699 35.5196 229.695 35.5099C229.618 35.3239 229.556 35.1296 229.514 34.9279C229.507 34.8904 229.506 34.8521 229.5 34.8139C229.468 34.6279 229.442 34.4389 229.442 34.2431V17.7604C229.442 15.9259 230.935 14.4326 232.769 14.4326C234.605 14.4334 236.097 15.9259 236.097 17.7611ZM238.301 16.7629C238.301 14.9381 239.786 13.4539 241.61 13.4539C243.435 13.4539 244.919 14.9381 244.919 16.7629V34.1644C244.918 34.1884 244.912 34.2116 244.912 34.2364V36.8074C244.912 38.6404 243.424 40.1314 241.593 40.1411C240.274 40.1344 239.143 39.3491 238.618 38.2249C238.424 37.7951 238.308 37.3181 238.308 36.8051L238.301 34.2341V17.7611L238.301 16.7629ZM253.785 17.7679V20.2286V31.0999V34.2371C253.785 36.0754 252.289 37.5716 250.451 37.5716C249.566 37.5716 248.728 37.2229 248.096 36.5966C247.482 35.9764 247.142 35.1656 247.123 34.3084V17.6456C247.187 15.8441 248.648 14.4326 250.451 14.4326C252.289 14.4334 253.785 15.9296 253.785 17.7679Z" fill="#2CC6F1"/>
<path d="M372.45 10.2375C371.462 8.47498 369.531 7.49248 367.475 7.75123C365.676 7.97398 363.934 8.06023 362.291 8.01523C357.229 7.88323 353.945 7.60948 348.983 6.40948C347.213 5.96998 344.897 5.77198 342.091 5.82598L327.599 5.83273H316.727C313.735 5.83273 311.3 8.27098 311.3 11.268C311.3 12.567 311.754 13.791 312.578 14.7592C310.348 15.4755 308.729 17.568 308.729 20.0325C308.729 21.648 309.414 23.0932 310.51 24.1035C308.863 25.0575 307.75 26.8357 307.75 28.872C307.75 30.9135 308.867 32.6947 310.521 33.648C309.422 34.6597 308.729 36.1042 308.729 37.7122C308.729 40.7625 311.21 43.2435 314.26 43.2435H330.743C330.776 43.2435 330.807 43.239 330.84 43.2382C330.857 43.239 330.872 43.2435 330.89 43.2435H331.634C332.489 43.9365 333.236 44.4735 333.737 44.8192L329.928 61.3492C329.063 65.5402 330.494 68.1135 334.18 68.997C334.699 69.1222 335.219 69.1845 335.728 69.1845C336.831 69.1845 337.89 68.895 338.805 68.3287C340.245 67.4392 341.28 65.9107 341.713 64.047L344.941 51.3382C345.611 49.713 346.843 48.9667 348.866 47.7412C350.925 46.494 353.735 44.7915 357.251 41.3152C359.702 40.2225 361.727 40.4287 363.69 40.6282C364.85 40.746 365.947 40.857 367.081 40.71C368.654 40.6725 370.134 39.9022 371.14 38.5957C372.9 36.3307 375.039 32.025 375.234 24.3735C375.425 17.0782 373.823 12.657 372.45 10.2375ZM373.031 24.3157C372.852 31.3687 370.958 35.238 369.396 37.2457C368.792 38.0302 367.923 38.4892 367.001 38.505C366.95 38.505 366.898 38.5087 366.848 38.5155C365.951 38.6407 364.961 38.5402 363.912 38.4337C361.825 38.2222 359.225 37.9582 356.147 39.3945C356.032 39.4492 355.927 39.522 355.836 39.6127C352.442 42.9967 349.826 44.5807 347.723 45.8542C345.534 47.1802 343.804 48.2287 342.867 50.5852C342.849 50.6295 342.835 50.6752 342.823 50.7217L339.571 63.5257C339.266 64.8352 338.584 65.8747 337.647 66.453C336.8 66.975 335.78 67.1152 334.694 66.8535C332.222 66.2617 331.466 64.7955 332.081 61.8187L336.055 44.571C336.161 44.1135 335.963 43.6395 335.566 43.3897C335.557 43.3837 334.886 42.9622 333.925 42.2377C334.181 42.057 334.424 41.8537 334.652 41.6287C335.698 40.5832 336.274 39.195 336.274 37.7205C336.274 36.3525 335.775 35.0985 334.95 34.1317C337.204 33.438 338.845 31.3575 338.845 28.9057C338.845 26.4255 337.205 24.321 334.955 23.6175C335.808 22.611 336.274 21.354 336.274 20.0325C336.274 17.3685 334.384 15.1372 331.874 14.6115C332.596 13.689 333.027 12.5287 333.027 11.2687C333.027 10.059 332.63 8.93998 331.959 8.03473L342.113 8.02948C344.732 7.97698 346.868 8.15398 348.459 8.54923C353.59 9.79048 357.124 10.0852 362.231 10.2172C363.98 10.2712 365.837 10.1752 367.798 9.92998C368.928 9.79423 369.972 10.3215 370.531 11.3197C371.769 13.5015 373.208 17.5275 373.031 24.3157ZM314.26 34.3852H330.736C332.573 34.3852 334.068 35.8792 334.07 37.716C334.069 39.0892 333.231 40.2705 332.04 40.7767C332.028 40.782 332.015 40.7835 332.003 40.7887C331.819 40.8645 331.627 40.926 331.428 40.968C331.391 40.9755 331.352 40.9762 331.314 40.9822C331.128 41.0145 330.939 41.04 330.743 41.04H314.26C312.425 41.04 310.932 39.5467 310.932 37.7122C310.932 35.8777 312.425 34.3852 314.26 34.3852ZM313.262 32.181C311.438 32.181 309.953 30.6967 309.953 28.872C309.953 27.0472 311.438 25.5622 313.262 25.5622H330.658C330.684 25.5637 330.709 25.5697 330.735 25.5697H333.306C335.139 25.5697 336.63 27.0577 336.639 28.8885C336.632 30.195 335.861 31.3155 334.754 31.8472C334.316 32.0505 333.829 32.1735 333.302 32.1735L330.731 32.181H314.26H313.262ZM310.932 20.0317C310.932 18.1935 312.428 16.6965 314.267 16.6965H316.727H327.599H330.736C332.574 16.6965 334.07 18.1927 334.07 20.0317C334.07 20.916 333.722 21.7545 333.097 22.3852C332.477 22.998 331.67 23.3377 330.816 23.3587H314.144C312.343 23.295 310.932 21.8347 310.932 20.0317ZM313.503 11.268C313.503 9.48598 314.949 8.03623 316.727 8.03623H327.599C329.378 8.03623 330.824 9.48598 330.824 11.268C330.824 13.0462 329.378 14.493 327.599 14.493H316.727C315.865 14.493 315.058 14.1577 314.447 13.5405C313.838 12.9382 313.503 12.1312 313.503 11.268Z" fill="#2CC6F1"/>
</svg>
