<svg width="555" height="223" viewBox="0 0 555 223" fill="none" xmlns="http://www.w3.org/2000/svg">
<g clip-path="url(#clip0_200_1356)">
<rect width="555" height="223" fill="#0C162C"/>
<path d="M239.443 25.405V24.85C239.443 23.755 240.118 23.275 241.168 22.825L241.378 22.735C242.263 22.375 242.803 21.55 242.803 20.665C242.803 19.435 242.068 18.7 240.853 18.7C239.638 18.7 238.663 19.465 238.663 20.71H236.938C236.953 18.625 238.648 17.29 240.853 17.29C243.373 17.29 244.528 19 244.528 20.665C244.528 22.225 243.433 23.305 241.963 23.905L241.753 23.995C241.153 24.265 241.093 24.595 241.093 25.09V25.405H239.443ZM239.368 28V26.2H241.168V28H239.368Z" fill="#DFE4EC"/>
<path d="M233.13 27.55L233.7 28.975C234.03 29.8 233.505 30.55 232.635 30.55H228.48V29.065H232.02L228.27 19.75H230.115L232.275 25.63L234.39 19.75H236.22L233.13 27.55Z" fill="#DFE4EC"/>
<path d="M228.249 26.56H228.744V28H228.009C227.079 28 226.449 27.475 226.224 26.635H226.119C225.459 27.64 224.439 28.24 223.239 28.24C221.199 28.24 219.444 26.71 219.444 23.875C219.444 21.055 221.199 19.51 223.239 19.51C224.364 19.51 225.339 19.915 226.029 20.89H226.059V19.75H227.709V26.05C227.709 26.38 227.904 26.56 228.249 26.56ZM223.659 26.815C225.159 26.8 226.119 25.435 226.119 23.89C226.119 22.27 225.204 20.95 223.659 20.935C222.159 20.92 221.154 22.135 221.154 23.875C221.154 25.66 222.159 26.83 223.659 26.815Z" fill="#DFE4EC"/>
<path d="M216.45 27.595C216.45 27.295 216.45 27.055 216.48 26.725H216.45C215.805 27.73 214.77 28.24 213.63 28.24C211.59 28.24 209.835 26.68 209.835 23.8C209.835 21.025 211.59 19.51 213.63 19.51C214.83 19.51 215.85 20.035 216.45 21.025H216.48C216.45 20.68 216.45 20.425 216.45 20.11V16H218.1V28H216.45V27.595ZM214.05 26.815C215.565 26.8 216.45 25.465 216.45 23.785C216.45 22.195 215.565 20.95 214.05 20.935C212.535 20.92 211.545 22.075 211.545 23.8C211.545 25.6 212.535 26.83 214.05 26.815Z" fill="#DFE4EC"/>
<path d="M206.813 18.445V16.75H208.508V18.445H206.813ZM206.828 28V19.75H208.478V28H206.828Z" fill="#DFE4EC"/>
<path d="M203.357 28V16H205.007V28H203.357Z" fill="#DFE4EC"/>
<path d="M197.847 28.24C195.537 28.24 193.707 26.665 193.707 23.875C193.707 21.07 195.537 19.51 197.847 19.51C200.157 19.51 201.987 21.07 201.987 23.875C201.987 26.665 200.157 28.24 197.847 28.24ZM197.847 26.815C199.197 26.8 200.277 25.87 200.277 23.875C200.277 21.865 199.197 20.95 197.847 20.935C196.497 20.92 195.417 21.865 195.417 23.875C195.417 25.87 196.497 26.83 197.847 26.815Z" fill="#DFE4EC"/>
<path d="M185.354 28V16H187.004V19.72C187.004 20.095 187.004 20.38 186.974 20.935H187.004C187.424 20.26 188.174 19.51 189.509 19.51C191.309 19.51 192.419 20.8 192.419 22.795V28H190.769V22.93C190.769 21.505 190.034 20.98 189.074 20.98C187.919 20.98 187.004 21.79 187.004 23.35V28H185.354Z" fill="#DFE4EC"/>
<path d="M172.757 28V19.75H174.377V20.935H174.407C174.827 20.26 175.577 19.51 176.912 19.51C178.712 19.51 179.822 20.8 179.822 22.795V28H178.172V22.93C178.172 21.505 177.437 20.98 176.477 20.98C175.322 20.98 174.407 21.79 174.407 23.35V28H172.757Z" fill="#DFE4EC"/>
<path d="M167.246 28.24C164.936 28.24 163.106 26.665 163.106 23.875C163.106 21.07 164.936 19.51 167.246 19.51C169.556 19.51 171.386 21.07 171.386 23.875C171.386 26.665 169.556 28.24 167.246 28.24ZM167.246 26.815C168.596 26.8 169.676 25.87 169.676 23.875C169.676 21.865 168.596 20.95 167.246 20.935C165.896 20.92 164.816 21.865 164.816 23.875C164.816 25.87 165.896 26.83 167.246 26.815Z" fill="#DFE4EC"/>
<path d="M154.341 28.24C152.031 28.24 150.201 26.665 150.201 23.875C150.201 21.07 152.031 19.51 154.341 19.51C156.651 19.51 158.481 21.07 158.481 23.875C158.481 26.665 156.651 28.24 154.341 28.24ZM154.341 26.815C155.691 26.8 156.771 25.87 156.771 23.875C156.771 21.865 155.691 20.95 154.341 20.935C152.991 20.92 151.911 21.865 151.911 23.875C151.911 25.87 152.991 26.83 154.341 26.815Z" fill="#DFE4EC"/>
<path d="M147.822 19.75H149.427V27.28C149.427 29.65 147.972 30.85 145.392 30.85H141.507V29.425H145.347C147.027 29.425 147.822 28.63 147.822 27.205V26.68H147.777C147.162 27.58 146.067 27.97 144.942 27.97C142.917 27.97 141.147 26.47 141.147 23.725C141.147 21.01 142.917 19.51 144.942 19.51C146.112 19.51 147.132 19.915 147.822 20.89H147.852C147.822 20.56 147.822 20.29 147.822 19.99V19.75ZM145.362 26.53C146.907 26.515 147.822 25.21 147.822 23.725C147.822 22.255 146.952 20.95 145.362 20.935C143.922 20.92 142.872 21.85 142.872 23.725C142.872 25.555 143.922 26.56 145.362 26.53Z" fill="#DFE4EC"/>
<path d="M136.589 23.125V24.46H130.364C130.559 25.93 131.459 26.815 132.689 26.815C133.649 26.815 134.429 26.275 134.714 25.465H136.514C136.169 27.07 134.684 28.24 132.689 28.24C130.259 28.24 128.624 26.5 128.624 23.875C128.624 21.145 130.289 19.51 132.689 19.51C134.939 19.51 136.589 21.055 136.589 23.125ZM132.689 20.935C131.444 20.935 130.589 21.82 130.379 22.99H134.924C134.744 21.775 133.904 20.935 132.689 20.935Z" fill="#DFE4EC"/>
<path d="M126.714 19.75H128.349L126.174 28H124.314L122.844 21.895L121.404 28H119.529L117.339 19.75H119.049L120.459 25.915L121.839 19.75H123.924L125.304 25.915L126.714 19.75Z" fill="#DFE4EC"/>
<path d="M110.644 27.595C110.644 27.295 110.644 27.055 110.674 26.725H110.644C109.999 27.73 108.964 28.24 107.824 28.24C105.784 28.24 104.029 26.68 104.029 23.8C104.029 21.025 105.784 19.51 107.824 19.51C109.024 19.51 110.044 20.035 110.644 21.025H110.674C110.644 20.68 110.644 20.425 110.644 20.11V16H112.294V28H110.644V27.595ZM108.244 26.815C109.759 26.8 110.644 25.465 110.644 23.785C110.644 22.195 109.759 20.95 108.244 20.935C106.729 20.92 105.739 22.075 105.739 23.8C105.739 25.6 106.729 26.83 108.244 26.815Z" fill="#DFE4EC"/>
<path d="M101.023 28V16H102.673V28H101.023Z" fill="#DFE4EC"/>
<path d="M95.097 28.24C93.342 28.24 92.277 26.95 92.277 24.955V19.75H93.927V24.82C93.927 26.245 94.632 26.77 95.532 26.77C96.642 26.77 97.527 25.96 97.527 24.4V19.75H99.177V28H97.557V26.815H97.527C97.122 27.49 96.387 28.24 95.097 28.24Z" fill="#DFE4EC"/>
<path d="M86.8117 28.24C84.5017 28.24 82.6717 26.665 82.6717 23.875C82.6717 21.07 84.5017 19.51 86.8117 19.51C89.1217 19.51 90.9517 21.07 90.9517 23.875C90.9517 26.665 89.1217 28.24 86.8117 28.24ZM86.8117 26.815C88.1617 26.8 89.2417 25.87 89.2417 23.875C89.2417 21.865 88.1617 20.95 86.8117 20.935C85.4617 20.92 84.3817 21.865 84.3817 23.875C84.3817 25.87 85.4617 26.83 86.8117 26.815Z" fill="#DFE4EC"/>
<path d="M74.3191 28V16H75.9691V19.72C75.9691 20.095 75.9691 20.38 75.9391 20.935H75.9691C76.3891 20.26 77.1391 19.51 78.4741 19.51C80.2741 19.51 81.3841 20.8 81.3841 22.795V28H79.7341V22.93C79.7341 21.505 78.9991 20.98 78.0391 20.98C76.8841 20.98 75.9691 21.79 75.9691 23.35V28H74.3191Z" fill="#DFE4EC"/>
<path d="M69.6032 28.24C67.5632 28.24 66.0782 26.98 65.9732 25.27H67.6982C67.7882 26.17 68.5232 26.815 69.6032 26.815C70.5782 26.815 71.2082 26.275 71.2082 25.57C71.2082 24.775 70.7732 24.445 69.3482 24.445H68.8982C67.3532 24.445 66.1232 23.59 66.1232 22.105C66.1232 20.83 67.1732 19.51 69.2732 19.51H72.1982V20.935H69.2732C68.3432 20.935 67.8332 21.43 67.8332 22.105C67.8332 22.75 68.1182 22.99 69.5432 23.005H69.8582C71.7182 23.005 72.9182 24.04 72.9182 25.57C72.9182 26.905 71.7782 28.24 69.6032 28.24Z" fill="#DFE4EC"/>
<path d="M61.3252 23.125V24.46H55.1002C55.2952 25.93 56.1952 26.815 57.4252 26.815C58.3852 26.815 59.1652 26.275 59.4502 25.465H61.2502C60.9052 27.07 59.4202 28.24 57.4252 28.24C54.9952 28.24 53.3602 26.5 53.3602 23.875C53.3602 21.145 55.0252 19.51 57.4252 19.51C59.6752 19.51 61.3252 21.055 61.3252 23.125ZM57.4252 20.935C56.1802 20.935 55.3252 21.82 55.1152 22.99H59.6602C59.4802 21.775 58.6402 20.935 57.4252 20.935Z" fill="#DFE4EC"/>
<path d="M48.362 28V19.75H49.982V21.025H50.012C50.447 20.32 51.197 19.51 52.412 19.51H53.117V20.935H52.232C50.882 20.935 50.012 21.76 50.012 23.35V28H48.362Z" fill="#DFE4EC"/>
<path d="M46.999 23.125V24.46H40.774C40.969 25.93 41.869 26.815 43.099 26.815C44.059 26.815 44.839 26.275 45.124 25.465H46.924C46.579 27.07 45.094 28.24 43.099 28.24C40.669 28.24 39.034 26.5 39.034 23.875C39.034 21.145 40.699 19.51 43.099 19.51C45.349 19.51 46.999 21.055 46.999 23.125ZM43.099 20.935C41.854 20.935 40.999 21.82 40.789 22.99H45.334C45.154 21.775 44.314 20.935 43.099 20.935Z" fill="#DFE4EC"/>
<path d="M30.6814 28V16H32.3314V19.72C32.3314 20.095 32.3314 20.38 32.3014 20.935H32.3314C32.7514 20.26 33.5014 19.51 34.8364 19.51C36.6364 19.51 37.7464 20.8 37.7464 22.795V28H36.0964V22.93C36.0964 21.505 35.3614 20.98 34.4014 20.98C33.2464 20.98 32.3314 21.79 32.3314 23.35V28H30.6814Z" fill="#DFE4EC"/>
<path d="M27.745 17.5H29.605L26.83 28H24.79L22.81 19.465L20.815 28H18.775L16 17.5H17.935L19.81 25.93L21.67 17.5H23.995L25.87 25.945L27.745 17.5Z" fill="#DFE4EC"/>
<path d="M48 58.85C48 61.0591 46.2091 62.85 44 62.85C41.7909 62.85 40 61.0591 40 58.85C40 56.6408 41.7909 54.85 44 54.85C46.2091 54.85 48 56.6408 48 58.85Z" fill="#2CC6F1"/>
<path d="M60 58.85C60 61.0591 58.2091 62.85 56 62.85C53.7909 62.85 52 61.0591 52 58.85C52 56.6408 53.7909 54.85 56 54.85C58.2091 54.85 60 56.6408 60 58.85Z" fill="#2CC6F1"/>
<path d="M72 58.85C72 61.0591 70.2091 62.85 68 62.85C65.7909 62.85 64 61.0591 64 58.85C64 56.6408 65.7909 54.85 68 54.85C70.2091 54.85 72 56.6408 72 58.85Z" fill="#2CC6F1"/>
<rect x="16" y="44.85" width="64" height="31.175" stroke="#23324D"/>
<path d="M133.328 66.025C131.138 66.025 129.533 64.39 129.533 62.185C129.533 59.995 131.138 58.36 133.328 58.36C135.518 58.36 137.123 59.995 137.123 62.185C137.123 64.39 135.518 66.025 133.328 66.025ZM133.328 64.75C134.558 64.75 135.698 63.865 135.698 62.185C135.698 60.52 134.558 59.635 133.328 59.635C132.098 59.635 130.958 60.52 130.958 62.185C130.958 63.865 132.098 64.75 133.328 64.75Z" fill="#DFE4EC"/>
<path d="M125.932 59.68C124.762 59.68 123.517 60.505 123.517 62.185C123.517 63.865 124.762 64.705 125.932 64.705C126.772 64.705 127.447 64.51 128.182 64.015V65.515C127.642 65.77 126.907 66.025 125.932 66.025C123.712 66.025 122.077 64.435 122.077 62.185C122.077 59.935 123.712 58.36 125.932 58.36C126.907 58.36 127.642 58.615 128.182 58.87V60.37C127.447 59.875 126.772 59.68 125.932 59.68Z" fill="#DFE4EC"/>
<path d="M119.588 56.845C119.033 56.845 118.613 56.41 118.613 55.855C118.613 55.285 119.033 54.85 119.588 54.85C120.158 54.85 120.578 55.285 120.578 55.855C120.578 56.41 120.158 56.845 119.588 56.845ZM118.928 65.8V58.6H120.278V65.8H118.928Z" fill="#DFE4EC"/>
<path d="M110.348 65.8L113.093 62.095L110.513 58.6H112.193L114.008 61.195L115.763 58.6H117.398L114.893 62.155L117.563 65.8H115.898L113.918 63.07L111.998 65.8H110.348Z" fill="#DFE4EC"/>
<path d="M106.461 66.025C104.451 66.025 102.756 64.72 102.756 62.17C102.756 59.86 104.391 58.36 106.296 58.36C108.531 58.36 109.821 59.98 109.821 62.245C109.821 62.425 109.806 62.635 109.791 62.725H104.211C104.271 63.925 105.246 64.78 106.461 64.78C107.631 64.78 108.501 64.45 109.476 63.685V65.02C108.861 65.5 107.931 66.025 106.461 66.025ZM104.256 61.555H108.351C108.321 60.415 107.601 59.605 106.296 59.605C105.111 59.605 104.316 60.52 104.256 61.555Z" fill="#DFE4EC"/>
<path d="M90 65.8V55.3H91.44L95.4 61.765L99.39 55.3H100.8V65.8H99.42V57.76L95.46 64.15H95.31L91.38 57.76V65.8H90Z" fill="#DFE4EC"/>
<rect x="80" y="44.85" width="114" height="31.175" stroke="#23324D"/>
<path d="M48 90.025C48 92.2341 46.2091 94.025 44 94.025C41.7909 94.025 40 92.2341 40 90.025C40 87.8158 41.7909 86.025 44 86.025C46.2091 86.025 48 87.8158 48 90.025Z" fill="#2CC6F1"/>
<path d="M60 90.025C60 92.2341 58.2091 94.025 56 94.025C53.7909 94.025 52 92.2341 52 90.025C52 87.8158 53.7909 86.025 56 86.025C58.2091 86.025 60 87.8158 60 90.025Z" fill="#2CC6F1"/>
<path d="M72 90.025C72 92.2341 70.2091 94.025 68 94.025C65.7909 94.025 64 92.2341 64 90.025C64 87.8158 65.7909 86.025 68 86.025C70.2091 86.025 72 87.8158 72 90.025Z" fill="#2CC6F1"/>
<rect x="16" y="76.025" width="64" height="31.175" stroke="#23324D"/>
<path d="M145.375 86.1H146.725V96.975H145.375V96.195C144.85 96.735 144.145 97.2 143.02 97.2C140.905 97.2 139.57 95.49 139.57 93.345C139.57 91.23 140.905 89.535 143.02 89.535C144.145 89.535 144.85 89.985 145.375 90.525V86.1ZM145.375 94.725V91.995C144.94 91.38 144.22 90.81 143.26 90.81C141.88 90.81 140.995 91.77 140.995 93.345C140.995 94.95 141.88 95.925 143.26 95.925C144.22 95.925 144.94 95.34 145.375 94.725Z" fill="#DFE4EC"/>
<path d="M131.704 96.975V89.775H133.024V90.465C133.519 89.955 134.239 89.535 135.199 89.535C136.579 89.535 137.914 90.465 137.914 92.22V96.975H136.564V92.565C136.564 91.47 135.784 90.825 134.884 90.825C134.119 90.825 133.519 91.2 133.054 91.785V96.975H131.704Z" fill="#DFE4EC"/>
<path d="M126.206 97.2C124.586 97.2 123.431 96.285 123.431 94.68C123.431 93.195 124.736 92.34 126.206 92.34C127.016 92.34 127.781 92.535 128.246 92.79V92.025C128.246 91.32 127.706 90.735 126.596 90.735C125.546 90.735 124.511 91.14 123.851 91.56V90.195C124.631 89.805 125.516 89.535 126.596 89.535C128.741 89.535 129.596 90.765 129.596 92.175V96.975H128.291V96.39C127.856 96.81 127.121 97.2 126.206 97.2ZM126.446 96.045C127.301 96.045 127.976 95.595 128.246 95.325V94.005C127.976 93.795 127.271 93.465 126.446 93.465C125.531 93.465 124.841 93.9 124.841 94.68C124.841 95.52 125.531 96.045 126.446 96.045Z" fill="#DFE4EC"/>
<path d="M120.278 96.975V86.1H121.628V96.975H120.278Z" fill="#DFE4EC"/>
<path d="M117.188 88.02C116.633 88.02 116.213 87.585 116.213 87.03C116.213 86.46 116.633 86.025 117.188 86.025C117.758 86.025 118.178 86.46 118.178 87.03C118.178 87.585 117.758 88.02 117.188 88.02ZM116.528 96.975V89.775H117.878V96.975H116.528Z" fill="#DFE4EC"/>
<path d="M111.016 97.2C109.396 97.2 108.241 96.285 108.241 94.68C108.241 93.195 109.546 92.34 111.016 92.34C111.826 92.34 112.591 92.535 113.056 92.79V92.025C113.056 91.32 112.516 90.735 111.406 90.735C110.356 90.735 109.321 91.14 108.661 91.56V90.195C109.441 89.805 110.326 89.535 111.406 89.535C113.551 89.535 114.406 90.765 114.406 92.175V96.975H113.101V96.39C112.666 96.81 111.931 97.2 111.016 97.2ZM111.256 96.045C112.111 96.045 112.786 95.595 113.056 95.325V94.005C112.786 93.795 112.081 93.465 111.256 93.465C110.341 93.465 109.651 93.9 109.651 94.68C109.651 95.52 110.341 96.045 111.256 96.045Z" fill="#DFE4EC"/>
<path d="M100.165 96.975V86.1H101.515V90.435C102.01 89.94 102.745 89.535 103.69 89.535C105.07 89.535 106.435 90.465 106.435 92.22V96.975H105.085V92.565C105.085 91.47 104.275 90.825 103.375 90.825C102.61 90.825 101.98 91.2 101.515 91.785V96.975H100.165Z" fill="#DFE4EC"/>
<path d="M93.48 96.975V87.78H90V86.475H98.37V87.78H94.89V96.975H93.48Z" fill="#DFE4EC"/>
<rect x="80" y="76.025" width="114" height="31.175" stroke="#23324D"/>
<path d="M60 121.2C60 123.409 58.2091 125.2 56 125.2C53.7909 125.2 52 123.409 52 121.2C52 118.991 53.7909 117.2 56 117.2C58.2091 117.2 60 118.991 60 121.2Z" fill="#2CC6F1"/>
<path d="M72 121.2C72 123.409 70.2091 125.2 68 125.2C65.7909 125.2 64 123.409 64 121.2C64 118.991 65.7909 117.2 68 117.2C70.2091 117.2 72 118.991 72 121.2Z" fill="#2CC6F1"/>
<rect x="16" y="107.2" width="64" height="30.95" stroke="#23324D"/>
<path d="M133.986 128.15C131.976 128.15 130.281 126.845 130.281 124.295C130.281 121.985 131.916 120.485 133.821 120.485C136.056 120.485 137.346 122.105 137.346 124.37C137.346 124.55 137.331 124.76 137.316 124.85H131.736C131.796 126.05 132.771 126.905 133.986 126.905C135.156 126.905 136.026 126.575 137.001 125.81V127.145C136.386 127.625 135.456 128.15 133.986 128.15ZM131.781 123.68H135.876C135.846 122.54 135.126 121.73 133.821 121.73C132.636 121.73 131.841 122.645 131.781 123.68Z" fill="#DFE4EC"/>
<path d="M126.68 121.805C125.51 121.805 124.265 122.63 124.265 124.31C124.265 125.99 125.51 126.83 126.68 126.83C127.52 126.83 128.195 126.635 128.93 126.14V127.64C128.39 127.895 127.655 128.15 126.68 128.15C124.46 128.15 122.825 126.56 122.825 124.31C122.825 122.06 124.46 120.485 126.68 120.485C127.655 120.485 128.39 120.74 128.93 120.995V122.495C128.195 122 127.52 121.805 126.68 121.805Z" fill="#DFE4EC"/>
<path d="M118.269 128.15C116.259 128.15 114.564 126.845 114.564 124.295C114.564 121.985 116.199 120.485 118.104 120.485C120.339 120.485 121.629 122.105 121.629 124.37C121.629 124.55 121.614 124.76 121.599 124.85H116.019C116.079 126.05 117.054 126.905 118.269 126.905C119.439 126.905 120.309 126.575 121.284 125.81V127.145C120.669 127.625 119.739 128.15 118.269 128.15ZM116.064 123.68H120.159C120.129 122.54 119.409 121.73 118.104 121.73C116.919 121.73 116.124 122.645 116.064 123.68Z" fill="#DFE4EC"/>
<path d="M110.007 128.15C107.997 128.15 106.302 126.845 106.302 124.295C106.302 121.985 107.937 120.485 109.842 120.485C112.077 120.485 113.367 122.105 113.367 124.37C113.367 124.55 113.352 124.76 113.337 124.85H107.757C107.817 126.05 108.792 126.905 110.007 126.905C111.177 126.905 112.047 126.575 113.022 125.81V127.145C112.407 127.625 111.477 128.15 110.007 128.15ZM107.802 123.68H111.897C111.867 122.54 111.147 121.73 109.842 121.73C108.657 121.73 107.862 122.645 107.802 123.68Z" fill="#DFE4EC"/>
<path d="M101.453 127.925V120.725H102.773V121.97C103.148 121.01 104.033 120.485 104.978 120.485C105.203 120.485 105.368 120.515 105.473 120.53V122.03C105.263 122 105.023 121.985 104.828 121.985C103.643 121.985 102.998 122.765 102.803 123.455V127.925H101.453Z" fill="#DFE4EC"/>
<path d="M95.355 128.15C92.625 128.15 90 126.305 90 122.675C90 119.045 92.625 117.2 95.355 117.2C96.855 117.2 97.86 117.605 98.91 118.16V119.66C97.755 118.925 96.645 118.535 95.355 118.535C93.42 118.535 91.47 119.825 91.47 122.675C91.47 125.525 93.42 126.8 95.355 126.8C96.135 126.8 96.825 126.65 97.53 126.35V124.025H93.9V122.72H98.91V127.19C97.86 127.745 96.855 128.15 95.355 128.15Z" fill="#DFE4EC"/>
<rect x="80" y="107.2" width="114" height="30.95" stroke="#23324D"/>
<path d="M60 152.15C60 154.359 58.2091 156.15 56 156.15C53.7909 156.15 52 154.359 52 152.15C52 149.941 53.7909 148.15 56 148.15C58.2091 148.15 60 149.941 60 152.15Z" fill="#2CC6F1"/>
<path d="M72 152.15C72 154.359 70.2091 156.15 68 156.15C65.7909 156.15 64 154.359 64 152.15C64 149.941 65.7909 148.15 68 148.15C70.2091 148.15 72 149.941 72 152.15Z" fill="#2CC6F1"/>
<rect x="16" y="138.15" width="64" height="31.1" stroke="#23324D"/>
<path d="M175.812 148.15H177.162V159.025H175.812V158.245C175.287 158.785 174.582 159.25 173.457 159.25C171.342 159.25 170.007 157.54 170.007 155.395C170.007 153.28 171.342 151.585 173.457 151.585C174.582 151.585 175.287 152.035 175.812 152.575V148.15ZM175.812 156.775V154.045C175.377 153.43 174.657 152.86 173.697 152.86C172.317 152.86 171.432 153.82 171.432 155.395C171.432 157 172.317 157.975 173.697 157.975C174.657 157.975 175.377 157.39 175.812 156.775Z" fill="#DFE4EC"/>
<path d="M162.14 159.025V151.825H163.46V152.515C163.955 152.005 164.675 151.585 165.635 151.585C167.015 151.585 168.35 152.515 168.35 154.27V159.025H167V154.615C167 153.52 166.22 152.875 165.32 152.875C164.555 152.875 163.955 153.25 163.49 153.835V159.025H162.14Z" fill="#DFE4EC"/>
<path d="M156.643 159.25C155.023 159.25 153.868 158.335 153.868 156.73C153.868 155.245 155.173 154.39 156.643 154.39C157.453 154.39 158.218 154.585 158.683 154.84V154.075C158.683 153.37 158.143 152.785 157.033 152.785C155.983 152.785 154.948 153.19 154.288 153.61V152.245C155.068 151.855 155.953 151.585 157.033 151.585C159.178 151.585 160.033 152.815 160.033 154.225V159.025H158.728V158.44C158.293 158.86 157.558 159.25 156.643 159.25ZM156.883 158.095C157.738 158.095 158.413 157.645 158.683 157.375V156.055C158.413 155.845 157.708 155.515 156.883 155.515C155.968 155.515 155.278 155.95 155.278 156.73C155.278 157.57 155.968 158.095 156.883 158.095Z" fill="#DFE4EC"/>
<path d="M150.714 159.025V148.15H152.064V159.025H150.714Z" fill="#DFE4EC"/>
<path d="M145.217 159.25C143.597 159.25 142.442 158.335 142.442 156.73C142.442 155.245 143.747 154.39 145.217 154.39C146.027 154.39 146.792 154.585 147.257 154.84V154.075C147.257 153.37 146.717 152.785 145.607 152.785C144.557 152.785 143.522 153.19 142.862 153.61V152.245C143.642 151.855 144.527 151.585 145.607 151.585C147.752 151.585 148.607 152.815 148.607 154.225V159.025H147.302V158.44C146.867 158.86 146.132 159.25 145.217 159.25ZM145.457 158.095C146.312 158.095 146.987 157.645 147.257 157.375V156.055C146.987 155.845 146.282 155.515 145.457 155.515C144.542 155.515 143.852 155.95 143.852 156.73C143.852 157.57 144.542 158.095 145.457 158.095Z" fill="#DFE4EC"/>
<path d="M137.735 159.25C135.725 159.25 134.03 157.945 134.03 155.395C134.03 153.085 135.665 151.585 137.57 151.585C139.805 151.585 141.095 153.205 141.095 155.47C141.095 155.65 141.08 155.86 141.065 155.95H135.485C135.545 157.15 136.52 158.005 137.735 158.005C138.905 158.005 139.775 157.675 140.75 156.91V158.245C140.135 158.725 139.205 159.25 137.735 159.25ZM135.53 154.78H139.625C139.595 153.64 138.875 152.83 137.57 152.83C136.385 152.83 135.59 153.745 135.53 154.78Z" fill="#DFE4EC"/>
<path d="M124.921 159.025V157.615L131.296 149.83H125.071V148.525H133.051V149.89L126.646 157.705H133.126V159.025H124.921Z" fill="#DFE4EC"/>
<path d="M110.552 159.025L108.182 151.825H109.682L111.347 157.27L113.252 151.825H114.647L116.552 157.27L118.187 151.825H119.627L117.287 159.025H115.832L113.912 153.55L112.037 159.025H110.552Z" fill="#DFE4EC"/>
<path d="M104.22 159.25C102.21 159.25 100.515 157.945 100.515 155.395C100.515 153.085 102.15 151.585 104.055 151.585C106.29 151.585 107.58 153.205 107.58 155.47C107.58 155.65 107.565 155.86 107.55 155.95H101.97C102.03 157.15 103.005 158.005 104.22 158.005C105.39 158.005 106.26 157.675 107.235 156.91V158.245C106.62 158.725 105.69 159.25 104.22 159.25ZM102.015 154.78H106.11C106.08 153.64 105.36 152.83 104.055 152.83C102.87 152.83 102.075 153.745 102.015 154.78Z" fill="#DFE4EC"/>
<path d="M90 159.025V148.525H91.755L97.185 156.52V148.525H98.565V159.025H97.125L91.38 150.37V159.025H90Z" fill="#DFE4EC"/>
<rect x="80" y="138.15" width="114" height="31.1" stroke="#23324D"/>
<path d="M48 183.25C48 185.459 46.2091 187.25 44 187.25C41.7909 187.25 40 185.459 40 183.25C40 181.041 41.7909 179.25 44 179.25C46.2091 179.25 48 181.041 48 183.25Z" fill="#2CC6F1"/>
<path d="M60 183.25C60 185.459 58.2091 187.25 56 187.25C53.7909 187.25 52 185.459 52 183.25C52 181.041 53.7909 179.25 56 179.25C58.2091 179.25 60 181.041 60 183.25Z" fill="#2CC6F1"/>
<path d="M72 183.25C72 185.459 70.2091 187.25 68 187.25C65.7909 187.25 64 185.459 64 183.25C64 181.041 65.7909 179.25 68 179.25C70.2091 179.25 72 181.041 72 183.25Z" fill="#2CC6F1"/>
<rect x="16" y="169.25" width="64" height="31.1" stroke="#23324D"/>
<path d="M134.782 179.25H136.132V190.125H134.782V189.345C134.257 189.885 133.552 190.35 132.427 190.35C130.312 190.35 128.977 188.64 128.977 186.495C128.977 184.38 130.312 182.685 132.427 182.685C133.552 182.685 134.257 183.135 134.782 183.675V179.25ZM134.782 187.875V185.145C134.347 184.53 133.627 183.96 132.667 183.96C131.287 183.96 130.402 184.92 130.402 186.495C130.402 188.1 131.287 189.075 132.667 189.075C133.627 189.075 134.347 188.49 134.782 187.875Z" fill="#DFE4EC"/>
<path d="M121.11 190.125V182.925H122.43V183.615C122.925 183.105 123.645 182.685 124.605 182.685C125.985 182.685 127.32 183.615 127.32 185.37V190.125H125.97V185.715C125.97 184.62 125.19 183.975 124.29 183.975C123.525 183.975 122.925 184.35 122.46 184.935V190.125H121.11Z" fill="#DFE4EC"/>
<path d="M115.612 190.35C113.992 190.35 112.837 189.435 112.837 187.83C112.837 186.345 114.142 185.49 115.612 185.49C116.422 185.49 117.187 185.685 117.652 185.94V185.175C117.652 184.47 117.112 183.885 116.002 183.885C114.952 183.885 113.917 184.29 113.257 184.71V183.345C114.037 182.955 114.922 182.685 116.002 182.685C118.147 182.685 119.002 183.915 119.002 185.325V190.125H117.697V189.54C117.262 189.96 116.527 190.35 115.612 190.35ZM115.852 189.195C116.707 189.195 117.382 188.745 117.652 188.475V187.155C117.382 186.945 116.677 186.615 115.852 186.615C114.937 186.615 114.247 187.05 114.247 187.83C114.247 188.67 114.937 189.195 115.852 189.195Z" fill="#DFE4EC"/>
<path d="M109.684 190.125V179.25H111.034V190.125H109.684Z" fill="#DFE4EC"/>
<path d="M104.527 190.35C102.517 190.35 100.822 189.045 100.822 186.495C100.822 184.185 102.457 182.685 104.362 182.685C106.597 182.685 107.887 184.305 107.887 186.57C107.887 186.75 107.872 186.96 107.857 187.05H102.277C102.337 188.25 103.312 189.105 104.527 189.105C105.697 189.105 106.567 188.775 107.542 188.01V189.345C106.927 189.825 105.997 190.35 104.527 190.35ZM102.322 185.88H106.417C106.387 184.74 105.667 183.93 104.362 183.93C103.177 183.93 102.382 184.845 102.322 185.88Z" fill="#DFE4EC"/>
<path d="M97.2212 184.005C96.0512 184.005 94.8062 184.83 94.8062 186.51C94.8062 188.19 96.0512 189.03 97.2212 189.03C98.0612 189.03 98.7362 188.835 99.4712 188.34V189.84C98.9312 190.095 98.1962 190.35 97.2212 190.35C95.0012 190.35 93.3662 188.76 93.3662 186.51C93.3662 184.26 95.0012 182.685 97.2212 182.685C98.1962 182.685 98.9312 182.94 99.4712 183.195V184.695C98.7362 184.2 98.0612 184.005 97.2212 184.005Z" fill="#DFE4EC"/>
<path d="M90 190.125V179.625H91.41V190.125H90Z" fill="#DFE4EC"/>
<rect x="80" y="169.25" width="114" height="31.1" stroke="#23324D"/>
<path d="M240 58.85C240 61.0591 238.209 62.85 236 62.85C233.791 62.85 232 61.0591 232 58.85C232 56.6408 233.791 54.85 236 54.85C238.209 54.85 240 56.6408 240 58.85Z" fill="#2CC6F1"/>
<path d="M252 58.85C252 61.0591 250.209 62.85 248 62.85C245.791 62.85 244 61.0591 244 58.85C244 56.6408 245.791 54.85 248 54.85C250.209 54.85 252 56.6408 252 58.85Z" fill="#2CC6F1"/>
<path d="M264 58.85C264 61.0591 262.209 62.85 260 62.85C257.791 62.85 256 61.0591 256 58.85C256 56.6408 257.791 54.85 260 54.85C262.209 54.85 264 56.6408 264 58.85Z" fill="#2CC6F1"/>
<rect x="208" y="44.85" width="64" height="34.19" stroke="#23324D"/>
<path d="M298.257 56.845C297.702 56.845 297.282 56.41 297.282 55.855C297.282 55.285 297.702 54.85 298.257 54.85C298.827 54.85 299.247 55.285 299.247 55.855C299.247 56.41 298.827 56.845 298.257 56.845ZM297.597 65.8V58.6H298.947V65.8H297.597Z" fill="#DFE4EC"/>
<path d="M294.566 56.845C294.011 56.845 293.591 56.41 293.591 55.855C293.591 55.285 294.011 54.85 294.566 54.85C295.136 54.85 295.556 55.285 295.556 55.855C295.556 56.41 295.136 56.845 294.566 56.845ZM293.276 69.04C292.736 69.04 292.481 68.965 292.391 68.935V67.81C292.466 67.825 292.676 67.855 292.886 67.855C293.621 67.855 293.906 67.465 293.906 66.805V58.6H295.256V66.805C295.256 68.11 294.521 69.04 293.276 69.04Z" fill="#DFE4EC"/>
<path d="M290.801 56.845C290.246 56.845 289.826 56.41 289.826 55.855C289.826 55.285 290.246 54.85 290.801 54.85C291.371 54.85 291.791 55.285 291.791 55.855C291.791 56.41 291.371 56.845 290.801 56.845ZM290.141 65.8V58.6H291.491V65.8H290.141Z" fill="#DFE4EC"/>
<path d="M282 65.8V55.3H288.405V56.605H283.41V60.025H287.94V61.33H283.41V65.8H282Z" fill="#DFE4EC"/>
<rect x="272" y="44.85" width="94" height="34.19" stroke="#23324D"/>
<path d="M252 93.04C252 95.2491 250.209 97.04 248 97.04C245.791 97.04 244 95.2491 244 93.04C244 90.8308 245.791 89.04 248 89.04C250.209 89.04 252 90.8308 252 93.04Z" fill="#2CC6F1"/>
<path d="M264 93.04C264 95.2491 262.209 97.04 260 97.04C257.791 97.04 256 95.2491 256 93.04C256 90.8308 257.791 89.04 260 89.04C262.209 89.04 264 90.8308 264 93.04Z" fill="#2CC6F1"/>
<rect x="208" y="79.04" width="64" height="31.175" stroke="#23324D"/>
<path d="M342.008 100.215C340.388 100.215 339.233 99.3 339.233 97.695C339.233 96.21 340.538 95.355 342.008 95.355C342.818 95.355 343.583 95.55 344.048 95.805V95.04C344.048 94.335 343.508 93.75 342.398 93.75C341.348 93.75 340.313 94.155 339.653 94.575V93.21C340.433 92.82 341.318 92.55 342.398 92.55C344.543 92.55 345.398 93.78 345.398 95.19V99.99H344.093V99.405C343.658 99.825 342.923 100.215 342.008 100.215ZM342.248 99.06C343.103 99.06 343.778 98.61 344.048 98.34V97.02C343.778 96.81 343.073 96.48 342.248 96.48C341.333 96.48 340.643 96.915 340.643 97.695C340.643 98.535 341.333 99.06 342.248 99.06Z" fill="#DFE4EC"/>
<path d="M336.594 91.035C336.039 91.035 335.619 90.6 335.619 90.045C335.619 89.475 336.039 89.04 336.594 89.04C337.164 89.04 337.584 89.475 337.584 90.045C337.584 90.6 337.164 91.035 336.594 91.035ZM335.934 99.99V92.79H337.284V99.99H335.934Z" fill="#DFE4EC"/>
<path d="M330.673 92.55C332.788 92.55 334.123 94.245 334.123 96.36C334.123 98.505 332.788 100.215 330.673 100.215C329.548 100.215 328.843 99.75 328.318 99.21V99.99H326.968V89.115H328.318V93.54C328.843 93 329.548 92.55 330.673 92.55ZM330.433 98.94C331.813 98.94 332.698 97.965 332.698 96.36C332.698 94.785 331.813 93.825 330.433 93.825C329.473 93.825 328.753 94.395 328.318 95.01V97.74C328.753 98.355 329.473 98.94 330.433 98.94Z" fill="#DFE4EC"/>
<path d="M322.044 92.55C323.424 92.55 324.714 93.48 324.714 95.235V99.99H323.364V95.58C323.364 94.485 322.734 93.84 321.834 93.84C321.084 93.84 320.484 94.185 320.019 94.77C320.034 94.92 320.049 95.07 320.049 95.235V99.99H318.714V95.58C318.714 94.485 318.114 93.84 317.214 93.84C316.449 93.84 315.849 94.215 315.384 94.8V99.99H314.034V92.79H315.354V93.48C315.849 92.97 316.569 92.55 317.529 92.55C318.354 92.55 319.104 92.88 319.554 93.54C319.959 93.15 320.754 92.55 322.044 92.55Z" fill="#DFE4EC"/>
<path d="M308.44 100.215C306.25 100.215 304.645 98.58 304.645 96.375C304.645 94.185 306.25 92.55 308.44 92.55C310.63 92.55 312.235 94.185 312.235 96.375C312.235 98.58 310.63 100.215 308.44 100.215ZM308.44 98.94C309.67 98.94 310.81 98.055 310.81 96.375C310.81 94.71 309.67 93.825 308.44 93.825C307.21 93.825 306.07 94.71 306.07 96.375C306.07 98.055 307.21 98.94 308.44 98.94Z" fill="#DFE4EC"/>
<path d="M301.495 99.99V89.115H302.845V99.99H301.495Z" fill="#DFE4EC"/>
<path d="M295.901 100.215C293.711 100.215 292.106 98.58 292.106 96.375C292.106 94.185 293.711 92.55 295.901 92.55C298.091 92.55 299.696 94.185 299.696 96.375C299.696 98.58 298.091 100.215 295.901 100.215ZM295.901 98.94C297.131 98.94 298.271 98.055 298.271 96.375C298.271 94.71 297.131 93.825 295.901 93.825C294.671 93.825 293.531 94.71 293.531 96.375C293.531 98.055 294.671 98.94 295.901 98.94Z" fill="#DFE4EC"/>
<path d="M287.355 90.6C285.42 90.6 283.47 91.89 283.47 94.74C283.47 97.59 285.42 98.88 287.355 98.88C288.645 98.88 289.755 98.49 290.91 97.755V99.255C289.86 99.81 288.855 100.215 287.355 100.215C284.625 100.215 282 98.37 282 94.74C282 91.11 284.625 89.265 287.355 89.265C288.855 89.265 289.86 89.67 290.91 90.225V91.725C289.755 90.99 288.645 90.6 287.355 90.6Z" fill="#DFE4EC"/>
<rect x="272" y="79.04" width="94" height="31.175" stroke="#23324D"/>
<path d="M264 124.215C264 126.424 262.209 128.215 260 128.215C257.791 128.215 256 126.424 256 124.215C256 122.006 257.791 120.215 260 120.215C262.209 120.215 264 122.006 264 124.215Z" fill="#2CC6F1"/>
<rect x="208" y="110.215" width="64" height="33.89" stroke="#23324D"/>
<path d="M303.184 134.105L305.059 130.295L301.879 123.89H303.439L305.764 128.855L307.999 123.89H309.589L304.774 134.105H303.184Z" fill="#DFE4EC"/>
<path d="M299.179 131.09V120.215H300.529V131.09H299.179Z" fill="#DFE4EC"/>
<path d="M293.682 131.315C292.062 131.315 290.907 130.4 290.907 128.795C290.907 127.31 292.212 126.455 293.682 126.455C294.492 126.455 295.257 126.65 295.722 126.905V126.14C295.722 125.435 295.182 124.85 294.072 124.85C293.022 124.85 291.987 125.255 291.327 125.675V124.31C292.107 123.92 292.992 123.65 294.072 123.65C296.217 123.65 297.072 124.88 297.072 126.29V131.09H295.767V130.505C295.332 130.925 294.597 131.315 293.682 131.315ZM293.922 130.16C294.777 130.16 295.452 129.71 295.722 129.44V128.12C295.452 127.91 294.747 127.58 293.922 127.58C293.007 127.58 292.317 128.015 292.317 128.795C292.317 129.635 293.007 130.16 293.922 130.16Z" fill="#DFE4EC"/>
<path d="M288.396 131.315C287.166 131.315 286.371 130.625 286.371 129.32V125.09H285.066V123.89H286.461V121.76L287.721 121.01V123.89H289.476V125.09H287.721V129.11C287.721 129.77 288.081 130.1 288.801 130.1C289.041 130.1 289.311 130.055 289.476 129.995V131.165C289.356 131.21 288.876 131.315 288.396 131.315Z" fill="#DFE4EC"/>
<path d="M282 131.09V120.59H283.41V131.09H282Z" fill="#DFE4EC"/>
<rect x="272" y="110.215" width="94" height="33.89" stroke="#23324D"/>
<path d="M252 158.105C252 160.314 250.209 162.105 248 162.105C245.791 162.105 244 160.314 244 158.105C244 155.896 245.791 154.105 248 154.105C250.209 154.105 252 155.896 252 158.105Z" fill="#2CC6F1"/>
<path d="M264 158.105C264 160.314 262.209 162.105 260 162.105C257.791 162.105 256 160.314 256 158.105C256 155.896 257.791 154.105 260 154.105C262.209 154.105 264 155.896 264 158.105Z" fill="#2CC6F1"/>
<rect x="208" y="144.105" width="64" height="31.175" stroke="#23324D"/>
<path d="M334.767 157.615C336.147 157.615 337.437 158.545 337.437 160.3V165.055H336.087V160.645C336.087 159.55 335.457 158.905 334.557 158.905C333.807 158.905 333.207 159.25 332.742 159.835C332.757 159.985 332.772 160.135 332.772 160.3V165.055H331.437V160.645C331.437 159.55 330.837 158.905 329.937 158.905C329.172 158.905 328.572 159.28 328.107 159.865V165.055H326.757V157.855H328.077V158.545C328.572 158.035 329.292 157.615 330.252 157.615C331.077 157.615 331.827 157.945 332.277 158.605C332.682 158.215 333.477 157.615 334.767 157.615Z" fill="#DFE4EC"/>
<path d="M321.26 165.28C319.64 165.28 318.485 164.365 318.485 162.76C318.485 161.275 319.79 160.42 321.26 160.42C322.07 160.42 322.835 160.615 323.3 160.87V160.105C323.3 159.4 322.76 158.815 321.65 158.815C320.6 158.815 319.565 159.22 318.905 159.64V158.275C319.685 157.885 320.57 157.615 321.65 157.615C323.795 157.615 324.65 158.845 324.65 160.255V165.055H323.345V164.47C322.91 164.89 322.175 165.28 321.26 165.28ZM321.5 164.125C322.355 164.125 323.03 163.675 323.3 163.405V162.085C323.03 161.875 322.325 161.545 321.5 161.545C320.585 161.545 319.895 161.98 319.895 162.76C319.895 163.6 320.585 164.125 321.5 164.125Z" fill="#DFE4EC"/>
<path d="M310.468 165.055V157.855H311.788V158.545C312.283 158.035 313.003 157.615 313.963 157.615C315.343 157.615 316.678 158.545 316.678 160.3V165.055H315.328V160.645C315.328 159.55 314.548 158.905 313.648 158.905C312.883 158.905 312.283 159.28 311.818 159.865V165.055H310.468Z" fill="#DFE4EC"/>
<path d="M307.508 165.28C306.278 165.28 305.483 164.59 305.483 163.285V159.055H304.178V157.855H305.573V155.725L306.833 154.975V157.855H308.588V159.055H306.833V163.075C306.833 163.735 307.193 164.065 307.913 164.065C308.153 164.065 308.423 164.02 308.588 163.96V165.13C308.468 165.175 307.988 165.28 307.508 165.28Z" fill="#DFE4EC"/>
<path d="M299.921 165.28C297.911 165.28 296.216 163.975 296.216 161.425C296.216 159.115 297.851 157.615 299.756 157.615C301.991 157.615 303.281 159.235 303.281 161.5C303.281 161.68 303.266 161.89 303.251 161.98H297.671C297.731 163.18 298.706 164.035 299.921 164.035C301.091 164.035 301.961 163.705 302.936 162.94V164.275C302.321 164.755 301.391 165.28 299.921 165.28ZM297.716 160.81H301.811C301.781 159.67 301.061 158.86 299.756 158.86C298.571 158.86 297.776 159.775 297.716 160.81Z" fill="#DFE4EC"/>
<path d="M293.726 156.1C293.171 156.1 292.751 155.665 292.751 155.11C292.751 154.54 293.171 154.105 293.726 154.105C294.296 154.105 294.716 154.54 294.716 155.11C294.716 155.665 294.296 156.1 293.726 156.1ZM293.066 165.055V157.855H294.416V165.055H293.066Z" fill="#DFE4EC"/>
<path d="M286.665 165.28L282 154.555H283.635L286.77 162.025L289.935 154.555H291.555L286.815 165.28H286.665Z" fill="#DFE4EC"/>
<rect x="272" y="144.105" width="94" height="31.175" stroke="#23324D"/>
<rect x="208" y="175.28" width="64" height="30.95" stroke="#23324D"/>
<path d="M308.405 196.005L307.34 193.32H302.615L301.565 196.005H300.035L304.25 185.505H305.735L309.95 196.005H308.405ZM303.125 192.015H306.815L304.955 187.32L303.125 192.015Z" fill="#DFE4EC"/>
<path d="M296.259 190.14C298.029 190.53 298.989 191.61 298.989 193.155C298.989 194.745 297.759 196.23 295.479 196.23C293.874 196.23 292.719 195.735 291.939 195.315V193.905C292.824 194.415 294.174 194.925 295.479 194.925C296.949 194.925 297.519 194.145 297.519 193.155C297.519 192.405 296.994 191.7 295.929 191.475L294.414 191.145C292.839 190.8 291.864 189.9 291.864 188.25C291.864 186.645 293.184 185.28 295.569 185.28C296.784 185.28 297.669 185.565 298.449 185.895V187.335C297.564 186.885 296.544 186.57 295.569 186.57C294.189 186.57 293.304 187.215 293.304 188.25C293.304 189.075 293.769 189.6 294.669 189.795L296.259 190.14Z" fill="#DFE4EC"/>
<path d="M285.855 196.23C283.695 196.23 282 194.94 282 192.435V185.505H283.41V192.39C283.41 193.965 284.385 194.88 285.855 194.88C287.34 194.88 288.285 193.965 288.285 192.39V185.505H289.695V192.435C289.695 194.94 288.015 196.23 285.855 196.23Z" fill="#DFE4EC"/>
<rect x="272" y="175.28" width="94" height="30.95" stroke="#23324D"/>
<path d="M424 58.85C424 61.0591 422.209 62.85 420 62.85C417.791 62.85 416 61.0591 416 58.85C416 56.6408 417.791 54.85 420 54.85C422.209 54.85 424 56.6408 424 58.85Z" fill="#2CC6F1"/>
<path d="M436 58.85C436 61.0591 434.209 62.85 432 62.85C429.791 62.85 428 61.0591 428 58.85C428 56.6408 429.791 54.85 432 54.85C434.209 54.85 436 56.6408 436 58.85Z" fill="#2CC6F1"/>
<rect x="380" y="44.85" width="64" height="33.335" stroke="#23324D"/>
<path d="M486.091 65.35V58.15H487.411V58.84C487.906 58.33 488.626 57.91 489.586 57.91C490.966 57.91 492.301 58.84 492.301 60.595V65.35H490.951V60.94C490.951 59.845 490.171 59.2 489.271 59.2C488.506 59.2 487.906 59.575 487.441 60.16V65.35H486.091Z" fill="#DFE4EC"/>
<path d="M480.593 65.575C478.973 65.575 477.818 64.66 477.818 63.055C477.818 61.57 479.123 60.715 480.593 60.715C481.403 60.715 482.168 60.91 482.633 61.165V60.4C482.633 59.695 482.093 59.11 480.983 59.11C479.933 59.11 478.898 59.515 478.238 59.935V58.57C479.018 58.18 479.903 57.91 480.983 57.91C483.128 57.91 483.983 59.14 483.983 60.55V65.35H482.678V64.765C482.243 65.185 481.508 65.575 480.593 65.575ZM480.833 64.42C481.688 64.42 482.363 63.97 482.633 63.7V62.38C482.363 62.17 481.658 61.84 480.833 61.84C479.918 61.84 479.228 62.275 479.228 63.055C479.228 63.895 479.918 64.42 480.833 64.42Z" fill="#DFE4EC"/>
<path d="M469.318 68.185V58.15H470.668V58.9C471.193 58.36 471.898 57.91 473.023 57.91C475.138 57.91 476.473 59.605 476.473 61.72C476.473 63.865 475.138 65.575 473.023 65.575C471.898 65.575 471.193 65.11 470.668 64.57V68.185H469.318ZM472.783 64.3C474.163 64.3 475.048 63.325 475.048 61.72C475.048 60.145 474.163 59.185 472.783 59.185C471.823 59.185 471.103 59.755 470.668 60.37V63.1C471.103 63.715 471.823 64.3 472.783 64.3Z" fill="#DFE4EC"/>
<path d="M463.821 65.575C462.201 65.575 461.046 64.66 461.046 63.055C461.046 61.57 462.351 60.715 463.821 60.715C464.631 60.715 465.396 60.91 465.861 61.165V60.4C465.861 59.695 465.321 59.11 464.211 59.11C463.161 59.11 462.126 59.515 461.466 59.935V58.57C462.246 58.18 463.131 57.91 464.211 57.91C466.356 57.91 467.211 59.14 467.211 60.55V65.35H465.906V64.765C465.471 65.185 464.736 65.575 463.821 65.575ZM464.061 64.42C464.916 64.42 465.591 63.97 465.861 63.7V62.38C465.591 62.17 464.886 61.84 464.061 61.84C463.146 61.84 462.456 62.275 462.456 63.055C462.456 63.895 463.146 64.42 464.061 64.42Z" fill="#DFE4EC"/>
<path d="M455.815 65.575C455.17 65.575 454.465 65.425 454 65.23V63.88C454.54 64.12 455.305 64.225 455.815 64.225C456.955 64.225 457.54 63.52 457.54 62.29V54.85H458.95V62.29C458.95 64.345 457.945 65.575 455.815 65.575Z" fill="#DFE4EC"/>
<rect x="444" y="44.85" width="95" height="33.335" stroke="#23324D"/>
<path d="M436 92.185C436 94.3941 434.209 96.185 432 96.185C429.791 96.185 428 94.3941 428 92.185C428 89.9759 429.791 88.185 432 88.185C434.209 88.185 436 89.9759 436 92.185Z" fill="#2CC6F1"/>
<rect x="380" y="78.185" width="64" height="33.785" stroke="#23324D"/>
<path d="M483.465 99.135V91.935H484.785V92.625C485.28 92.115 486 91.695 486.96 91.695C488.34 91.695 489.675 92.625 489.675 94.38V99.135H488.325V94.725C488.325 93.63 487.545 92.985 486.645 92.985C485.88 92.985 485.28 93.36 484.815 93.945V99.135H483.465Z" fill="#DFE4EC"/>
<path d="M480.375 90.18C479.82 90.18 479.4 89.745 479.4 89.19C479.4 88.62 479.82 88.185 480.375 88.185C480.945 88.185 481.365 88.62 481.365 89.19C481.365 89.745 480.945 90.18 480.375 90.18ZM479.715 99.135V91.935H481.065V99.135H479.715Z" fill="#DFE4EC"/>
<path d="M474.203 99.36C472.583 99.36 471.428 98.445 471.428 96.84C471.428 95.355 472.733 94.5 474.203 94.5C475.013 94.5 475.778 94.695 476.243 94.95V94.185C476.243 93.48 475.703 92.895 474.593 92.895C473.543 92.895 472.508 93.3 471.848 93.72V92.355C472.628 91.965 473.513 91.695 474.593 91.695C476.738 91.695 477.593 92.925 477.593 94.335V99.135H476.288V98.55C475.853 98.97 475.118 99.36 474.203 99.36ZM474.443 98.205C475.298 98.205 475.973 97.755 476.243 97.485V96.165C475.973 95.955 475.268 95.625 474.443 95.625C473.528 95.625 472.838 96.06 472.838 96.84C472.838 97.68 473.528 98.205 474.443 98.205Z" fill="#DFE4EC"/>
<path d="M462.928 101.97V91.935H464.278V92.685C464.803 92.145 465.508 91.695 466.633 91.695C468.748 91.695 470.083 93.39 470.083 95.505C470.083 97.65 468.748 99.36 466.633 99.36C465.508 99.36 464.803 98.895 464.278 98.355V101.97H462.928ZM466.393 98.085C467.773 98.085 468.658 97.11 468.658 95.505C468.658 93.93 467.773 92.97 466.393 92.97C465.433 92.97 464.713 93.54 464.278 94.155V96.885C464.713 97.5 465.433 98.085 466.393 98.085Z" fill="#DFE4EC"/>
<path d="M458.395 93.27C460.165 93.66 461.125 94.74 461.125 96.285C461.125 97.875 459.895 99.36 457.615 99.36C456.01 99.36 454.855 98.865 454.075 98.445V97.035C454.96 97.545 456.31 98.055 457.615 98.055C459.085 98.055 459.655 97.275 459.655 96.285C459.655 95.535 459.13 94.83 458.065 94.605L456.55 94.275C454.975 93.93 454 93.03 454 91.38C454 89.775 455.32 88.41 457.705 88.41C458.92 88.41 459.805 88.695 460.585 89.025V90.465C459.7 90.015 458.68 89.7 457.705 89.7C456.325 89.7 455.44 90.345 455.44 91.38C455.44 92.205 455.905 92.73 456.805 92.925L458.395 93.27Z" fill="#DFE4EC"/>
<rect x="444" y="78.185" width="95" height="33.785" stroke="#23324D"/>
<path d="M424 125.97C424 128.179 422.209 129.97 420 129.97C417.791 129.97 416 128.179 416 125.97C416 123.761 417.791 121.97 420 121.97C422.209 121.97 424 123.761 424 125.97Z" fill="#2CC6F1"/>
<path d="M436 125.97C436 128.179 434.209 129.97 432 129.97C429.791 129.97 428 128.179 428 125.97C428 123.761 429.791 121.97 432 121.97C434.209 121.97 436 123.761 436 125.97Z" fill="#2CC6F1"/>
<rect x="380" y="111.97" width="64" height="31.175" stroke="#23324D"/>
<path d="M513.773 133.145C512.153 133.145 510.998 132.23 510.998 130.625C510.998 129.14 512.303 128.285 513.773 128.285C514.583 128.285 515.348 128.48 515.813 128.735V127.97C515.813 127.265 515.273 126.68 514.163 126.68C513.113 126.68 512.078 127.085 511.418 127.505V126.14C512.198 125.75 513.083 125.48 514.163 125.48C516.308 125.48 517.163 126.71 517.163 128.12V132.92H515.858V132.335C515.423 132.755 514.688 133.145 513.773 133.145ZM514.013 131.99C514.868 131.99 515.543 131.54 515.813 131.27V129.95C515.543 129.74 514.838 129.41 514.013 129.41C513.098 129.41 512.408 129.845 512.408 130.625C512.408 131.465 513.098 131.99 514.013 131.99Z" fill="#DFE4EC"/>
<path d="M508.358 123.965C507.803 123.965 507.383 123.53 507.383 122.975C507.383 122.405 507.803 121.97 508.358 121.97C508.928 121.97 509.348 122.405 509.348 122.975C509.348 123.53 508.928 123.965 508.358 123.965ZM507.698 132.92V125.72H509.048V132.92H507.698Z" fill="#DFE4EC"/>
<path d="M502.911 133.145C502.011 133.145 501.066 132.875 500.466 132.56V131.255C501.291 131.69 502.146 131.945 502.911 131.945C503.886 131.945 504.426 131.585 504.426 130.91C504.426 130.445 504.081 130.13 503.481 129.995L502.251 129.725C501.096 129.47 500.451 128.75 500.451 127.67C500.451 126.35 501.591 125.48 503.166 125.48C504.156 125.48 504.891 125.72 505.461 125.975V127.295C504.711 126.905 503.871 126.68 503.166 126.68C502.221 126.68 501.801 127.115 501.801 127.67C501.801 128.045 502.071 128.39 502.671 128.525L503.811 128.78C505.116 129.065 505.806 129.815 505.806 130.91C505.806 132.35 504.516 133.145 502.911 133.145Z" fill="#DFE4EC"/>
<path d="M495.744 133.145C493.734 133.145 492.039 131.84 492.039 129.29C492.039 126.98 493.674 125.48 495.579 125.48C497.814 125.48 499.104 127.1 499.104 129.365C499.104 129.545 499.089 129.755 499.074 129.845H493.494C493.554 131.045 494.529 131.9 495.744 131.9C496.914 131.9 497.784 131.57 498.759 130.805V132.14C498.144 132.62 497.214 133.145 495.744 133.145ZM493.539 128.675H497.634C497.604 127.535 496.884 126.725 495.579 126.725C494.394 126.725 493.599 127.64 493.539 128.675Z" fill="#DFE4EC"/>
<path d="M484.172 132.92V125.72H485.492V126.41C485.987 125.9 486.707 125.48 487.667 125.48C489.047 125.48 490.382 126.41 490.382 128.165V132.92H489.032V128.51C489.032 127.415 488.252 126.77 487.352 126.77C486.587 126.77 485.987 127.145 485.522 127.73V132.92H484.172Z" fill="#DFE4EC"/>
<path d="M478.578 133.145C476.388 133.145 474.783 131.51 474.783 129.305C474.783 127.115 476.388 125.48 478.578 125.48C480.768 125.48 482.373 127.115 482.373 129.305C482.373 131.51 480.768 133.145 478.578 133.145ZM478.578 131.87C479.808 131.87 480.948 130.985 480.948 129.305C480.948 127.64 479.808 126.755 478.578 126.755C477.348 126.755 476.208 127.64 476.208 129.305C476.208 130.985 477.348 131.87 478.578 131.87Z" fill="#DFE4EC"/>
<path d="M471.638 122.045H472.988V132.92H471.638V132.14C471.113 132.68 470.408 133.145 469.283 133.145C467.168 133.145 465.833 131.435 465.833 129.29C465.833 127.175 467.168 125.48 469.283 125.48C470.408 125.48 471.113 125.93 471.638 126.47V122.045ZM471.638 130.67V127.94C471.203 127.325 470.483 126.755 469.523 126.755C468.143 126.755 467.258 127.715 467.258 129.29C467.258 130.895 468.143 131.87 469.523 131.87C470.483 131.87 471.203 131.285 471.638 130.67Z" fill="#DFE4EC"/>
<path d="M457.966 132.92V125.72H459.286V126.41C459.781 125.9 460.501 125.48 461.461 125.48C462.841 125.48 464.176 126.41 464.176 128.165V132.92H462.826V128.51C462.826 127.415 462.046 126.77 461.146 126.77C460.381 126.77 459.781 127.145 459.316 127.73V132.92H457.966Z" fill="#DFE4EC"/>
<path d="M454 132.92V122.42H455.41V132.92H454Z" fill="#DFE4EC"/>
<rect x="444" y="111.97" width="95" height="31.175" stroke="#23324D"/>
<path d="M424 157.145C424 159.354 422.209 161.145 420 161.145C417.791 161.145 416 159.354 416 157.145C416 154.936 417.791 153.145 420 153.145C422.209 153.145 424 154.936 424 157.145Z" fill="#2CC6F1"/>
<path d="M436 157.145C436 159.354 434.209 161.145 432 161.145C429.791 161.145 428 159.354 428 157.145C428 154.936 429.791 153.145 432 153.145C434.209 153.145 436 154.936 436 157.145Z" fill="#2CC6F1"/>
<rect x="380" y="143.145" width="64" height="31.1" stroke="#23324D"/>
<path d="M499.915 164.02V156.82H501.235V157.51C501.73 157 502.45 156.58 503.41 156.58C504.79 156.58 506.125 157.51 506.125 159.265V164.02H504.775V159.61C504.775 158.515 503.995 157.87 503.095 157.87C502.33 157.87 501.73 158.245 501.265 158.83V164.02H499.915Z" fill="#DFE4EC"/>
<path d="M494.759 164.245C492.749 164.245 491.054 162.94 491.054 160.39C491.054 158.08 492.689 156.58 494.594 156.58C496.829 156.58 498.119 158.2 498.119 160.465C498.119 160.645 498.104 160.855 498.089 160.945H492.509C492.569 162.145 493.544 163 494.759 163C495.929 163 496.799 162.67 497.774 161.905V163.24C497.159 163.72 496.229 164.245 494.759 164.245ZM492.554 159.775H496.649C496.619 158.635 495.899 157.825 494.594 157.825C493.409 157.825 492.614 158.74 492.554 159.775Z" fill="#DFE4EC"/>
<path d="M487.908 153.145H489.258V164.02H487.908V163.24C487.383 163.78 486.678 164.245 485.553 164.245C483.438 164.245 482.103 162.535 482.103 160.39C482.103 158.275 483.438 156.58 485.553 156.58C486.678 156.58 487.383 157.03 487.908 157.57V153.145ZM487.908 161.77V159.04C487.473 158.425 486.753 157.855 485.793 157.855C484.413 157.855 483.528 158.815 483.528 160.39C483.528 161.995 484.413 162.97 485.793 162.97C486.753 162.97 487.473 162.385 487.908 161.77Z" fill="#DFE4EC"/>
<path d="M477.547 164.245C475.537 164.245 473.842 162.94 473.842 160.39C473.842 158.08 475.477 156.58 477.382 156.58C479.617 156.58 480.907 158.2 480.907 160.465C480.907 160.645 480.892 160.855 480.877 160.945H475.297C475.357 162.145 476.332 163 477.547 163C478.717 163 479.587 162.67 480.562 161.905V163.24C479.947 163.72 479.017 164.245 477.547 164.245ZM475.342 159.775H479.437C479.407 158.635 478.687 157.825 477.382 157.825C476.197 157.825 475.402 158.74 475.342 159.775Z" fill="#DFE4EC"/>
<path d="M464.162 164.02L461.792 156.82H463.292L464.957 162.265L466.862 156.82H468.257L470.162 162.265L471.797 156.82H473.237L470.897 164.02H469.442L467.522 158.545L465.647 164.02H464.162Z" fill="#DFE4EC"/>
<path d="M458.395 158.155C460.165 158.545 461.125 159.625 461.125 161.17C461.125 162.76 459.895 164.245 457.615 164.245C456.01 164.245 454.855 163.75 454.075 163.33V161.92C454.96 162.43 456.31 162.94 457.615 162.94C459.085 162.94 459.655 162.16 459.655 161.17C459.655 160.42 459.13 159.715 458.065 159.49L456.55 159.16C454.975 158.815 454 157.915 454 156.265C454 154.66 455.32 153.295 457.705 153.295C458.92 153.295 459.805 153.58 460.585 153.91V155.35C459.7 154.9 458.68 154.585 457.705 154.585C456.325 154.585 455.44 155.23 455.44 156.265C455.44 157.09 455.905 157.615 456.805 157.81L458.395 158.155Z" fill="#DFE4EC"/>
<rect x="444" y="143.145" width="95" height="31.1" stroke="#23324D"/>
<path d="M412 188.245C412 190.454 410.209 192.245 408 192.245C405.791 192.245 404 190.454 404 188.245C404 186.036 405.791 184.245 408 184.245C410.209 184.245 412 186.036 412 188.245Z" fill="#2CC6F1"/>
<path d="M424 188.245C424 190.454 422.209 192.245 420 192.245C417.791 192.245 416 190.454 416 188.245C416 186.036 417.791 184.245 420 184.245C422.209 184.245 424 186.036 424 188.245Z" fill="#2CC6F1"/>
<path d="M436 188.245C436 190.454 434.209 192.245 432 192.245C429.791 192.245 428 190.454 428 188.245C428 186.036 429.791 184.245 432 184.245C434.209 184.245 436 186.036 436 188.245Z" fill="#2CC6F1"/>
<rect x="380" y="174.245" width="64" height="31.175" stroke="#23324D"/>
<path d="M487.175 195.195V184.32H488.525V195.195H487.175Z" fill="#DFE4EC"/>
<path d="M484.086 186.24C483.531 186.24 483.111 185.805 483.111 185.25C483.111 184.68 483.531 184.245 484.086 184.245C484.656 184.245 485.076 184.68 485.076 185.25C485.076 185.805 484.656 186.24 484.086 186.24ZM483.426 195.195V187.995H484.776V195.195H483.426Z" fill="#DFE4EC"/>
<path d="M475.677 195.195V193.965L479.802 189.225H475.737V187.995H481.542V189.18L477.417 193.92H481.617V195.195H475.677Z" fill="#DFE4EC"/>
<path d="M470.78 195.42C469.16 195.42 468.005 194.505 468.005 192.9C468.005 191.415 469.31 190.56 470.78 190.56C471.59 190.56 472.355 190.755 472.82 191.01V190.245C472.82 189.54 472.28 188.955 471.17 188.955C470.12 188.955 469.085 189.36 468.425 189.78V188.415C469.205 188.025 470.09 187.755 471.17 187.755C473.315 187.755 474.17 188.985 474.17 190.395V195.195H472.865V194.61C472.43 195.03 471.695 195.42 470.78 195.42ZM471.02 194.265C471.875 194.265 472.55 193.815 472.82 193.545V192.225C472.55 192.015 471.845 191.685 471.02 191.685C470.105 191.685 469.415 192.12 469.415 192.9C469.415 193.74 470.105 194.265 471.02 194.265Z" fill="#DFE4EC"/>
<path d="M462.786 195.195V187.995H464.106V189.24C464.481 188.28 465.366 187.755 466.311 187.755C466.536 187.755 466.701 187.785 466.806 187.8V189.3C466.596 189.27 466.356 189.255 466.161 189.255C464.976 189.255 464.331 190.035 464.136 190.725V195.195H462.786Z" fill="#DFE4EC"/>
<path d="M454 195.195V184.695H457.405C459.43 184.695 460.585 185.76 460.585 187.47C460.585 188.58 459.955 189.39 459.025 189.735C460.24 190.035 460.915 191.115 460.915 192.3C460.915 193.98 459.61 195.195 457.66 195.195H454ZM455.41 189.21H457.24C458.425 189.21 459.13 188.52 459.13 187.485C459.13 186.57 458.395 185.955 457.24 185.955H455.41V189.21ZM455.41 193.935H457.51C458.635 193.935 459.445 193.245 459.445 192.21C459.445 191.19 458.8 190.47 457.51 190.47H455.41V193.935Z" fill="#DFE4EC"/>
<rect x="444" y="174.245" width="95" height="31.175" stroke="#23324D"/>
</g>
<defs>
<clipPath id="clip0_200_1356">
<rect width="555" height="223" fill="white"/>
</clipPath>
</defs>
</svg>
