<svg width="476" height="166" viewBox="0 0 476 166" fill="none" xmlns="http://www.w3.org/2000/svg">
<rect width="476" height="165.21" fill="#0C162C"/>
<path d="M165.252 23.125V24.46H159.027C159.222 25.93 160.122 26.815 161.352 26.815C162.312 26.815 163.092 26.275 163.377 25.465H165.177C164.832 27.07 163.347 28.24 161.352 28.24C158.922 28.24 157.287 26.5 157.287 23.875C157.287 21.145 158.952 19.51 161.352 19.51C163.602 19.51 165.252 21.055 165.252 23.125ZM161.352 20.935C160.107 20.935 159.252 21.82 159.042 22.99H163.587C163.407 21.775 162.567 20.935 161.352 20.935Z" fill="#DFE4EC"/>
<path d="M152.289 28V19.75H153.909V21.025H153.939C154.374 20.32 155.124 19.51 156.339 19.51H157.044V20.935H156.159C154.809 20.935 153.939 21.76 153.939 23.35V28H152.289Z" fill="#DFE4EC"/>
<path d="M146.363 28.24C144.608 28.24 143.543 26.95 143.543 24.955V19.75H145.193V24.82C145.193 26.245 145.898 26.77 146.798 26.77C147.908 26.77 148.793 25.96 148.793 24.4V19.75H150.443V28H148.823V26.815H148.793C148.388 27.49 147.653 28.24 146.363 28.24Z" fill="#DFE4EC"/>
<path d="M142.504 21.19H140.269V25.69C140.269 26.245 140.614 26.56 141.109 26.56H142.504V28H140.959C139.429 28 138.619 27.34 138.619 25.795V21.19H137.269V19.75H138.619V17.5H140.269V19.75H142.504V21.19Z" fill="#DFE4EC"/>
<path d="M136.59 26.56H137.085V28H136.35C135.42 28 134.79 27.475 134.565 26.635H134.46C133.8 27.64 132.78 28.24 131.58 28.24C129.54 28.24 127.785 26.71 127.785 23.875C127.785 21.055 129.54 19.51 131.58 19.51C132.705 19.51 133.68 19.915 134.37 20.89H134.4V19.75H136.05V26.05C136.05 26.38 136.245 26.56 136.59 26.56ZM132 26.815C133.5 26.8 134.46 25.435 134.46 23.89C134.46 22.27 133.545 20.95 132 20.935C130.5 20.92 129.495 22.135 129.495 23.875C129.495 25.66 130.5 26.83 132 26.815Z" fill="#DFE4EC"/>
<path d="M126.917 23.125V24.46H120.692C120.887 25.93 121.787 26.815 123.017 26.815C123.977 26.815 124.757 26.275 125.042 25.465H126.842C126.497 27.07 125.012 28.24 123.017 28.24C120.587 28.24 118.952 26.5 118.952 23.875C118.952 21.145 120.617 19.51 123.017 19.51C125.267 19.51 126.917 21.055 126.917 23.125ZM123.017 20.935C121.772 20.935 120.917 21.82 120.707 22.99H125.252C125.072 21.775 124.232 20.935 123.017 20.935Z" fill="#DFE4EC"/>
<path d="M117.751 17.725C117.331 17.725 117.031 18.115 117.031 18.76V19.75H118.636V21.19H117.031V28H115.381V21.19H114.436V19.75H115.381V18.79C115.381 17.29 116.266 16.285 117.781 16.285H119.236V17.725H117.751Z" fill="#DFE4EC"/>
<path d="M110.307 21.19H108.072V25.69C108.072 26.245 108.417 26.56 108.912 26.56H110.307V28H108.762C107.232 28 106.422 27.34 106.422 25.795V21.19H105.072V19.75H106.422V17.5H108.072V19.75H110.307V21.19Z" fill="#DFE4EC"/>
<path d="M100.929 28.24C98.4541 28.24 96.7891 26.5 96.7891 23.86C96.7891 21.295 98.3341 19.51 100.929 19.51C103.299 19.51 104.604 21.04 104.784 22.9H103.074C102.999 21.85 102.249 20.935 100.929 20.935C99.4291 20.935 98.4991 22.15 98.4991 23.86C98.4991 25.675 99.5641 26.815 100.929 26.815C102.234 26.815 102.954 25.825 103.074 25.015H104.784C104.559 26.71 103.224 28.24 100.929 28.24Z" fill="#DFE4EC"/>
<path d="M91.3579 28.24C89.6029 28.24 88.5379 26.95 88.5379 24.955V19.75H90.1879V24.82C90.1879 26.245 90.8929 26.77 91.7929 26.77C92.9029 26.77 93.7879 25.96 93.7879 24.4V19.75H95.4379V28H93.8179V26.815H93.7879C93.3829 27.49 92.6479 28.24 91.3579 28.24Z" fill="#DFE4EC"/>
<path d="M85.0935 27.595C85.0935 27.295 85.0935 27.055 85.1235 26.725H85.0935C84.4485 27.73 83.4135 28.24 82.2735 28.24C80.2335 28.24 78.4785 26.68 78.4785 23.8C78.4785 21.025 80.2335 19.51 82.2735 19.51C83.4735 19.51 84.4935 20.035 85.0935 21.025H85.1235C85.0935 20.68 85.0935 20.425 85.0935 20.11V16H86.7435V28H85.0935V27.595ZM82.6935 26.815C84.2085 26.8 85.0935 25.465 85.0935 23.785C85.0935 22.195 84.2085 20.95 82.6935 20.935C81.1785 20.92 80.1885 22.075 80.1885 23.8C80.1885 25.6 81.1785 26.83 82.6935 26.815Z" fill="#DFE4EC"/>
<path d="M73.4633 28.24C71.1533 28.24 69.3233 26.665 69.3233 23.875C69.3233 21.07 71.1533 19.51 73.4633 19.51C75.7733 19.51 77.6033 21.07 77.6033 23.875C77.6033 26.665 75.7733 28.24 73.4633 28.24ZM73.4633 26.815C74.8133 26.8 75.8933 25.87 75.8933 23.875C75.8933 21.865 74.8133 20.95 73.4633 20.935C72.1133 20.92 71.0333 21.865 71.0333 23.875C71.0333 25.87 72.1133 26.83 73.4633 26.815Z" fill="#DFE4EC"/>
<path d="M64.3251 28V19.75H65.9451V21.025H65.9751C66.4101 20.32 67.1601 19.51 68.3751 19.51H69.0801V20.935H68.1951C66.8451 20.935 65.9751 21.76 65.9751 23.35V28H64.3251Z" fill="#DFE4EC"/>
<path d="M56.3657 20.155C56.3657 20.455 56.3657 20.695 56.3357 21.025H56.3657C57.0107 20.02 58.0307 19.51 59.1857 19.51C61.2107 19.51 62.9807 21.025 62.9807 23.83C62.9807 26.695 61.2107 28.24 59.1857 28.24C57.9857 28.24 56.9657 27.715 56.3657 26.725H56.3357C56.3657 27.07 56.3657 27.325 56.3657 27.64V30.55H54.7157V19.75H56.3657V20.155ZM58.7657 26.815C60.2657 26.83 61.2557 25.615 61.2557 23.83C61.2557 22.09 60.2657 20.92 58.7657 20.935C57.2357 20.95 56.3507 22.225 56.3507 23.815C56.3507 25.495 57.2357 26.8 58.7657 26.815Z" fill="#DFE4EC"/>
<path d="M48.1946 19.75H49.8296L47.6546 28H45.7946L44.3246 21.895L42.8846 28H41.0096L38.8196 19.75H40.5296L41.9396 25.915L43.3196 19.75H45.4046L46.7846 25.915L48.1946 19.75Z" fill="#DFE4EC"/>
<path d="M38.382 23.125V24.46H32.157C32.352 25.93 33.252 26.815 34.482 26.815C35.442 26.815 36.222 26.275 36.507 25.465H38.307C37.962 27.07 36.477 28.24 34.482 28.24C32.052 28.24 30.417 26.5 30.417 23.875C30.417 21.145 32.082 19.51 34.482 19.51C36.732 19.51 38.382 21.055 38.382 23.125ZM34.482 20.935C33.237 20.935 32.382 21.82 32.172 22.99H36.717C36.537 21.775 35.697 20.935 34.482 20.935Z" fill="#DFE4EC"/>
<path d="M27.305 17.5H29.015V28H26.705L21.695 19.75V28H20V17.5H22.295L27.305 25.75V17.5Z" fill="#DFE4EC"/>
<path d="M84 58.55C84 60.7591 82.2091 62.55 80 62.55C77.7909 62.55 76 60.7591 76 58.55C76 56.3408 77.7909 54.55 80 54.55C82.2091 54.55 84 56.3408 84 58.55Z" fill="#2CC6F1"/>
<path d="M96 58.55C96 60.7591 94.2091 62.55 92 62.55C89.7909 62.55 88 60.7591 88 58.55C88 56.3408 89.7909 54.55 92 54.55C94.2091 54.55 96 56.3408 96 58.55Z" fill="#2CC6F1"/>
<rect x="20" y="44.55" width="84" height="31.1" stroke="#23324D"/>
<path d="M175.505 65.65C174.275 65.65 173.48 64.96 173.48 63.655V59.425H172.175V58.225H173.57V56.095L174.83 55.345V58.225H176.585V59.425H174.83V63.445C174.83 64.105 175.19 64.435 175.91 64.435C176.15 64.435 176.42 64.39 176.585 64.33V65.5C176.465 65.545 175.985 65.65 175.505 65.65Z" fill="#DFE4EC"/>
<path d="M167.578 65.65C165.958 65.65 164.803 64.735 164.803 63.13C164.803 61.645 166.108 60.79 167.578 60.79C168.388 60.79 169.153 60.985 169.618 61.24V60.475C169.618 59.77 169.078 59.185 167.968 59.185C166.918 59.185 165.883 59.59 165.223 60.01V58.645C166.003 58.255 166.888 57.985 167.968 57.985C170.113 57.985 170.968 59.215 170.968 60.625V65.425H169.663V64.84C169.228 65.26 168.493 65.65 167.578 65.65ZM167.818 64.495C168.673 64.495 169.348 64.045 169.618 63.775V62.455C169.348 62.245 168.643 61.915 167.818 61.915C166.903 61.915 166.213 62.35 166.213 63.13C166.213 63.97 166.903 64.495 167.818 64.495Z" fill="#DFE4EC"/>
<path d="M156.728 65.425V54.55H158.078V58.885C158.573 58.39 159.308 57.985 160.253 57.985C161.633 57.985 162.998 58.915 162.998 60.67V65.425H161.648V61.015C161.648 59.92 160.838 59.275 159.938 59.275C159.173 59.275 158.543 59.65 158.078 60.235V65.425H156.728Z" fill="#DFE4EC"/>
<path d="M152.527 59.305C151.357 59.305 150.112 60.13 150.112 61.81C150.112 63.49 151.357 64.33 152.527 64.33C153.367 64.33 154.042 64.135 154.777 63.64V65.14C154.237 65.395 153.502 65.65 152.527 65.65C150.307 65.65 148.672 64.06 148.672 61.81C148.672 59.56 150.307 57.985 152.527 57.985C153.502 57.985 154.237 58.24 154.777 58.495V59.995C154.042 59.5 153.367 59.305 152.527 59.305Z" fill="#DFE4EC"/>
<path d="M139.208 65.425V58.225H140.528V59.47C140.903 58.51 141.788 57.985 142.733 57.985C142.958 57.985 143.123 58.015 143.228 58.03V59.53C143.018 59.5 142.778 59.485 142.583 59.485C141.398 59.485 140.753 60.265 140.558 60.955V65.425H139.208Z" fill="#DFE4EC"/>
<path d="M134.051 65.65C132.041 65.65 130.346 64.345 130.346 61.795C130.346 59.485 131.981 57.985 133.886 57.985C136.121 57.985 137.411 59.605 137.411 61.87C137.411 62.05 137.396 62.26 137.381 62.35H131.801C131.861 63.55 132.836 64.405 134.051 64.405C135.221 64.405 136.091 64.075 137.066 63.31V64.645C136.451 65.125 135.521 65.65 134.051 65.65ZM131.846 61.18H135.941C135.911 60.04 135.191 59.23 133.886 59.23C132.701 59.23 131.906 60.145 131.846 61.18Z" fill="#DFE4EC"/>
<path d="M126.174 65.65C125.274 65.65 124.329 65.38 123.729 65.065V63.76C124.554 64.195 125.409 64.45 126.174 64.45C127.149 64.45 127.689 64.09 127.689 63.415C127.689 62.95 127.344 62.635 126.744 62.5L125.514 62.23C124.359 61.975 123.714 61.255 123.714 60.175C123.714 58.855 124.854 57.985 126.429 57.985C127.419 57.985 128.154 58.225 128.724 58.48V59.8C127.974 59.41 127.134 59.185 126.429 59.185C125.484 59.185 125.064 59.62 125.064 60.175C125.064 60.55 125.334 60.895 125.934 61.03L127.074 61.285C128.379 61.57 129.069 62.32 129.069 63.415C129.069 64.855 127.779 65.65 126.174 65.65Z" fill="#DFE4EC"/>
<path d="M117.855 65.65C115.695 65.65 114 64.36 114 61.855V54.925H115.41V61.81C115.41 63.385 116.385 64.3 117.855 64.3C119.34 64.3 120.285 63.385 120.285 61.81V54.925H121.695V61.855C121.695 64.36 120.015 65.65 117.855 65.65Z" fill="#DFE4EC"/>
<rect x="104" y="44.55" width="122" height="31.1" stroke="#23324D"/>
<path d="M36 89.65C36 91.8591 34.2091 93.65 32 93.65C29.7909 93.65 28 91.8591 28 89.65C28 87.4408 29.7909 85.65 32 85.65C34.2091 85.65 36 87.4408 36 89.65Z" fill="#2CC6F1"/>
<path d="M48 89.65C48 91.8591 46.2091 93.65 44 93.65C41.7909 93.65 40 91.8591 40 89.65C40 87.4408 41.7909 85.65 44 85.65C46.2091 85.65 48 87.4408 48 89.65Z" fill="#2CC6F1"/>
<path d="M60 89.65C60 91.8591 58.2091 93.65 56 93.65C53.7909 93.65 52 91.8591 52 89.65C52 87.4408 53.7909 85.65 56 85.65C58.2091 85.65 60 87.4408 60 89.65Z" fill="#2CC6F1"/>
<path d="M72 89.65C72 91.8591 70.2091 93.65 68 93.65C65.7909 93.65 64 91.8591 64 89.65C64 87.4408 65.7909 85.65 68 85.65C70.2091 85.65 72 87.4408 72 89.65Z" fill="#2CC6F1"/>
<path d="M84 89.65C84 91.8591 82.2091 93.65 80 93.65C77.7909 93.65 76 91.8591 76 89.65C76 87.4408 77.7909 85.65 80 85.65C82.2091 85.65 84 87.4408 84 89.65Z" fill="#2CC6F1"/>
<path d="M96 89.65C96 91.8591 94.2091 93.65 92 93.65C89.7909 93.65 88 91.8591 88 89.65C88 87.4408 89.7909 85.65 92 85.65C94.2091 85.65 96 87.4408 96 89.65Z" fill="#2CC6F1"/>
<path d="M48 101.65C48 103.859 46.2091 105.65 44 105.65C41.7909 105.65 40 103.859 40 101.65C40 99.4408 41.7909 97.65 44 97.65C46.2091 97.65 48 99.4408 48 101.65Z" fill="#2CC6F1"/>
<path d="M60 101.65C60 103.859 58.2091 105.65 56 105.65C53.7909 105.65 52 103.859 52 101.65C52 99.4408 53.7909 97.65 56 97.65C58.2091 97.65 60 99.4408 60 101.65Z" fill="#2CC6F1"/>
<path d="M72 101.65C72 103.859 70.2091 105.65 68 105.65C65.7909 105.65 64 103.859 64 101.65C64 99.4408 65.7909 97.65 68 97.65C70.2091 97.65 72 99.4408 72 101.65Z" fill="#2CC6F1"/>
<path d="M84 101.65C84 103.859 82.2091 105.65 80 105.65C77.7909 105.65 76 103.859 76 101.65C76 99.4408 77.7909 97.65 80 97.65C82.2091 97.65 84 99.4408 84 101.65Z" fill="#2CC6F1"/>
<path d="M96 101.65C96 103.859 94.2091 105.65 92 105.65C89.7909 105.65 88 103.859 88 101.65C88 99.4408 89.7909 97.65 92 97.65C94.2091 97.65 96 99.4408 96 101.65Z" fill="#2CC6F1"/>
<rect x="20" y="75.65" width="84" height="40" stroke="#23324D"/>
<path d="M156.216 96.75C155.316 96.75 154.371 96.48 153.771 96.165V94.86C154.596 95.295 155.451 95.55 156.216 95.55C157.191 95.55 157.731 95.19 157.731 94.515C157.731 94.05 157.386 93.735 156.786 93.6L155.556 93.33C154.401 93.075 153.756 92.355 153.756 91.275C153.756 89.955 154.896 89.085 156.471 89.085C157.461 89.085 158.196 89.325 158.766 89.58V90.9C158.016 90.51 157.176 90.285 156.471 90.285C155.526 90.285 155.106 90.72 155.106 91.275C155.106 91.65 155.376 91.995 155.976 92.13L157.116 92.385C158.421 92.67 159.111 93.42 159.111 94.515C159.111 95.955 157.821 96.75 156.216 96.75Z" fill="#DFE4EC"/>
<path d="M148.612 96.75C146.422 96.75 144.817 95.115 144.817 92.91C144.817 90.72 146.422 89.085 148.612 89.085C150.802 89.085 152.407 90.72 152.407 92.91C152.407 95.115 150.802 96.75 148.612 96.75ZM148.612 95.475C149.842 95.475 150.982 94.59 150.982 92.91C150.982 91.245 149.842 90.36 148.612 90.36C147.382 90.36 146.242 91.245 146.242 92.91C146.242 94.59 147.382 95.475 148.612 95.475Z" fill="#DFE4EC"/>
<path d="M142.457 96.7499C141.227 96.7499 140.432 96.0599 140.432 94.7549V90.5249H139.127V89.3249H140.522V87.1949L141.782 86.4449V89.3249H143.537V90.5249H141.782V94.5449C141.782 95.2049 142.142 95.5349 142.862 95.5349C143.102 95.5349 143.372 95.4899 143.537 95.4299V96.5999C143.417 96.6449 142.937 96.7499 142.457 96.7499Z" fill="#DFE4EC"/>
<path d="M134.433 96.75C132.243 96.75 130.638 95.115 130.638 92.91C130.638 90.72 132.243 89.085 134.433 89.085C136.623 89.085 138.228 90.72 138.228 92.91C138.228 95.115 136.623 96.75 134.433 96.75ZM134.433 95.475C135.663 95.475 136.803 94.59 136.803 92.91C136.803 91.245 135.663 90.36 134.433 90.36C133.203 90.36 132.063 91.245 132.063 92.91C132.063 94.59 133.203 95.475 134.433 95.475Z" fill="#DFE4EC"/>
<path d="M122.712 96.525V85.65H124.062V89.985C124.557 89.49 125.292 89.085 126.237 89.085C127.617 89.085 128.982 90.015 128.982 91.77V96.525H127.632V92.115C127.632 91.02 126.822 90.375 125.922 90.375C125.157 90.375 124.527 90.75 124.062 91.335V96.525H122.712Z" fill="#DFE4EC"/>
<path d="M114 96.525V86.025H117.78C119.745 86.025 121.065 87.54 121.065 89.325C121.065 91.125 119.745 92.61 117.78 92.61H115.41V96.525H114ZM115.41 91.305H117.54C118.83 91.305 119.595 90.435 119.595 89.325C119.595 88.215 118.83 87.33 117.54 87.33H115.41V91.305Z" fill="#DFE4EC"/>
<rect x="104" y="75.65" width="122" height="40" stroke="#23324D"/>
<path d="M72 129.65C72 131.859 70.2091 133.65 68 133.65C65.7909 133.65 64 131.859 64 129.65C64 127.441 65.7909 125.65 68 125.65C70.2091 125.65 72 127.441 72 129.65Z" fill="#2CC6F1"/>
<path d="M84 129.65C84 131.859 82.2091 133.65 80 133.65C77.7909 133.65 76 131.859 76 129.65C76 127.441 77.7909 125.65 80 125.65C82.2091 125.65 84 127.441 84 129.65Z" fill="#2CC6F1"/>
<path d="M96 129.65C96 131.859 94.2091 133.65 92 133.65C89.7909 133.65 88 131.859 88 129.65C88 127.441 89.7909 125.65 92 125.65C94.2091 125.65 96 127.441 96 129.65Z" fill="#2CC6F1"/>
<rect x="20" y="115.65" width="84" height="33.56" stroke="#23324D"/>
<path d="M159.118 136.6C158.218 136.6 157.273 136.33 156.673 136.015V134.71C157.498 135.145 158.353 135.4 159.118 135.4C160.093 135.4 160.633 135.04 160.633 134.365C160.633 133.9 160.288 133.585 159.688 133.45L158.458 133.18C157.303 132.925 156.658 132.205 156.658 131.125C156.658 129.805 157.798 128.935 159.373 128.935C160.363 128.935 161.098 129.175 161.668 129.43V130.75C160.918 130.36 160.078 130.135 159.373 130.135C158.428 130.135 158.008 130.57 158.008 131.125C158.008 131.5 158.278 131.845 158.878 131.98L160.018 132.235C161.323 132.52 162.013 133.27 162.013 134.365C162.013 135.805 160.723 136.6 159.118 136.6Z" fill="#DFE4EC"/>
<path d="M148.158 139.21V129.175H149.508V129.925C150.033 129.385 150.738 128.935 151.863 128.935C153.978 128.935 155.313 130.63 155.313 132.745C155.313 134.89 153.978 136.6 151.863 136.6C150.738 136.6 150.033 136.135 149.508 135.595V139.21H148.158ZM151.623 135.325C153.003 135.325 153.888 134.35 153.888 132.745C153.888 131.17 153.003 130.21 151.623 130.21C150.663 130.21 149.943 130.78 149.508 131.395V134.125C149.943 134.74 150.663 135.325 151.623 135.325Z" fill="#DFE4EC"/>
<path d="M142.331 136.6C140.951 136.6 139.616 135.67 139.616 133.915V129.175H140.966V133.57C140.966 134.665 141.746 135.31 142.646 135.31C143.411 135.31 144.011 134.95 144.476 134.365V129.175H145.826V136.375H144.506V135.685C144.011 136.195 143.291 136.6 142.331 136.6Z" fill="#DFE4EC"/>
<path d="M134.097 136.6C131.907 136.6 130.302 134.965 130.302 132.76C130.302 130.57 131.907 128.935 134.097 128.935C136.287 128.935 137.892 130.57 137.892 132.76C137.892 134.965 136.287 136.6 134.097 136.6ZM134.097 135.325C135.327 135.325 136.467 134.44 136.467 132.76C136.467 131.095 135.327 130.21 134.097 130.21C132.867 130.21 131.727 131.095 131.727 132.76C131.727 134.44 132.867 135.325 134.097 135.325Z" fill="#DFE4EC"/>
<path d="M125.453 136.375V129.175H126.773V130.42C127.148 129.46 128.033 128.935 128.978 128.935C129.203 128.935 129.368 128.965 129.473 128.98V130.48C129.263 130.45 129.023 130.435 128.828 130.435C127.643 130.435 126.998 131.215 126.803 131.905V136.375H125.453Z" fill="#DFE4EC"/>
<path d="M119.355 136.6C116.625 136.6 114 134.755 114 131.125C114 127.495 116.625 125.65 119.355 125.65C120.855 125.65 121.86 126.055 122.91 126.61V128.11C121.755 127.375 120.645 126.985 119.355 126.985C117.42 126.985 115.47 128.275 115.47 131.125C115.47 133.975 117.42 135.25 119.355 135.25C120.135 135.25 120.825 135.1 121.53 134.8V132.475H117.9V131.17H122.91V135.64C121.86 136.195 120.855 136.6 119.355 136.6Z" fill="#DFE4EC"/>
<rect x="104" y="115.65" width="122" height="33.56" stroke="#23324D"/>
<rect x="250" y="44.55" width="84" height="33.71" stroke="#23324D"/>
<path d="M423.054 65.65C421.044 65.65 419.349 64.345 419.349 61.795C419.349 59.485 420.984 57.985 422.889 57.985C425.124 57.985 426.414 59.605 426.414 61.87C426.414 62.05 426.399 62.26 426.384 62.35H420.804C420.864 63.55 421.839 64.405 423.054 64.405C424.224 64.405 425.094 64.075 426.069 63.31V64.645C425.454 65.125 424.524 65.65 423.054 65.65ZM420.849 61.18H424.944C424.914 60.04 424.194 59.23 422.889 59.23C421.704 59.23 420.909 60.145 420.849 61.18Z" fill="#DFE4EC"/>
<path d="M415.748 59.305C414.578 59.305 413.333 60.13 413.333 61.81C413.333 63.49 414.578 64.33 415.748 64.33C416.588 64.33 417.263 64.135 417.998 63.64V65.14C417.458 65.395 416.723 65.65 415.748 65.65C413.528 65.65 411.893 64.06 411.893 61.81C411.893 59.56 413.528 57.985 415.748 57.985C416.723 57.985 417.458 58.24 417.998 58.495V59.995C417.263 59.5 416.588 59.305 415.748 59.305Z" fill="#DFE4EC"/>
<path d="M406.995 65.65C405.375 65.65 404.22 64.735 404.22 63.13C404.22 61.645 405.525 60.79 406.995 60.79C407.805 60.79 408.57 60.985 409.035 61.24V60.475C409.035 59.77 408.495 59.185 407.385 59.185C406.335 59.185 405.3 59.59 404.64 60.01V58.645C405.42 58.255 406.305 57.985 407.385 57.985C409.53 57.985 410.385 59.215 410.385 60.625V65.425H409.08V64.84C408.645 65.26 407.91 65.65 406.995 65.65ZM407.235 64.495C408.09 64.495 408.765 64.045 409.035 63.775V62.455C408.765 62.245 408.06 61.915 407.235 61.915C406.32 61.915 405.63 62.35 405.63 63.13C405.63 63.97 406.32 64.495 407.235 64.495Z" fill="#DFE4EC"/>
<path d="M401.067 65.425V54.55H402.417V65.425H401.067Z" fill="#DFE4EC"/>
<path d="M392.117 68.26V58.225H393.467V58.975C393.992 58.435 394.697 57.985 395.822 57.985C397.937 57.985 399.272 59.68 399.272 61.795C399.272 63.94 397.937 65.65 395.822 65.65C394.697 65.65 393.992 65.185 393.467 64.645V68.26H392.117ZM395.582 64.375C396.962 64.375 397.847 63.4 397.847 61.795C397.847 60.22 396.962 59.26 395.582 59.26C394.622 59.26 393.902 59.83 393.467 60.445V63.175C393.902 63.79 394.622 64.375 395.582 64.375Z" fill="#DFE4EC"/>
<path d="M389.156 65.65C387.926 65.65 387.131 64.96 387.131 63.655V59.425H385.826V58.225H387.221V56.095L388.481 55.345V58.225H390.236V59.425H388.481V63.445C388.481 64.105 388.841 64.435 389.561 64.435C389.801 64.435 390.071 64.39 390.236 64.33V65.5C390.116 65.545 389.636 65.65 389.156 65.65Z" fill="#DFE4EC"/>
<path d="M381.569 65.65C379.559 65.65 377.864 64.345 377.864 61.795C377.864 59.485 379.499 57.985 381.404 57.985C383.639 57.985 384.929 59.605 384.929 61.87C384.929 62.05 384.914 62.26 384.899 62.35H379.319C379.379 63.55 380.354 64.405 381.569 64.405C382.739 64.405 383.609 64.075 384.584 63.31V64.645C383.969 65.125 383.039 65.65 381.569 65.65ZM379.364 61.18H383.459C383.429 60.04 382.709 59.23 381.404 59.23C380.219 59.23 379.424 60.145 379.364 61.18Z" fill="#DFE4EC"/>
<path d="M377.402 65.425H375.677L373.277 61.99L372.197 62.98V65.425H370.847V54.55H372.197V61.255L375.437 58.225H377.342L374.297 61.045L377.402 65.425Z" fill="#DFE4EC"/>
<path d="M365.178 65.425V58.225H366.498V59.47C366.873 58.51 367.758 57.985 368.703 57.985C368.928 57.985 369.093 58.015 369.198 58.03V59.53C368.988 59.5 368.748 59.485 368.553 59.485C367.368 59.485 366.723 60.265 366.528 60.955V65.425H365.178Z" fill="#DFE4EC"/>
<path d="M359.681 65.65C358.061 65.65 356.906 64.735 356.906 63.13C356.906 61.645 358.211 60.79 359.681 60.79C360.491 60.79 361.256 60.985 361.721 61.24V60.475C361.721 59.77 361.181 59.185 360.071 59.185C359.021 59.185 357.986 59.59 357.326 60.01V58.645C358.106 58.255 358.991 57.985 360.071 57.985C362.216 57.985 363.071 59.215 363.071 60.625V65.425H361.766V64.84C361.331 65.26 360.596 65.65 359.681 65.65ZM359.921 64.495C360.776 64.495 361.451 64.045 361.721 63.775V62.455C361.451 62.245 360.746 61.915 359.921 61.915C359.006 61.915 358.316 62.35 358.316 63.13C358.316 63.97 359.006 64.495 359.921 64.495Z" fill="#DFE4EC"/>
<path d="M344 65.425V54.925H345.44L349.4 61.39L353.39 54.925H354.8V65.425H353.42V57.385L349.46 63.775H349.31L345.38 57.385V65.425H344Z" fill="#DFE4EC"/>
<rect x="334" y="44.55" width="122" height="33.71" stroke="#23324D"/>
<path d="M302 92.26C302 94.4691 300.209 96.26 298 96.26C295.791 96.26 294 94.4691 294 92.26C294 90.0509 295.791 88.26 298 88.26C300.209 88.26 302 90.0509 302 92.26Z" fill="#2CC6F1"/>
<path d="M314 92.26C314 94.4691 312.209 96.26 310 96.26C307.791 96.26 306 94.4691 306 92.26C306 90.0509 307.791 88.26 310 88.26C312.209 88.26 314 90.0509 314 92.26Z" fill="#2CC6F1"/>
<path d="M326 92.26C326 94.4691 324.209 96.26 322 96.26C319.791 96.26 318 94.4691 318 92.26C318 90.0509 319.791 88.26 322 88.26C324.209 88.26 326 90.0509 326 92.26Z" fill="#2CC6F1"/>
<rect x="250" y="78.26" width="84" height="31.13" stroke="#23324D"/>
<path d="M408.601 88.29H409.951V99.165H408.601V98.385C408.076 98.925 407.371 99.39 406.246 99.39C404.131 99.39 402.796 97.68 402.796 95.535C402.796 93.42 404.131 91.725 406.246 91.725C407.371 91.725 408.076 92.175 408.601 92.715V88.29ZM408.601 96.915V94.185C408.166 93.57 407.446 93 406.486 93C405.106 93 404.221 93.96 404.221 95.535C404.221 97.14 405.106 98.115 406.486 98.115C407.446 98.115 408.166 97.53 408.601 96.915Z" fill="#DFE4EC"/>
<path d="M398.239 99.39C396.229 99.39 394.534 98.085 394.534 95.535C394.534 93.225 396.169 91.725 398.074 91.725C400.309 91.725 401.599 93.345 401.599 95.61C401.599 95.79 401.584 96 401.569 96.09H395.989C396.049 97.29 397.024 98.145 398.239 98.145C399.409 98.145 400.279 97.815 401.254 97.05V98.385C400.639 98.865 399.709 99.39 398.239 99.39ZM396.034 94.92H400.129C400.099 93.78 399.379 92.97 398.074 92.97C396.889 92.97 396.094 93.885 396.034 94.92Z" fill="#DFE4EC"/>
<path d="M389.977 99.39C387.967 99.39 386.272 98.085 386.272 95.535C386.272 93.225 387.907 91.725 389.812 91.725C392.047 91.725 393.337 93.345 393.337 95.61C393.337 95.79 393.322 96 393.307 96.09H387.727C387.787 97.29 388.762 98.145 389.977 98.145C391.147 98.145 392.017 97.815 392.992 97.05V98.385C392.377 98.865 391.447 99.39 389.977 99.39ZM387.772 94.92H391.867C391.837 93.78 391.117 92.97 389.812 92.97C388.627 92.97 387.832 93.885 387.772 94.92Z" fill="#DFE4EC"/>
<path d="M382.268 99.165V93.165H380.933V91.965H382.298V90.735C382.298 89.25 383.153 88.26 384.743 88.26C385.133 88.26 385.343 88.305 385.523 88.35V89.655C385.403 89.61 385.148 89.55 384.833 89.55C384.338 89.55 383.618 89.82 383.618 90.81V91.965H385.508V93.165H383.618V99.165H382.268Z" fill="#DFE4EC"/>
<path d="M377.061 99.39C376.161 99.39 375.216 99.12 374.616 98.805V97.5C375.441 97.935 376.296 98.19 377.061 98.19C378.036 98.19 378.576 97.83 378.576 97.155C378.576 96.69 378.231 96.375 377.631 96.24L376.401 95.97C375.246 95.715 374.601 94.995 374.601 93.915C374.601 92.595 375.741 91.725 377.316 91.725C378.306 91.725 379.041 91.965 379.611 92.22V93.54C378.861 93.15 378.021 92.925 377.316 92.925C376.371 92.925 375.951 93.36 375.951 93.915C375.951 94.29 376.221 94.635 376.821 94.77L377.961 95.025C379.266 95.31 379.956 96.06 379.956 97.155C379.956 98.595 378.666 99.39 377.061 99.39Z" fill="#DFE4EC"/>
<path d="M364.552 99.165L362.182 91.965H363.682L365.347 97.41L367.252 91.965H368.647L370.552 97.41L372.187 91.965H373.627L371.287 99.165H369.832L367.912 93.69L366.037 99.165H364.552Z" fill="#DFE4EC"/>
<path d="M358.22 99.39C356.21 99.39 354.515 98.085 354.515 95.535C354.515 93.225 356.15 91.725 358.055 91.725C360.29 91.725 361.58 93.345 361.58 95.61C361.58 95.79 361.565 96 361.55 96.09H355.97C356.03 97.29 357.005 98.145 358.22 98.145C359.39 98.145 360.26 97.815 361.235 97.05V98.385C360.62 98.865 359.69 99.39 358.22 99.39ZM356.015 94.92H360.11C360.08 93.78 359.36 92.97 358.055 92.97C356.87 92.97 356.075 93.885 356.015 94.92Z" fill="#DFE4EC"/>
<path d="M344 99.165V88.665H345.755L351.185 96.66V88.665H352.565V99.165H351.125L345.38 90.51V99.165H344Z" fill="#DFE4EC"/>
<rect x="334" y="78.26" width="122" height="31.13" stroke="#23324D"/>
<path d="M326 123.39C326 125.599 324.209 127.39 322 127.39C319.791 127.39 318 125.599 318 123.39C318 121.181 319.791 119.39 322 119.39C324.209 119.39 326 121.181 326 123.39Z" fill="#2CC6F1"/>
<rect x="250" y="109.39" width="84" height="30.725" stroke="#23324D"/>
<path d="M384.166 130.115C383.266 130.115 382.321 129.845 381.721 129.53V128.225C382.546 128.66 383.401 128.915 384.166 128.915C385.141 128.915 385.681 128.555 385.681 127.88C385.681 127.415 385.336 127.1 384.736 126.965L383.506 126.695C382.351 126.44 381.706 125.72 381.706 124.64C381.706 123.32 382.846 122.45 384.421 122.45C385.411 122.45 386.146 122.69 386.716 122.945V124.265C385.966 123.875 385.126 123.65 384.421 123.65C383.476 123.65 383.056 124.085 383.056 124.64C383.056 125.015 383.326 125.36 383.926 125.495L385.066 125.75C386.371 126.035 387.061 126.785 387.061 127.88C387.061 129.32 385.771 130.115 384.166 130.115Z" fill="#DFE4EC"/>
<path d="M379.195 130.115C377.965 130.115 377.17 129.425 377.17 128.12V123.89H375.865V122.69H377.26V120.56L378.52 119.81V122.69H380.275V123.89H378.52V127.91C378.52 128.57 378.88 128.9 379.6 128.9C379.84 128.9 380.11 128.855 380.275 128.795V129.965C380.155 130.01 379.675 130.115 379.195 130.115Z" fill="#DFE4EC"/>
<path d="M368.298 129.89V122.69H369.618V123.38C370.113 122.87 370.833 122.45 371.793 122.45C373.173 122.45 374.508 123.38 374.508 125.135V129.89H373.158V125.48C373.158 124.385 372.378 123.74 371.478 123.74C370.713 123.74 370.113 124.115 369.648 124.7V129.89H368.298Z" fill="#DFE4EC"/>
<path d="M363.142 130.115C361.132 130.115 359.437 128.81 359.437 126.26C359.437 123.95 361.072 122.45 362.977 122.45C365.212 122.45 366.502 124.07 366.502 126.335C366.502 126.515 366.487 126.725 366.472 126.815H360.892C360.952 128.015 361.927 128.87 363.142 128.87C364.312 128.87 365.182 128.54 366.157 127.775V129.11C365.542 129.59 364.612 130.115 363.142 130.115ZM360.937 125.645H365.032C365.002 124.505 364.282 123.695 362.977 123.695C361.792 123.695 360.997 124.61 360.937 125.645Z" fill="#DFE4EC"/>
<path d="M354.457 129.89L351.457 122.69H353.002L355.177 128.27L357.367 122.69H358.837L355.882 129.89H354.457Z" fill="#DFE4EC"/>
<path d="M344 129.89V119.39H350.405V120.695H345.41V123.965H349.94V125.27H345.41V128.585H350.405V129.89H344Z" fill="#DFE4EC"/>
<rect x="334" y="109.39" width="122" height="30.725" stroke="#23324D"/>
</svg>
