<svg width="558" height="219" viewBox="0 0 558 219" fill="none" xmlns="http://www.w3.org/2000/svg">
<g clip-path="url(#clip0_193_724)">
<rect width="278" height="218.24" transform="translate(133)" fill="#0C162C"/>
<path d="M373.425 25.405V24.85C373.425 23.755 374.1 23.275 375.15 22.825L375.36 22.735C376.245 22.375 376.785 21.55 376.785 20.665C376.785 19.435 376.05 18.7 374.835 18.7C373.62 18.7 372.645 19.465 372.645 20.71H370.92C370.935 18.625 372.63 17.29 374.835 17.29C377.355 17.29 378.51 19 378.51 20.665C378.51 22.225 377.415 23.305 375.945 23.905L375.735 23.995C375.135 24.265 375.075 24.595 375.075 25.09V25.405H373.425ZM373.35 28V26.2H375.15V28H373.35Z" fill="#DFE4EC"/>
<path d="M362.402 28V16H364.052V19.72C364.052 20.095 364.052 20.38 364.022 20.935H364.052C364.472 20.26 365.222 19.51 366.557 19.51C368.357 19.51 369.467 20.8 369.467 22.795V28H367.817V22.93C367.817 21.505 367.082 20.98 366.122 20.98C364.967 20.98 364.052 21.79 364.052 23.35V28H362.402Z" fill="#DFE4EC"/>
<path d="M357.258 28.24C354.783 28.24 353.118 26.5 353.118 23.86C353.118 21.295 354.663 19.51 357.258 19.51C359.628 19.51 360.933 21.04 361.113 22.9H359.403C359.328 21.85 358.578 20.935 357.258 20.935C355.758 20.935 354.828 22.15 354.828 23.86C354.828 25.675 355.893 26.815 357.258 26.815C358.563 26.815 359.283 25.825 359.403 25.015H361.113C360.888 26.71 359.553 28.24 357.258 28.24Z" fill="#DFE4EC"/>
<path d="M344.765 28V19.75H346.385V20.935H346.415C346.835 20.26 347.585 19.51 348.92 19.51C350.72 19.51 351.83 20.8 351.83 22.795V28H350.18V22.93C350.18 21.505 349.445 20.98 348.485 20.98C347.33 20.98 346.415 21.79 346.415 23.35V28H344.765Z" fill="#DFE4EC"/>
<path d="M338.839 28.24C337.084 28.24 336.019 26.95 336.019 24.955V19.75H337.669V24.82C337.669 26.245 338.374 26.77 339.274 26.77C340.384 26.77 341.269 25.96 341.269 24.4V19.75H342.919V28H341.299V26.815H341.269C340.864 27.49 340.129 28.24 338.839 28.24Z" fill="#DFE4EC"/>
<path d="M332.563 28V16H334.213V28H332.563Z" fill="#DFE4EC"/>
<path d="M322.983 28V19.75H324.603V21.025H324.633C325.068 20.32 325.818 19.51 327.033 19.51H327.738V20.935H326.853C325.503 20.935 324.633 21.76 324.633 23.35V28H322.983Z" fill="#DFE4EC"/>
<path d="M317.473 28.24C315.163 28.24 313.333 26.665 313.333 23.875C313.333 21.07 315.163 19.51 317.473 19.51C319.783 19.51 321.613 21.07 321.613 23.875C321.613 26.665 319.783 28.24 317.473 28.24ZM317.473 26.815C318.823 26.8 319.903 25.87 319.903 23.875C319.903 21.865 318.823 20.95 317.473 20.935C316.123 20.92 315.043 21.865 315.043 23.875C315.043 25.87 316.123 26.83 317.473 26.815Z" fill="#DFE4EC"/>
<path d="M312.131 17.725C311.711 17.725 311.411 18.115 311.411 18.76V19.75H313.016V21.19H311.411V28H309.761V21.19H308.816V19.75H309.761V18.79C309.761 17.29 310.646 16.285 312.161 16.285H313.616V17.725H312.131Z" fill="#DFE4EC"/>
<path d="M299.941 28V19.75H301.561V21.025H301.591C302.026 20.32 302.776 19.51 303.991 19.51H304.696V20.935H303.811C302.461 20.935 301.591 21.76 301.591 23.35V28H299.941Z" fill="#DFE4EC"/>
<path d="M298.578 23.125V24.46H292.353C292.548 25.93 293.448 26.815 294.678 26.815C295.638 26.815 296.418 26.275 296.703 25.465H298.503C298.158 27.07 296.673 28.24 294.678 28.24C292.248 28.24 290.613 26.5 290.613 23.875C290.613 21.145 292.278 19.51 294.678 19.51C296.928 19.51 298.578 21.055 298.578 23.125ZM294.678 20.935C293.433 20.935 292.578 21.82 292.368 22.99H296.913C296.733 21.775 295.893 20.935 294.678 20.935Z" fill="#DFE4EC"/>
<path d="M287.619 27.595C287.619 27.295 287.619 27.055 287.649 26.725H287.619C286.974 27.73 285.939 28.24 284.799 28.24C282.759 28.24 281.004 26.68 281.004 23.8C281.004 21.025 282.759 19.51 284.799 19.51C285.999 19.51 287.019 20.035 287.619 21.025H287.649C287.619 20.68 287.619 20.425 287.619 20.11V16H289.269V28H287.619V27.595ZM285.219 26.815C286.734 26.8 287.619 25.465 287.619 23.785C287.619 22.195 286.734 20.95 285.219 20.935C283.704 20.92 282.714 22.075 282.714 23.8C282.714 25.6 283.704 26.83 285.219 26.815Z" fill="#DFE4EC"/>
<path d="M276.006 28V19.75H277.626V21.025H277.656C278.091 20.32 278.841 19.51 280.056 19.51H280.761V20.935H279.876C278.526 20.935 277.656 21.76 277.656 23.35V28H276.006Z" fill="#DFE4EC"/>
<path d="M270.495 28.24C268.185 28.24 266.355 26.665 266.355 23.875C266.355 21.07 268.185 19.51 270.495 19.51C272.805 19.51 274.635 21.07 274.635 23.875C274.635 26.665 272.805 28.24 270.495 28.24ZM270.495 26.815C271.845 26.8 272.925 25.87 272.925 23.875C272.925 21.865 271.845 20.95 270.495 20.935C269.145 20.92 268.065 21.865 268.065 23.875C268.065 25.87 269.145 26.83 270.495 26.815Z" fill="#DFE4EC"/>
<path d="M261.737 23.125V24.46H255.512C255.707 25.93 256.607 26.815 257.837 26.815C258.797 26.815 259.577 26.275 259.862 25.465H261.662C261.317 27.07 259.832 28.24 257.837 28.24C255.407 28.24 253.772 26.5 253.772 23.875C253.772 21.145 255.437 19.51 257.837 19.51C260.087 19.51 261.737 21.055 261.737 23.125ZM257.837 20.935C256.592 20.935 255.737 21.82 255.527 22.99H260.072C259.892 21.775 259.052 20.935 257.837 20.935Z" fill="#DFE4EC"/>
<path d="M251.862 19.75H253.497L251.322 28H249.462L247.992 21.895L246.552 28H244.677L242.487 19.75H244.197L245.607 25.915L246.987 19.75H249.072L250.452 25.915L251.862 19.75Z" fill="#DFE4EC"/>
<path d="M235.793 27.595C235.793 27.295 235.793 27.055 235.823 26.725H235.793C235.148 27.73 234.113 28.24 232.973 28.24C230.933 28.24 229.178 26.68 229.178 23.8C229.178 21.025 230.933 19.51 232.973 19.51C234.173 19.51 235.193 20.035 235.793 21.025H235.823C235.793 20.68 235.793 20.425 235.793 20.11V16H237.443V28H235.793V27.595ZM233.393 26.815C234.908 26.8 235.793 25.465 235.793 23.785C235.793 22.195 234.908 20.95 233.393 20.935C231.878 20.92 230.888 22.075 230.888 23.8C230.888 25.6 231.878 26.83 233.393 26.815Z" fill="#DFE4EC"/>
<path d="M226.172 28V16H227.822V28H226.172Z" fill="#DFE4EC"/>
<path d="M220.245 28.24C218.49 28.24 217.425 26.95 217.425 24.955V19.75H219.075V24.82C219.075 26.245 219.78 26.77 220.68 26.77C221.79 26.77 222.675 25.96 222.675 24.4V19.75H224.325V28H222.705V26.815H222.675C222.27 27.49 221.535 28.24 220.245 28.24Z" fill="#DFE4EC"/>
<path d="M211.96 28.24C209.65 28.24 207.82 26.665 207.82 23.875C207.82 21.07 209.65 19.51 211.96 19.51C214.27 19.51 216.1 21.07 216.1 23.875C216.1 26.665 214.27 28.24 211.96 28.24ZM211.96 26.815C213.31 26.8 214.39 25.87 214.39 23.875C214.39 21.865 213.31 20.95 211.96 20.935C210.61 20.92 209.53 21.865 209.53 23.875C209.53 25.87 210.61 26.83 211.96 26.815Z" fill="#DFE4EC"/>
<path d="M199.467 28V16H201.118V19.72C201.118 20.095 201.117 20.38 201.087 20.935H201.118C201.538 20.26 202.287 19.51 203.622 19.51C205.422 19.51 206.532 20.8 206.532 22.795V28H204.882V22.93C204.882 21.505 204.148 20.98 203.188 20.98C202.033 20.98 201.118 21.79 201.118 23.35V28H199.467Z" fill="#DFE4EC"/>
<path d="M194.752 28.24C192.712 28.24 191.227 26.98 191.122 25.27H192.847C192.937 26.17 193.672 26.815 194.752 26.815C195.727 26.815 196.357 26.275 196.357 25.57C196.357 24.775 195.922 24.445 194.497 24.445H194.047C192.502 24.445 191.272 23.59 191.272 22.105C191.272 20.83 192.322 19.51 194.422 19.51H197.347V20.935H194.422C193.492 20.935 192.982 21.43 192.982 22.105C192.982 22.75 193.267 22.99 194.692 23.005H195.007C196.867 23.005 198.067 24.04 198.067 25.57C198.067 26.905 196.927 28.24 194.752 28.24Z" fill="#DFE4EC"/>
<path d="M186.753 21.19H184.518V25.69C184.518 26.245 184.863 26.56 185.358 26.56H186.753V28H185.208C183.678 28 182.868 27.34 182.868 25.795V21.19H181.518V19.75H182.868V17.5H184.518V19.75H186.753V21.19Z" fill="#DFE4EC"/>
<path d="M180.839 26.56H181.334V28H180.599C179.669 28 179.039 27.475 178.814 26.635H178.709C178.049 27.64 177.029 28.24 175.829 28.24C173.789 28.24 172.034 26.71 172.034 23.875C172.034 21.055 173.789 19.51 175.829 19.51C176.954 19.51 177.929 19.915 178.619 20.89H178.649V19.75H180.299V26.05C180.299 26.38 180.494 26.56 180.839 26.56ZM176.249 26.815C177.749 26.8 178.709 25.435 178.709 23.89C178.709 22.27 177.794 20.95 176.249 20.935C174.749 20.92 173.744 22.135 173.744 23.875C173.744 25.66 174.749 26.83 176.249 26.815Z" fill="#DFE4EC"/>
<path d="M163.681 28V16H165.331V19.72C165.331 20.095 165.331 20.38 165.301 20.935H165.331C165.751 20.26 166.501 19.51 167.836 19.51C169.636 19.51 170.746 20.8 170.746 22.795V28H169.096V22.93C169.096 21.505 168.361 20.98 167.401 20.98C166.246 20.98 165.331 21.79 165.331 23.35V28H163.681Z" fill="#DFE4EC"/>
<path d="M160.745 17.5H162.605L159.83 28H157.79L155.81 19.465L153.815 28H151.775L149 17.5H150.935L152.81 25.93L154.67 17.5H156.995L158.87 25.945L160.745 17.5Z" fill="#DFE4EC"/>
<path d="M201 56.24C201 58.4491 199.209 60.24 197 60.24C194.791 60.24 193 58.4491 193 56.24C193 54.0309 194.791 52.24 197 52.24C199.209 52.24 201 54.0309 201 56.24Z" fill="#2CC6F1"/>
<path d="M213 56.24C213 58.4491 211.209 60.24 209 60.24C206.791 60.24 205 58.4491 205 56.24C205 54.0309 206.791 52.24 209 52.24C211.209 52.24 213 54.0309 213 56.24Z" fill="#2CC6F1"/>
<path d="M225 56.24C225 58.4491 223.209 60.24 221 60.24C218.791 60.24 217 58.4491 217 56.24C217 54.0309 218.791 52.24 221 52.24C223.209 52.24 225 54.0309 225 56.24Z" fill="#2CC6F1"/>
<rect x="149" y="42.24" width="84" height="49" stroke="#23324D"/>
<path d="M283.319 79.7975V72.5975H284.639V73.8425C285.014 72.8825 285.899 72.3575 286.844 72.3575C287.069 72.3575 287.234 72.3875 287.339 72.4025V73.9025C287.129 73.8725 286.889 73.8575 286.694 73.8575C285.509 73.8575 284.864 74.6375 284.669 75.3275V79.7975H283.319Z" fill="#DFE4EC"/>
<path d="M278.162 80.0225C276.152 80.0225 274.457 78.7175 274.457 76.1675C274.457 73.8575 276.092 72.3575 277.997 72.3575C280.232 72.3575 281.522 73.9775 281.522 76.2425C281.522 76.4225 281.507 76.6325 281.492 76.7225H275.912C275.972 77.9225 276.947 78.7775 278.162 78.7775C279.332 78.7775 280.202 78.4475 281.177 77.6825V79.0175C280.562 79.4975 279.632 80.0225 278.162 80.0225ZM275.957 75.5525H280.052C280.022 74.4125 279.302 73.6025 277.997 73.6025C276.812 73.6025 276.017 74.5175 275.957 75.5525Z" fill="#DFE4EC"/>
<path d="M272.097 80.0225C270.867 80.0225 270.072 79.3325 270.072 78.0275V73.7975H268.767V72.5975H270.162V70.4675L271.422 69.7175V72.5975H273.177V73.7975H271.422V77.8175C271.422 78.4775 271.782 78.8075 272.502 78.8075C272.742 78.8075 273.012 78.7625 273.177 78.7025V79.8725C273.057 79.9175 272.577 80.0225 272.097 80.0225Z" fill="#DFE4EC"/>
<path d="M266.706 80.0225C265.476 80.0225 264.681 79.3325 264.681 78.0275V73.7975H263.376V72.5975H264.771V70.4675L266.031 69.7175V72.5975H267.786V73.7975H266.031V77.8175C266.031 78.4775 266.391 78.8075 267.111 78.8075C267.351 78.8075 267.621 78.7625 267.786 78.7025V79.8725C267.666 79.9175 267.186 80.0225 266.706 80.0225Z" fill="#DFE4EC"/>
<path d="M258.779 80.0225C257.159 80.0225 256.004 79.1075 256.004 77.5025C256.004 76.0175 257.309 75.1625 258.779 75.1625C259.589 75.1625 260.354 75.3575 260.819 75.6125V74.8475C260.819 74.1425 260.279 73.5575 259.169 73.5575C258.119 73.5575 257.084 73.9625 256.424 74.3825V73.0175C257.204 72.6275 258.089 72.3575 259.169 72.3575C261.314 72.3575 262.169 73.5875 262.169 74.9975V79.7975H260.864V79.2125C260.429 79.6325 259.694 80.0225 258.779 80.0225ZM259.019 78.8675C259.874 78.8675 260.549 78.4175 260.819 78.1475V76.8275C260.549 76.6175 259.844 76.2875 259.019 76.2875C258.104 76.2875 257.414 76.7225 257.414 77.5025C257.414 78.3425 258.104 78.8675 259.019 78.8675Z" fill="#DFE4EC"/>
<path d="M252.85 79.7975V68.9225H254.2V79.7975H252.85Z" fill="#DFE4EC"/>
<path d="M243.9 82.6325V72.5975H245.25V73.3475C245.775 72.8075 246.48 72.3575 247.605 72.3575C249.72 72.3575 251.055 74.0525 251.055 76.1675C251.055 78.3125 249.72 80.0225 247.605 80.0225C246.48 80.0225 245.775 79.5575 245.25 79.0175V82.6325H243.9ZM247.365 78.7475C248.745 78.7475 249.63 77.7725 249.63 76.1675C249.63 74.5925 248.745 73.6325 247.365 73.6325C246.405 73.6325 245.685 74.2025 245.25 74.8175V77.5475C245.685 78.1625 246.405 78.7475 247.365 78.7475Z" fill="#DFE4EC"/>
<path d="M360.853 61.7975V54.5975H362.173V55.8425C362.548 54.8825 363.433 54.3575 364.378 54.3575C364.603 54.3575 364.768 54.3875 364.873 54.4025V55.9025C364.663 55.8725 364.423 55.8575 364.228 55.8575C363.043 55.8575 362.398 56.6375 362.203 57.3275V61.7975H360.853Z" fill="#DFE4EC"/>
<path d="M355.696 62.0225C353.686 62.0225 351.991 60.7175 351.991 58.1675C351.991 55.8575 353.626 54.3575 355.531 54.3575C357.766 54.3575 359.056 55.9775 359.056 58.2425C359.056 58.4225 359.041 58.6325 359.026 58.7225H353.446C353.506 59.9225 354.481 60.7775 355.696 60.7775C356.866 60.7775 357.736 60.4475 358.711 59.6825V61.0175C358.096 61.4975 357.166 62.0225 355.696 62.0225ZM353.491 57.5525H357.586C357.556 56.4125 356.836 55.6025 355.531 55.6025C354.346 55.6025 353.551 56.5175 353.491 57.5525Z" fill="#DFE4EC"/>
<path d="M346.784 65.0375C345.524 65.0375 344.414 64.5725 343.784 64.1675V62.7575C344.774 63.4475 345.929 63.7775 346.784 63.7775C348.299 63.7775 349.139 63.1175 349.139 61.6175V60.6875C348.659 61.2275 347.834 61.6775 346.709 61.6775C344.819 61.6775 343.334 60.2825 343.334 58.0175C343.334 55.7525 344.819 54.3575 346.709 54.3575C347.834 54.3575 348.659 54.8075 349.139 55.3475V54.5975H350.489V61.6175C350.489 63.4025 349.499 65.0375 346.784 65.0375ZM346.949 60.4025C347.894 60.4025 348.704 59.8325 349.139 59.2175V56.8175C348.734 56.2025 347.909 55.6325 346.949 55.6325C345.809 55.6325 344.759 56.4425 344.759 58.0175C344.759 59.7425 345.809 60.4025 346.949 60.4025Z" fill="#DFE4EC"/>
<path d="M338.485 61.7975V54.5975H339.805V55.8425C340.18 54.8825 341.065 54.3575 342.01 54.3575C342.235 54.3575 342.4 54.3875 342.505 54.4025V55.9025C342.295 55.8725 342.055 55.8575 341.86 55.8575C340.675 55.8575 340.03 56.6375 339.835 57.3275V61.7975H338.485Z" fill="#DFE4EC"/>
<path d="M332.658 62.0225C331.278 62.0225 329.943 61.0925 329.943 59.3375V54.5975H331.293V58.9925C331.293 60.0875 332.073 60.7325 332.973 60.7325C333.738 60.7325 334.338 60.3725 334.803 59.7875V54.5975H336.153V61.7975H334.833V61.1075C334.338 61.6175 333.618 62.0225 332.658 62.0225Z" fill="#DFE4EC"/>
<path d="M324.773 54.3575C326.888 54.3575 328.223 56.0525 328.223 58.1675C328.223 60.3125 326.888 62.0225 324.773 62.0225C323.648 62.0225 322.943 61.5575 322.418 61.0175V61.7975H321.068V50.9225H322.418V55.3475C322.943 54.8075 323.648 54.3575 324.773 54.3575ZM324.533 60.7475C325.913 60.7475 326.798 59.7725 326.798 58.1675C326.798 56.5925 325.913 55.6325 324.533 55.6325C323.573 55.6325 322.853 56.2025 322.418 56.8175V59.5475C322.853 60.1625 323.573 60.7475 324.533 60.7475Z" fill="#DFE4EC"/>
<path d="M308.207 61.7975V54.5975H309.527V55.2875C310.022 54.7775 310.742 54.3575 311.702 54.3575C313.082 54.3575 314.417 55.2875 314.417 57.0425V61.7975H313.067V57.3875C313.067 56.2925 312.287 55.6475 311.387 55.6475C310.622 55.6475 310.022 56.0225 309.557 56.6075V61.7975H308.207Z" fill="#DFE4EC"/>
<path d="M302.709 62.0225C301.089 62.0225 299.934 61.1075 299.934 59.5025C299.934 58.0175 301.239 57.1625 302.709 57.1625C303.519 57.1625 304.284 57.3575 304.749 57.6125V56.8475C304.749 56.1425 304.209 55.5575 303.099 55.5575C302.049 55.5575 301.014 55.9625 300.354 56.3825V55.0175C301.134 54.6275 302.019 54.3575 303.099 54.3575C305.244 54.3575 306.099 55.5875 306.099 56.9975V61.7975H304.794V61.2125C304.359 61.6325 303.624 62.0225 302.709 62.0225ZM302.949 60.8675C303.804 60.8675 304.479 60.4175 304.749 60.1475V58.8275C304.479 58.6175 303.774 58.2875 302.949 58.2875C302.034 58.2875 301.344 58.7225 301.344 59.5025C301.344 60.3425 302.034 60.8675 302.949 60.8675Z" fill="#DFE4EC"/>
<path d="M297.295 52.8425C296.74 52.8425 296.32 52.4075 296.32 51.8525C296.32 51.2825 296.74 50.8475 297.295 50.8475C297.865 50.8475 298.285 51.2825 298.285 51.8525C298.285 52.4075 297.865 52.8425 297.295 52.8425ZM296.635 61.7975V54.5975H297.985V61.7975H296.635Z" fill="#DFE4EC"/>
<path d="M290.951 61.7975V54.5975H292.271V55.8425C292.646 54.8825 293.531 54.3575 294.476 54.3575C294.701 54.3575 294.866 54.3875 294.971 54.4025V55.9025C294.761 55.8725 294.521 55.8575 294.326 55.8575C293.141 55.8575 292.496 56.6375 292.301 57.3275V61.7975H290.951Z" fill="#DFE4EC"/>
<path d="M285.454 62.0225C283.834 62.0225 282.679 61.1075 282.679 59.5025C282.679 58.0175 283.984 57.1625 285.454 57.1625C286.264 57.1625 287.029 57.3575 287.494 57.6125V56.8475C287.494 56.1425 286.954 55.5575 285.844 55.5575C284.794 55.5575 283.759 55.9625 283.099 56.3825V55.0175C283.879 54.6275 284.764 54.3575 285.844 54.3575C287.989 54.3575 288.844 55.5875 288.844 56.9975V61.7975H287.539V61.2125C287.104 61.6325 286.369 62.0225 285.454 62.0225ZM285.694 60.8675C286.549 60.8675 287.224 60.4175 287.494 60.1475V58.8275C287.224 58.6175 286.519 58.2875 285.694 58.2875C284.779 58.2875 284.089 58.7225 284.089 59.5025C284.089 60.3425 284.779 60.8675 285.694 60.8675Z" fill="#DFE4EC"/>
<path d="M280.168 62.0225C278.938 62.0225 278.143 61.3325 278.143 60.0275V55.7975H276.838V54.5975H278.233V52.4675L279.493 51.7175V54.5975H281.248V55.7975H279.493V59.8175C279.493 60.4775 279.853 60.8075 280.573 60.8075C280.813 60.8075 281.083 60.7625 281.248 60.7025V61.8725C281.128 61.9175 280.648 62.0225 280.168 62.0225Z" fill="#DFE4EC"/>
<path d="M272.581 62.0225C270.571 62.0225 268.876 60.7175 268.876 58.1675C268.876 55.8575 270.511 54.3575 272.416 54.3575C274.651 54.3575 275.941 55.9775 275.941 58.2425C275.941 58.4225 275.926 58.6325 275.911 58.7225H270.331C270.391 59.9225 271.366 60.7775 272.581 60.7775C273.751 60.7775 274.621 60.4475 275.596 59.6825V61.0175C274.981 61.4975 274.051 62.0225 272.581 62.0225ZM270.376 57.5525H274.471C274.441 56.4125 273.721 55.6025 272.416 55.6025C271.231 55.6025 270.436 56.5175 270.376 57.5525Z" fill="#DFE4EC"/>
<path d="M263.669 65.0375C262.409 65.0375 261.299 64.5725 260.669 64.1675V62.7575C261.659 63.4475 262.814 63.7775 263.669 63.7775C265.184 63.7775 266.024 63.1175 266.024 61.6175V60.6875C265.544 61.2275 264.719 61.6775 263.594 61.6775C261.704 61.6775 260.219 60.2825 260.219 58.0175C260.219 55.7525 261.704 54.3575 263.594 54.3575C264.719 54.3575 265.544 54.8075 266.024 55.3475V54.5975H267.374V61.6175C267.374 63.4025 266.384 65.0375 263.669 65.0375ZM263.834 60.4025C264.779 60.4025 265.589 59.8325 266.024 59.2175V56.8175C265.619 56.2025 264.794 55.6325 263.834 55.6325C262.694 55.6325 261.644 56.4425 261.644 58.0175C261.644 59.7425 262.694 60.4025 263.834 60.4025Z" fill="#DFE4EC"/>
<path d="M255.662 62.0225C253.652 62.0225 251.957 60.7175 251.957 58.1675C251.957 55.8575 253.592 54.3575 255.497 54.3575C257.732 54.3575 259.022 55.9775 259.022 58.2425C259.022 58.4225 259.007 58.6325 258.992 58.7225H253.412C253.472 59.9225 254.447 60.7775 255.662 60.7775C256.832 60.7775 257.702 60.4475 258.677 59.6825V61.0175C258.062 61.4975 257.132 62.0225 255.662 62.0225ZM253.457 57.5525H257.552C257.522 56.4125 256.802 55.6025 255.497 55.6025C254.312 55.6025 253.517 56.5175 253.457 57.5525Z" fill="#DFE4EC"/>
<path d="M247.665 62.0225L243 51.2975H244.635L247.77 58.7675L250.935 51.2975H252.555L247.815 62.0225H247.665Z" fill="#DFE4EC"/>
<rect x="233" y="42.24" width="162" height="49" stroke="#23324D"/>
<path d="M165 105.24C165 107.449 163.209 109.24 161 109.24C158.791 109.24 157 107.449 157 105.24C157 103.031 158.791 101.24 161 101.24C163.209 101.24 165 103.031 165 105.24Z" fill="#2CC6F1"/>
<path d="M177 105.24C177 107.449 175.209 109.24 173 109.24C170.791 109.24 169 107.449 169 105.24C169 103.031 170.791 101.24 173 101.24C175.209 101.24 177 103.031 177 105.24Z" fill="#2CC6F1"/>
<path d="M189 105.24C189 107.449 187.209 109.24 185 109.24C182.791 109.24 181 107.449 181 105.24C181 103.031 182.791 101.24 185 101.24C187.209 101.24 189 103.031 189 105.24Z" fill="#2CC6F1"/>
<path d="M201 105.24C201 107.449 199.209 109.24 197 109.24C194.791 109.24 193 107.449 193 105.24C193 103.031 194.791 101.24 197 101.24C199.209 101.24 201 103.031 201 105.24Z" fill="#2CC6F1"/>
<path d="M213 105.24C213 107.449 211.209 109.24 209 109.24C206.791 109.24 205 107.449 205 105.24C205 103.031 206.791 101.24 209 101.24C211.209 101.24 213 103.031 213 105.24Z" fill="#2CC6F1"/>
<path d="M225 105.24C225 107.449 223.209 109.24 221 109.24C218.791 109.24 217 107.449 217 105.24C217 103.031 218.791 101.24 221 101.24C223.209 101.24 225 103.031 225 105.24Z" fill="#2CC6F1"/>
<rect x="149" y="91.24" width="84" height="31" stroke="#23324D"/>
<path d="M370.818 110.985C369.918 110.985 368.973 110.715 368.373 110.4V109.095C369.198 109.53 370.053 109.785 370.818 109.785C371.793 109.785 372.333 109.425 372.333 108.75C372.333 108.285 371.988 107.97 371.388 107.835L370.158 107.565C369.003 107.31 368.358 106.59 368.358 105.51C368.358 104.19 369.498 103.32 371.073 103.32C372.063 103.32 372.798 103.56 373.368 103.815V105.135C372.618 104.745 371.778 104.52 371.073 104.52C370.128 104.52 369.708 104.955 369.708 105.51C369.708 105.885 369.978 106.23 370.578 106.365L371.718 106.62C373.023 106.905 373.713 107.655 373.713 108.75C373.713 110.19 372.423 110.985 370.818 110.985Z" fill="#DFE4EC"/>
<path d="M363.651 110.985C361.641 110.985 359.946 109.68 359.946 107.13C359.946 104.82 361.581 103.32 363.486 103.32C365.721 103.32 367.011 104.94 367.011 107.205C367.011 107.385 366.996 107.595 366.981 107.685H361.401C361.461 108.885 362.436 109.74 363.651 109.74C364.821 109.74 365.691 109.41 366.666 108.645V109.98C366.051 110.46 365.121 110.985 363.651 110.985ZM361.446 106.515H365.541C365.511 105.375 364.791 104.565 363.486 104.565C362.301 104.565 361.506 105.48 361.446 106.515Z" fill="#DFE4EC"/>
<path d="M354.952 110.985C352.762 110.985 351.157 109.35 351.157 107.145C351.157 104.955 352.762 103.32 354.952 103.32C357.142 103.32 358.747 104.955 358.747 107.145C358.747 109.35 357.142 110.985 354.952 110.985ZM354.952 109.71C356.182 109.71 357.322 108.825 357.322 107.145C357.322 105.48 356.182 104.595 354.952 104.595C353.722 104.595 352.582 105.48 352.582 107.145C352.582 108.825 353.722 109.71 354.952 109.71Z" fill="#DFE4EC"/>
<path d="M348.796 110.985C347.566 110.985 346.771 110.295 346.771 108.99V104.76H345.466V103.56H346.861V101.43L348.121 100.68V103.56H349.876V104.76H348.121V108.78C348.121 109.44 348.481 109.77 349.201 109.77C349.441 109.77 349.711 109.725 349.876 109.665V110.835C349.756 110.88 349.276 110.985 348.796 110.985Z" fill="#DFE4EC"/>
<path d="M340.869 110.985C339.249 110.985 338.094 110.07 338.094 108.465C338.094 106.98 339.399 106.125 340.869 106.125C341.679 106.125 342.444 106.32 342.909 106.575V105.81C342.909 105.105 342.369 104.52 341.259 104.52C340.209 104.52 339.174 104.925 338.514 105.345V103.98C339.294 103.59 340.179 103.32 341.259 103.32C343.404 103.32 344.259 104.55 344.259 105.96V110.76H342.954V110.175C342.519 110.595 341.784 110.985 340.869 110.985ZM341.109 109.83C341.964 109.83 342.639 109.38 342.909 109.11V107.79C342.639 107.58 341.934 107.25 341.109 107.25C340.194 107.25 339.504 107.685 339.504 108.465C339.504 109.305 340.194 109.83 341.109 109.83Z" fill="#DFE4EC"/>
<path d="M335.584 110.985C334.354 110.985 333.559 110.295 333.559 108.99V104.76H332.254V103.56H333.649V101.43L334.909 100.68V103.56H336.664V104.76H334.909V108.78C334.909 109.44 335.269 109.77 335.989 109.77C336.229 109.77 336.499 109.725 336.664 109.665V110.835C336.544 110.88 336.064 110.985 335.584 110.985Z" fill="#DFE4EC"/>
<path d="M327.559 110.985C325.369 110.985 323.764 109.35 323.764 107.145C323.764 104.955 325.369 103.32 327.559 103.32C329.749 103.32 331.354 104.955 331.354 107.145C331.354 109.35 329.749 110.985 327.559 110.985ZM327.559 109.71C328.789 109.71 329.929 108.825 329.929 107.145C329.929 105.48 328.789 104.595 327.559 104.595C326.329 104.595 325.189 105.48 325.189 107.145C325.189 108.825 326.329 109.71 327.559 109.71Z" fill="#DFE4EC"/>
<path d="M315.414 113.595V103.56H316.764V104.31C317.289 103.77 317.994 103.32 319.119 103.32C321.234 103.32 322.569 105.015 322.569 107.13C322.569 109.275 321.234 110.985 319.119 110.985C317.994 110.985 317.289 110.52 316.764 109.98V113.595H315.414ZM318.879 109.71C320.259 109.71 321.144 108.735 321.144 107.13C321.144 105.555 320.259 104.595 318.879 104.595C317.919 104.595 317.199 105.165 316.764 105.78V108.51C317.199 109.125 317.919 109.71 318.879 109.71Z" fill="#DFE4EC"/>
<path d="M307.275 99.885H308.625V110.76H307.275V109.98C306.75 110.52 306.045 110.985 304.92 110.985C302.805 110.985 301.47 109.275 301.47 107.13C301.47 105.015 302.805 103.32 304.92 103.32C306.045 103.32 306.75 103.77 307.275 104.31V99.885ZM307.275 108.51V105.78C306.84 105.165 306.12 104.595 305.16 104.595C303.78 104.595 302.895 105.555 302.895 107.13C302.895 108.735 303.78 109.71 305.16 109.71C306.12 109.71 306.84 109.125 307.275 108.51Z" fill="#DFE4EC"/>
<path d="M293.603 110.76V103.56H294.923V104.25C295.418 103.74 296.138 103.32 297.098 103.32C298.478 103.32 299.813 104.25 299.813 106.005V110.76H298.463V106.35C298.463 105.255 297.683 104.61 296.783 104.61C296.018 104.61 295.418 104.985 294.953 105.57V110.76H293.603Z" fill="#DFE4EC"/>
<path d="M288.105 110.985C286.485 110.985 285.33 110.07 285.33 108.465C285.33 106.98 286.635 106.125 288.105 106.125C288.915 106.125 289.68 106.32 290.145 106.575V105.81C290.145 105.105 289.605 104.52 288.495 104.52C287.445 104.52 286.41 104.925 285.75 105.345V103.98C286.53 103.59 287.415 103.32 288.495 103.32C290.64 103.32 291.495 104.55 291.495 105.96V110.76H290.19V110.175C289.755 110.595 289.02 110.985 288.105 110.985ZM288.345 109.83C289.2 109.83 289.875 109.38 290.145 109.11V107.79C289.875 107.58 289.17 107.25 288.345 107.25C287.43 107.25 286.74 107.685 286.74 108.465C286.74 109.305 287.43 109.83 288.345 109.83Z" fill="#DFE4EC"/>
<path d="M280.031 110.76H278.306L275.906 107.325L274.826 108.315V110.76H273.476V99.885H274.826V106.59L278.066 103.56H279.971L276.926 106.38L280.031 110.76Z" fill="#DFE4EC"/>
<path d="M267.979 110.985C266.359 110.985 265.204 110.07 265.204 108.465C265.204 106.98 266.509 106.125 267.979 106.125C268.789 106.125 269.554 106.32 270.019 106.575V105.81C270.019 105.105 269.479 104.52 268.369 104.52C267.319 104.52 266.284 104.925 265.624 105.345V103.98C266.404 103.59 267.289 103.32 268.369 103.32C270.514 103.32 271.369 104.55 271.369 105.96V110.76H270.064V110.175C269.629 110.595 268.894 110.985 267.979 110.985ZM268.219 109.83C269.074 109.83 269.749 109.38 270.019 109.11V107.79C269.749 107.58 269.044 107.25 268.219 107.25C267.304 107.25 266.614 107.685 266.614 108.465C266.614 109.305 267.304 109.83 268.219 109.83Z" fill="#DFE4EC"/>
<path d="M260.497 110.985C258.487 110.985 256.792 109.68 256.792 107.13C256.792 104.82 258.427 103.32 260.332 103.32C262.567 103.32 263.857 104.94 263.857 107.205C263.857 107.385 263.842 107.595 263.827 107.685H258.247C258.307 108.885 259.282 109.74 260.497 109.74C261.667 109.74 262.537 109.41 263.512 108.645V109.98C262.897 110.46 261.967 110.985 260.497 110.985ZM258.292 106.515H262.387C262.357 105.375 261.637 104.565 260.332 104.565C259.147 104.565 258.352 105.48 258.292 106.515Z" fill="#DFE4EC"/>
<path d="M254.431 110.985C253.201 110.985 252.406 110.295 252.406 108.99V104.76H251.101V103.56H252.496V101.43L253.756 100.68V103.56H255.511V104.76H253.756V108.78C253.756 109.44 254.116 109.77 254.836 109.77C255.076 109.77 255.346 109.725 255.511 109.665V110.835C255.391 110.88 254.911 110.985 254.431 110.985Z" fill="#DFE4EC"/>
<path d="M247.395 104.895C249.165 105.285 250.125 106.365 250.125 107.91C250.125 109.5 248.895 110.985 246.615 110.985C245.01 110.985 243.855 110.49 243.075 110.07V108.66C243.96 109.17 245.31 109.68 246.615 109.68C248.085 109.68 248.655 108.9 248.655 107.91C248.655 107.16 248.13 106.455 247.065 106.23L245.55 105.9C243.975 105.555 243 104.655 243 103.005C243 101.4 244.32 100.035 246.705 100.035C247.92 100.035 248.805 100.32 249.585 100.65V102.09C248.7 101.64 247.68 101.325 246.705 101.325C245.325 101.325 244.44 101.97 244.44 103.005C244.44 103.83 244.905 104.355 245.805 104.55L247.395 104.895Z" fill="#DFE4EC"/>
<rect x="233" y="91.24" width="162" height="31" stroke="#23324D"/>
<path d="M177 136.24C177 138.449 175.209 140.24 173 140.24C170.791 140.24 169 138.449 169 136.24C169 134.031 170.791 132.24 173 132.24C175.209 132.24 177 134.031 177 136.24Z" fill="#2CC6F1"/>
<path d="M189 136.24C189 138.449 187.209 140.24 185 140.24C182.791 140.24 181 138.449 181 136.24C181 134.031 182.791 132.24 185 132.24C187.209 132.24 189 134.031 189 136.24Z" fill="#2CC6F1"/>
<path d="M201 136.24C201 138.449 199.209 140.24 197 140.24C194.791 140.24 193 138.449 193 136.24C193 134.031 194.791 132.24 197 132.24C199.209 132.24 201 134.031 201 136.24Z" fill="#2CC6F1"/>
<path d="M213 136.24C213 138.449 211.209 140.24 209 140.24C206.791 140.24 205 138.449 205 136.24C205 134.031 206.791 132.24 209 132.24C211.209 132.24 213 134.031 213 136.24Z" fill="#2CC6F1"/>
<path d="M225 136.24C225 138.449 223.209 140.24 221 140.24C218.791 140.24 217 138.449 217 136.24C217 134.031 218.791 132.24 221 132.24C223.209 132.24 225 134.031 225 136.24Z" fill="#2CC6F1"/>
<rect x="149" y="122.24" width="84" height="49" stroke="#23324D"/>
<path d="M321.4 148.345C323.125 150.13 324.295 152.665 324.295 155.515C324.295 158.365 323.125 160.9 321.4 162.685L320.44 161.935C321.955 160.24 322.915 158.05 322.915 155.515C322.915 152.98 321.955 150.805 320.44 149.095L321.4 148.345Z" fill="#DFE4EC"/>
<path d="M312.428 159.595V152.395H313.748V153.085C314.243 152.575 314.963 152.155 315.923 152.155C317.303 152.155 318.638 153.085 318.638 154.84V159.595H317.288V155.185C317.288 154.09 316.508 153.445 315.608 153.445C314.843 153.445 314.243 153.82 313.778 154.405V159.595H312.428Z" fill="#DFE4EC"/>
<path d="M306.93 159.82C305.31 159.82 304.155 158.905 304.155 157.3C304.155 155.815 305.46 154.96 306.93 154.96C307.74 154.96 308.505 155.155 308.97 155.41V154.645C308.97 153.94 308.43 153.355 307.32 153.355C306.27 153.355 305.235 153.76 304.575 154.18V152.815C305.355 152.425 306.24 152.155 307.32 152.155C309.465 152.155 310.32 153.385 310.32 154.795V159.595H309.015V159.01C308.58 159.43 307.845 159.82 306.93 159.82ZM307.17 158.665C308.025 158.665 308.7 158.215 308.97 157.945V156.625C308.7 156.415 307.995 156.085 307.17 156.085C306.255 156.085 305.565 156.52 305.565 157.3C305.565 158.14 306.255 158.665 307.17 158.665Z" fill="#DFE4EC"/>
<path d="M301.516 150.64C300.961 150.64 300.541 150.205 300.541 149.65C300.541 149.08 300.961 148.645 301.516 148.645C302.086 148.645 302.506 149.08 302.506 149.65C302.506 150.205 302.086 150.64 301.516 150.64ZM300.856 159.595V152.395H302.206V159.595H300.856Z" fill="#DFE4EC"/>
<path d="M295.172 159.595V152.395H296.492V153.64C296.867 152.68 297.752 152.155 298.697 152.155C298.922 152.155 299.087 152.185 299.192 152.2V153.7C298.982 153.67 298.742 153.655 298.547 153.655C297.362 153.655 296.717 154.435 296.522 155.125V159.595H295.172Z" fill="#DFE4EC"/>
<path d="M289.675 159.82C288.055 159.82 286.9 158.905 286.9 157.3C286.9 155.815 288.205 154.96 289.675 154.96C290.485 154.96 291.25 155.155 291.715 155.41V154.645C291.715 153.94 291.175 153.355 290.065 153.355C289.015 153.355 287.98 153.76 287.32 154.18V152.815C288.1 152.425 288.985 152.155 290.065 152.155C292.21 152.155 293.065 153.385 293.065 154.795V159.595H291.76V159.01C291.325 159.43 290.59 159.82 289.675 159.82ZM289.915 158.665C290.77 158.665 291.445 158.215 291.715 157.945V156.625C291.445 156.415 290.74 156.085 289.915 156.085C289 156.085 288.31 156.52 288.31 157.3C288.31 158.14 289 158.665 289.915 158.665Z" fill="#DFE4EC"/>
<path d="M284.389 159.82C283.159 159.82 282.364 159.13 282.364 157.825V153.595H281.059V152.395H282.454V150.265L283.714 149.515V152.395H285.469V153.595H283.714V157.615C283.714 158.275 284.074 158.605 284.794 158.605C285.034 158.605 285.304 158.56 285.469 158.5V159.67C285.349 159.715 284.869 159.82 284.389 159.82Z" fill="#DFE4EC"/>
<path d="M276.802 159.82C274.792 159.82 273.097 158.515 273.097 155.965C273.097 153.655 274.732 152.155 276.637 152.155C278.872 152.155 280.162 153.775 280.162 156.04C280.162 156.22 280.147 156.43 280.132 156.52H274.552C274.612 157.72 275.587 158.575 276.802 158.575C277.972 158.575 278.842 158.245 279.817 157.48V158.815C279.202 159.295 278.272 159.82 276.802 159.82ZM274.597 155.35H278.692C278.662 154.21 277.942 153.4 276.637 153.4C275.452 153.4 274.657 154.315 274.597 155.35Z" fill="#DFE4EC"/>
<path d="M267.89 162.835C266.63 162.835 265.52 162.37 264.89 161.965V160.555C265.88 161.245 267.035 161.575 267.89 161.575C269.405 161.575 270.245 160.915 270.245 159.415V158.485C269.765 159.025 268.94 159.475 267.815 159.475C265.925 159.475 264.44 158.08 264.44 155.815C264.44 153.55 265.925 152.155 267.815 152.155C268.94 152.155 269.765 152.605 270.245 153.145V152.395H271.595V159.415C271.595 161.2 270.605 162.835 267.89 162.835ZM268.055 158.2C269 158.2 269.81 157.63 270.245 157.015V154.615C269.84 154 269.015 153.43 268.055 153.43C266.915 153.43 265.865 154.24 265.865 155.815C265.865 157.54 266.915 158.2 268.055 158.2Z" fill="#DFE4EC"/>
<path d="M259.883 159.82C257.873 159.82 256.178 158.515 256.178 155.965C256.178 153.655 257.813 152.155 259.718 152.155C261.953 152.155 263.243 153.775 263.243 156.04C263.243 156.22 263.228 156.43 263.213 156.52H257.633C257.693 157.72 258.668 158.575 259.883 158.575C261.053 158.575 261.923 158.245 262.898 157.48V158.815C262.283 159.295 261.353 159.82 259.883 159.82ZM257.678 155.35H261.773C261.743 154.21 261.023 153.4 259.718 153.4C258.533 153.4 257.738 154.315 257.678 155.35Z" fill="#DFE4EC"/>
<path d="M251.199 159.595L248.199 152.395H249.744L251.919 157.975L254.109 152.395H255.579L252.624 159.595H251.199Z" fill="#DFE4EC"/>
<path d="M246.855 149.095C245.34 150.805 244.38 152.98 244.38 155.515C244.38 158.05 245.34 160.24 246.855 161.935L245.895 162.685C244.17 160.9 243 158.365 243 155.515C243 152.665 244.17 150.13 245.895 148.345L246.855 149.095Z" fill="#DFE4EC"/>
<path d="M327.69 141.82C326.46 141.82 325.665 141.13 325.665 139.825V135.595H324.36V134.395H325.755V132.265L327.015 131.515V134.395H328.77V135.595H327.015V139.615C327.015 140.275 327.375 140.605 328.095 140.605C328.335 140.605 328.605 140.56 328.77 140.5V141.67C328.65 141.715 328.17 141.82 327.69 141.82Z" fill="#DFE4EC"/>
<path d="M320.103 141.82C318.093 141.82 316.398 140.515 316.398 137.965C316.398 135.655 318.033 134.155 319.938 134.155C322.173 134.155 323.463 135.775 323.463 138.04C323.463 138.22 323.448 138.43 323.433 138.52H317.853C317.913 139.72 318.888 140.575 320.103 140.575C321.273 140.575 322.143 140.245 323.118 139.48V140.815C322.503 141.295 321.573 141.82 320.103 141.82ZM317.898 137.35H321.993C321.963 136.21 321.243 135.4 319.938 135.4C318.753 135.4 317.958 136.315 317.898 137.35Z" fill="#DFE4EC"/>
<path d="M312.394 141.595V135.595H311.059V134.395H312.424V133.165C312.424 131.68 313.279 130.69 314.869 130.69C315.259 130.69 315.469 130.735 315.649 130.78V132.085C315.529 132.04 315.274 131.98 314.959 131.98C314.464 131.98 313.744 132.25 313.744 133.24V134.395H315.634V135.595H313.744V141.595H312.394Z" fill="#DFE4EC"/>
<path d="M307.208 141.595V135.595H305.873V134.395H307.238V133.165C307.238 131.68 308.093 130.69 309.683 130.69C310.073 130.69 310.283 130.735 310.463 130.78V132.085C310.343 132.04 310.088 131.98 309.773 131.98C309.278 131.98 308.558 132.25 308.558 133.24V134.395H310.448V135.595H308.558V141.595H307.208Z" fill="#DFE4EC"/>
<path d="M300.947 141.82C299.567 141.82 298.232 140.89 298.232 139.135V134.395H299.582V138.79C299.582 139.885 300.362 140.53 301.262 140.53C302.027 140.53 302.627 140.17 303.092 139.585V134.395H304.442V141.595H303.122V140.905C302.627 141.415 301.907 141.82 300.947 141.82Z" fill="#DFE4EC"/>
<path d="M293.061 134.155C295.176 134.155 296.511 135.85 296.511 137.965C296.511 140.11 295.176 141.82 293.061 141.82C291.936 141.82 291.231 141.355 290.706 140.815V141.595H289.356V130.72H290.706V135.145C291.231 134.605 291.936 134.155 293.061 134.155ZM292.821 140.545C294.201 140.545 295.086 139.57 295.086 137.965C295.086 136.39 294.201 135.43 292.821 135.43C291.861 135.43 291.141 136 290.706 136.615V139.345C291.141 139.96 291.861 140.545 292.821 140.545Z" fill="#DFE4EC"/>
<path d="M276.495 141.595V134.395H277.815V135.085C278.31 134.575 279.03 134.155 279.99 134.155C281.37 134.155 282.705 135.085 282.705 136.84V141.595H281.355V137.185C281.355 136.09 280.575 135.445 279.675 135.445C278.91 135.445 278.31 135.82 277.845 136.405V141.595H276.495Z" fill="#DFE4EC"/>
<path d="M270.998 141.82C269.378 141.82 268.223 140.905 268.223 139.3C268.223 137.815 269.528 136.96 270.998 136.96C271.808 136.96 272.573 137.155 273.038 137.41V136.645C273.038 135.94 272.498 135.355 271.388 135.355C270.338 135.355 269.303 135.76 268.643 136.18V134.815C269.423 134.425 270.308 134.155 271.388 134.155C273.533 134.155 274.388 135.385 274.388 136.795V141.595H273.083V141.01C272.648 141.43 271.913 141.82 270.998 141.82ZM271.238 140.665C272.093 140.665 272.768 140.215 273.038 139.945V138.625C272.768 138.415 272.063 138.085 271.238 138.085C270.323 138.085 269.633 138.52 269.633 139.3C269.633 140.14 270.323 140.665 271.238 140.665Z" fill="#DFE4EC"/>
<path d="M265.583 132.64C265.028 132.64 264.608 132.205 264.608 131.65C264.608 131.08 265.028 130.645 265.583 130.645C266.153 130.645 266.573 131.08 266.573 131.65C266.573 132.205 266.153 132.64 265.583 132.64ZM264.923 141.595V134.395H266.273V141.595H264.923Z" fill="#DFE4EC"/>
<path d="M261.163 130.72H262.513V141.595H261.163V140.815C260.638 141.355 259.933 141.82 258.808 141.82C256.693 141.82 255.358 140.11 255.358 137.965C255.358 135.85 256.693 134.155 258.808 134.155C259.933 134.155 260.638 134.605 261.163 135.145V130.72ZM261.163 139.345V136.615C260.728 136 260.008 135.43 259.048 135.43C257.668 135.43 256.783 136.39 256.783 137.965C256.783 139.57 257.668 140.545 259.048 140.545C260.008 140.545 260.728 139.96 261.163 139.345Z" fill="#DFE4EC"/>
<path d="M247.491 141.595V134.395H248.811V135.085C249.306 134.575 250.026 134.155 250.986 134.155C252.366 134.155 253.701 135.085 253.701 136.84V141.595H252.351V137.185C252.351 136.09 251.571 135.445 250.671 135.445C249.906 135.445 249.306 135.82 248.841 136.405V141.595H247.491Z" fill="#DFE4EC"/>
<path d="M243.525 141.595V131.095H244.935V141.595H243.525Z" fill="#DFE4EC"/>
<rect x="233" y="122.24" width="162" height="49" stroke="#23324D"/>
<path d="M189 185.24C189 187.449 187.209 189.24 185 189.24C182.791 189.24 181 187.449 181 185.24C181 183.031 182.791 181.24 185 181.24C187.209 181.24 189 183.031 189 185.24Z" fill="#2CC6F1"/>
<path d="M201 185.24C201 187.449 199.209 189.24 197 189.24C194.791 189.24 193 187.449 193 185.24C193 183.031 194.791 181.24 197 181.24C199.209 181.24 201 183.031 201 185.24Z" fill="#2CC6F1"/>
<path d="M213 185.24C213 187.449 211.209 189.24 209 189.24C206.791 189.24 205 187.449 205 185.24C205 183.031 206.791 181.24 209 181.24C211.209 181.24 213 183.031 213 185.24Z" fill="#2CC6F1"/>
<path d="M225 185.24C225 187.449 223.209 189.24 221 189.24C218.791 189.24 217 187.449 217 185.24C217 183.031 218.791 181.24 221 181.24C223.209 181.24 225 183.031 225 185.24Z" fill="#2CC6F1"/>
<rect x="149" y="171.24" width="84" height="31" stroke="#23324D"/>
<path d="M354.883 193.61L356.758 189.8L353.578 183.395H355.138L357.463 188.36L359.698 183.395H361.288L356.473 193.61H354.883Z" fill="#DFE4EC"/>
<path d="M348.666 190.595V183.395H349.986V184.64C350.361 183.68 351.246 183.155 352.191 183.155C352.416 183.155 352.581 183.185 352.686 183.2V184.7C352.476 184.67 352.236 184.655 352.041 184.655C350.856 184.655 350.211 185.435 350.016 186.125V190.595H348.666Z" fill="#DFE4EC"/>
<path d="M343.915 190.595V184.595H342.58V183.395H343.945V182.165C343.945 180.68 344.8 179.69 346.39 179.69C346.78 179.69 346.99 179.735 347.17 179.78V181.085C347.05 181.04 346.795 180.98 346.48 180.98C345.985 180.98 345.265 181.25 345.265 182.24V183.395H347.155V184.595H345.265V190.595H343.915Z" fill="#DFE4EC"/>
<path d="M337.389 186.905V185.675H341.604V186.905H337.389Z" fill="#DFE4EC"/>
<path d="M332.245 190.595V183.395H333.565V184.64C333.94 183.68 334.825 183.155 335.77 183.155C335.995 183.155 336.16 183.185 336.265 183.2V184.7C336.055 184.67 335.815 184.655 335.62 184.655C334.435 184.655 333.79 185.435 333.595 186.125V190.595H332.245Z" fill="#DFE4EC"/>
<path d="M329.155 181.64C328.6 181.64 328.18 181.205 328.18 180.65C328.18 180.08 328.6 179.645 329.155 179.645C329.725 179.645 330.145 180.08 330.145 180.65C330.145 181.205 329.725 181.64 329.155 181.64ZM328.495 190.595V183.395H329.845V190.595H328.495Z" fill="#DFE4EC"/>
<path d="M325.519 190.82C324.289 190.82 323.494 190.13 323.494 188.825V184.595H322.189V183.395H323.584V181.265L324.844 180.515V183.395H326.599V184.595H324.844V188.615C324.844 189.275 325.204 189.605 325.924 189.605C326.164 189.605 326.434 189.56 326.599 189.5V190.67C326.479 190.715 325.999 190.82 325.519 190.82Z" fill="#DFE4EC"/>
<path d="M318.317 190.82C317.417 190.82 316.472 190.55 315.872 190.235V188.93C316.697 189.365 317.552 189.62 318.317 189.62C319.292 189.62 319.832 189.26 319.832 188.585C319.832 188.12 319.487 187.805 318.887 187.67L317.657 187.4C316.502 187.145 315.857 186.425 315.857 185.345C315.857 184.025 316.997 183.155 318.572 183.155C319.562 183.155 320.297 183.395 320.867 183.65V184.97C320.117 184.58 319.277 184.355 318.572 184.355C317.627 184.355 317.207 184.79 317.207 185.345C317.207 185.72 317.477 186.065 318.077 186.2L319.217 186.455C320.522 186.74 321.212 187.49 321.212 188.585C321.212 190.025 319.922 190.82 318.317 190.82Z" fill="#DFE4EC"/>
<path d="M306.756 190.82C304.746 190.82 303.051 189.515 303.051 186.965C303.051 184.655 304.686 183.155 306.591 183.155C308.826 183.155 310.116 184.775 310.116 187.04C310.116 187.22 310.101 187.43 310.086 187.52H304.506C304.566 188.72 305.541 189.575 306.756 189.575C307.926 189.575 308.796 189.245 309.771 188.48V189.815C309.156 190.295 308.226 190.82 306.756 190.82ZM304.551 186.35H308.646C308.616 185.21 307.896 184.4 306.591 184.4C305.406 184.4 304.611 185.315 304.551 186.35Z" fill="#DFE4EC"/>
<path d="M299.901 190.595V179.72H301.251V190.595H299.901Z" fill="#DFE4EC"/>
<path d="M294.656 183.155C296.771 183.155 298.106 184.85 298.106 186.965C298.106 189.11 296.771 190.82 294.656 190.82C293.531 190.82 292.826 190.355 292.301 189.815V190.595H290.951V179.72H292.301V184.145C292.826 183.605 293.531 183.155 294.656 183.155ZM294.416 189.545C295.796 189.545 296.681 188.57 296.681 186.965C296.681 185.39 295.796 184.43 294.416 184.43C293.456 184.43 292.736 185 292.301 185.615V188.345C292.736 188.96 293.456 189.545 294.416 189.545Z" fill="#DFE4EC"/>
<path d="M285.454 190.82C283.834 190.82 282.679 189.905 282.679 188.3C282.679 186.815 283.984 185.96 285.454 185.96C286.264 185.96 287.029 186.155 287.494 186.41V185.645C287.494 184.94 286.954 184.355 285.844 184.355C284.794 184.355 283.759 184.76 283.099 185.18V183.815C283.879 183.425 284.764 183.155 285.844 183.155C287.989 183.155 288.844 184.385 288.844 185.795V190.595H287.539V190.01C287.104 190.43 286.369 190.82 285.454 190.82ZM285.694 189.665C286.549 189.665 287.224 189.215 287.494 188.945V187.625C287.224 187.415 286.519 187.085 285.694 187.085C284.779 187.085 284.089 187.52 284.089 188.3C284.089 189.14 284.779 189.665 285.694 189.665Z" fill="#DFE4EC"/>
<path d="M280.168 190.82C278.938 190.82 278.143 190.13 278.143 188.825V184.595H276.838V183.395H278.233V181.265L279.493 180.515V183.395H281.248V184.595H279.493V188.615C279.493 189.275 279.853 189.605 280.573 189.605C280.813 189.605 281.083 189.56 281.248 189.5V190.67C281.128 190.715 280.648 190.82 280.168 190.82Z" fill="#DFE4EC"/>
<path d="M272.581 190.82C270.571 190.82 268.876 189.515 268.876 186.965C268.876 184.655 270.511 183.155 272.416 183.155C274.651 183.155 275.941 184.775 275.941 187.04C275.941 187.22 275.926 187.43 275.911 187.52H270.331C270.391 188.72 271.366 189.575 272.581 189.575C273.751 189.575 274.621 189.245 275.596 188.48V189.815C274.981 190.295 274.051 190.82 272.581 190.82ZM270.376 186.35H274.471C274.441 185.21 273.721 184.4 272.416 184.4C271.231 184.4 270.436 185.315 270.376 186.35Z" fill="#DFE4EC"/>
<path d="M263.669 193.835C262.409 193.835 261.299 193.37 260.669 192.965V191.555C261.659 192.245 262.814 192.575 263.669 192.575C265.184 192.575 266.024 191.915 266.024 190.415V189.485C265.544 190.025 264.719 190.475 263.594 190.475C261.704 190.475 260.219 189.08 260.219 186.815C260.219 184.55 261.704 183.155 263.594 183.155C264.719 183.155 265.544 183.605 266.024 184.145V183.395H267.374V190.415C267.374 192.2 266.384 193.835 263.669 193.835ZM263.834 189.2C264.779 189.2 265.589 188.63 266.024 188.015V185.615C265.619 185 264.794 184.43 263.834 184.43C262.694 184.43 261.644 185.24 261.644 186.815C261.644 188.54 262.694 189.2 263.834 189.2Z" fill="#DFE4EC"/>
<path d="M255.662 190.82C253.652 190.82 251.957 189.515 251.957 186.965C251.957 184.655 253.592 183.155 255.497 183.155C257.732 183.155 259.022 184.775 259.022 187.04C259.022 187.22 259.007 187.43 258.992 187.52H253.412C253.472 188.72 254.447 189.575 255.662 189.575C256.832 189.575 257.702 189.245 258.677 188.48V189.815C258.062 190.295 257.132 190.82 255.662 190.82ZM253.457 186.35H257.552C257.522 185.21 256.802 184.4 255.497 184.4C254.312 184.4 253.517 185.315 253.457 186.35Z" fill="#DFE4EC"/>
<path d="M247.665 190.82L243 180.095H244.635L247.77 187.565L250.935 180.095H252.555L247.815 190.82H247.665Z" fill="#DFE4EC"/>
<rect x="233" y="171.24" width="162" height="31" stroke="#23324D"/>
<path d="M97.0823 147V138.75H98.7023V139.935H98.7323C99.1523 139.26 99.9023 138.51 101.237 138.51C103.037 138.51 104.147 139.8 104.147 141.795V147H102.497V141.93C102.497 140.505 101.762 139.98 100.802 139.98C99.6473 139.98 98.7323 140.79 98.7323 142.35V147H97.0823Z" fill="#98AAC8"/>
<path d="M95.36 145.56H96.05V147H95.12C94.07 147 93.515 146.415 93.47 145.575C93.065 146.73 92.03 147.27 90.815 147.27C89.18 147.27 87.785 146.4 87.785 144.495C87.785 142.68 89.105 141.885 91.07 141.885H91.73C92.96 141.885 93.335 141.555 93.335 141.015C93.335 140.355 92.675 139.935 91.715 139.935C90.59 139.935 89.855 140.49 89.75 141.42H88.1C88.22 139.71 89.315 138.51 91.715 138.51C94.19 138.51 95.03 139.785 95.03 141.525V145.155C95.03 145.425 95.135 145.56 95.36 145.56ZM93.38 143.16V142.215H93.365C93.215 142.92 92.495 143.325 91.34 143.325H91.1C89.9 143.325 89.51 143.85 89.51 144.495C89.51 145.17 89.96 145.83 91.085 145.83C92.375 145.83 93.38 145.02 93.38 143.16Z" fill="#98AAC8"/>
<path d="M84.7034 137.445V135.75H86.3984V137.445H84.7034ZM84.7184 147V138.75H86.3684V147H84.7184Z" fill="#98AAC8"/>
<path d="M78.9183 147V138.75H80.5383V140.025H80.5683C81.0033 139.32 81.7533 138.51 82.9683 138.51H83.6733V139.935H82.7883C81.4383 139.935 80.5683 140.76 80.5683 142.35V147H78.9183Z" fill="#98AAC8"/>
<path d="M77.196 145.56H77.886V147H76.956C75.906 147 75.351 146.415 75.306 145.575C74.901 146.73 73.866 147.27 72.651 147.27C71.016 147.27 69.621 146.4 69.621 144.495C69.621 142.68 70.941 141.885 72.906 141.885H73.566C74.796 141.885 75.171 141.555 75.171 141.015C75.171 140.355 74.511 139.935 73.551 139.935C72.426 139.935 71.691 140.49 71.586 141.42H69.936C70.056 139.71 71.151 138.51 73.551 138.51C76.026 138.51 76.866 139.785 76.866 141.525V145.155C76.866 145.425 76.971 145.56 77.196 145.56ZM75.216 143.16V142.215H75.201C75.051 142.92 74.331 143.325 73.176 143.325H72.936C71.736 143.325 71.346 143.85 71.346 144.495C71.346 145.17 71.796 145.83 72.921 145.83C74.211 145.83 75.216 145.02 75.216 143.16Z" fill="#98AAC8"/>
<path d="M68.9721 140.19H66.7371V144.69C66.7371 145.245 67.0821 145.56 67.5771 145.56H68.9721V147H67.4271C65.8971 147 65.0871 146.34 65.0871 144.795V140.19H63.7371V138.75H65.0871V136.5H66.7371V138.75H68.9721V140.19Z" fill="#98AAC8"/>
<path d="M63.3756 142.125V143.46H57.1506C57.3456 144.93 58.2456 145.815 59.4756 145.815C60.4356 145.815 61.2156 145.275 61.5006 144.465H63.3006C62.9556 146.07 61.4706 147.24 59.4756 147.24C57.0456 147.24 55.4106 145.5 55.4106 142.875C55.4106 140.145 57.0756 138.51 59.4756 138.51C61.7256 138.51 63.3756 140.055 63.3756 142.125ZM59.4756 139.935C58.2306 139.935 57.3756 140.82 57.1656 141.99H61.7106C61.5306 140.775 60.6906 139.935 59.4756 139.935Z" fill="#98AAC8"/>
<path d="M52.3786 145.485C54.0586 145.485 54.8686 146.25 54.8686 147.48C54.8686 148.725 54.0586 149.55 52.3486 149.55H49.5736C48.0736 149.55 47.2786 148.92 47.2786 148.005C47.2786 147.285 47.6686 146.73 48.6286 146.505C47.6536 146.295 47.2036 145.62 47.2036 144.93C47.2036 144.225 47.6986 143.595 48.6736 143.43C48.0586 142.935 47.6986 142.215 47.6986 141.345C47.6986 139.605 49.1686 138.51 51.0436 138.51C51.9586 138.51 52.7686 138.765 53.3686 139.23H53.3836C53.3386 138.9 53.7886 138.54 54.1786 138.54H54.7936V139.95H54.4936C54.3586 139.95 54.1786 139.935 53.9836 139.905C54.2386 140.31 54.3886 140.79 54.3886 141.345C54.3886 143.085 52.9036 144.18 51.0436 144.18H49.3486C48.9136 144.18 48.6586 144.39 48.6586 144.735C48.6586 145.2 49.0936 145.485 49.9186 145.485H52.3786ZM51.0436 139.935C50.1136 139.92 49.4086 140.43 49.4086 141.345C49.4086 142.275 50.1136 142.77 51.0436 142.755C51.9586 142.74 52.6636 142.275 52.6636 141.345C52.6636 140.43 51.9586 139.95 51.0436 139.935ZM49.0636 143.385H49.1686H49.0636ZM52.3786 148.11C52.9036 148.11 53.1436 147.93 53.1436 147.48C53.1436 147.045 52.8886 146.925 52.3486 146.925H49.5736C49.0936 146.925 48.7936 147.105 48.7936 147.48C48.7936 147.945 49.0786 148.11 49.5586 148.11H52.3786Z" fill="#98AAC8"/>
<path d="M46.442 142.125V143.46H40.217C40.412 144.93 41.312 145.815 42.542 145.815C43.502 145.815 44.282 145.275 44.567 144.465H46.367C46.022 146.07 44.537 147.24 42.542 147.24C40.112 147.24 38.477 145.5 38.477 142.875C38.477 140.145 40.142 138.51 42.542 138.51C44.792 138.51 46.442 140.055 46.442 142.125ZM42.542 139.935C41.297 139.935 40.442 140.82 40.232 141.99H44.777C44.597 140.775 43.757 139.935 42.542 139.935Z" fill="#98AAC8"/>
<path d="M36.4482 138.75H38.2932L35.0982 147H33.4032L30.1932 138.75H32.0382L34.2432 145.005L36.4482 138.75Z" fill="#98AAC8"/>
<path d="M102.441 127.595C102.441 127.295 102.441 127.055 102.471 126.725H102.441C101.796 127.73 100.761 128.24 99.6206 128.24C97.5806 128.24 95.8256 126.68 95.8256 123.8C95.8256 121.025 97.5806 119.51 99.6206 119.51C100.821 119.51 101.841 120.035 102.441 121.025H102.471C102.441 120.68 102.441 120.425 102.441 120.11V116H104.091V128H102.441V127.595ZM100.041 126.815C101.556 126.8 102.441 125.465 102.441 123.785C102.441 122.195 101.556 120.95 100.041 120.935C98.5256 120.92 97.5356 122.075 97.5356 123.8C97.5356 125.6 98.5256 126.83 100.041 126.815Z" fill="#98AAC8"/>
<path d="M94.9576 123.125V124.46H88.7326C88.9276 125.93 89.8276 126.815 91.0576 126.815C92.0176 126.815 92.7976 126.275 93.0826 125.465H94.8826C94.5376 127.07 93.0526 128.24 91.0576 128.24C88.6276 128.24 86.9926 126.5 86.9926 123.875C86.9926 121.145 88.6576 119.51 91.0576 119.51C93.3076 119.51 94.9576 121.055 94.9576 123.125ZM91.0576 120.935C89.8126 120.935 88.9576 121.82 88.7476 122.99H93.2926C93.1126 121.775 92.2726 120.935 91.0576 120.935Z" fill="#98AAC8"/>
<path d="M86.477 121.19H84.242V125.69C84.242 126.245 84.587 126.56 85.082 126.56H86.477V128H84.932C83.402 128 82.592 127.34 82.592 125.795V121.19H81.242V119.75H82.592V117.5H84.242V119.75H86.477V121.19Z" fill="#98AAC8"/>
<path d="M73.2493 128V119.75H74.8693V120.935H74.8993C75.3193 120.26 76.0693 119.51 77.4043 119.51C79.2043 119.51 80.3143 120.8 80.3143 122.795V128H78.6643V122.93C78.6643 121.505 77.9293 120.98 76.9693 120.98C75.8143 120.98 74.8993 121.79 74.8993 123.35V128H73.2493Z" fill="#98AAC8"/>
<path d="M71.527 126.56H72.217V128H71.287C70.237 128 69.682 127.415 69.637 126.575C69.232 127.73 68.197 128.27 66.982 128.27C65.347 128.27 63.952 127.4 63.952 125.495C63.952 123.68 65.272 122.885 67.237 122.885H67.897C69.127 122.885 69.502 122.555 69.502 122.015C69.502 121.355 68.842 120.935 67.882 120.935C66.757 120.935 66.022 121.49 65.917 122.42H64.267C64.387 120.71 65.482 119.51 67.882 119.51C70.357 119.51 71.197 120.785 71.197 122.525V126.155C71.197 126.425 71.302 126.56 71.527 126.56ZM69.547 124.16V123.215H69.532C69.382 123.92 68.662 124.325 67.507 124.325H67.267C66.067 124.325 65.677 124.85 65.677 125.495C65.677 126.17 66.127 126.83 67.252 126.83C68.542 126.83 69.547 126.02 69.547 124.16Z" fill="#98AAC8"/>
<path d="M62.4069 119.75H64.0419L61.8669 128H60.0069L58.5369 121.895L57.0969 128H55.2219L53.0319 119.75H54.7419L56.1519 125.915L57.5319 119.75H59.6169L60.9969 125.915L62.4069 119.75Z" fill="#98AAC8"/>
<path d="M48.4635 123.125V124.46H42.2385C42.4335 125.93 43.3335 126.815 44.5635 126.815C45.5235 126.815 46.3035 126.275 46.5885 125.465H48.3885C48.0435 127.07 46.5585 128.24 44.5635 128.24C42.1335 128.24 40.4985 126.5 40.4985 123.875C40.4985 121.145 42.1635 119.51 44.5635 119.51C46.8135 119.51 48.4635 121.055 48.4635 123.125ZM44.5635 120.935C43.3185 120.935 42.4635 121.82 42.2535 122.99H46.7985C46.6185 121.775 45.7785 120.935 44.5635 120.935Z" fill="#98AAC8"/>
<path d="M37.4925 128V116H39.1425V128H37.4925Z" fill="#98AAC8"/>
<path d="M29.5331 120.155C29.5331 120.455 29.5331 120.695 29.5031 121.025H29.5331C30.1781 120.02 31.1981 119.51 32.3531 119.51C34.3781 119.51 36.1481 121.025 36.1481 123.83C36.1481 126.695 34.3781 128.24 32.3531 128.24C31.1531 128.24 30.1331 127.715 29.5331 126.725H29.5031C29.5331 127.07 29.5331 127.325 29.5331 127.64V130.55H27.8831V119.75H29.5331V120.155ZM31.9331 126.815C33.4331 126.83 34.4231 125.615 34.4231 123.83C34.4231 122.09 33.4331 120.92 31.9331 120.935C30.4031 120.95 29.5181 122.225 29.5181 123.815C29.5181 125.495 30.4031 126.8 31.9331 126.815Z" fill="#98AAC8"/>
<path d="M22.3729 128.24C20.0629 128.24 18.2328 126.665 18.2328 123.875C18.2328 121.07 20.0629 119.51 22.3729 119.51C24.6829 119.51 26.5128 121.07 26.5128 123.875C26.5128 126.665 24.6829 128.24 22.3729 128.24ZM22.3729 126.815C23.7229 126.8 24.8029 125.87 24.8029 123.875C24.8029 121.865 23.7229 120.95 22.3729 120.935C21.0229 120.92 19.9429 121.865 19.9429 123.875C19.9429 125.87 21.0229 126.83 22.3729 126.815Z" fill="#98AAC8"/>
<path d="M17.3648 123.125V124.46H11.1398C11.3348 125.93 12.2348 126.815 13.4648 126.815C14.4248 126.815 15.2048 126.275 15.4898 125.465H17.2898C16.9448 127.07 15.4598 128.24 13.4648 128.24C11.0348 128.24 9.39984 126.5 9.39984 123.875C9.39984 121.145 11.0648 119.51 13.4648 119.51C15.7148 119.51 17.3648 121.055 17.3648 123.125ZM13.4648 120.935C12.2198 120.935 11.3648 121.82 11.1548 122.99H15.6998C15.5198 121.775 14.6798 120.935 13.4648 120.935Z" fill="#98AAC8"/>
<path d="M1.93547 120.155C1.93547 120.455 1.93547 120.695 1.90547 121.025H1.93547C2.58047 120.02 3.60047 119.51 4.75547 119.51C6.78047 119.51 8.55047 121.025 8.55047 123.83C8.55047 126.695 6.78047 128.24 4.75547 128.24C3.55547 128.24 2.53547 127.715 1.93547 126.725H1.90547C1.93547 127.07 1.93547 127.325 1.93547 127.64V130.55H0.285469V119.75H1.93547V120.155ZM4.33547 126.815C5.83547 126.83 6.82547 125.615 6.82547 123.83C6.82547 122.09 5.83547 120.92 4.33547 120.935C2.80547 120.95 1.92047 122.225 1.92047 123.815C1.92047 125.495 2.80547 126.8 4.33547 126.815Z" fill="#98AAC8"/>
<path d="M102.477 103.405C103.737 103.795 104.472 104.665 104.472 105.97C104.472 108.055 102.777 109.24 100.632 109.24C98.4867 109.24 96.7917 108.055 96.7917 105.97C96.7917 104.665 97.5267 103.795 98.7867 103.405C97.7067 103.045 97.1667 102.31 97.1667 101.185C97.1667 99.325 98.6967 98.26 100.632 98.26C102.567 98.26 104.097 99.325 104.097 101.185C104.097 102.31 103.557 103.045 102.477 103.405ZM100.632 99.685C99.6567 99.685 98.8767 100.21 98.8767 101.185C98.8767 102.175 99.6567 102.685 100.632 102.685C101.607 102.685 102.387 102.175 102.387 101.185C102.387 100.21 101.607 99.685 100.632 99.685ZM100.632 107.815C101.817 107.815 102.762 107.185 102.762 105.97C102.762 104.755 101.817 104.125 100.632 104.125C99.4467 104.125 98.5017 104.755 98.5017 105.97C98.5017 107.185 99.4467 107.815 100.632 107.815Z" fill="#98AAC8"/>
<path d="M95.4326 98.5V109H93.7826V101.35H93.7676C93.8126 101.785 93.0026 102.04 92.3576 102.04H91.4426V100.555H92.3576C93.1976 100.555 93.7826 100.165 93.7826 99.205V98.5H95.4326Z" fill="#98AAC8"/>
<path d="M85.9082 98.725C85.4882 98.725 85.1882 99.115 85.1882 99.76V100.75H86.7932V102.19H85.1882V109H83.5382V102.19H82.5932V100.75H83.5382V99.79C83.5382 98.29 84.4232 97.285 85.9382 97.285H87.3932V98.725H85.9082Z" fill="#98AAC8"/>
<path d="M77.9051 109.24C75.5951 109.24 73.7651 107.665 73.7651 104.875C73.7651 102.07 75.5951 100.51 77.9051 100.51C80.2151 100.51 82.0451 102.07 82.0451 104.875C82.0451 107.665 80.2151 109.24 77.9051 109.24ZM77.9051 107.815C79.2551 107.8 80.3351 106.87 80.3351 104.875C80.3351 102.865 79.2551 101.95 77.9051 101.935C76.5551 101.92 75.4751 102.865 75.4751 104.875C75.4751 106.87 76.5551 107.83 77.9051 107.815Z" fill="#98AAC8"/>
<path d="M69.4262 102.19H67.1912V106.69C67.1912 107.245 67.5362 107.56 68.0312 107.56H69.4262V109H67.8812C66.3512 109 65.5412 108.34 65.5412 106.795V102.19H64.1912V100.75H65.5412V98.5H67.1912V100.75H69.4262V102.19Z" fill="#98AAC8"/>
<path d="M59.12 109.24C57.365 109.24 56.3 107.95 56.3 105.955V100.75H57.95V105.82C57.95 107.245 58.655 107.77 59.555 107.77C60.665 107.77 61.55 106.96 61.55 105.4V100.75H63.2V109H61.58V107.815H61.55C61.145 108.49 60.41 109.24 59.12 109.24Z" fill="#98AAC8"/>
<path d="M50.8348 109.24C48.5248 109.24 46.6948 107.665 46.6948 104.875C46.6948 102.07 48.5248 100.51 50.8348 100.51C53.1448 100.51 54.9748 102.07 54.9748 104.875C54.9748 107.665 53.1448 109.24 50.8348 109.24ZM50.8348 107.815C52.1848 107.8 53.2648 106.87 53.2648 104.875C53.2648 102.865 52.1848 101.95 50.8348 101.935C49.4848 101.92 48.4048 102.865 48.4048 104.875C48.4048 106.87 49.4848 107.83 50.8348 107.815Z" fill="#98AAC8"/>
<path d="M36.6292 107.575H42.2842V109H34.6642V108.67C34.6642 106.705 35.7292 105.355 37.6942 104.305C40.0792 103.03 40.3042 102.325 40.3042 101.59C40.3042 100.225 39.5242 99.685 38.4142 99.685C37.2592 99.685 36.4042 100.36 36.4042 101.695H34.7692C34.7692 99.52 36.3142 98.26 38.4142 98.26C40.5742 98.26 42.0292 99.46 42.0292 101.59C42.0292 103.075 41.2342 104.11 39.1192 105.19C37.6492 105.85 36.8542 106.66 36.6292 107.575Z" fill="#98AAC8"/>
<path d="M33.455 98.5V109H31.805V101.35H31.79C31.835 101.785 31.025 102.04 30.38 102.04H29.465V100.555H30.38C31.22 100.555 31.805 100.165 31.805 99.205V98.5H33.455Z" fill="#98AAC8"/>
<path d="M471.299 147V138.75H472.919V139.935H472.949C473.369 139.26 474.119 138.51 475.454 138.51C477.254 138.51 478.364 139.8 478.364 141.795V147H476.714V141.93C476.714 140.505 475.979 139.98 475.019 139.98C473.864 139.98 472.949 140.79 472.949 142.35V147H471.299Z" fill="#98AAC8"/>
<path d="M467.782 137.445V135.75H469.477V137.445H467.782ZM467.797 147V138.75H469.447V147H467.797Z" fill="#98AAC8"/>
<path d="M465.056 138.75H466.691L464.516 147H462.656L461.186 140.895L459.746 147H457.871L455.681 138.75H457.391L458.801 144.915L460.181 138.75H462.266L463.646 144.915L465.056 138.75Z" fill="#98AAC8"/>
<path d="M446.966 147.24C444.656 147.24 442.826 145.665 442.826 142.875C442.826 140.07 444.656 138.51 446.966 138.51C449.276 138.51 451.106 140.07 451.106 142.875C451.106 145.665 449.276 147.24 446.966 147.24ZM446.966 145.815C448.316 145.8 449.396 144.87 449.396 142.875C449.396 140.865 448.316 139.95 446.966 139.935C445.616 139.92 444.536 140.865 444.536 142.875C444.536 144.87 445.616 145.83 446.966 145.815Z" fill="#98AAC8"/>
<path d="M442.31 140.19H440.075V144.69C440.075 145.245 440.42 145.56 440.915 145.56H442.31V147H440.765C439.235 147 438.425 146.34 438.425 144.795V140.19H437.075V138.75H438.425V136.5H440.075V138.75H442.31V140.19Z" fill="#98AAC8"/>
<path d="M530.083 121.19H527.848V125.69C527.848 126.245 528.193 126.56 528.688 126.56H530.083V128H528.538C527.008 128 526.198 127.34 526.198 125.795V121.19H524.848V119.75H526.198V117.5H527.848V119.75H530.083V121.19Z" fill="#98AAC8"/>
<path d="M523.981 126.56H524.671V128H523.741C522.691 128 522.136 127.415 522.091 126.575C521.686 127.73 520.651 128.27 519.436 128.27C517.801 128.27 516.406 127.4 516.406 125.495C516.406 123.68 517.726 122.885 519.691 122.885H520.351C521.581 122.885 521.956 122.555 521.956 122.015C521.956 121.355 521.296 120.935 520.336 120.935C519.211 120.935 518.476 121.49 518.371 122.42H516.721C516.841 120.71 517.936 119.51 520.336 119.51C522.811 119.51 523.651 120.785 523.651 122.525V126.155C523.651 126.425 523.756 126.56 523.981 126.56ZM522.001 124.16V123.215H521.986C521.836 123.92 521.116 124.325 519.961 124.325H519.721C518.521 124.325 518.131 124.85 518.131 125.495C518.131 126.17 518.581 126.83 519.706 126.83C520.996 126.83 522.001 126.02 522.001 124.16Z" fill="#98AAC8"/>
<path d="M515.478 123.125V124.46H509.253C509.448 125.93 510.348 126.815 511.578 126.815C512.538 126.815 513.318 126.275 513.603 125.465H515.403C515.058 127.07 513.573 128.24 511.578 128.24C509.148 128.24 507.513 126.5 507.513 123.875C507.513 121.145 509.178 119.51 511.578 119.51C513.828 119.51 515.478 121.055 515.478 123.125ZM511.578 120.935C510.333 120.935 509.478 121.82 509.268 122.99H513.813C513.633 121.775 512.793 120.935 511.578 120.935Z" fill="#98AAC8"/>
<path d="M503.476 119.51C505.156 119.51 506.221 120.8 506.221 122.795V128H504.571V122.93C504.571 121.565 503.956 120.98 503.071 120.98C502.021 120.98 501.106 121.775 501.106 123.335V128H499.456V122.93C499.456 121.565 498.826 120.98 497.941 120.98C496.891 120.98 496.006 121.79 496.006 123.35V128H494.356V119.75H495.976V120.98H496.006C496.396 120.305 497.116 119.51 498.361 119.51C499.606 119.51 500.521 120.17 500.911 121.37L500.866 120.995H500.911C501.421 120.155 502.186 119.51 503.476 119.51Z" fill="#98AAC8"/>
<path d="M487.116 127.595C487.116 127.295 487.116 127.055 487.146 126.725H487.116C486.471 127.73 485.436 128.24 484.296 128.24C482.256 128.24 480.501 126.68 480.501 123.8C480.501 121.025 482.256 119.51 484.296 119.51C485.496 119.51 486.516 120.035 487.116 121.025H487.146C487.116 120.68 487.116 120.425 487.116 120.11V116H488.766V128H487.116V127.595ZM484.716 126.815C486.231 126.8 487.116 125.465 487.116 123.785C487.116 122.195 486.231 120.95 484.716 120.935C483.201 120.92 482.211 122.075 482.211 123.8C482.211 125.6 483.201 126.83 484.716 126.815Z" fill="#98AAC8"/>
<path d="M479.633 123.125V124.46H473.408C473.603 125.93 474.503 126.815 475.733 126.815C476.693 126.815 477.473 126.275 477.758 125.465H479.558C479.213 127.07 477.728 128.24 475.733 128.24C473.303 128.24 471.668 126.5 471.668 123.875C471.668 121.145 473.333 119.51 475.733 119.51C477.983 119.51 479.633 121.055 479.633 123.125ZM475.733 120.935C474.488 120.935 473.633 121.82 473.423 122.99H477.968C477.788 121.775 476.948 120.935 475.733 120.935Z" fill="#98AAC8"/>
<path d="M467.253 128.24C465.333 128.24 463.923 126.98 463.818 125.27H465.543C465.633 126.17 466.293 126.815 467.253 126.815C468.333 126.815 469.053 126.275 469.053 125.57C469.053 124.775 468.618 124.445 467.193 124.445H466.743C465.198 124.445 463.968 123.59 463.968 122.105C463.968 120.83 465.078 119.51 467.313 119.51C469.263 119.51 470.493 120.755 470.613 122.42H468.888C468.813 121.475 468.258 120.935 467.313 120.935C466.248 120.935 465.678 121.43 465.678 122.105C465.678 122.75 465.963 122.99 467.388 123.005H467.703C469.563 123.005 470.763 124.04 470.763 125.57C470.763 126.905 469.563 128.24 467.253 128.24Z" fill="#98AAC8"/>
<path d="M458.356 128.24C456.601 128.24 455.536 126.95 455.536 124.955V119.75H457.186V124.82C457.186 126.245 457.891 126.77 458.791 126.77C459.901 126.77 460.786 125.96 460.786 124.4V119.75H462.436V128H460.816V126.815H460.786C460.381 127.49 459.646 128.24 458.356 128.24Z" fill="#98AAC8"/>
<path d="M453.859 126.56H454.549V128H453.619C452.569 128 452.014 127.415 451.969 126.575C451.564 127.73 450.529 128.27 449.314 128.27C447.679 128.27 446.284 127.4 446.284 125.495C446.284 123.68 447.604 122.885 449.569 122.885H450.229C451.459 122.885 451.834 122.555 451.834 122.015C451.834 121.355 451.174 120.935 450.214 120.935C449.089 120.935 448.354 121.49 448.249 122.42H446.599C446.719 120.71 447.814 119.51 450.214 119.51C452.689 119.51 453.529 120.785 453.529 122.525V126.155C453.529 126.425 453.634 126.56 453.859 126.56ZM451.879 124.16V123.215H451.864C451.714 123.92 450.994 124.325 449.839 124.325H449.599C448.399 124.325 448.009 124.85 448.009 125.495C448.009 126.17 448.459 126.83 449.584 126.83C450.874 126.83 451.879 126.02 451.879 124.16Z" fill="#98AAC8"/>
<path d="M441.575 128.24C439.1 128.24 437.435 126.5 437.435 123.86C437.435 121.295 438.98 119.51 441.575 119.51C443.945 119.51 445.25 121.04 445.43 122.9H443.72C443.645 121.85 442.895 120.935 441.575 120.935C440.075 120.935 439.145 122.15 439.145 123.86C439.145 125.675 440.21 126.815 441.575 126.815C442.88 126.815 443.6 125.825 443.72 125.015H445.43C445.205 126.71 443.87 128.24 441.575 128.24Z" fill="#98AAC8"/>
<path d="M555.37 107.485C557.05 107.485 557.86 108.25 557.86 109.48C557.86 110.725 557.05 111.55 555.34 111.55H552.565C551.065 111.55 550.27 110.92 550.27 110.005C550.27 109.285 550.66 108.73 551.62 108.505C550.645 108.295 550.195 107.62 550.195 106.93C550.195 106.225 550.69 105.595 551.665 105.43C551.05 104.935 550.69 104.215 550.69 103.345C550.69 101.605 552.16 100.51 554.035 100.51C554.95 100.51 555.76 100.765 556.36 101.23H556.375C556.33 100.9 556.78 100.54 557.17 100.54H557.785V101.95H557.485C557.35 101.95 557.17 101.935 556.975 101.905C557.23 102.31 557.38 102.79 557.38 103.345C557.38 105.085 555.895 106.18 554.035 106.18H552.34C551.905 106.18 551.65 106.39 551.65 106.735C551.65 107.2 552.085 107.485 552.91 107.485H555.37ZM554.035 101.935C553.105 101.92 552.4 102.43 552.4 103.345C552.4 104.275 553.105 104.77 554.035 104.755C554.95 104.74 555.655 104.275 555.655 103.345C555.655 102.43 554.95 101.95 554.035 101.935ZM552.055 105.385H552.16H552.055ZM555.37 110.11C555.895 110.11 556.135 109.93 556.135 109.48C556.135 109.045 555.88 108.925 555.34 108.925H552.565C552.085 108.925 551.785 109.105 551.785 109.48C551.785 109.945 552.07 110.11 552.55 110.11H555.37Z" fill="#98AAC8"/>
<path d="M542.007 109V100.75H543.627V101.935H543.657C544.077 101.26 544.827 100.51 546.162 100.51C547.962 100.51 549.072 101.8 549.072 103.795V109H547.422V103.93C547.422 102.505 546.687 101.98 545.727 101.98C544.572 101.98 543.657 102.79 543.657 104.35V109H542.007Z" fill="#98AAC8"/>
<path d="M538.49 99.445V97.75H540.185V99.445H538.49ZM538.505 109V100.75H540.155V109H538.505Z" fill="#98AAC8"/>
<path d="M537.452 102.19H535.217V106.69C535.217 107.245 535.562 107.56 536.057 107.56H537.452V109H535.907C534.377 109 533.567 108.34 533.567 106.795V102.19H532.217V100.75H533.567V98.5H535.217V100.75H537.452V102.19Z" fill="#98AAC8"/>
<path d="M531.988 102.19H529.753V106.69C529.753 107.245 530.098 107.56 530.593 107.56H531.988V109H530.443C528.913 109 528.103 108.34 528.103 106.795V102.19H526.753V100.75H528.103V98.5H529.753V100.75H531.988V102.19Z" fill="#98AAC8"/>
<path d="M524.091 99.445V97.75H525.786V99.445H524.091ZM524.106 109V100.75H525.756V109H524.106Z" fill="#98AAC8"/>
<path d="M520.635 109V97H522.285V109H520.635Z" fill="#98AAC8"/>
<path d="M512.676 101.155C512.676 101.455 512.676 101.695 512.646 102.025H512.676C513.321 101.02 514.341 100.51 515.496 100.51C517.521 100.51 519.291 102.025 519.291 104.83C519.291 107.695 517.521 109.24 515.496 109.24C514.296 109.24 513.276 108.715 512.676 107.725H512.646C512.676 108.07 512.676 108.325 512.676 108.64V111.55H511.026V100.75H512.676V101.155ZM515.076 107.815C516.576 107.83 517.566 106.615 517.566 104.83C517.566 103.09 516.576 101.92 515.076 101.935C513.546 101.95 512.661 103.225 512.661 104.815C512.661 106.495 513.546 107.8 515.076 107.815Z" fill="#98AAC8"/>
<path d="M506.115 109.24C504.195 109.24 502.785 107.98 502.68 106.27H504.405C504.495 107.17 505.155 107.815 506.115 107.815C507.195 107.815 507.915 107.275 507.915 106.57C507.915 105.775 507.48 105.445 506.055 105.445H505.605C504.06 105.445 502.83 104.59 502.83 103.105C502.83 101.83 503.94 100.51 506.175 100.51C508.125 100.51 509.355 101.755 509.475 103.42H507.75C507.675 102.475 507.12 101.935 506.175 101.935C505.11 101.935 504.54 102.43 504.54 103.105C504.54 103.75 504.825 103.99 506.25 104.005H506.565C508.425 104.005 509.625 105.04 509.625 106.57C509.625 107.905 508.425 109.24 506.115 109.24Z" fill="#98AAC8"/>
<path d="M496.666 105.505V104.065H501.466V105.505H496.666Z" fill="#98AAC8"/>
<path d="M495.483 104.125V105.46H489.258C489.453 106.93 490.353 107.815 491.583 107.815C492.543 107.815 493.323 107.275 493.608 106.465H495.408C495.063 108.07 493.578 109.24 491.583 109.24C489.153 109.24 487.518 107.5 487.518 104.875C487.518 102.145 489.183 100.51 491.583 100.51C493.833 100.51 495.483 102.055 495.483 104.125ZM491.583 101.935C490.338 101.935 489.483 102.82 489.273 103.99H493.818C493.638 102.775 492.798 101.935 491.583 101.935Z" fill="#98AAC8"/>
<path d="M487.002 102.19H484.767V106.69C484.767 107.245 485.112 107.56 485.607 107.56H487.002V109H485.457C483.927 109 483.117 108.34 483.117 106.795V102.19H481.767V100.75H483.117V98.5H484.767V100.75H487.002V102.19Z" fill="#98AAC8"/>
<path d="M477.259 109.24C474.949 109.24 473.119 107.665 473.119 104.875C473.119 102.07 474.949 100.51 477.259 100.51C479.569 100.51 481.399 102.07 481.399 104.875C481.399 107.665 479.569 109.24 477.259 109.24ZM477.259 107.815C478.609 107.8 479.689 106.87 479.689 104.875C479.689 102.865 478.609 101.95 477.259 101.935C475.909 101.92 474.829 102.865 474.829 104.875C474.829 106.87 475.909 107.83 477.259 107.815Z" fill="#98AAC8"/>
<path d="M471.09 100.75H472.935L469.74 109H468.045L464.835 100.75H466.68L468.885 107.005L471.09 100.75Z" fill="#98AAC8"/>
<path d="M460.621 102.19H458.386V106.69C458.386 107.245 458.731 107.56 459.226 107.56H460.621V109H459.076C457.546 109 456.736 108.34 456.736 106.795V102.19H455.386V100.75H456.736V98.5H458.386V100.75H460.621V102.19Z" fill="#98AAC8"/>
<path d="M450.314 109.24C448.559 109.24 447.494 107.95 447.494 105.955V100.75H449.144V105.82C449.144 107.245 449.849 107.77 450.749 107.77C451.859 107.77 452.744 106.96 452.744 105.4V100.75H454.394V109H452.774V107.815H452.744C452.339 108.49 451.604 109.24 450.314 109.24Z" fill="#98AAC8"/>
<path d="M439.58 101.155C439.58 101.455 439.58 101.695 439.55 102.025H439.58C440.225 101.02 441.245 100.51 442.4 100.51C444.425 100.51 446.195 102.025 446.195 104.83C446.195 107.695 444.425 109.24 442.4 109.24C441.2 109.24 440.18 108.715 439.58 107.725H439.55C439.58 108.07 439.58 108.325 439.58 108.64V109H437.93V97H439.58V101.155ZM441.98 107.815C443.48 107.83 444.47 106.615 444.47 104.83C444.47 103.09 443.48 101.92 441.98 101.935C440.45 101.95 439.565 103.225 439.565 104.815C439.565 106.495 440.45 107.8 441.98 107.815Z" fill="#98AAC8"/>
<path fill-rule="evenodd" clip-rule="evenodd" d="M142.172 58.4645L145.354 61.6465C145.549 61.8417 145.549 62.1583 145.354 62.3536L142.172 65.5355C141.976 65.7308 141.66 65.7308 141.464 65.5355C141.269 65.3403 141.269 65.0237 141.464 64.8284L143.793 62.5H122C121.724 62.5 121.5 62.7239 121.5 63V189C121.5 189.276 121.724 189.5 122 189.5H143.793L141.464 187.172C141.269 186.976 141.269 186.66 141.464 186.464C141.66 186.269 141.976 186.269 142.172 186.464L145.354 189.646C145.549 189.842 145.549 190.158 145.354 190.354L142.172 193.536C141.976 193.731 141.66 193.731 141.464 193.536C141.269 193.34 141.269 193.024 141.464 192.828L143.793 190.5H122C121.172 190.5 120.5 189.828 120.5 189V63C120.5 62.1716 121.172 61.5 122 61.5H143.793L141.464 59.1716C141.269 58.9763 141.269 58.6597 141.464 58.4645C141.66 58.2692 141.976 58.2692 142.172 58.4645Z" fill="#98AAC8"/>
<path fill-rule="evenodd" clip-rule="evenodd" d="M142.172 138.464L145.354 141.646C145.549 141.842 145.549 142.158 145.354 142.354L142.172 145.536C141.976 145.731 141.66 145.731 141.464 145.536C141.269 145.34 141.269 145.024 141.464 144.828L143.793 142.5H121V141.5H143.793L141.464 139.172C141.269 138.976 141.269 138.66 141.464 138.464C141.66 138.269 141.976 138.269 142.172 138.464Z" fill="#98AAC8"/>
<path fill-rule="evenodd" clip-rule="evenodd" d="M401.828 116.536L398.646 113.354C398.451 113.158 398.451 112.842 398.646 112.646L401.828 109.464C402.024 109.269 402.34 109.269 402.536 109.464C402.731 109.66 402.731 109.976 402.536 110.172L400.207 112.5L425 112.5L425 113.5L400.207 113.5L402.536 115.828C402.731 116.024 402.731 116.34 402.536 116.536C402.34 116.731 402.024 116.731 401.828 116.536Z" fill="#98AAC8"/>
</g>
<defs>
<clipPath id="clip0_193_724">
<rect width="558" height="219" fill="white"/>
</clipPath>
</defs>
</svg>
