<svg width="597" height="493" viewBox="0 0 597 493" fill="none" xmlns="http://www.w3.org/2000/svg">
<path d="M405.205 486.46C405.205 486.06 405.205 485.74 405.245 485.3H405.205C404.345 486.64 402.965 487.32 401.445 487.32C398.725 487.32 396.385 485.24 396.385 481.4C396.385 477.7 398.725 475.68 401.445 475.68C403.045 475.68 404.405 476.38 405.205 477.7H405.245C405.205 477.24 405.205 476.9 405.205 476.48V471H407.405V487H405.205V486.46ZM402.005 485.42C404.025 485.4 405.205 483.62 405.205 481.38C405.205 479.26 404.025 477.6 402.005 477.58C399.985 477.56 398.665 479.1 398.665 481.4C398.665 483.8 399.985 485.44 402.005 485.42Z" fill="white"/>
<path d="M395.227 480.5V482.28H386.927C387.187 484.24 388.387 485.42 390.027 485.42C391.307 485.42 392.347 484.7 392.727 483.62H395.127C394.667 485.76 392.687 487.32 390.027 487.32C386.787 487.32 384.607 485 384.607 481.5C384.607 477.86 386.827 475.68 390.027 475.68C393.027 475.68 395.227 477.74 395.227 480.5ZM390.027 477.58C388.367 477.58 387.227 478.76 386.947 480.32H393.007C392.767 478.7 391.647 477.58 390.027 477.58Z" fill="white"/>
<path d="M378.408 487.32C375.108 487.32 372.888 485 372.888 481.48C372.888 478.06 374.948 475.68 378.408 475.68C381.568 475.68 383.308 477.72 383.548 480.2H381.268C381.168 478.8 380.168 477.58 378.408 477.58C376.408 477.58 375.168 479.2 375.168 481.48C375.168 483.9 376.588 485.42 378.408 485.42C380.148 485.42 381.108 484.1 381.268 483.02H383.548C383.248 485.28 381.468 487.32 378.408 487.32Z" fill="white"/>
<path d="M365.647 487.32C363.307 487.32 361.887 485.6 361.887 482.94V476H364.087V482.76C364.087 484.66 365.027 485.36 366.227 485.36C367.707 485.36 368.887 484.28 368.887 482.2V476H371.087V487H368.927V485.42H368.887C368.347 486.32 367.367 487.32 365.647 487.32Z" fill="white"/>
<path d="M357.294 486.46C357.294 486.06 357.294 485.74 357.334 485.3H357.294C356.434 486.64 355.054 487.32 353.534 487.32C350.814 487.32 348.474 485.24 348.474 481.4C348.474 477.7 350.814 475.68 353.534 475.68C355.134 475.68 356.494 476.38 357.294 477.7H357.334C357.294 477.24 357.294 476.9 357.294 476.48V471H359.494V487H357.294V486.46ZM354.094 485.42C356.114 485.4 357.294 483.62 357.294 481.38C357.294 479.26 356.114 477.6 354.094 477.58C352.074 477.56 350.754 479.1 350.754 481.4C350.754 483.8 352.074 485.44 354.094 485.42Z" fill="white"/>
<path d="M341.787 487.32C338.707 487.32 336.267 485.22 336.267 481.5C336.267 477.76 338.707 475.68 341.787 475.68C344.867 475.68 347.307 477.76 347.307 481.5C347.307 485.22 344.867 487.32 341.787 487.32ZM341.787 485.42C343.587 485.4 345.027 484.16 345.027 481.5C345.027 478.82 343.587 477.6 341.787 477.58C339.987 477.56 338.547 478.82 338.547 481.5C338.547 484.16 339.987 485.44 341.787 485.42Z" fill="white"/>
<path d="M329.603 487V476H331.763V477.7H331.803C332.383 476.76 333.383 475.68 335.003 475.68H335.943V477.58H334.763C332.963 477.58 331.803 478.68 331.803 480.8V487H329.603Z" fill="white"/>
<path d="M322.682 473C325.282 473 327.542 474.62 327.542 477.34C327.542 480.06 325.282 481.58 322.682 481.58H318.642V487H316.382V473H322.682ZM322.162 479.54C323.922 479.54 325.182 478.72 325.182 477.34C325.182 475.96 323.922 475.04 322.162 475.04H318.642V479.54H322.162Z" fill="white"/>
<path d="M305.804 486.4L306.564 488.3C307.004 489.4 306.304 490.4 305.144 490.4H299.604V488.42H304.324L299.324 476H301.784L304.664 483.84L307.484 476H309.924L305.804 486.4Z" fill="white"/>
<path d="M298.959 477.92H295.979V483.92C295.979 484.66 296.439 485.08 297.099 485.08H298.959V487H296.899C294.859 487 293.779 486.12 293.779 484.06V477.92H291.979V476H293.779V473H295.979V476H298.959V477.92Z" fill="white"/>
<path d="M288.43 474.26V472H290.69V474.26H288.43ZM288.45 487V476H290.65V487H288.45Z" fill="white"/>
<path d="M287.045 477.92H284.065V483.92C284.065 484.66 284.525 485.08 285.185 485.08H287.045V487H284.985C282.945 487 281.865 486.12 281.865 484.06V477.92H280.065V476H281.865V473H284.065V476H287.045V477.92Z" fill="white"/>
<path d="M269.408 487V476H271.568V477.58H271.608C272.168 476.68 273.168 475.68 274.948 475.68C277.348 475.68 278.828 477.4 278.828 480.06V487H276.628V480.24C276.628 478.34 275.648 477.64 274.368 477.64C272.828 477.64 271.608 478.72 271.608 480.8V487H269.408Z" fill="white"/>
<path d="M267.363 485.08H268.023V487H267.043C265.803 487 264.963 486.3 264.663 485.18H264.523C263.643 486.52 262.283 487.32 260.683 487.32C257.963 487.32 255.623 485.28 255.623 481.5C255.623 477.74 257.963 475.68 260.683 475.68C262.183 475.68 263.483 476.22 264.403 477.52H264.443V476H266.643V484.4C266.643 484.84 266.903 485.08 267.363 485.08ZM261.243 485.42C263.243 485.4 264.523 483.58 264.523 481.52C264.523 479.36 263.303 477.6 261.243 477.58C259.243 477.56 257.903 479.18 257.903 481.5C257.903 483.88 259.243 485.44 261.243 485.42Z" fill="white"/>
<path d="M248.381 487.32C246.041 487.32 244.621 485.6 244.621 482.94V476H246.821V482.76C246.821 484.66 247.761 485.36 248.961 485.36C250.441 485.36 251.621 484.28 251.621 482.2V476H253.821V487H251.661V485.42H251.621C251.081 486.32 250.101 487.32 248.381 487.32Z" fill="white"/>
<path d="M242.783 480C242.783 484.38 240.183 486.98 236.663 487.28L236.183 488.42H240.163V490.4H235.323C234.203 490.4 233.503 489.44 233.923 488.34L234.363 487.18C231.263 486.56 229.043 484.04 229.043 480C229.043 475.32 232.023 472.68 235.923 472.68C239.803 472.68 242.783 475.32 242.783 480ZM231.403 480C231.403 483.56 233.423 485.38 235.923 485.36C238.403 485.34 240.423 483.56 240.423 480C240.423 476.42 238.403 474.72 235.923 474.68C233.423 474.64 231.403 476.42 231.403 480Z" fill="white"/>
<path d="M12.96 164.638L12.96 167.618L18.92 167.618C19.66 167.618 20.08 167.158 20.08 166.498L20.08 164.638L22 164.638L22 166.698C22 168.718 21.1 169.818 19.06 169.818L12.96 169.818L12.96 176.118C12.96 177.538 13.44 178.298 14.14 178.298C15 178.298 15.32 177.918 15.34 176.018L15.34 175.598C15.34 173.118 16.72 171.518 18.76 171.518C20.54 171.518 22.32 173.118 22.32 176.198C22.32 178.758 20.64 180.638 18.36 180.778L18.36 178.478C19.56 178.358 20.42 177.478 20.42 176.198C20.42 174.758 19.7 173.798 18.76 173.798C17.7 173.798 17.26 174.378 17.26 176.278L17.26 176.878C17.26 178.938 16.12 180.578 14.14 180.578C12.64 180.578 11.04 179.098 11.04 176.118L11.04 169.818L8 169.818L8 167.618L11.04 167.618L11.04 164.638L12.96 164.638Z" fill="white"/>
<path d="M22.3199 187.505C22.3199 190.585 20.2199 193.025 16.4999 193.025C12.7599 193.025 10.6799 190.585 10.6799 187.505C10.6799 184.425 12.7599 181.985 16.4999 181.985C20.2199 181.985 22.3199 184.425 22.3199 187.505ZM20.4199 187.505C20.3999 185.705 19.1599 184.265 16.4999 184.265C13.8199 184.265 12.5999 185.705 12.5799 187.505C12.5599 189.305 13.8199 190.745 16.4999 190.745C19.1599 190.745 20.4399 189.305 20.4199 187.505Z" fill="white"/>
<path d="M22.3199 200.75C22.3199 204.93 19.4199 207.77 14.9799 207.77C10.6799 207.77 7.67993 205.13 7.67993 200.75C7.67993 196.69 10.2599 194.45 13.3599 194.13L13.3599 196.49C11.3799 196.65 9.63993 198.13 9.63993 200.75C9.63993 203.63 11.8599 205.41 14.9799 205.41C18.2799 205.41 20.3599 203.37 20.3599 200.75C20.3599 198.17 18.4599 196.71 16.8999 196.49L16.8999 194.13C19.7799 194.53 22.3199 196.81 22.3199 200.75Z" fill="white"/>
<path d="M15.4999 214.007L17.2799 214.007L17.2799 222.307C19.2399 222.047 20.4199 220.847 20.4199 219.207C20.4199 217.927 19.6999 216.887 18.6199 216.507L18.6199 214.107C20.7599 214.567 22.3199 216.547 22.3199 219.207C22.3199 222.447 19.9999 224.627 16.4999 224.627C12.8599 224.627 10.6799 222.407 10.6799 219.207C10.6799 216.207 12.7399 214.007 15.4999 214.007ZM12.5799 219.207C12.5799 220.867 13.7599 222.007 15.3199 222.287L15.3199 216.227C13.6999 216.467 12.5799 217.587 12.5799 219.207Z" fill="white"/>
<path d="M10.9999 227.799L10.9999 225.659L21.0399 225.659C24.1999 225.659 25.7999 227.599 25.7999 231.039L25.7999 236.219L23.8999 236.219L23.8999 231.099C23.8999 228.859 22.8399 227.799 20.9399 227.799L20.2399 227.799L20.2399 227.859C21.4399 228.679 21.9599 230.139 21.9599 231.639C21.9599 234.339 19.9599 236.699 16.2999 236.699C12.6799 236.699 10.6799 234.339 10.6799 231.639C10.6799 230.079 11.2199 228.719 12.5199 227.799L12.5199 227.759C12.0799 227.799 11.7199 227.799 11.3199 227.799L10.9999 227.799ZM20.0399 231.079C20.0199 229.019 18.2799 227.799 16.2999 227.799C14.3399 227.799 12.5999 228.959 12.5799 231.079C12.5599 232.999 13.7999 234.399 16.2999 234.399C18.7399 234.399 20.0799 232.999 20.0399 231.079Z" fill="white"/>
<path d="M20.0799 237.926L20.0799 237.266L21.9999 237.266L21.9999 238.246C21.9999 239.486 21.2999 240.326 20.1799 240.626L20.1799 240.766C21.5199 241.646 22.3199 243.006 22.3199 244.606C22.3199 247.326 20.2799 249.666 16.4999 249.666C12.7399 249.666 10.6799 247.326 10.6799 244.606C10.6799 243.106 11.2199 241.806 12.5199 240.886L12.5199 240.846L10.9999 240.846L10.9999 238.646L19.3999 238.646C19.8399 238.646 20.0799 238.386 20.0799 237.926ZM20.4199 244.046C20.3999 242.046 18.5799 240.766 16.5199 240.766C14.3599 240.766 12.5999 241.986 12.5799 244.046C12.5599 246.046 14.1799 247.386 16.4999 247.386C18.8799 247.386 20.4399 246.046 20.4199 244.046Z" fill="white"/>
<path d="M21.9999 256.33L10.9999 256.33L10.9999 254.17L12.6999 254.17L12.6999 254.13C11.7599 253.55 10.6799 252.55 10.6799 250.93L10.6799 249.99L12.5799 249.99L12.5799 251.17C12.5799 252.97 13.6799 254.13 15.7999 254.13L21.9999 254.13L21.9999 256.33Z" fill="white"/>
<path d="M15.4999 258.148L17.2799 258.148L17.2799 266.448C19.2399 266.188 20.4199 264.988 20.4199 263.348C20.4199 262.068 19.6999 261.028 18.6199 260.648L18.6199 258.248C20.7599 258.708 22.3199 260.688 22.3199 263.348C22.3199 266.588 19.9999 268.768 16.4999 268.768C12.8599 268.768 10.6799 266.548 10.6799 263.348C10.6799 260.348 12.7399 258.148 15.4999 258.148ZM12.5799 263.348C12.5799 265.008 13.7599 266.148 15.3199 266.428L15.3199 260.368C13.6999 260.608 12.5799 261.728 12.5799 263.348Z" fill="white"/>
<path d="M11 271.473L11 269.013L22 273.273L22 275.533L11 279.813L11 277.353L19.34 274.413L11 271.473Z" fill="white"/>
<path d="M22 280.875L18.46 282.135L18.46 287.735L22 288.995L22 291.395L8 286.075L8 283.795L22 278.475L22 280.875ZM16.42 287.015L16.42 282.855L10.56 284.935L16.42 287.015Z" fill="white"/>
<path d="M44 3H594V453H44V3Z" fill="#0C162C"/>
<path fill-rule="evenodd" clip-rule="evenodd" d="M26.3223 17.1422L42.2322 1.23224C43.2086 0.255921 44.7915 0.255921 45.7678 1.23224L61.6777 17.1422C62.654 18.1184 62.654 19.7014 61.6777 20.6777C60.7014 21.654 59.1185 21.654 58.1421 20.6777L46.5 9.03555L46.5 450.5L587.964 450.5L576.322 438.858C575.346 437.882 575.346 436.299 576.322 435.322C577.299 434.346 578.882 434.346 579.858 435.322L595.768 451.232C596.744 452.209 596.744 453.791 595.768 454.768L579.858 470.678C578.882 471.654 577.299 471.654 576.322 470.678C575.346 469.701 575.346 468.118 576.322 467.142L587.964 455.5L41.5 455.5L41.5 9.03555L29.8579 20.6777C28.8816 21.654 27.2987 21.654 26.3223 20.6777C25.346 19.7014 25.346 18.1184 26.3223 17.1422Z" fill="#23324D"/>
<path fill-rule="evenodd" clip-rule="evenodd" d="M191.555 274.436C124.478 201.035 99.1926 112.955 96.5027 54.1142L101.497 53.8858C104.141 111.712 129.056 198.632 195.246 271.064C261.362 343.415 368.836 401.5 537 401.5V406.5C367.564 406.5 258.705 347.918 191.555 274.436Z" fill="#2CC6F1"/>
</svg>
