<svg width="599" height="240" viewBox="0 0 599 240" fill="none" xmlns="http://www.w3.org/2000/svg">
<path d="M428.094 234L426.834 230.46H421.234L419.974 234H417.574L422.894 220H425.174L430.494 234H428.094ZM421.954 228.42H426.114L424.034 222.56L421.954 228.42Z" fill="#DFE4EC"/>
<path d="M414.562 226.46C416.022 227 417.062 228.1 417.062 229.76C417.062 232.54 414.962 234 412.442 234H405.902V220H411.982C414.202 220 416.062 221.32 416.062 223.78C416.062 225.02 415.462 225.92 414.562 226.46ZM411.462 222.04H408.162V225.6H411.582C412.842 225.6 413.702 224.84 413.702 223.78C413.702 222.76 412.802 222.04 411.462 222.04ZM411.922 231.96C413.582 231.96 414.702 231.12 414.702 229.76C414.702 228.44 413.542 227.64 411.982 227.64H408.162V231.96H411.922Z" fill="#DFE4EC"/>
<path d="M403.305 220V234H401.045V223.96L397.505 234H394.885L391.365 224.02V234H389.105V220H392.165L396.205 231.46L400.225 220H403.305Z" fill="#DFE4EC"/>
<path d="M372.248 234V223H374.408V224.58H374.448C375.008 223.68 376.008 222.68 377.788 222.68C380.188 222.68 381.668 224.4 381.668 227.06V234H379.468V227.24C379.468 225.34 378.488 224.64 377.208 224.64C375.668 224.64 374.448 225.72 374.448 227.8V234H372.248Z" fill="#DFE4EC"/>
<path d="M370.203 232.08H370.863V234H369.883C368.643 234 367.803 233.3 367.503 232.18H367.363C366.483 233.52 365.123 234.32 363.523 234.32C360.803 234.32 358.463 232.28 358.463 228.5C358.463 224.74 360.803 222.68 363.523 222.68C365.023 222.68 366.323 223.22 367.243 224.52H367.283V223H369.483V231.4C369.483 231.84 369.743 232.08 370.203 232.08ZM364.083 232.42C366.083 232.4 367.363 230.58 367.363 228.52C367.363 226.36 366.143 224.6 364.083 224.58C362.083 224.56 360.743 226.18 360.743 228.5C360.743 230.88 362.083 232.44 364.083 232.42Z" fill="#DFE4EC"/>
<path d="M350.291 223H352.431V233.04C352.431 236.2 350.491 237.8 347.051 237.8H341.871V235.9H346.991C349.231 235.9 350.291 234.84 350.291 232.94V232.24H350.231C349.411 233.44 347.951 233.96 346.451 233.96C343.751 233.96 341.391 231.96 341.391 228.3C341.391 224.68 343.751 222.68 346.451 222.68C348.011 222.68 349.371 223.22 350.291 224.52H350.331C350.291 224.08 350.291 223.72 350.291 223.32V223ZM347.011 232.04C349.071 232.02 350.291 230.28 350.291 228.3C350.291 226.34 349.131 224.6 347.011 224.58C345.091 224.56 343.691 225.8 343.691 228.3C343.691 230.74 345.091 232.08 347.011 232.04Z" fill="#DFE4EC"/>
<path d="M330.334 234V223H332.494V224.58H332.534C333.094 223.68 334.094 222.68 335.874 222.68C338.274 222.68 339.754 224.4 339.754 227.06V234H337.554V227.24C337.554 225.34 336.574 224.64 335.294 224.64C333.754 224.64 332.534 225.72 332.534 227.8V234H330.334Z" fill="#DFE4EC"/>
<path d="M325.645 221.26V219H327.905V221.26H325.645ZM325.665 234V223H327.865V234H325.665Z" fill="#DFE4EC"/>
<path d="M324.266 234H321.606L318.366 229.52L317.046 231.04H317.026V234H314.826V218H317.026V228.1L321.186 223H324.066L319.826 227.86L324.266 234Z" fill="#DFE4EC"/>
<path d="M312.781 232.08H313.441V234H312.461C311.221 234 310.381 233.3 310.081 232.18H309.941C309.061 233.52 307.701 234.32 306.101 234.32C303.381 234.32 301.041 232.28 301.041 228.5C301.041 224.74 303.381 222.68 306.101 222.68C307.601 222.68 308.901 223.22 309.821 224.52H309.861V223H312.061V231.4C312.061 231.84 312.321 232.08 312.781 232.08ZM306.661 232.42C308.661 232.4 309.941 230.58 309.941 228.52C309.941 226.36 308.721 224.6 306.661 224.58C304.661 224.56 303.321 226.18 303.321 228.5C303.321 230.88 304.661 232.44 306.661 232.42Z" fill="#DFE4EC"/>
<path d="M296.265 234V222.04H292.065V220H302.745V222.04H298.545V234H296.265Z" fill="#DFE4EC"/>
<path d="M286.587 220.3C286.027 220.3 285.627 220.82 285.627 221.68V223H287.767V224.92H285.627V234H283.427V224.92H282.167V223H283.427V221.72C283.427 219.72 284.607 218.38 286.627 218.38H288.567V220.3H286.587Z" fill="#DFE4EC"/>
<path d="M275.916 234.32C272.836 234.32 270.396 232.22 270.396 228.5C270.396 224.76 272.836 222.68 275.916 222.68C278.996 222.68 281.436 224.76 281.436 228.5C281.436 232.22 278.996 234.32 275.916 234.32ZM275.916 232.42C277.716 232.4 279.156 231.16 279.156 228.5C279.156 225.82 277.716 224.6 275.916 224.58C274.116 224.56 272.676 225.82 272.676 228.5C272.676 231.16 274.116 232.44 275.916 232.42Z" fill="#DFE4EC"/>
<path d="M264.623 224.96H261.643V230.92C261.643 231.66 262.103 232.08 262.763 232.08H264.623V234H262.563C260.543 234 259.443 233.1 259.443 231.06V224.96H253.143C251.723 224.96 250.963 225.44 250.963 226.14C250.963 227 251.343 227.32 253.243 227.34H253.663C256.143 227.34 257.743 228.72 257.743 230.76C257.743 232.54 256.143 234.32 253.063 234.32C250.503 234.32 248.623 232.64 248.483 230.36H250.783C250.903 231.56 251.783 232.42 253.063 232.42C254.503 232.42 255.463 231.7 255.463 230.76C255.463 229.7 254.883 229.26 252.983 229.26H252.383C250.323 229.26 248.683 228.12 248.683 226.14C248.683 224.64 250.163 223.04 253.143 223.04H259.443V220H261.643V223.04H264.623V224.96Z" fill="#DFE4EC"/>
<path d="M241.756 234.32C238.676 234.32 236.236 232.22 236.236 228.5C236.236 224.76 238.676 222.68 241.756 222.68C244.836 222.68 247.276 224.76 247.276 228.5C247.276 232.22 244.836 234.32 241.756 234.32ZM241.756 232.42C243.556 232.4 244.996 231.16 244.996 228.5C244.996 225.82 243.556 224.6 241.756 224.58C239.956 224.56 238.516 225.82 238.516 228.5C238.516 231.16 239.956 232.44 241.756 232.42Z" fill="#DFE4EC"/>
<path d="M228.512 234.32C224.332 234.32 221.492 231.42 221.492 226.98C221.492 222.68 224.132 219.68 228.512 219.68C232.572 219.68 234.812 222.26 235.132 225.36H232.772C232.612 223.38 231.132 221.64 228.512 221.64C225.632 221.64 223.852 223.86 223.852 226.98C223.852 230.28 225.892 232.36 228.512 232.36C231.092 232.36 232.552 230.46 232.772 228.9H235.132C234.732 231.78 232.452 234.32 228.512 234.32Z" fill="#DFE4EC"/>
<path d="M212.404 234V218H214.604V234H212.404Z" fill="#DFE4EC"/>
<path d="M210.359 232.08H211.019V234H210.039C208.799 234 207.959 233.3 207.659 232.18H207.519C206.639 233.52 205.279 234.32 203.679 234.32C200.959 234.32 198.619 232.28 198.619 228.5C198.619 224.74 200.959 222.68 203.679 222.68C205.179 222.68 206.479 223.22 207.399 224.52H207.439V223H209.639V231.4C209.639 231.84 209.899 232.08 210.359 232.08ZM204.239 232.42C206.239 232.4 207.519 230.58 207.519 228.52C207.519 226.36 206.299 224.6 204.239 224.58C202.239 224.56 200.899 226.18 200.899 228.5C200.899 230.88 202.239 232.44 204.239 232.42Z" fill="#DFE4EC"/>
<path d="M197.932 224.92H194.952V230.92C194.952 231.66 195.412 232.08 196.072 232.08H197.932V234H195.872C193.832 234 192.752 233.12 192.752 231.06V224.92H190.952V223H192.752V220H194.952V223H197.932V224.92Z" fill="#DFE4EC"/>
<path d="M184.94 234.32C181.86 234.32 179.42 232.22 179.42 228.5C179.42 224.76 181.86 222.68 184.94 222.68C188.02 222.68 190.46 224.76 190.46 228.5C190.46 232.22 188.02 234.32 184.94 234.32ZM184.94 232.42C186.74 232.4 188.18 231.16 188.18 228.5C188.18 225.82 186.74 224.6 184.94 224.58C183.14 224.56 181.7 225.82 181.7 228.5C181.7 231.16 183.14 232.44 184.94 232.42Z" fill="#DFE4EC"/>
<path d="M174.644 234V222.04H170.444V220H181.124V222.04H176.924V234H174.644Z" fill="#DFE4EC"/>
<path d="M2 2H256V200H2V2Z" fill="#2CC6F1"/>
<path fill-rule="evenodd" clip-rule="evenodd" d="M0.5 0.5H257.5V201.5H0.5V0.5ZM3.5 3.5V198.5H254.5V3.5H3.5Z" fill="#23324D"/>
<path d="M256 2H597V200H256V2Z" fill="#040D21"/>
<path fill-rule="evenodd" clip-rule="evenodd" d="M254.5 0.5H598.5V201.5H254.5V0.5ZM257.5 3.5V198.5H595.5V3.5H257.5Z" fill="#23324D"/>
<path d="M200.563 77.27C199.483 77.27 198.349 76.946 197.629 76.568V75.002C198.619 75.524 199.645 75.83 200.563 75.83C201.733 75.83 202.381 75.398 202.381 74.588C202.381 74.03 201.967 73.652 201.247 73.49L199.771 73.166C198.385 72.86 197.611 71.996 197.611 70.7C197.611 69.116 198.979 68.072 200.869 68.072C202.057 68.072 202.939 68.36 203.623 68.666V70.25C202.723 69.782 201.715 69.512 200.869 69.512C199.735 69.512 199.231 70.034 199.231 70.7C199.231 71.15 199.555 71.564 200.275 71.726L201.643 72.032C203.209 72.374 204.037 73.274 204.037 74.588C204.037 76.316 202.489 77.27 200.563 77.27Z" fill="#040D21"/>
<path d="M194.598 77.27C193.122 77.27 192.168 76.442 192.168 74.876V69.8H190.602V68.36H192.276V65.804L193.788 64.904V68.36H195.894V69.8H193.788V74.624C193.788 75.416 194.22 75.812 195.084 75.812C195.372 75.812 195.696 75.758 195.894 75.686V77.09C195.75 77.144 195.174 77.27 194.598 77.27Z" fill="#040D21"/>
<path d="M185.956 77.27C184.876 77.27 183.742 76.946 183.022 76.568V75.002C184.012 75.524 185.038 75.83 185.956 75.83C187.126 75.83 187.774 75.398 187.774 74.588C187.774 74.03 187.36 73.652 186.64 73.49L185.164 73.166C183.778 72.86 183.004 71.996 183.004 70.7C183.004 69.116 184.372 68.072 186.262 68.072C187.45 68.072 188.332 68.36 189.016 68.666V70.25C188.116 69.782 187.108 69.512 186.262 69.512C185.128 69.512 184.624 70.034 184.624 70.7C184.624 71.15 184.948 71.564 185.668 71.726L187.036 72.032C188.602 72.374 189.43 73.274 189.43 74.588C189.43 76.316 187.882 77.27 185.956 77.27Z" fill="#040D21"/>
<path d="M176.831 77.27C174.203 77.27 172.277 75.308 172.277 72.662C172.277 70.034 174.203 68.072 176.831 68.072C179.459 68.072 181.385 70.034 181.385 72.662C181.385 75.308 179.459 77.27 176.831 77.27ZM176.831 75.74C178.307 75.74 179.675 74.678 179.675 72.662C179.675 70.664 178.307 69.602 176.831 69.602C175.355 69.602 173.987 70.664 173.987 72.662C173.987 74.678 175.355 75.74 176.831 75.74Z" fill="#040D21"/>
<path d="M166.576 65.732C164.254 65.732 161.914 67.28 161.914 70.7C161.914 74.12 164.254 75.668 166.576 75.668C168.124 75.668 169.456 75.2 170.842 74.318V76.118C169.582 76.784 168.376 77.27 166.576 77.27C163.3 77.27 160.15 75.056 160.15 70.7C160.15 66.344 163.3 64.13 166.576 64.13C168.376 64.13 169.582 64.616 170.842 65.282V67.082C169.456 66.2 168.124 65.732 166.576 65.732Z" fill="#040D21"/>
<path d="M146.197 80.618L148.447 76.046L144.631 68.36H146.503L149.293 74.318L151.975 68.36H153.883L148.105 80.618H146.197Z" fill="#040D21"/>
<path d="M142.339 77.27C140.863 77.27 139.909 76.442 139.909 74.876V69.8H138.343V68.36H140.017V65.804L141.529 64.904V68.36H143.635V69.8H141.529V74.624C141.529 75.416 141.961 75.812 142.825 75.812C143.113 75.812 143.437 75.758 143.635 75.686V77.09C143.491 77.144 142.915 77.27 142.339 77.27Z" fill="#040D21"/>
<path d="M135.715 66.254C135.049 66.254 134.545 65.732 134.545 65.066C134.545 64.382 135.049 63.86 135.715 63.86C136.399 63.86 136.903 64.382 136.903 65.066C136.903 65.732 136.399 66.254 135.715 66.254ZM134.923 77V68.36H136.543V77H134.923Z" fill="#040D21"/>
<path d="M124.745 77V68.36H126.329V69.188C126.923 68.576 127.787 68.072 128.939 68.072C130.595 68.072 132.197 69.188 132.197 71.294V77H130.577V71.708C130.577 70.394 129.641 69.62 128.561 69.62C127.643 69.62 126.923 70.07 126.365 70.772V77H124.745Z" fill="#040D21"/>
<path d="M117.753 77.27C116.097 77.27 114.495 76.154 114.495 74.048V68.36H116.115V73.634C116.115 74.948 117.051 75.722 118.131 75.722C119.049 75.722 119.769 75.29 120.327 74.588V68.36H121.947V77H120.363V76.172C119.769 76.784 118.905 77.27 117.753 77.27Z" fill="#040D21"/>
<path d="M111.032 77.27C109.556 77.27 108.602 76.442 108.602 74.876V69.8H107.036V68.36H108.71V65.804L110.222 64.904V68.36H112.328V69.8H110.222V74.624C110.222 75.416 110.654 75.812 111.518 75.812C111.806 75.812 112.13 75.758 112.328 75.686V77.09C112.184 77.144 111.608 77.27 111.032 77.27Z" fill="#040D21"/>
<path d="M101.049 77V68.36H102.633V69.854C103.083 68.702 104.145 68.072 105.279 68.072C105.549 68.072 105.747 68.108 105.873 68.126V69.926C105.621 69.89 105.333 69.872 105.099 69.872C103.677 69.872 102.903 70.808 102.669 71.636V77H101.049Z" fill="#040D21"/>
<path d="M94.3365 77.27C91.7085 77.27 89.7825 75.308 89.7825 72.662C89.7825 70.034 91.7085 68.072 94.3365 68.072C96.9645 68.072 98.8905 70.034 98.8905 72.662C98.8905 75.308 96.9645 77.27 94.3365 77.27ZM94.3365 75.74C95.8125 75.74 97.1805 74.678 97.1805 72.662C97.1805 70.664 95.8125 69.602 94.3365 69.602C92.8605 69.602 91.4925 70.664 91.4925 72.662C91.4925 74.678 92.8605 75.74 94.3365 75.74Z" fill="#040D21"/>
<path d="M79.7622 80.402V68.36H81.3822V69.26C82.0122 68.612 82.8582 68.072 84.2082 68.072C86.7462 68.072 88.3482 70.106 88.3482 72.644C88.3482 75.218 86.7462 77.27 84.2082 77.27C82.8582 77.27 82.0122 76.712 81.3822 76.064V80.402H79.7622ZM83.9202 75.74C85.5762 75.74 86.6382 74.57 86.6382 72.644C86.6382 70.754 85.5762 69.602 83.9202 69.602C82.7682 69.602 81.9042 70.286 81.3822 71.024V74.3C81.9042 75.038 82.7682 75.74 83.9202 75.74Z" fill="#040D21"/>
<path d="M69.022 80.402V68.36H70.642V69.26C71.272 68.612 72.118 68.072 73.468 68.072C76.006 68.072 77.608 70.106 77.608 72.644C77.608 75.218 76.006 77.27 73.468 77.27C72.118 77.27 71.272 76.712 70.642 76.064V80.402H69.022ZM73.18 75.74C74.836 75.74 75.898 74.57 75.898 72.644C75.898 70.754 74.836 69.602 73.18 69.602C72.028 69.602 71.164 70.286 70.642 71.024V74.3C71.164 75.038 72.028 75.74 73.18 75.74Z" fill="#040D21"/>
<path d="M60.3684 77.27C57.0744 77.27 53.9604 74.966 53.9604 70.7C53.9604 66.434 57.0744 64.13 60.3684 64.13C63.6624 64.13 66.7765 66.434 66.7765 70.7C66.7765 74.966 63.6624 77.27 60.3684 77.27ZM60.3684 75.65C62.7444 75.65 65.0125 73.958 65.0125 70.7C65.0125 67.46 62.7444 65.75 60.3684 65.75C57.9924 65.75 55.7244 67.46 55.7244 70.7C55.7244 73.958 57.9924 75.65 60.3684 75.65Z" fill="#040D21"/>
<path d="M188.543 128.512C182.943 128.512 179.807 124.288 179.807 116.8C179.807 109.312 182.943 105.088 188.543 105.088C194.143 105.088 197.279 109.312 197.279 116.8C197.279 124.288 194.143 128.512 188.543 128.512ZM188.543 125.472C191.743 125.44 193.631 122.528 193.631 116.8C193.631 111.008 191.743 108.192 188.543 108.128C185.343 108.064 183.455 111.008 183.455 116.8C183.455 122.528 185.343 125.504 188.543 125.472Z" fill="#040D21"/>
<path d="M168.825 128.512C163.225 128.512 160.089 124.288 160.089 116.8C160.089 109.312 163.225 105.088 168.825 105.088C174.425 105.088 177.561 109.312 177.561 116.8C177.561 124.288 174.425 128.512 168.825 128.512ZM168.825 125.472C172.025 125.44 173.913 122.528 173.913 116.8C173.913 111.008 172.025 108.192 168.825 108.128C165.625 108.064 163.737 111.008 163.737 116.8C163.737 122.528 165.625 125.504 168.825 125.472Z" fill="#040D21"/>
<path d="M149.106 128.512C143.506 128.512 140.37 124.288 140.37 116.8C140.37 109.312 143.506 105.088 149.106 105.088C154.706 105.088 157.842 109.312 157.842 116.8C157.842 124.288 154.706 128.512 149.106 128.512ZM149.106 125.472C152.306 125.44 154.194 122.528 154.194 116.8C154.194 111.008 152.306 108.192 149.106 108.128C145.906 108.064 144.018 111.008 144.018 116.8C144.018 122.528 145.906 125.504 149.106 125.472Z" fill="#040D21"/>
<path d="M132.728 131.872V130.464C134.008 130.496 135.064 129.632 135.064 128.32V128H132.728V124.256H136.568V128.352C136.568 130.08 134.84 131.904 132.728 131.872Z" fill="#040D21"/>
<path d="M119.793 128.512C114.193 128.512 111.057 124.288 111.057 116.8C111.057 109.312 114.193 105.088 119.793 105.088C125.393 105.088 128.529 109.312 128.529 116.8C128.529 124.288 125.393 128.512 119.793 128.512ZM119.793 125.472C122.993 125.44 124.881 122.528 124.881 116.8C124.881 111.008 122.993 108.192 119.793 108.128C116.593 108.064 114.705 111.008 114.705 116.8C114.705 122.528 116.593 125.504 119.793 125.472Z" fill="#040D21"/>
<path d="M101.521 113.152C105.457 113.152 109.073 116.192 109.073 120.8C109.073 125.536 105.329 128.512 100.593 128.512C96.0813 128.512 93.0733 125.792 92.5293 121.728L96.0493 121.76C96.3053 124 98.2253 125.504 100.689 125.472C103.441 125.44 105.425 123.52 105.425 120.768C105.425 117.984 103.345 116.224 100.721 116.192C98.3213 116.192 96.7213 117.12 96.1453 118.24H92.6573L94.4813 105.6H107.633V108.768H97.5533L96.3053 115.36C97.3933 114.08 99.3453 113.152 101.521 113.152Z" fill="#040D21"/>
<path d="M89.2456 105.6V128H85.7256V111.68H85.6936C85.7896 112.608 84.0616 113.152 82.6856 113.152H80.7336V109.984H82.6856C84.4776 109.984 85.7256 109.152 85.7256 107.104V105.6H89.2456Z" fill="#040D21"/>
<path d="M79.1457 121.376C79.1457 124.448 76.5857 127.776 71.5617 128.32L71.4977 131.072H68.4897L68.4257 128.256C63.8817 127.648 60.7137 124.48 60.5217 120.256H64.3297C64.5217 123.232 67.0177 125.248 70.1537 125.248C73.4177 125.248 75.3697 123.392 75.3697 121.376C75.3697 119.264 73.9297 118.112 69.5457 118.112H68.2977C64.3617 118.112 60.9377 115.776 60.9377 112.032C60.9377 108.8 63.4017 105.472 68.4257 105.056L68.4897 102.4H71.4977L71.5617 105.184C75.8817 105.888 78.4417 108.896 78.7297 112.896H74.9217C74.6977 109.824 72.5217 108.192 69.5137 108.192C66.3137 108.192 64.7457 109.76 64.7457 112.032C64.7457 113.888 65.6417 114.88 70.0577 114.88H70.8897C75.8177 114.88 79.1457 117.664 79.1457 121.376Z" fill="#040D21"/>
<path d="M490.122 128.512C484.522 128.512 481.385 124.288 481.385 116.8C481.385 109.312 484.522 105.088 490.122 105.088C495.722 105.088 498.857 109.312 498.857 116.8C498.857 124.288 495.722 128.512 490.122 128.512ZM490.122 125.472C493.322 125.44 495.21 122.528 495.21 116.8C495.21 111.008 493.322 108.192 490.122 108.128C486.922 108.064 485.034 111.008 485.034 116.8C485.034 122.528 486.922 125.504 490.122 125.472Z" fill="#DFE4EC"/>
<path d="M470.403 128.512C464.803 128.512 461.667 124.288 461.667 116.8C461.667 109.312 464.803 105.088 470.403 105.088C476.003 105.088 479.139 109.312 479.139 116.8C479.139 124.288 476.003 128.512 470.403 128.512ZM470.403 125.472C473.603 125.44 475.491 122.528 475.491 116.8C475.491 111.008 473.603 108.192 470.403 108.128C467.203 108.064 465.315 111.008 465.315 116.8C465.315 122.528 467.203 125.504 470.403 125.472Z" fill="#DFE4EC"/>
<path d="M450.684 128.512C445.084 128.512 441.948 124.288 441.948 116.8C441.948 109.312 445.084 105.088 450.684 105.088C456.284 105.088 459.42 109.312 459.42 116.8C459.42 124.288 456.284 128.512 450.684 128.512ZM450.684 125.472C453.884 125.44 455.772 122.528 455.772 116.8C455.772 111.008 453.884 108.192 450.684 108.128C447.484 108.064 445.596 111.008 445.596 116.8C445.596 122.528 447.484 125.504 450.684 125.472Z" fill="#DFE4EC"/>
<path d="M434.306 131.872V130.464C435.586 130.496 436.642 129.632 436.642 128.32V128H434.306V124.256H438.146V128.352C438.146 130.08 436.418 131.904 434.306 131.872Z" fill="#DFE4EC"/>
<path d="M421.371 128.512C415.771 128.512 412.635 124.288 412.635 116.8C412.635 109.312 415.771 105.088 421.371 105.088C426.971 105.088 430.107 109.312 430.107 116.8C430.107 124.288 426.971 128.512 421.371 128.512ZM421.371 125.472C424.571 125.44 426.459 122.528 426.459 116.8C426.459 111.008 424.571 108.192 421.371 108.128C418.171 108.064 416.283 111.008 416.283 116.8C416.283 122.528 418.171 125.504 421.371 125.472Z" fill="#DFE4EC"/>
<path d="M401.653 128.512C396.053 128.512 392.917 124.288 392.917 116.8C392.917 109.312 396.053 105.088 401.653 105.088C407.253 105.088 410.389 109.312 410.389 116.8C410.389 124.288 407.253 128.512 401.653 128.512ZM401.653 125.472C404.853 125.44 406.741 122.528 406.741 116.8C406.741 111.008 404.853 108.192 401.653 108.128C398.453 108.064 396.565 111.008 396.565 116.8C396.565 122.528 398.453 125.504 401.653 125.472Z" fill="#DFE4EC"/>
<path d="M379.252 124.96H391.316V128H375.06V127.296C375.06 123.104 377.332 120.224 381.524 117.984C386.612 115.264 387.092 113.76 387.092 112.192C387.092 109.28 385.428 108.128 383.06 108.128C380.596 108.128 378.772 109.568 378.772 112.416H375.284C375.284 107.776 378.58 105.088 383.06 105.088C387.668 105.088 390.772 107.648 390.772 112.192C390.772 115.36 389.076 117.568 384.564 119.872C381.428 121.28 379.732 123.008 379.252 124.96Z" fill="#DFE4EC"/>
<path d="M373.568 121.376C373.568 124.448 371.008 127.776 365.984 128.32L365.92 131.072H362.912L362.848 128.256C358.304 127.648 355.136 124.48 354.944 120.256H358.752C358.944 123.232 361.44 125.248 364.576 125.248C367.84 125.248 369.792 123.392 369.792 121.376C369.792 119.264 368.352 118.112 363.968 118.112H362.72C358.784 118.112 355.36 115.776 355.36 112.032C355.36 108.8 357.824 105.472 362.848 105.056L362.912 102.4H365.92L365.984 105.184C370.304 105.888 372.864 108.896 373.152 112.896H369.344C369.12 109.824 366.944 108.192 363.936 108.192C360.736 108.192 359.168 109.76 359.168 112.032C359.168 113.888 360.064 114.88 364.48 114.88H365.312C370.24 114.88 373.568 117.664 373.568 121.376Z" fill="#DFE4EC"/>
<path d="M475.211 77.27C474.131 77.27 472.997 76.946 472.277 76.568V75.002C473.267 75.524 474.293 75.83 475.211 75.83C476.381 75.83 477.029 75.398 477.029 74.588C477.029 74.03 476.615 73.652 475.895 73.49L474.419 73.166C473.033 72.86 472.259 71.996 472.259 70.7C472.259 69.116 473.627 68.072 475.517 68.072C476.705 68.072 477.587 68.36 478.271 68.666V70.25C477.371 69.782 476.363 69.512 475.517 69.512C474.383 69.512 473.879 70.034 473.879 70.7C473.879 71.15 474.203 71.564 474.923 71.726L476.291 72.032C477.857 72.374 478.685 73.274 478.685 74.588C478.685 76.316 477.137 77.27 475.211 77.27Z" fill="#DFE4EC"/>
<path d="M469.246 77.27C467.77 77.27 466.816 76.442 466.816 74.876V69.8H465.25V68.36H466.924V65.804L468.436 64.904V68.36H470.542V69.8H468.436V74.624C468.436 75.416 468.868 75.812 469.732 75.812C470.02 75.812 470.344 75.758 470.542 75.686V77.09C470.398 77.144 469.822 77.27 469.246 77.27Z" fill="#DFE4EC"/>
<path d="M460.603 77.27C459.523 77.27 458.389 76.946 457.669 76.568V75.002C458.659 75.524 459.685 75.83 460.603 75.83C461.773 75.83 462.421 75.398 462.421 74.588C462.421 74.03 462.007 73.652 461.287 73.49L459.811 73.166C458.425 72.86 457.651 71.996 457.651 70.7C457.651 69.116 459.019 68.072 460.909 68.072C462.097 68.072 462.979 68.36 463.663 68.666V70.25C462.763 69.782 461.755 69.512 460.909 69.512C459.775 69.512 459.271 70.034 459.271 70.7C459.271 71.15 459.595 71.564 460.315 71.726L461.683 72.032C463.249 72.374 464.077 73.274 464.077 74.588C464.077 76.316 462.529 77.27 460.603 77.27Z" fill="#DFE4EC"/>
<path d="M451.478 77.27C448.85 77.27 446.924 75.308 446.924 72.662C446.924 70.034 448.85 68.072 451.478 68.072C454.106 68.072 456.032 70.034 456.032 72.662C456.032 75.308 454.106 77.27 451.478 77.27ZM451.478 75.74C452.954 75.74 454.322 74.678 454.322 72.662C454.322 70.664 452.954 69.602 451.478 69.602C450.002 69.602 448.634 70.664 448.634 72.662C448.634 74.678 450.002 75.74 451.478 75.74Z" fill="#DFE4EC"/>
<path d="M441.223 65.732C438.901 65.732 436.561 67.28 436.561 70.7C436.561 74.12 438.901 75.668 441.223 75.668C442.771 75.668 444.103 75.2 445.489 74.318V76.118C444.229 76.784 443.023 77.27 441.223 77.27C437.947 77.27 434.797 75.056 434.797 70.7C434.797 66.344 437.947 64.13 441.223 64.13C443.023 64.13 444.229 64.616 445.489 65.282V67.082C444.103 66.2 442.771 65.732 441.223 65.732Z" fill="#DFE4EC"/>
<path d="M420.845 80.618L423.095 76.046L419.279 68.36H421.151L423.941 74.318L426.623 68.36H428.531L422.753 80.618H420.845Z" fill="#DFE4EC"/>
<path d="M414.118 77.27C412.174 77.27 410.788 76.172 410.788 74.246C410.788 72.464 412.354 71.438 414.118 71.438C415.09 71.438 416.008 71.672 416.566 71.978V71.06C416.566 70.214 415.918 69.512 414.586 69.512C413.326 69.512 412.084 69.998 411.292 70.502V68.864C412.228 68.396 413.29 68.072 414.586 68.072C417.16 68.072 418.186 69.548 418.186 71.24V77H416.62V76.298C416.098 76.802 415.216 77.27 414.118 77.27ZM414.406 75.884C415.432 75.884 416.242 75.344 416.566 75.02V73.436C416.242 73.184 415.396 72.788 414.406 72.788C413.308 72.788 412.48 73.31 412.48 74.246C412.48 75.254 413.308 75.884 414.406 75.884Z" fill="#DFE4EC"/>
<path d="M407.003 77V63.95H408.623V77H407.003Z" fill="#DFE4EC"/>
<path d="M403.451 77.27C401.975 77.27 401.021 76.442 401.021 74.876V69.8H399.455V68.36H401.129V65.804L402.641 64.904V68.36H404.747V69.8H402.641V74.624C402.641 75.416 403.073 75.812 403.937 75.812C404.225 75.812 404.549 75.758 404.747 75.686V77.09C404.603 77.144 404.027 77.27 403.451 77.27Z" fill="#DFE4EC"/>
<path d="M393.543 77.27C391.887 77.27 390.285 76.154 390.285 74.048V68.36H391.905V73.634C391.905 74.948 392.841 75.722 393.921 75.722C394.839 75.722 395.559 75.29 396.117 74.588V68.36H397.737V77H396.153V76.172C395.559 76.784 394.695 77.27 393.543 77.27Z" fill="#DFE4EC"/>
<path d="M381.721 77.27C378.427 77.27 375.313 74.966 375.313 70.7C375.313 66.434 378.427 64.13 381.721 64.13C385.015 64.13 388.129 66.434 388.129 70.7C388.129 74.966 385.015 77.27 381.721 77.27ZM381.721 75.65C384.097 75.65 386.365 73.958 386.365 70.7C386.365 67.46 384.097 65.75 381.721 65.75C379.345 65.75 377.077 67.46 377.077 70.7C377.077 73.958 379.345 75.65 381.721 75.65Z" fill="#DFE4EC"/>
</svg>
